G04 #@! TF.FileFunction,Copper,L2,Bot,Signal*
%FSLAX46Y46*%
G04 Gerber Fmt 4.6, Leading zero omitted, Abs format (unit mm)*
G04 Created by KiCad (PCBNEW 4.0.6) date 07/24/17 16:42:21*
%MOMM*%
%LPD*%
G01*
G04 APERTURE LIST*
%ADD10C,0.100000*%
%ADD11O,1.500000X2.200000*%
%ADD12C,3.500120*%
%ADD13C,2.500000*%
%ADD14C,2.999740*%
%ADD15R,2.997200X2.997200*%
%ADD16R,1.300480X1.498600*%
%ADD17R,1.498600X1.300480*%
%ADD18R,1.800000X1.800000*%
%ADD19C,1.800000*%
%ADD20R,2.199640X1.524000*%
%ADD21O,2.199640X1.524000*%
%ADD22R,0.599440X1.000760*%
%ADD23R,1.998980X5.499100*%
%ADD24O,0.500000X0.500000*%
%ADD25C,1.998980*%
%ADD26C,0.600000*%
%ADD27C,0.400000*%
%ADD28C,0.250000*%
%ADD29C,0.254000*%
G04 APERTURE END LIST*
D10*
D11*
X102000000Y-55500000D03*
X99460000Y-55500000D03*
X96920000Y-55500000D03*
X94380000Y-55500000D03*
X91840000Y-55500000D03*
X89300000Y-55500000D03*
X86760000Y-55500000D03*
X84220000Y-55500000D03*
X81680000Y-55500000D03*
X79140000Y-55500000D03*
X76600000Y-55500000D03*
X74060000Y-55500000D03*
X71520000Y-55500000D03*
X68980000Y-55500000D03*
X66440000Y-55500000D03*
X63900000Y-55500000D03*
D12*
X23000000Y-23000000D03*
X23000000Y-117000000D03*
D13*
X111500000Y-113000000D03*
X106500000Y-113000000D03*
X96500000Y-113000000D03*
X101500000Y-113000000D03*
D14*
X64716800Y-40000000D03*
D15*
X85214600Y-40000000D03*
D16*
X60642500Y-77470000D03*
X58737500Y-77470000D03*
X60642500Y-71882000D03*
X58737500Y-71882000D03*
D17*
X74168000Y-76263500D03*
X74168000Y-78168500D03*
D18*
X32980000Y-80518000D03*
D19*
X27980000Y-80518000D03*
D17*
X76708000Y-76263500D03*
X76708000Y-78168500D03*
D16*
X31178500Y-76962000D03*
X29273500Y-76962000D03*
D17*
X27432000Y-46164500D03*
X27432000Y-44259500D03*
D16*
X93154500Y-74422000D03*
X91249500Y-74422000D03*
D18*
X115316000Y-74648000D03*
D19*
X115316000Y-71148000D03*
D18*
X26388000Y-36068000D03*
D19*
X22888000Y-36068000D03*
D16*
X55181500Y-102870000D03*
X57086500Y-102870000D03*
X49085500Y-102870000D03*
X50990500Y-102870000D03*
D17*
X58166000Y-91757500D03*
X58166000Y-93662500D03*
D16*
X96964500Y-97028000D03*
X95059500Y-97028000D03*
D17*
X55626000Y-93027500D03*
X55626000Y-94932500D03*
D16*
X81470500Y-97028000D03*
X79565500Y-97028000D03*
D13*
X27178000Y-64556000D03*
X27178000Y-69556000D03*
D20*
X44958000Y-79350000D03*
D21*
X44958000Y-76810000D03*
X44958000Y-74270000D03*
X44958000Y-71730000D03*
X44958000Y-69190000D03*
X44958000Y-66650000D03*
D13*
X47500000Y-113000000D03*
X52500000Y-113000000D03*
D17*
X26416000Y-30289500D03*
X26416000Y-32194500D03*
X48260000Y-75247500D03*
X48260000Y-77152500D03*
X58166000Y-82867500D03*
X58166000Y-84772500D03*
X54356000Y-70802500D03*
X54356000Y-68897500D03*
X49530000Y-82867500D03*
X49530000Y-84772500D03*
D19*
X114554000Y-96520000D03*
X114554000Y-91440000D03*
X114554000Y-86360000D03*
X114554000Y-101600000D03*
D22*
X50990500Y-109260640D03*
X50038000Y-107147360D03*
X49085500Y-109260640D03*
D23*
X64516000Y-79425800D03*
X64516000Y-69926200D03*
D24*
X93848000Y-61626000D03*
X93848000Y-62326000D03*
D13*
X77500000Y-113000000D03*
X82500000Y-113000000D03*
D16*
X24955500Y-97028000D03*
X26860500Y-97028000D03*
X35115500Y-97028000D03*
X37020500Y-97028000D03*
D25*
X23657560Y-93776800D03*
X28158440Y-100279200D03*
X28158440Y-93776800D03*
X23657560Y-100279200D03*
X33817560Y-93776800D03*
X38318440Y-100279200D03*
X38318440Y-93776800D03*
X33817560Y-100279200D03*
D12*
X117000000Y-23000000D03*
X117000000Y-117000000D03*
D26*
X53848000Y-82550000D03*
X47498000Y-97218500D03*
X96520000Y-104140000D03*
X90932000Y-91440000D03*
X73152000Y-88646000D03*
X60833000Y-74676000D03*
X60325000Y-67056000D03*
X101727000Y-51181000D03*
X86614000Y-72771000D03*
X73914000Y-80010000D03*
X76708000Y-80264000D03*
X93980000Y-99314000D03*
X87376000Y-101346000D03*
X72898000Y-95504000D03*
X77216000Y-97028000D03*
X64262000Y-111760000D03*
X42227500Y-97218500D03*
X51054000Y-92964000D03*
X24638000Y-41656000D03*
X85344000Y-48641000D03*
X76835000Y-70231000D03*
X65024000Y-75692000D03*
X65024000Y-74676000D03*
X77851000Y-72136000D03*
X77724000Y-73914000D03*
X99187000Y-84582000D03*
X94361000Y-74168000D03*
X74676000Y-74676000D03*
X81534000Y-84328000D03*
X99314000Y-97028000D03*
X83566000Y-97028000D03*
X56388000Y-68580000D03*
X55626000Y-91694000D03*
X59944000Y-91694000D03*
X22606000Y-45974000D03*
X24638000Y-51054000D03*
X101600000Y-74930000D03*
X52832000Y-102108000D03*
X47498000Y-102362000D03*
X27178000Y-28448000D03*
X60833000Y-80264000D03*
X53467000Y-72517000D03*
X56896000Y-70104000D03*
X60452000Y-78994000D03*
X48006000Y-72898000D03*
X77216000Y-71247000D03*
X79248000Y-81153000D03*
X71882000Y-78740000D03*
X50292000Y-69977000D03*
X58928000Y-64008000D03*
X61722000Y-65532000D03*
X58039000Y-81661000D03*
X78994000Y-66929000D03*
X85725000Y-65659000D03*
X54356000Y-60071000D03*
X65151000Y-61214000D03*
X84201000Y-62484000D03*
X54864000Y-72644000D03*
X83058000Y-73279000D03*
X64389000Y-66040000D03*
X83820000Y-90678000D03*
X83312000Y-80264000D03*
X49276000Y-80772000D03*
X89281000Y-67945000D03*
X101092000Y-90932000D03*
X75057000Y-92456000D03*
X51816000Y-80137000D03*
X78867000Y-68834000D03*
X77851000Y-68580000D03*
X77851000Y-65659000D03*
X73406000Y-67056000D03*
X66294000Y-67818000D03*
X71882000Y-66802000D03*
X67056000Y-66802000D03*
X41402000Y-75438000D03*
X80391000Y-53340000D03*
X45212000Y-91694000D03*
X45466000Y-96012000D03*
X96774000Y-88773000D03*
X88265000Y-88138000D03*
X70104000Y-65532000D03*
X64516000Y-65024000D03*
X67310000Y-77216000D03*
X90932000Y-81788000D03*
X72390000Y-79756000D03*
X80264000Y-80264000D03*
X84074000Y-74930000D03*
X79248000Y-89154000D03*
X104521000Y-101346000D03*
X97282000Y-101219000D03*
X66548000Y-76454000D03*
X61468000Y-87376000D03*
X65024000Y-85344000D03*
X67564000Y-82550000D03*
X70485000Y-81661000D03*
X67564000Y-84963000D03*
X71882000Y-77470000D03*
X65532000Y-86614000D03*
X74930000Y-84074000D03*
X78105000Y-84074000D03*
X72263000Y-100076000D03*
X59055000Y-101600000D03*
X50165000Y-100838000D03*
X74422000Y-71882000D03*
X76200000Y-90551000D03*
X74803000Y-90551000D03*
X74295000Y-70993000D03*
X50165000Y-99695000D03*
X58420000Y-100457000D03*
X72136000Y-98933000D03*
D27*
X87376000Y-101346000D02*
X90170000Y-104140000D01*
X90170000Y-104140000D02*
X96520000Y-104140000D01*
X95059500Y-93726000D02*
X92773500Y-91440000D01*
X92773500Y-91440000D02*
X90932000Y-91440000D01*
X60833000Y-74676000D02*
X58737500Y-74676000D01*
X58737500Y-71882000D02*
X58737500Y-69532500D01*
X58737500Y-69532500D02*
X60325000Y-67945000D01*
X60325000Y-67945000D02*
X60325000Y-67056000D01*
X95059500Y-97028000D02*
X95059500Y-93726000D01*
X95059500Y-93726000D02*
X95059500Y-93662500D01*
X91249500Y-76390500D02*
X91249500Y-74422000D01*
X97917000Y-83058000D02*
X91249500Y-76390500D01*
X97917000Y-90805000D02*
X97917000Y-83058000D01*
X95059500Y-93662500D02*
X97917000Y-90805000D01*
X26860500Y-97028000D02*
X26860500Y-95948500D01*
X26035000Y-82463000D02*
X27980000Y-80518000D01*
X26035000Y-95123000D02*
X26035000Y-82463000D01*
X26860500Y-95948500D02*
X26035000Y-95123000D01*
X91840000Y-55500000D02*
X91840000Y-52305000D01*
X102000000Y-51454000D02*
X102000000Y-55500000D01*
X100076000Y-49530000D02*
X101727000Y-51181000D01*
X101727000Y-51181000D02*
X102000000Y-51454000D01*
X94615000Y-49530000D02*
X100076000Y-49530000D01*
X91840000Y-52305000D02*
X94615000Y-49530000D01*
X89789000Y-74422000D02*
X91249500Y-74422000D01*
X88265000Y-74422000D02*
X89789000Y-74422000D01*
X86614000Y-72771000D02*
X88265000Y-74422000D01*
X74168000Y-79756000D02*
X74168000Y-78168500D01*
X73914000Y-80010000D02*
X74168000Y-79756000D01*
X74168000Y-78168500D02*
X76708000Y-78168500D01*
X76708000Y-80264000D02*
X76708000Y-78168500D01*
X95059500Y-97028000D02*
X95059500Y-98234500D01*
X95059500Y-98234500D02*
X93980000Y-99314000D01*
X79565500Y-97028000D02*
X79565500Y-99377500D01*
X81534000Y-101346000D02*
X87376000Y-101346000D01*
X79565500Y-99377500D02*
X81534000Y-101346000D01*
X58166000Y-93662500D02*
X71056500Y-93662500D01*
X74422000Y-97028000D02*
X77216000Y-97028000D01*
X77216000Y-97028000D02*
X79565500Y-97028000D01*
X71056500Y-93662500D02*
X72898000Y-95504000D01*
X72898000Y-95504000D02*
X74422000Y-97028000D01*
X57086500Y-102870000D02*
X57086500Y-108394500D01*
X60452000Y-111760000D02*
X64262000Y-111760000D01*
X57086500Y-108394500D02*
X60452000Y-111760000D01*
X51054000Y-97282000D02*
X50990500Y-97218500D01*
X50990500Y-97218500D02*
X47498000Y-97218500D01*
X47498000Y-97218500D02*
X42227500Y-97218500D01*
X55626000Y-94932500D02*
X55562500Y-94996000D01*
X55562500Y-94996000D02*
X51054000Y-94996000D01*
X50990500Y-102870000D02*
X51054000Y-102806500D01*
X51054000Y-102806500D02*
X51054000Y-97282000D01*
X51054000Y-97282000D02*
X51054000Y-94996000D01*
X51054000Y-94996000D02*
X51054000Y-92964000D01*
X28158440Y-100279200D02*
X30175200Y-100279200D01*
X36235640Y-102362000D02*
X38318440Y-100279200D01*
X32258000Y-102362000D02*
X36235640Y-102362000D01*
X30175200Y-100279200D02*
X32258000Y-102362000D01*
X38318440Y-100279200D02*
X38318440Y-97500440D01*
X38318440Y-97500440D02*
X37846000Y-97028000D01*
X37846000Y-97028000D02*
X37020500Y-97028000D01*
X28158440Y-100279200D02*
X28158440Y-97500440D01*
X27686000Y-97028000D02*
X26860500Y-97028000D01*
X28158440Y-97500440D02*
X27686000Y-97028000D01*
X58737500Y-71882000D02*
X58737500Y-74676000D01*
X58737500Y-74676000D02*
X58737500Y-77470000D01*
X58166000Y-93662500D02*
X58166000Y-94488000D01*
X57721500Y-94932500D02*
X55626000Y-94932500D01*
X58166000Y-94488000D02*
X57721500Y-94932500D01*
X55626000Y-94932500D02*
X55626000Y-97536000D01*
X55626000Y-97536000D02*
X57086500Y-98996500D01*
X57086500Y-98996500D02*
X57086500Y-100584000D01*
X57086500Y-100584000D02*
X57086500Y-102870000D01*
X50038000Y-107147360D02*
X50038000Y-105410000D01*
X50990500Y-104457500D02*
X50990500Y-102870000D01*
X50038000Y-105410000D02*
X50990500Y-104457500D01*
X44958000Y-74270000D02*
X35662000Y-74270000D01*
X30948000Y-69556000D02*
X27178000Y-69556000D01*
X35662000Y-74270000D02*
X30948000Y-69556000D01*
X27432000Y-44259500D02*
X27432000Y-42926000D01*
X26162000Y-41656000D02*
X24638000Y-41656000D01*
X27432000Y-42926000D02*
X26162000Y-41656000D01*
X27980000Y-80518000D02*
X27980000Y-80224000D01*
X27980000Y-80224000D02*
X29273500Y-78930500D01*
X29273500Y-78930500D02*
X29273500Y-76962000D01*
X27178000Y-69556000D02*
X27178000Y-73152000D01*
X29273500Y-75247500D02*
X29273500Y-76962000D01*
X27178000Y-73152000D02*
X29273500Y-75247500D01*
X85471000Y-48768000D02*
X85344000Y-48641000D01*
X85471000Y-62738000D02*
X85471000Y-48768000D01*
X84709000Y-63500000D02*
X85471000Y-62738000D01*
X77851000Y-63500000D02*
X84709000Y-63500000D01*
X77089000Y-64262000D02*
X77851000Y-63500000D01*
X77089000Y-67945000D02*
X77089000Y-64262000D01*
X76835000Y-68199000D02*
X77089000Y-67945000D01*
X76835000Y-70231000D02*
X76835000Y-68199000D01*
D28*
X64516000Y-76200000D02*
X64516000Y-79425800D01*
X65024000Y-75692000D02*
X64516000Y-76200000D01*
X64516000Y-79425800D02*
X64338200Y-79248000D01*
X64338200Y-79248000D02*
X62992000Y-79248000D01*
X62992000Y-79248000D02*
X62484000Y-78740000D01*
X62484000Y-78740000D02*
X62484000Y-77978000D01*
X62484000Y-77978000D02*
X61976000Y-77470000D01*
X61976000Y-77470000D02*
X60642500Y-77470000D01*
X65024000Y-74676000D02*
X64516000Y-74168000D01*
X64516000Y-74168000D02*
X64516000Y-69926200D01*
X60642500Y-71882000D02*
X61976000Y-71882000D01*
X61976000Y-71882000D02*
X63931800Y-69926200D01*
X63931800Y-69926200D02*
X64516000Y-69926200D01*
D27*
X81470500Y-94742000D02*
X74676000Y-94742000D01*
X71628000Y-91694000D02*
X59944000Y-91694000D01*
X74676000Y-94742000D02*
X71628000Y-91694000D01*
X76708000Y-76263500D02*
X76708000Y-74930000D01*
X93154500Y-73469500D02*
X93154500Y-74422000D01*
X90932000Y-71247000D02*
X93154500Y-73469500D01*
X78740000Y-71247000D02*
X90932000Y-71247000D01*
X77851000Y-72136000D02*
X78740000Y-71247000D01*
X76708000Y-74930000D02*
X77724000Y-73914000D01*
X99187000Y-84582000D02*
X99187000Y-91694000D01*
X99187000Y-91694000D02*
X101917500Y-94424500D01*
X83566000Y-97028000D02*
X87376000Y-97028000D01*
X96964500Y-99250500D02*
X96964500Y-97028000D01*
X95377000Y-100838000D02*
X96964500Y-99250500D01*
X91186000Y-100838000D02*
X95377000Y-100838000D01*
X87376000Y-97028000D02*
X91186000Y-100838000D01*
X96266000Y-74168000D02*
X94361000Y-74168000D01*
X99187000Y-77089000D02*
X96266000Y-74168000D01*
X99187000Y-84582000D02*
X99187000Y-77089000D01*
X94107000Y-74422000D02*
X93154500Y-74422000D01*
X94361000Y-74168000D02*
X94107000Y-74422000D01*
X26388000Y-36068000D02*
X26388000Y-32222500D01*
X26388000Y-32222500D02*
X26416000Y-32194500D01*
X74168000Y-75184000D02*
X74168000Y-76263500D01*
X74676000Y-74676000D02*
X74168000Y-75184000D01*
X74168000Y-76263500D02*
X76708000Y-76263500D01*
X114554000Y-91440000D02*
X104902000Y-91440000D01*
X104902000Y-91440000D02*
X101917500Y-94424500D01*
X101917500Y-94424500D02*
X99314000Y-97028000D01*
X81470500Y-97028000D02*
X81470500Y-94742000D01*
X81470500Y-94742000D02*
X81470500Y-84391500D01*
X81470500Y-84391500D02*
X81534000Y-84328000D01*
X96964500Y-97028000D02*
X99314000Y-97028000D01*
X81470500Y-97028000D02*
X83566000Y-97028000D01*
X55626000Y-91694000D02*
X58102500Y-91694000D01*
X58102500Y-91694000D02*
X58166000Y-91757500D01*
X54356000Y-68897500D02*
X52514500Y-68897500D01*
X50355500Y-77152500D02*
X48260000Y-77152500D01*
X51562000Y-75946000D02*
X50355500Y-77152500D01*
X51562000Y-69850000D02*
X51562000Y-75946000D01*
X52514500Y-68897500D02*
X51562000Y-69850000D01*
X66440000Y-55500000D02*
X66440000Y-58528000D01*
X56070500Y-68897500D02*
X54356000Y-68897500D01*
X66440000Y-58528000D02*
X56388000Y-68580000D01*
X56388000Y-68580000D02*
X56070500Y-68897500D01*
X59944000Y-91694000D02*
X59944000Y-89662000D01*
X59944000Y-89662000D02*
X58166000Y-87884000D01*
X58166000Y-87884000D02*
X58166000Y-84772500D01*
X55626000Y-91694000D02*
X55626000Y-93027500D01*
X59880500Y-91757500D02*
X58166000Y-91757500D01*
X59944000Y-91694000D02*
X59880500Y-91757500D01*
X48260000Y-77152500D02*
X48260000Y-79756000D01*
X48260000Y-79756000D02*
X46990000Y-81026000D01*
X46990000Y-81026000D02*
X46990000Y-83566000D01*
X46990000Y-83566000D02*
X48196500Y-84772500D01*
X48196500Y-84772500D02*
X49530000Y-84772500D01*
X49530000Y-84772500D02*
X58166000Y-84772500D01*
X44958000Y-76810000D02*
X46076000Y-76810000D01*
X46076000Y-76810000D02*
X46418500Y-77152500D01*
X46418500Y-77152500D02*
X48260000Y-77152500D01*
X27432000Y-46164500D02*
X22796500Y-46164500D01*
X22796500Y-46164500D02*
X22606000Y-45974000D01*
X29464000Y-51054000D02*
X24638000Y-51054000D01*
X33274000Y-47244000D02*
X29464000Y-51054000D01*
X101092000Y-47244000D02*
X33274000Y-47244000D01*
X104648000Y-50800000D02*
X101092000Y-47244000D01*
X104648000Y-71882000D02*
X104648000Y-50800000D01*
X101600000Y-74930000D02*
X104648000Y-71882000D01*
X32980000Y-80518000D02*
X32004000Y-80518000D01*
X31178500Y-79692500D02*
X31178500Y-76962000D01*
X32004000Y-80518000D02*
X31178500Y-79692500D01*
D28*
X55181500Y-102870000D02*
X53594000Y-102870000D01*
X53594000Y-102870000D02*
X52832000Y-102108000D01*
X48006000Y-102870000D02*
X49085500Y-102870000D01*
X47498000Y-102362000D02*
X48006000Y-102870000D01*
X26416000Y-30289500D02*
X26416000Y-29210000D01*
X26416000Y-29210000D02*
X27178000Y-28448000D01*
X53467000Y-76327000D02*
X57404000Y-80264000D01*
X57404000Y-80264000D02*
X60833000Y-80264000D01*
X53467000Y-76327000D02*
X53467000Y-72517000D01*
X56896000Y-78232000D02*
X56896000Y-70104000D01*
X58166000Y-79502000D02*
X56896000Y-78232000D01*
X59944000Y-79502000D02*
X58166000Y-79502000D01*
X60452000Y-78994000D02*
X59944000Y-79502000D01*
X48260000Y-73152000D02*
X48260000Y-75247500D01*
X48006000Y-72898000D02*
X48260000Y-73152000D01*
X77216000Y-71247000D02*
X76581000Y-71247000D01*
X72009000Y-63119000D02*
X76073000Y-67183000D01*
X76073000Y-70739000D02*
X76073000Y-67183000D01*
X76073000Y-70739000D02*
X76200000Y-70866000D01*
X76200000Y-70866000D02*
X76581000Y-71247000D01*
X75565000Y-82677000D02*
X77724000Y-82677000D01*
X77724000Y-82677000D02*
X79248000Y-81153000D01*
X71882000Y-78740000D02*
X71374000Y-79248000D01*
X72263000Y-82677000D02*
X75565000Y-82677000D01*
X71374000Y-81788000D02*
X72263000Y-82677000D01*
X71374000Y-79248000D02*
X71374000Y-81788000D01*
X50292000Y-69977000D02*
X50292000Y-69469000D01*
X50292000Y-69469000D02*
X55753000Y-64008000D01*
X55753000Y-64008000D02*
X58928000Y-64008000D01*
X61722000Y-65532000D02*
X64135000Y-63119000D01*
X64135000Y-63119000D02*
X72009000Y-63119000D01*
X58166000Y-82867500D02*
X58166000Y-81788000D01*
X58166000Y-81788000D02*
X58039000Y-81661000D01*
X85725000Y-65659000D02*
X81534000Y-65659000D01*
X42774000Y-71730000D02*
X42037000Y-70993000D01*
X42037000Y-70993000D02*
X42037000Y-64643000D01*
X42037000Y-64643000D02*
X46609000Y-60071000D01*
X46609000Y-60071000D02*
X54356000Y-60071000D01*
X65151000Y-61214000D02*
X82931000Y-61214000D01*
X82931000Y-61214000D02*
X84201000Y-62484000D01*
X42774000Y-71730000D02*
X44958000Y-71730000D01*
X80264000Y-65659000D02*
X78994000Y-66929000D01*
X81534000Y-65659000D02*
X80264000Y-65659000D01*
X54356000Y-70802500D02*
X54356000Y-72136000D01*
X54356000Y-72136000D02*
X54864000Y-72644000D01*
X77343000Y-72771000D02*
X75438000Y-70866000D01*
X75438000Y-67818000D02*
X73152000Y-65532000D01*
X75438000Y-70866000D02*
X75438000Y-67818000D01*
X77343000Y-72771000D02*
X82550000Y-72771000D01*
X82550000Y-72771000D02*
X83058000Y-73279000D01*
X82550000Y-72771000D02*
X83058000Y-73279000D01*
X71755000Y-65532000D02*
X73152000Y-65532000D01*
X70993000Y-66294000D02*
X71755000Y-65532000D01*
X69215000Y-66294000D02*
X70993000Y-66294000D01*
X68834000Y-65913000D02*
X69215000Y-66294000D01*
X64516000Y-65913000D02*
X68834000Y-65913000D01*
X64389000Y-66040000D02*
X64516000Y-65913000D01*
X83820000Y-90678000D02*
X83820000Y-80772000D01*
X83820000Y-80772000D02*
X83312000Y-80264000D01*
X49530000Y-82867500D02*
X49530000Y-81026000D01*
X49530000Y-81026000D02*
X49276000Y-80772000D01*
X75057000Y-92456000D02*
X71882000Y-89281000D01*
X71882000Y-89281000D02*
X61595000Y-89281000D01*
X89281000Y-67945000D02*
X92710000Y-67945000D01*
X92710000Y-67945000D02*
X101092000Y-76327000D01*
X101092000Y-76327000D02*
X101092000Y-90932000D01*
X60198000Y-82169000D02*
X58928000Y-80899000D01*
X61595000Y-89281000D02*
X60198000Y-87884000D01*
X60198000Y-87884000D02*
X60198000Y-82169000D01*
X52578000Y-80899000D02*
X51816000Y-80137000D01*
X58928000Y-80899000D02*
X52578000Y-80899000D01*
X78867000Y-68834000D02*
X85344000Y-68834000D01*
X85344000Y-68834000D02*
X92837000Y-61341000D01*
X94380000Y-59163000D02*
X94380000Y-55500000D01*
X92837000Y-60706000D02*
X94380000Y-59163000D01*
X92837000Y-61341000D02*
X92837000Y-60706000D01*
X77851000Y-68580000D02*
X77851000Y-65659000D01*
X66294000Y-67818000D02*
X72644000Y-67818000D01*
X72644000Y-67818000D02*
X73406000Y-67056000D01*
X67056000Y-66802000D02*
X71882000Y-66802000D01*
X42520000Y-79350000D02*
X44958000Y-79350000D01*
X41402000Y-78232000D02*
X42520000Y-79350000D01*
X41402000Y-75438000D02*
X41402000Y-78232000D01*
X48158000Y-69190000D02*
X44958000Y-69190000D01*
X57404000Y-59944000D02*
X48158000Y-69190000D01*
X57404000Y-57658000D02*
X57404000Y-59944000D01*
X62738000Y-52324000D02*
X57404000Y-57658000D01*
X79375000Y-52324000D02*
X62738000Y-52324000D01*
X80391000Y-53340000D02*
X79375000Y-52324000D01*
X45212000Y-95758000D02*
X45212000Y-91694000D01*
X45466000Y-96012000D02*
X45212000Y-95758000D01*
X47500000Y-113000000D02*
X47500000Y-112266000D01*
X47500000Y-112266000D02*
X49085500Y-110680500D01*
X49085500Y-110680500D02*
X49085500Y-109260640D01*
X52500000Y-113000000D02*
X52500000Y-112190000D01*
X52500000Y-112190000D02*
X50990500Y-110680500D01*
X50990500Y-110680500D02*
X50990500Y-109260640D01*
X96139000Y-88138000D02*
X96774000Y-88773000D01*
X88265000Y-88138000D02*
X96139000Y-88138000D01*
X64516000Y-65024000D02*
X69596000Y-65024000D01*
X69596000Y-65024000D02*
X70104000Y-65532000D01*
X67310000Y-77216000D02*
X72009000Y-72517000D01*
X74987998Y-71558998D02*
X76708000Y-73279000D01*
X74987998Y-70358000D02*
X74987998Y-71558998D01*
X74606998Y-69977000D02*
X74987998Y-70358000D01*
X73406000Y-69977000D02*
X74606998Y-69977000D01*
X72009000Y-71374000D02*
X73406000Y-69977000D01*
X72009000Y-72517000D02*
X72009000Y-71374000D01*
X78232000Y-73279000D02*
X79121000Y-74168000D01*
X79121000Y-74168000D02*
X86614000Y-74168000D01*
X76708000Y-73279000D02*
X78232000Y-73279000D01*
X86614000Y-74168000D02*
X88392000Y-75946000D01*
X88392000Y-75946000D02*
X88392000Y-79248000D01*
X88392000Y-79248000D02*
X90932000Y-81788000D01*
X80264000Y-80264000D02*
X78105000Y-80264000D01*
X78105000Y-80264000D02*
X76835000Y-81534000D01*
X76073000Y-81534000D02*
X76835000Y-81534000D01*
X72390000Y-79756000D02*
X72390000Y-80772000D01*
X73152000Y-81534000D02*
X76073000Y-81534000D01*
X72390000Y-80772000D02*
X73152000Y-81534000D01*
X84074000Y-77978000D02*
X84074000Y-74930000D01*
X79248000Y-82804000D02*
X84074000Y-77978000D01*
X79248000Y-89154000D02*
X79248000Y-82804000D01*
X97409000Y-101346000D02*
X104521000Y-101346000D01*
X97282000Y-101219000D02*
X97409000Y-101346000D01*
X66548000Y-82296000D02*
X61468000Y-87376000D01*
X66548000Y-76454000D02*
X66548000Y-82296000D01*
X67564000Y-82804000D02*
X67564000Y-82550000D01*
X65024000Y-85344000D02*
X67564000Y-82804000D01*
X65532000Y-86614000D02*
X65913000Y-86614000D01*
X67564000Y-84963000D02*
X65913000Y-86614000D01*
X70485000Y-78867000D02*
X71882000Y-77470000D01*
X70485000Y-81661000D02*
X70485000Y-78867000D01*
X78105000Y-84074000D02*
X74930000Y-84074000D01*
X23657560Y-93776800D02*
X23657560Y-97028000D01*
X23657560Y-97028000D02*
X23622000Y-97028000D01*
X72263000Y-100076000D02*
X70739000Y-101600000D01*
X70739000Y-101600000D02*
X59055000Y-101600000D01*
X50165000Y-100838000D02*
X43053000Y-100838000D01*
X43053000Y-100838000D02*
X39243000Y-104648000D01*
X39243000Y-104648000D02*
X23876000Y-104648000D01*
X23876000Y-104648000D02*
X21463000Y-102235000D01*
X21463000Y-102235000D02*
X21463000Y-98044000D01*
X21463000Y-98044000D02*
X22479000Y-97028000D01*
X22479000Y-97028000D02*
X23622000Y-97028000D01*
X69342000Y-81280000D02*
X69342000Y-81661000D01*
X74422000Y-72898000D02*
X69342000Y-77978000D01*
X69342000Y-77978000D02*
X69342000Y-81280000D01*
X74422000Y-71882000D02*
X74422000Y-72898000D01*
X76200000Y-88519000D02*
X76200000Y-90551000D01*
X69342000Y-81661000D02*
X76200000Y-88519000D01*
X23622000Y-97028000D02*
X24955500Y-97028000D01*
X24955500Y-97028000D02*
X23876000Y-97028000D01*
X23657560Y-96809560D02*
X23657560Y-93776800D01*
X67945000Y-81661000D02*
X74803000Y-88519000D01*
X74803000Y-88519000D02*
X74803000Y-90551000D01*
X74295000Y-70993000D02*
X73533000Y-70993000D01*
X67945000Y-77978000D02*
X67945000Y-81280000D01*
X72644000Y-73279000D02*
X67945000Y-77978000D01*
X72644000Y-71882000D02*
X72644000Y-73279000D01*
X73533000Y-70993000D02*
X72644000Y-71882000D01*
X67945000Y-81280000D02*
X67945000Y-81661000D01*
X36408360Y-91186000D02*
X33817560Y-93776800D01*
X38735000Y-91186000D02*
X36408360Y-91186000D01*
X40386000Y-92837000D02*
X38735000Y-91186000D01*
X40386000Y-97790000D02*
X40386000Y-92837000D01*
X42291000Y-99695000D02*
X40386000Y-97790000D01*
X50165000Y-99695000D02*
X42291000Y-99695000D01*
X59944000Y-98933000D02*
X58420000Y-100457000D01*
X72136000Y-98933000D02*
X59944000Y-98933000D01*
X35115500Y-97028000D02*
X34036000Y-97028000D01*
X33817560Y-96809560D02*
X33817560Y-93776800D01*
X34036000Y-97028000D02*
X33817560Y-96809560D01*
D29*
G36*
X115650737Y-20976866D02*
X114979224Y-21647208D01*
X114615355Y-22523501D01*
X114614527Y-23472336D01*
X114976866Y-24349263D01*
X115647208Y-25020776D01*
X116523501Y-25384645D01*
X117472336Y-25385473D01*
X118349263Y-25023134D01*
X119020776Y-24352792D01*
X119290000Y-23704429D01*
X119290000Y-116296602D01*
X119023134Y-115650737D01*
X118352792Y-114979224D01*
X117476499Y-114615355D01*
X116527664Y-114614527D01*
X115650737Y-114976866D01*
X114979224Y-115647208D01*
X114615355Y-116523501D01*
X114614527Y-117472336D01*
X114976866Y-118349263D01*
X115647208Y-119020776D01*
X116295571Y-119290000D01*
X23703398Y-119290000D01*
X24349263Y-119023134D01*
X25020776Y-118352792D01*
X25384645Y-117476499D01*
X25385473Y-116527664D01*
X25023134Y-115650737D01*
X24352792Y-114979224D01*
X23476499Y-114615355D01*
X22527664Y-114614527D01*
X21650737Y-114976866D01*
X20979224Y-115647208D01*
X20710000Y-116295571D01*
X20710000Y-113373305D01*
X45614674Y-113373305D01*
X45901043Y-114066372D01*
X46430839Y-114597093D01*
X47123405Y-114884672D01*
X47873305Y-114885326D01*
X48566372Y-114598957D01*
X49097093Y-114069161D01*
X49384672Y-113376595D01*
X49385326Y-112626695D01*
X49098957Y-111933628D01*
X49003149Y-111837653D01*
X49622901Y-111217901D01*
X49787648Y-110971339D01*
X49845500Y-110680500D01*
X49845500Y-110212174D01*
X49981651Y-110012910D01*
X50032660Y-109761020D01*
X50032660Y-108760260D01*
X50043340Y-108760260D01*
X50043340Y-109761020D01*
X50087618Y-109996337D01*
X50226690Y-110212461D01*
X50230500Y-110215064D01*
X50230500Y-110680500D01*
X50288352Y-110971339D01*
X50453099Y-111217901D01*
X51034587Y-111799389D01*
X50902907Y-111930839D01*
X50615328Y-112623405D01*
X50614674Y-113373305D01*
X50901043Y-114066372D01*
X51430839Y-114597093D01*
X52123405Y-114884672D01*
X52873305Y-114885326D01*
X53566372Y-114598957D01*
X54097093Y-114069161D01*
X54384672Y-113376595D01*
X54384674Y-113373305D01*
X75614674Y-113373305D01*
X75901043Y-114066372D01*
X76430839Y-114597093D01*
X77123405Y-114884672D01*
X77873305Y-114885326D01*
X78566372Y-114598957D01*
X79097093Y-114069161D01*
X79384672Y-113376595D01*
X79384674Y-113373305D01*
X80614674Y-113373305D01*
X80901043Y-114066372D01*
X81430839Y-114597093D01*
X82123405Y-114884672D01*
X82873305Y-114885326D01*
X83566372Y-114598957D01*
X84097093Y-114069161D01*
X84384672Y-113376595D01*
X84384674Y-113373305D01*
X94614674Y-113373305D01*
X94901043Y-114066372D01*
X95430839Y-114597093D01*
X96123405Y-114884672D01*
X96873305Y-114885326D01*
X97566372Y-114598957D01*
X98097093Y-114069161D01*
X98384672Y-113376595D01*
X98384674Y-113373305D01*
X99614674Y-113373305D01*
X99901043Y-114066372D01*
X100430839Y-114597093D01*
X101123405Y-114884672D01*
X101873305Y-114885326D01*
X102566372Y-114598957D01*
X102832472Y-114333320D01*
X105346285Y-114333320D01*
X105475533Y-114626123D01*
X106175806Y-114894388D01*
X106925435Y-114874250D01*
X107524467Y-114626123D01*
X107653715Y-114333320D01*
X106500000Y-113179605D01*
X105346285Y-114333320D01*
X102832472Y-114333320D01*
X103097093Y-114069161D01*
X103384672Y-113376595D01*
X103385283Y-112675806D01*
X104605612Y-112675806D01*
X104625750Y-113425435D01*
X104873877Y-114024467D01*
X105166680Y-114153715D01*
X106320395Y-113000000D01*
X106679605Y-113000000D01*
X107833320Y-114153715D01*
X108126123Y-114024467D01*
X108375574Y-113373305D01*
X109614674Y-113373305D01*
X109901043Y-114066372D01*
X110430839Y-114597093D01*
X111123405Y-114884672D01*
X111873305Y-114885326D01*
X112566372Y-114598957D01*
X113097093Y-114069161D01*
X113384672Y-113376595D01*
X113385326Y-112626695D01*
X113098957Y-111933628D01*
X112569161Y-111402907D01*
X111876595Y-111115328D01*
X111126695Y-111114674D01*
X110433628Y-111401043D01*
X109902907Y-111930839D01*
X109615328Y-112623405D01*
X109614674Y-113373305D01*
X108375574Y-113373305D01*
X108394388Y-113324194D01*
X108374250Y-112574565D01*
X108126123Y-111975533D01*
X107833320Y-111846285D01*
X106679605Y-113000000D01*
X106320395Y-113000000D01*
X105166680Y-111846285D01*
X104873877Y-111975533D01*
X104605612Y-112675806D01*
X103385283Y-112675806D01*
X103385326Y-112626695D01*
X103098957Y-111933628D01*
X102832475Y-111666680D01*
X105346285Y-111666680D01*
X106500000Y-112820395D01*
X107653715Y-111666680D01*
X107524467Y-111373877D01*
X106824194Y-111105612D01*
X106074565Y-111125750D01*
X105475533Y-111373877D01*
X105346285Y-111666680D01*
X102832475Y-111666680D01*
X102569161Y-111402907D01*
X101876595Y-111115328D01*
X101126695Y-111114674D01*
X100433628Y-111401043D01*
X99902907Y-111930839D01*
X99615328Y-112623405D01*
X99614674Y-113373305D01*
X98384674Y-113373305D01*
X98385326Y-112626695D01*
X98098957Y-111933628D01*
X97569161Y-111402907D01*
X96876595Y-111115328D01*
X96126695Y-111114674D01*
X95433628Y-111401043D01*
X94902907Y-111930839D01*
X94615328Y-112623405D01*
X94614674Y-113373305D01*
X84384674Y-113373305D01*
X84385326Y-112626695D01*
X84098957Y-111933628D01*
X83569161Y-111402907D01*
X82876595Y-111115328D01*
X82126695Y-111114674D01*
X81433628Y-111401043D01*
X80902907Y-111930839D01*
X80615328Y-112623405D01*
X80614674Y-113373305D01*
X79384674Y-113373305D01*
X79385326Y-112626695D01*
X79098957Y-111933628D01*
X78569161Y-111402907D01*
X77876595Y-111115328D01*
X77126695Y-111114674D01*
X76433628Y-111401043D01*
X75902907Y-111930839D01*
X75615328Y-112623405D01*
X75614674Y-113373305D01*
X54384674Y-113373305D01*
X54385326Y-112626695D01*
X54098957Y-111933628D01*
X53569161Y-111402907D01*
X52876595Y-111115328D01*
X52499801Y-111114999D01*
X51750500Y-110365698D01*
X51750500Y-110212174D01*
X51886651Y-110012910D01*
X51937660Y-109761020D01*
X51937660Y-108760260D01*
X51893382Y-108524943D01*
X51754310Y-108308819D01*
X51542110Y-108163829D01*
X51290220Y-108112820D01*
X50770665Y-108112820D01*
X50876047Y-108007439D01*
X50972720Y-107774050D01*
X50972720Y-107433110D01*
X50813970Y-107274360D01*
X50165000Y-107274360D01*
X50165000Y-108123990D01*
X50298872Y-108257862D01*
X50239339Y-108296170D01*
X50094349Y-108508370D01*
X50043340Y-108760260D01*
X50032660Y-108760260D01*
X49988382Y-108524943D01*
X49849310Y-108308819D01*
X49776155Y-108258835D01*
X49911000Y-108123990D01*
X49911000Y-107274360D01*
X49262030Y-107274360D01*
X49103280Y-107433110D01*
X49103280Y-107774050D01*
X49199953Y-108007439D01*
X49305335Y-108112820D01*
X48785780Y-108112820D01*
X48550463Y-108157098D01*
X48334339Y-108296170D01*
X48189349Y-108508370D01*
X48138340Y-108760260D01*
X48138340Y-109761020D01*
X48182618Y-109996337D01*
X48321690Y-110212461D01*
X48325500Y-110215064D01*
X48325500Y-110365698D01*
X47576132Y-111115066D01*
X47126695Y-111114674D01*
X46433628Y-111401043D01*
X45902907Y-111930839D01*
X45615328Y-112623405D01*
X45614674Y-113373305D01*
X20710000Y-113373305D01*
X20710000Y-106520670D01*
X49103280Y-106520670D01*
X49103280Y-106861610D01*
X49262030Y-107020360D01*
X49911000Y-107020360D01*
X49911000Y-106170730D01*
X50165000Y-106170730D01*
X50165000Y-107020360D01*
X50813970Y-107020360D01*
X50972720Y-106861610D01*
X50972720Y-106520670D01*
X50876047Y-106287281D01*
X50697418Y-106108653D01*
X50464029Y-106011980D01*
X50323750Y-106011980D01*
X50165000Y-106170730D01*
X49911000Y-106170730D01*
X49752250Y-106011980D01*
X49611971Y-106011980D01*
X49378582Y-106108653D01*
X49199953Y-106287281D01*
X49103280Y-106520670D01*
X20710000Y-106520670D01*
X20710000Y-102270191D01*
X20760852Y-102525839D01*
X20925599Y-102772401D01*
X23338599Y-105185401D01*
X23585160Y-105350148D01*
X23876000Y-105408000D01*
X39243000Y-105408000D01*
X39533839Y-105350148D01*
X39780401Y-105185401D01*
X43367802Y-101598000D01*
X46939889Y-101598000D01*
X46705808Y-101831673D01*
X46563162Y-102175201D01*
X46562838Y-102547167D01*
X46704883Y-102890943D01*
X46967673Y-103154192D01*
X47311201Y-103296838D01*
X47358077Y-103296879D01*
X47468599Y-103407401D01*
X47715161Y-103572148D01*
X47787820Y-103586601D01*
X47787820Y-103619300D01*
X47832098Y-103854617D01*
X47971170Y-104070741D01*
X48183370Y-104215731D01*
X48435260Y-104266740D01*
X49735740Y-104266740D01*
X49971057Y-104222462D01*
X50036078Y-104180622D01*
X50213951Y-104254300D01*
X50704750Y-104254300D01*
X50863500Y-104095550D01*
X50863500Y-102997000D01*
X50843500Y-102997000D01*
X50843500Y-102743000D01*
X50863500Y-102743000D01*
X50863500Y-101644450D01*
X51117500Y-101644450D01*
X51117500Y-102743000D01*
X51137500Y-102743000D01*
X51137500Y-102997000D01*
X51117500Y-102997000D01*
X51117500Y-104095550D01*
X51276250Y-104254300D01*
X51767049Y-104254300D01*
X52000438Y-104157627D01*
X52179067Y-103978999D01*
X52275740Y-103745610D01*
X52275740Y-103155750D01*
X52116992Y-102997002D01*
X52275740Y-102997002D01*
X52275740Y-102874214D01*
X52301673Y-102900192D01*
X52645201Y-103042838D01*
X52692077Y-103042879D01*
X53056599Y-103407401D01*
X53303161Y-103572148D01*
X53594000Y-103630000D01*
X53885833Y-103630000D01*
X53928098Y-103854617D01*
X54067170Y-104070741D01*
X54279370Y-104215731D01*
X54531260Y-104266740D01*
X55831740Y-104266740D01*
X56067057Y-104222462D01*
X56132078Y-104180622D01*
X56309951Y-104254300D01*
X56800750Y-104254300D01*
X56959500Y-104095550D01*
X56959500Y-102997000D01*
X57213500Y-102997000D01*
X57213500Y-104095550D01*
X57372250Y-104254300D01*
X57863049Y-104254300D01*
X58096438Y-104157627D01*
X58275067Y-103978999D01*
X58371740Y-103745610D01*
X58371740Y-103155750D01*
X58212990Y-102997000D01*
X57213500Y-102997000D01*
X56959500Y-102997000D01*
X56939500Y-102997000D01*
X56939500Y-102743000D01*
X56959500Y-102743000D01*
X56959500Y-101644450D01*
X57213500Y-101644450D01*
X57213500Y-102743000D01*
X58212990Y-102743000D01*
X58371740Y-102584250D01*
X58371740Y-102238992D01*
X58524673Y-102392192D01*
X58868201Y-102534838D01*
X59240167Y-102535162D01*
X59583943Y-102393117D01*
X59617118Y-102360000D01*
X70739000Y-102360000D01*
X71029839Y-102302148D01*
X71276401Y-102137401D01*
X72402680Y-101011122D01*
X72448167Y-101011162D01*
X72791943Y-100869117D01*
X73055192Y-100606327D01*
X73197838Y-100262799D01*
X73198162Y-99890833D01*
X73056117Y-99547057D01*
X72941218Y-99431957D01*
X73070838Y-99119799D01*
X73071162Y-98747833D01*
X72929117Y-98404057D01*
X72666327Y-98140808D01*
X72322799Y-97998162D01*
X71950833Y-97997838D01*
X71607057Y-98139883D01*
X71573882Y-98173000D01*
X59944000Y-98173000D01*
X59701414Y-98221254D01*
X59653160Y-98230852D01*
X59406599Y-98395599D01*
X58280320Y-99521878D01*
X58234833Y-99521838D01*
X57891057Y-99663883D01*
X57627808Y-99926673D01*
X57485162Y-100270201D01*
X57484838Y-100642167D01*
X57626883Y-100985943D01*
X57889673Y-101249192D01*
X58144352Y-101354945D01*
X58120162Y-101413201D01*
X58119994Y-101605929D01*
X58096438Y-101582373D01*
X57863049Y-101485700D01*
X57372250Y-101485700D01*
X57213500Y-101644450D01*
X56959500Y-101644450D01*
X56800750Y-101485700D01*
X56309951Y-101485700D01*
X56133905Y-101558621D01*
X56083630Y-101524269D01*
X55831740Y-101473260D01*
X54531260Y-101473260D01*
X54295943Y-101517538D01*
X54079819Y-101656610D01*
X53934829Y-101868810D01*
X53889829Y-102091027D01*
X53767122Y-101968320D01*
X53767162Y-101922833D01*
X53625117Y-101579057D01*
X53362327Y-101315808D01*
X53018799Y-101173162D01*
X52646833Y-101172838D01*
X52303057Y-101314883D01*
X52039808Y-101577673D01*
X52026878Y-101608813D01*
X52000438Y-101582373D01*
X51767049Y-101485700D01*
X51276250Y-101485700D01*
X51117500Y-101644450D01*
X50863500Y-101644450D01*
X50772123Y-101553073D01*
X50957192Y-101368327D01*
X51099838Y-101024799D01*
X51100162Y-100652833D01*
X50958117Y-100309057D01*
X50915790Y-100266656D01*
X50957192Y-100225327D01*
X51099838Y-99881799D01*
X51100162Y-99509833D01*
X50958117Y-99166057D01*
X50695327Y-98902808D01*
X50351799Y-98760162D01*
X49979833Y-98759838D01*
X49636057Y-98901883D01*
X49602882Y-98935000D01*
X42605802Y-98935000D01*
X41146000Y-97475198D01*
X41146000Y-97313750D01*
X78280260Y-97313750D01*
X78280260Y-97903610D01*
X78376933Y-98136999D01*
X78555562Y-98315627D01*
X78788951Y-98412300D01*
X79279750Y-98412300D01*
X79438500Y-98253550D01*
X79438500Y-97155000D01*
X78439010Y-97155000D01*
X78280260Y-97313750D01*
X41146000Y-97313750D01*
X41146000Y-92837000D01*
X41088148Y-92546161D01*
X40923401Y-92299599D01*
X40502969Y-91879167D01*
X44276838Y-91879167D01*
X44418883Y-92222943D01*
X44452000Y-92256118D01*
X44452000Y-95758000D01*
X44509852Y-96048839D01*
X44530940Y-96080399D01*
X44530838Y-96197167D01*
X44672883Y-96540943D01*
X44935673Y-96804192D01*
X45279201Y-96946838D01*
X45651167Y-96947162D01*
X45994943Y-96805117D01*
X46258192Y-96542327D01*
X46400838Y-96198799D01*
X46401162Y-95826833D01*
X46259117Y-95483057D01*
X45996327Y-95219808D01*
X45992576Y-95218250D01*
X54241700Y-95218250D01*
X54241700Y-95709049D01*
X54338373Y-95942438D01*
X54517001Y-96121067D01*
X54750390Y-96217740D01*
X55340250Y-96217740D01*
X55499000Y-96058990D01*
X55499000Y-95059500D01*
X55753000Y-95059500D01*
X55753000Y-96058990D01*
X55911750Y-96217740D01*
X56501610Y-96217740D01*
X56659378Y-96152390D01*
X78280260Y-96152390D01*
X78280260Y-96742250D01*
X78439010Y-96901000D01*
X79438500Y-96901000D01*
X79438500Y-95802450D01*
X79279750Y-95643700D01*
X78788951Y-95643700D01*
X78555562Y-95740373D01*
X78376933Y-95919001D01*
X78280260Y-96152390D01*
X56659378Y-96152390D01*
X56734999Y-96121067D01*
X56913627Y-95942438D01*
X57010300Y-95709049D01*
X57010300Y-95218250D01*
X56851550Y-95059500D01*
X55753000Y-95059500D01*
X55499000Y-95059500D01*
X54400450Y-95059500D01*
X54241700Y-95218250D01*
X45992576Y-95218250D01*
X45972000Y-95209706D01*
X45972000Y-92256463D01*
X46004192Y-92224327D01*
X46146838Y-91880799D01*
X46147162Y-91508833D01*
X46005117Y-91165057D01*
X45742327Y-90901808D01*
X45398799Y-90759162D01*
X45026833Y-90758838D01*
X44683057Y-90900883D01*
X44419808Y-91163673D01*
X44277162Y-91507201D01*
X44276838Y-91879167D01*
X40502969Y-91879167D01*
X39272401Y-90648599D01*
X39025839Y-90483852D01*
X38735000Y-90426000D01*
X36408360Y-90426000D01*
X36117521Y-90483852D01*
X36104080Y-90492833D01*
X35870958Y-90648599D01*
X34308643Y-92210915D01*
X34144107Y-92142594D01*
X33493866Y-92142026D01*
X32892905Y-92390338D01*
X32432714Y-92849727D01*
X32183354Y-93450253D01*
X32182786Y-94100494D01*
X32431098Y-94701455D01*
X32890487Y-95161646D01*
X33057560Y-95231021D01*
X33057560Y-96809560D01*
X33115412Y-97100399D01*
X33280159Y-97346961D01*
X33498599Y-97565401D01*
X33745161Y-97730148D01*
X33817820Y-97744601D01*
X33817820Y-97777300D01*
X33862098Y-98012617D01*
X34001170Y-98228741D01*
X34213370Y-98373731D01*
X34465260Y-98424740D01*
X35765740Y-98424740D01*
X36001057Y-98380462D01*
X36066078Y-98338622D01*
X36243951Y-98412300D01*
X36734750Y-98412300D01*
X36893500Y-98253550D01*
X36893500Y-97155000D01*
X37147500Y-97155000D01*
X37147500Y-98253550D01*
X37306250Y-98412300D01*
X37797049Y-98412300D01*
X38030438Y-98315627D01*
X38209067Y-98136999D01*
X38305740Y-97903610D01*
X38305740Y-97313750D01*
X38146990Y-97155000D01*
X37147500Y-97155000D01*
X36893500Y-97155000D01*
X36873500Y-97155000D01*
X36873500Y-96901000D01*
X36893500Y-96901000D01*
X36893500Y-95802450D01*
X37147500Y-95802450D01*
X37147500Y-96901000D01*
X38146990Y-96901000D01*
X38305740Y-96742250D01*
X38305740Y-96152390D01*
X38209067Y-95919001D01*
X38030438Y-95740373D01*
X37797049Y-95643700D01*
X37306250Y-95643700D01*
X37147500Y-95802450D01*
X36893500Y-95802450D01*
X36734750Y-95643700D01*
X36243951Y-95643700D01*
X36067905Y-95716621D01*
X36017630Y-95682269D01*
X35765740Y-95631260D01*
X34577560Y-95631260D01*
X34577560Y-95231296D01*
X34742215Y-95163262D01*
X35202406Y-94703873D01*
X35451766Y-94103347D01*
X35452334Y-93453106D01*
X35383251Y-93285912D01*
X36723163Y-91946000D01*
X38420198Y-91946000D01*
X38616767Y-92142569D01*
X37994746Y-92142026D01*
X37393785Y-92390338D01*
X36933594Y-92849727D01*
X36684234Y-93450253D01*
X36683666Y-94100494D01*
X36931978Y-94701455D01*
X37391367Y-95161646D01*
X37991893Y-95411006D01*
X38642134Y-95411574D01*
X39243095Y-95163262D01*
X39626000Y-94781024D01*
X39626000Y-97790000D01*
X39683852Y-98080839D01*
X39848599Y-98327401D01*
X41753599Y-100232401D01*
X42000161Y-100397148D01*
X42291000Y-100455000D01*
X42361198Y-100455000D01*
X38928198Y-103888000D01*
X24190802Y-103888000D01*
X22223000Y-101920198D01*
X22223000Y-101087449D01*
X22271098Y-101203855D01*
X22730487Y-101664046D01*
X23331013Y-101913406D01*
X23981254Y-101913974D01*
X24582215Y-101665662D01*
X24816923Y-101431363D01*
X27185883Y-101431363D01*
X27284482Y-101698165D01*
X27894022Y-101924601D01*
X28543817Y-101900541D01*
X29032398Y-101698165D01*
X29130997Y-101431363D01*
X28158440Y-100458805D01*
X27185883Y-101431363D01*
X24816923Y-101431363D01*
X25042406Y-101206273D01*
X25291766Y-100605747D01*
X25292282Y-100014782D01*
X26513039Y-100014782D01*
X26537099Y-100664577D01*
X26739475Y-101153158D01*
X27006277Y-101251757D01*
X27978835Y-100279200D01*
X28338045Y-100279200D01*
X29310603Y-101251757D01*
X29577405Y-101153158D01*
X29781820Y-100602894D01*
X32182786Y-100602894D01*
X32431098Y-101203855D01*
X32890487Y-101664046D01*
X33491013Y-101913406D01*
X34141254Y-101913974D01*
X34742215Y-101665662D01*
X34976923Y-101431363D01*
X37345883Y-101431363D01*
X37444482Y-101698165D01*
X38054022Y-101924601D01*
X38703817Y-101900541D01*
X39192398Y-101698165D01*
X39290997Y-101431363D01*
X38318440Y-100458805D01*
X37345883Y-101431363D01*
X34976923Y-101431363D01*
X35202406Y-101206273D01*
X35451766Y-100605747D01*
X35452282Y-100014782D01*
X36673039Y-100014782D01*
X36697099Y-100664577D01*
X36899475Y-101153158D01*
X37166277Y-101251757D01*
X38138835Y-100279200D01*
X38498045Y-100279200D01*
X39470603Y-101251757D01*
X39737405Y-101153158D01*
X39963841Y-100543618D01*
X39939781Y-99893823D01*
X39737405Y-99405242D01*
X39470603Y-99306643D01*
X38498045Y-100279200D01*
X38138835Y-100279200D01*
X37166277Y-99306643D01*
X36899475Y-99405242D01*
X36673039Y-100014782D01*
X35452282Y-100014782D01*
X35452334Y-99955506D01*
X35204022Y-99354545D01*
X34976911Y-99127037D01*
X37345883Y-99127037D01*
X38318440Y-100099595D01*
X39290997Y-99127037D01*
X39192398Y-98860235D01*
X38582858Y-98633799D01*
X37933063Y-98657859D01*
X37444482Y-98860235D01*
X37345883Y-99127037D01*
X34976911Y-99127037D01*
X34744633Y-98894354D01*
X34144107Y-98644994D01*
X33493866Y-98644426D01*
X32892905Y-98892738D01*
X32432714Y-99352127D01*
X32183354Y-99952653D01*
X32182786Y-100602894D01*
X29781820Y-100602894D01*
X29803841Y-100543618D01*
X29779781Y-99893823D01*
X29577405Y-99405242D01*
X29310603Y-99306643D01*
X28338045Y-100279200D01*
X27978835Y-100279200D01*
X27006277Y-99306643D01*
X26739475Y-99405242D01*
X26513039Y-100014782D01*
X25292282Y-100014782D01*
X25292334Y-99955506D01*
X25044022Y-99354545D01*
X24816911Y-99127037D01*
X27185883Y-99127037D01*
X28158440Y-100099595D01*
X29130997Y-99127037D01*
X29032398Y-98860235D01*
X28422858Y-98633799D01*
X27773063Y-98657859D01*
X27284482Y-98860235D01*
X27185883Y-99127037D01*
X24816911Y-99127037D01*
X24584633Y-98894354D01*
X23984107Y-98644994D01*
X23333866Y-98644426D01*
X22732905Y-98892738D01*
X22272714Y-99352127D01*
X22223000Y-99471852D01*
X22223000Y-98358802D01*
X22793802Y-97788000D01*
X23659833Y-97788000D01*
X23702098Y-98012617D01*
X23841170Y-98228741D01*
X24053370Y-98373731D01*
X24305260Y-98424740D01*
X25605740Y-98424740D01*
X25841057Y-98380462D01*
X25906078Y-98338622D01*
X26083951Y-98412300D01*
X26574750Y-98412300D01*
X26733500Y-98253550D01*
X26733500Y-97155000D01*
X26987500Y-97155000D01*
X26987500Y-98253550D01*
X27146250Y-98412300D01*
X27637049Y-98412300D01*
X27870438Y-98315627D01*
X28049067Y-98136999D01*
X28145740Y-97903610D01*
X28145740Y-97313750D01*
X27986990Y-97155000D01*
X26987500Y-97155000D01*
X26733500Y-97155000D01*
X26713500Y-97155000D01*
X26713500Y-96901000D01*
X26733500Y-96901000D01*
X26733500Y-95802450D01*
X26987500Y-95802450D01*
X26987500Y-96901000D01*
X27986990Y-96901000D01*
X28145740Y-96742250D01*
X28145740Y-96152390D01*
X28049067Y-95919001D01*
X27870438Y-95740373D01*
X27637049Y-95643700D01*
X27146250Y-95643700D01*
X26987500Y-95802450D01*
X26733500Y-95802450D01*
X26574750Y-95643700D01*
X26083951Y-95643700D01*
X25907905Y-95716621D01*
X25857630Y-95682269D01*
X25605740Y-95631260D01*
X24417560Y-95631260D01*
X24417560Y-95231296D01*
X24582215Y-95163262D01*
X25042406Y-94703873D01*
X25291766Y-94103347D01*
X25291768Y-94100494D01*
X26523666Y-94100494D01*
X26771978Y-94701455D01*
X27231367Y-95161646D01*
X27831893Y-95411006D01*
X28482134Y-95411574D01*
X29083095Y-95163262D01*
X29543286Y-94703873D01*
X29792646Y-94103347D01*
X29793214Y-93453106D01*
X29544902Y-92852145D01*
X29085513Y-92391954D01*
X28484987Y-92142594D01*
X27834746Y-92142026D01*
X27233785Y-92390338D01*
X26773594Y-92849727D01*
X26524234Y-93450253D01*
X26523666Y-94100494D01*
X25291768Y-94100494D01*
X25292334Y-93453106D01*
X25044022Y-92852145D01*
X24584633Y-92391954D01*
X23984107Y-92142594D01*
X23333866Y-92142026D01*
X22732905Y-92390338D01*
X22272714Y-92849727D01*
X22023354Y-93450253D01*
X22022786Y-94100494D01*
X22271098Y-94701455D01*
X22730487Y-95161646D01*
X22897560Y-95231021D01*
X22897560Y-96268000D01*
X22479000Y-96268000D01*
X22188161Y-96325852D01*
X21941599Y-96490599D01*
X20925599Y-97506599D01*
X20760852Y-97753161D01*
X20710000Y-98008809D01*
X20710000Y-81598159D01*
X27079446Y-81598159D01*
X27165852Y-81854643D01*
X27739336Y-82064458D01*
X28349460Y-82038839D01*
X28794148Y-81854643D01*
X28880554Y-81598159D01*
X27980000Y-80697605D01*
X27079446Y-81598159D01*
X20710000Y-81598159D01*
X20710000Y-80277336D01*
X26433542Y-80277336D01*
X26459161Y-80887460D01*
X26643357Y-81332148D01*
X26899841Y-81418554D01*
X27800395Y-80518000D01*
X28159605Y-80518000D01*
X29060159Y-81418554D01*
X29316643Y-81332148D01*
X29526458Y-80758664D01*
X29500839Y-80148540D01*
X29316643Y-79703852D01*
X29060159Y-79617446D01*
X28159605Y-80518000D01*
X27800395Y-80518000D01*
X26899841Y-79617446D01*
X26643357Y-79703852D01*
X26433542Y-80277336D01*
X20710000Y-80277336D01*
X20710000Y-79437841D01*
X27079446Y-79437841D01*
X27980000Y-80338395D01*
X28880554Y-79437841D01*
X28794148Y-79181357D01*
X28220664Y-78971542D01*
X27610540Y-78997161D01*
X27165852Y-79181357D01*
X27079446Y-79437841D01*
X20710000Y-79437841D01*
X20710000Y-77247750D01*
X27988260Y-77247750D01*
X27988260Y-77837610D01*
X28084933Y-78070999D01*
X28263562Y-78249627D01*
X28496951Y-78346300D01*
X28987750Y-78346300D01*
X29146500Y-78187550D01*
X29146500Y-77089000D01*
X28147010Y-77089000D01*
X27988260Y-77247750D01*
X20710000Y-77247750D01*
X20710000Y-76086390D01*
X27988260Y-76086390D01*
X27988260Y-76676250D01*
X28147010Y-76835000D01*
X29146500Y-76835000D01*
X29146500Y-75736450D01*
X29400500Y-75736450D01*
X29400500Y-76835000D01*
X29420500Y-76835000D01*
X29420500Y-77089000D01*
X29400500Y-77089000D01*
X29400500Y-78187550D01*
X29559250Y-78346300D01*
X30050049Y-78346300D01*
X30226095Y-78273379D01*
X30276370Y-78307731D01*
X30343500Y-78321325D01*
X30343500Y-79692500D01*
X30407061Y-80012041D01*
X30498267Y-80148540D01*
X30588066Y-80282934D01*
X31413566Y-81108434D01*
X31432560Y-81121125D01*
X31432560Y-81418000D01*
X31476838Y-81653317D01*
X31615910Y-81869441D01*
X31828110Y-82014431D01*
X32080000Y-82065440D01*
X33880000Y-82065440D01*
X34115317Y-82021162D01*
X34331441Y-81882090D01*
X34476431Y-81669890D01*
X34527440Y-81418000D01*
X34527440Y-79618000D01*
X34483162Y-79382683D01*
X34344090Y-79166559D01*
X34131890Y-79021569D01*
X33880000Y-78970560D01*
X32080000Y-78970560D01*
X32013500Y-78983073D01*
X32013500Y-78323975D01*
X32064057Y-78314462D01*
X32280181Y-78175390D01*
X32425171Y-77963190D01*
X32476180Y-77711300D01*
X32476180Y-76212700D01*
X32431902Y-75977383D01*
X32292830Y-75761259D01*
X32080630Y-75616269D01*
X31828740Y-75565260D01*
X30528260Y-75565260D01*
X30292943Y-75609538D01*
X30227922Y-75651378D01*
X30050049Y-75577700D01*
X29559250Y-75577700D01*
X29400500Y-75736450D01*
X29146500Y-75736450D01*
X28987750Y-75577700D01*
X28496951Y-75577700D01*
X28263562Y-75674373D01*
X28084933Y-75853001D01*
X27988260Y-76086390D01*
X20710000Y-76086390D01*
X20710000Y-70889320D01*
X26024285Y-70889320D01*
X26153533Y-71182123D01*
X26853806Y-71450388D01*
X27603435Y-71430250D01*
X28202467Y-71182123D01*
X28331715Y-70889320D01*
X27178000Y-69735605D01*
X26024285Y-70889320D01*
X20710000Y-70889320D01*
X20710000Y-69231806D01*
X25283612Y-69231806D01*
X25303750Y-69981435D01*
X25551877Y-70580467D01*
X25844680Y-70709715D01*
X26998395Y-69556000D01*
X27357605Y-69556000D01*
X28511320Y-70709715D01*
X28804123Y-70580467D01*
X29072388Y-69880194D01*
X29052250Y-69130565D01*
X28804123Y-68531533D01*
X28511320Y-68402285D01*
X27357605Y-69556000D01*
X26998395Y-69556000D01*
X25844680Y-68402285D01*
X25551877Y-68531533D01*
X25283612Y-69231806D01*
X20710000Y-69231806D01*
X20710000Y-68222680D01*
X26024285Y-68222680D01*
X27178000Y-69376395D01*
X28331715Y-68222680D01*
X28202467Y-67929877D01*
X27502194Y-67661612D01*
X26752565Y-67681750D01*
X26153533Y-67929877D01*
X26024285Y-68222680D01*
X20710000Y-68222680D01*
X20710000Y-64929305D01*
X25292674Y-64929305D01*
X25579043Y-65622372D01*
X26108839Y-66153093D01*
X26801405Y-66440672D01*
X27551305Y-66441326D01*
X28244372Y-66154957D01*
X28775093Y-65625161D01*
X29062672Y-64932595D01*
X29063326Y-64182695D01*
X28776957Y-63489628D01*
X28247161Y-62958907D01*
X27554595Y-62671328D01*
X26804695Y-62670674D01*
X26111628Y-62957043D01*
X25580907Y-63486839D01*
X25293328Y-64179405D01*
X25292674Y-64929305D01*
X20710000Y-64929305D01*
X20710000Y-56172325D01*
X29914587Y-56172325D01*
X30276916Y-57049229D01*
X30947242Y-57720726D01*
X31823513Y-58084585D01*
X32772325Y-58085413D01*
X33649229Y-57723084D01*
X34320726Y-57052758D01*
X34684585Y-56176487D01*
X34685413Y-55227675D01*
X34323084Y-54350771D01*
X33652758Y-53679274D01*
X32776487Y-53315415D01*
X31827675Y-53314587D01*
X30950771Y-53676916D01*
X30279274Y-54347242D01*
X29915415Y-55223513D01*
X29914587Y-56172325D01*
X20710000Y-56172325D01*
X20710000Y-51239167D01*
X23702838Y-51239167D01*
X23844883Y-51582943D01*
X24107673Y-51846192D01*
X24451201Y-51988838D01*
X24823167Y-51989162D01*
X25065578Y-51889000D01*
X29464000Y-51889000D01*
X29783541Y-51825439D01*
X30054434Y-51644434D01*
X33619868Y-48079000D01*
X84583536Y-48079000D01*
X84551808Y-48110673D01*
X84409162Y-48454201D01*
X84408838Y-48826167D01*
X84550883Y-49169943D01*
X84636000Y-49255209D01*
X84636000Y-53813757D01*
X84220000Y-53731009D01*
X83689983Y-53836436D01*
X83240657Y-54136666D01*
X82950000Y-54571665D01*
X82659343Y-54136666D01*
X82210017Y-53836436D01*
X81680000Y-53731009D01*
X81201522Y-53826184D01*
X81325838Y-53526799D01*
X81326162Y-53154833D01*
X81184117Y-52811057D01*
X80921327Y-52547808D01*
X80577799Y-52405162D01*
X80530923Y-52405121D01*
X79912401Y-51786599D01*
X79665839Y-51621852D01*
X79375000Y-51564000D01*
X62738000Y-51564000D01*
X62447161Y-51621852D01*
X62200599Y-51786599D01*
X56866599Y-57120599D01*
X56701852Y-57367161D01*
X56644000Y-57658000D01*
X56644000Y-59629198D01*
X47843198Y-68430000D01*
X46469865Y-68430000D01*
X46317635Y-68202172D01*
X45895336Y-67920000D01*
X46317635Y-67637828D01*
X46620467Y-67184609D01*
X46726807Y-66650000D01*
X46620467Y-66115391D01*
X46317635Y-65662172D01*
X45864416Y-65359340D01*
X45329807Y-65253000D01*
X44586193Y-65253000D01*
X44051584Y-65359340D01*
X43598365Y-65662172D01*
X43295533Y-66115391D01*
X43189193Y-66650000D01*
X43295533Y-67184609D01*
X43598365Y-67637828D01*
X44020664Y-67920000D01*
X43598365Y-68202172D01*
X43295533Y-68655391D01*
X43189193Y-69190000D01*
X43295533Y-69724609D01*
X43598365Y-70177828D01*
X44020664Y-70460000D01*
X43598365Y-70742172D01*
X43446135Y-70970000D01*
X43088802Y-70970000D01*
X42797000Y-70678198D01*
X42797000Y-64957802D01*
X46923802Y-60831000D01*
X53793537Y-60831000D01*
X53825673Y-60863192D01*
X54169201Y-61005838D01*
X54541167Y-61006162D01*
X54884943Y-60864117D01*
X55148192Y-60601327D01*
X55290838Y-60257799D01*
X55291162Y-59885833D01*
X55149117Y-59542057D01*
X54886327Y-59278808D01*
X54542799Y-59136162D01*
X54170833Y-59135838D01*
X53827057Y-59277883D01*
X53793882Y-59311000D01*
X46609000Y-59311000D01*
X46366414Y-59359254D01*
X46318160Y-59368852D01*
X46071599Y-59533599D01*
X41499599Y-64105599D01*
X41334852Y-64352161D01*
X41277000Y-64643000D01*
X41277000Y-70993000D01*
X41334852Y-71283839D01*
X41499599Y-71530401D01*
X42236599Y-72267401D01*
X42483160Y-72432148D01*
X42774000Y-72490000D01*
X43446135Y-72490000D01*
X43598365Y-72717828D01*
X44033606Y-73008647D01*
X43968239Y-73027941D01*
X43542550Y-73371974D01*
X43280920Y-73852723D01*
X43265960Y-73926930D01*
X43388460Y-74143000D01*
X44831000Y-74143000D01*
X44831000Y-74123000D01*
X45085000Y-74123000D01*
X45085000Y-74143000D01*
X46527540Y-74143000D01*
X46650040Y-73926930D01*
X46635080Y-73852723D01*
X46373450Y-73371974D01*
X45947761Y-73027941D01*
X45882394Y-73008647D01*
X46317635Y-72717828D01*
X46620467Y-72264609D01*
X46726807Y-71730000D01*
X46620467Y-71195391D01*
X46317635Y-70742172D01*
X45895336Y-70460000D01*
X46317635Y-70177828D01*
X46469865Y-69950000D01*
X48158000Y-69950000D01*
X48448839Y-69892148D01*
X48695401Y-69727401D01*
X57941401Y-60481401D01*
X58106148Y-60234839D01*
X58164000Y-59944000D01*
X58164000Y-57972802D01*
X63052802Y-53084000D01*
X79060198Y-53084000D01*
X79455878Y-53479680D01*
X79455838Y-53525167D01*
X79576789Y-53817892D01*
X79140000Y-53731009D01*
X78609983Y-53836436D01*
X78160657Y-54136666D01*
X77870000Y-54571665D01*
X77579343Y-54136666D01*
X77130017Y-53836436D01*
X76600000Y-53731009D01*
X76069983Y-53836436D01*
X75620657Y-54136666D01*
X75330000Y-54571665D01*
X75039343Y-54136666D01*
X74590017Y-53836436D01*
X74060000Y-53731009D01*
X73529983Y-53836436D01*
X73080657Y-54136666D01*
X72790000Y-54571665D01*
X72499343Y-54136666D01*
X72050017Y-53836436D01*
X71520000Y-53731009D01*
X70989983Y-53836436D01*
X70540657Y-54136666D01*
X70250000Y-54571665D01*
X69959343Y-54136666D01*
X69510017Y-53836436D01*
X68980000Y-53731009D01*
X68449983Y-53836436D01*
X68000657Y-54136666D01*
X67710000Y-54571665D01*
X67419343Y-54136666D01*
X66970017Y-53836436D01*
X66440000Y-53731009D01*
X65909983Y-53836436D01*
X65460657Y-54136666D01*
X65170000Y-54571665D01*
X64879343Y-54136666D01*
X64430017Y-53836436D01*
X63900000Y-53731009D01*
X63369983Y-53836436D01*
X62920657Y-54136666D01*
X62620427Y-54585992D01*
X62515000Y-55116009D01*
X62515000Y-55883991D01*
X62620427Y-56414008D01*
X62920657Y-56863334D01*
X63369983Y-57163564D01*
X63900000Y-57268991D01*
X64430017Y-57163564D01*
X64879343Y-56863334D01*
X65170000Y-56428335D01*
X65460657Y-56863334D01*
X65605000Y-56959781D01*
X65605000Y-58182132D01*
X59863074Y-63924058D01*
X59863162Y-63822833D01*
X59721117Y-63479057D01*
X59458327Y-63215808D01*
X59114799Y-63073162D01*
X58742833Y-63072838D01*
X58399057Y-63214883D01*
X58365882Y-63248000D01*
X55753000Y-63248000D01*
X55462160Y-63305852D01*
X55215599Y-63470599D01*
X49754599Y-68931599D01*
X49589852Y-69178161D01*
X49545518Y-69401043D01*
X49499808Y-69446673D01*
X49357162Y-69790201D01*
X49356838Y-70162167D01*
X49498883Y-70505943D01*
X49761673Y-70769192D01*
X50105201Y-70911838D01*
X50477167Y-70912162D01*
X50727000Y-70808933D01*
X50727000Y-75600132D01*
X50009632Y-76317500D01*
X49621975Y-76317500D01*
X49612462Y-76266943D01*
X49570321Y-76201454D01*
X49605731Y-76149630D01*
X49656740Y-75897740D01*
X49656740Y-74597260D01*
X49612462Y-74361943D01*
X49473390Y-74145819D01*
X49261190Y-74000829D01*
X49020000Y-73951987D01*
X49020000Y-73152000D01*
X49009768Y-73100560D01*
X48962148Y-72861160D01*
X48941060Y-72829600D01*
X48941162Y-72712833D01*
X48799117Y-72369057D01*
X48536327Y-72105808D01*
X48192799Y-71963162D01*
X47820833Y-71962838D01*
X47477057Y-72104883D01*
X47213808Y-72367673D01*
X47071162Y-72711201D01*
X47070838Y-73083167D01*
X47212883Y-73426943D01*
X47475673Y-73690192D01*
X47500000Y-73700294D01*
X47500000Y-73951833D01*
X47275383Y-73994098D01*
X47059259Y-74133170D01*
X46914269Y-74345370D01*
X46863260Y-74597260D01*
X46863260Y-75897740D01*
X46907538Y-76133057D01*
X46949679Y-76198546D01*
X46914269Y-76250370D01*
X46900675Y-76317500D01*
X46764368Y-76317500D01*
X46666434Y-76219566D01*
X46561767Y-76149630D01*
X46516004Y-76119052D01*
X46317635Y-75822172D01*
X45882394Y-75531353D01*
X45947761Y-75512059D01*
X46373450Y-75168026D01*
X46635080Y-74687277D01*
X46650040Y-74613070D01*
X46527540Y-74397000D01*
X45085000Y-74397000D01*
X45085000Y-74417000D01*
X44831000Y-74417000D01*
X44831000Y-74397000D01*
X43388460Y-74397000D01*
X43265960Y-74613070D01*
X43280920Y-74687277D01*
X43542550Y-75168026D01*
X43968239Y-75512059D01*
X44033606Y-75531353D01*
X43598365Y-75822172D01*
X43295533Y-76275391D01*
X43189193Y-76810000D01*
X43295533Y-77344609D01*
X43598365Y-77797828D01*
X43822130Y-77947343D01*
X43622863Y-77984838D01*
X43406739Y-78123910D01*
X43261749Y-78336110D01*
X43210740Y-78588000D01*
X43210740Y-78590000D01*
X42834802Y-78590000D01*
X42162000Y-77917198D01*
X42162000Y-76000463D01*
X42194192Y-75968327D01*
X42336838Y-75624799D01*
X42337162Y-75252833D01*
X42195117Y-74909057D01*
X41932327Y-74645808D01*
X41588799Y-74503162D01*
X41216833Y-74502838D01*
X40873057Y-74644883D01*
X40609808Y-74907673D01*
X40467162Y-75251201D01*
X40466838Y-75623167D01*
X40608883Y-75966943D01*
X40642000Y-76000118D01*
X40642000Y-78232000D01*
X40699852Y-78522839D01*
X40864599Y-78769401D01*
X41982599Y-79887401D01*
X42229161Y-80052148D01*
X42520000Y-80110000D01*
X43210740Y-80110000D01*
X43210740Y-80112000D01*
X43255018Y-80347317D01*
X43394090Y-80563441D01*
X43606290Y-80708431D01*
X43858180Y-80759440D01*
X46057820Y-80759440D01*
X46213863Y-80730078D01*
X46155000Y-81026000D01*
X46155000Y-83566000D01*
X46218561Y-83885541D01*
X46371327Y-84114171D01*
X46399566Y-84156434D01*
X47606066Y-85362934D01*
X47876960Y-85543940D01*
X48166918Y-85601616D01*
X48177538Y-85658057D01*
X48316610Y-85874181D01*
X48528810Y-86019171D01*
X48780700Y-86070180D01*
X50279300Y-86070180D01*
X50514617Y-86025902D01*
X50730741Y-85886830D01*
X50875731Y-85674630D01*
X50889325Y-85607500D01*
X56804025Y-85607500D01*
X56813538Y-85658057D01*
X56952610Y-85874181D01*
X57164810Y-86019171D01*
X57331000Y-86052825D01*
X57331000Y-87884000D01*
X57394561Y-88203541D01*
X57545100Y-88428839D01*
X57575566Y-88474434D01*
X59109000Y-90007868D01*
X59109000Y-90499045D01*
X58915300Y-90459820D01*
X57416700Y-90459820D01*
X57181383Y-90504098D01*
X56965259Y-90643170D01*
X56820269Y-90855370D01*
X56819534Y-90859000D01*
X56053234Y-90859000D01*
X55812799Y-90759162D01*
X55440833Y-90758838D01*
X55097057Y-90900883D01*
X54833808Y-91163673D01*
X54691162Y-91507201D01*
X54690938Y-91764774D01*
X54641383Y-91774098D01*
X54425259Y-91913170D01*
X54280269Y-92125370D01*
X54229260Y-92377260D01*
X54229260Y-93677740D01*
X54273538Y-93913057D01*
X54315378Y-93978078D01*
X54241700Y-94155951D01*
X54241700Y-94646750D01*
X54400450Y-94805500D01*
X55499000Y-94805500D01*
X55499000Y-94785500D01*
X55753000Y-94785500D01*
X55753000Y-94805500D01*
X56851550Y-94805500D01*
X56931492Y-94725558D01*
X57057001Y-94851067D01*
X57290390Y-94947740D01*
X57880250Y-94947740D01*
X58039000Y-94788990D01*
X58039000Y-93789500D01*
X58293000Y-93789500D01*
X58293000Y-94788990D01*
X58451750Y-94947740D01*
X59041610Y-94947740D01*
X59274999Y-94851067D01*
X59453627Y-94672438D01*
X59550300Y-94439049D01*
X59550300Y-93948250D01*
X59391550Y-93789500D01*
X58293000Y-93789500D01*
X58039000Y-93789500D01*
X58019000Y-93789500D01*
X58019000Y-93535500D01*
X58039000Y-93535500D01*
X58039000Y-93515500D01*
X58293000Y-93515500D01*
X58293000Y-93535500D01*
X59391550Y-93535500D01*
X59550300Y-93376750D01*
X59550300Y-92885951D01*
X59477379Y-92709905D01*
X59511731Y-92659630D01*
X59525325Y-92592500D01*
X59669690Y-92592500D01*
X59757201Y-92628838D01*
X60129167Y-92629162D01*
X60371578Y-92529000D01*
X71282132Y-92529000D01*
X74085566Y-95332434D01*
X74356459Y-95513439D01*
X74676000Y-95577000D01*
X80635500Y-95577000D01*
X80635500Y-95666025D01*
X80584943Y-95675538D01*
X80519922Y-95717378D01*
X80342049Y-95643700D01*
X79851250Y-95643700D01*
X79692500Y-95802450D01*
X79692500Y-96901000D01*
X79712500Y-96901000D01*
X79712500Y-97155000D01*
X79692500Y-97155000D01*
X79692500Y-98253550D01*
X79851250Y-98412300D01*
X80342049Y-98412300D01*
X80518095Y-98339379D01*
X80568370Y-98373731D01*
X80820260Y-98424740D01*
X82120740Y-98424740D01*
X82356057Y-98380462D01*
X82572181Y-98241390D01*
X82717171Y-98029190D01*
X82750825Y-97863000D01*
X83138766Y-97863000D01*
X83379201Y-97962838D01*
X83751167Y-97963162D01*
X83993578Y-97863000D01*
X87030132Y-97863000D01*
X90595566Y-101428434D01*
X90866460Y-101609440D01*
X91186000Y-101673000D01*
X95377000Y-101673000D01*
X95696541Y-101609439D01*
X95967434Y-101428434D01*
X96347148Y-101048720D01*
X96346838Y-101404167D01*
X96488883Y-101747943D01*
X96751673Y-102011192D01*
X97095201Y-102153838D01*
X97467167Y-102154162D01*
X97583728Y-102106000D01*
X103958537Y-102106000D01*
X103990673Y-102138192D01*
X104334201Y-102280838D01*
X104706167Y-102281162D01*
X105049943Y-102139117D01*
X105285479Y-101903991D01*
X113018735Y-101903991D01*
X113251932Y-102468371D01*
X113683357Y-102900551D01*
X114247330Y-103134733D01*
X114857991Y-103135265D01*
X115422371Y-102902068D01*
X115854551Y-102470643D01*
X116088733Y-101906670D01*
X116089265Y-101296009D01*
X115856068Y-100731629D01*
X115424643Y-100299449D01*
X114860670Y-100065267D01*
X114250009Y-100064735D01*
X113685629Y-100297932D01*
X113253449Y-100729357D01*
X113019267Y-101293330D01*
X113018735Y-101903991D01*
X105285479Y-101903991D01*
X105313192Y-101876327D01*
X105455838Y-101532799D01*
X105456162Y-101160833D01*
X105314117Y-100817057D01*
X105051327Y-100553808D01*
X104707799Y-100411162D01*
X104335833Y-100410838D01*
X103992057Y-100552883D01*
X103958882Y-100586000D01*
X97971241Y-100586000D01*
X97812327Y-100426808D01*
X97468799Y-100284162D01*
X97112017Y-100283851D01*
X97554934Y-99840934D01*
X97653780Y-99693000D01*
X97735939Y-99570041D01*
X97799500Y-99250500D01*
X97799500Y-98389975D01*
X97850057Y-98380462D01*
X98066181Y-98241390D01*
X98211171Y-98029190D01*
X98244825Y-97863000D01*
X98886766Y-97863000D01*
X99127201Y-97962838D01*
X99499167Y-97963162D01*
X99842943Y-97821117D01*
X100106192Y-97558327D01*
X100206778Y-97316090D01*
X100698877Y-96823991D01*
X113018735Y-96823991D01*
X113251932Y-97388371D01*
X113683357Y-97820551D01*
X114247330Y-98054733D01*
X114857991Y-98055265D01*
X115422371Y-97822068D01*
X115854551Y-97390643D01*
X116088733Y-96826670D01*
X116089265Y-96216009D01*
X115856068Y-95651629D01*
X115424643Y-95219449D01*
X114860670Y-94985267D01*
X114250009Y-94984735D01*
X113685629Y-95217932D01*
X113253449Y-95649357D01*
X113019267Y-96213330D01*
X113018735Y-96823991D01*
X100698877Y-96823991D01*
X105247868Y-92275000D01*
X113238143Y-92275000D01*
X113251932Y-92308371D01*
X113683357Y-92740551D01*
X114247330Y-92974733D01*
X114857991Y-92975265D01*
X115422371Y-92742068D01*
X115854551Y-92310643D01*
X116088733Y-91746670D01*
X116089265Y-91136009D01*
X115856068Y-90571629D01*
X115424643Y-90139449D01*
X114860670Y-89905267D01*
X114250009Y-89904735D01*
X113685629Y-90137932D01*
X113253449Y-90569357D01*
X113238649Y-90605000D01*
X104902000Y-90605000D01*
X104582459Y-90668561D01*
X104323130Y-90841839D01*
X104311566Y-90849566D01*
X101917500Y-93243632D01*
X100022000Y-91348132D01*
X100022000Y-85009234D01*
X100121838Y-84768799D01*
X100122162Y-84396833D01*
X100022000Y-84154422D01*
X100022000Y-77089000D01*
X99958439Y-76769459D01*
X99777434Y-76498566D01*
X96856434Y-73577566D01*
X96786743Y-73531000D01*
X96585541Y-73396561D01*
X96266000Y-73333000D01*
X94788234Y-73333000D01*
X94547799Y-73233162D01*
X94276337Y-73232926D01*
X94268830Y-73221259D01*
X94056630Y-73076269D01*
X93848545Y-73034131D01*
X93744934Y-72879066D01*
X91522434Y-70656566D01*
X91469863Y-70621439D01*
X91251541Y-70475561D01*
X90932000Y-70412000D01*
X78740000Y-70412000D01*
X78420459Y-70475561D01*
X78202137Y-70621439D01*
X78149566Y-70656566D01*
X78032203Y-70773929D01*
X78009117Y-70718057D01*
X77752078Y-70460569D01*
X77769838Y-70417799D01*
X77770162Y-70045833D01*
X77670000Y-69803422D01*
X77670000Y-69514843D01*
X78036167Y-69515162D01*
X78170449Y-69459678D01*
X78336673Y-69626192D01*
X78680201Y-69768838D01*
X79052167Y-69769162D01*
X79395943Y-69627117D01*
X79429118Y-69594000D01*
X85344000Y-69594000D01*
X85634839Y-69536148D01*
X85881401Y-69371401D01*
X92967683Y-62285119D01*
X92963000Y-62308662D01*
X92963000Y-62343338D01*
X93030367Y-62682013D01*
X93222210Y-62969128D01*
X93509325Y-63160971D01*
X93848000Y-63228338D01*
X94186675Y-63160971D01*
X94473790Y-62969128D01*
X94665633Y-62682013D01*
X94733000Y-62343338D01*
X94733000Y-62308662D01*
X94666829Y-61976000D01*
X94733000Y-61643338D01*
X94733000Y-61608662D01*
X94665633Y-61269987D01*
X94473790Y-60982872D01*
X94186675Y-60791029D01*
X93886485Y-60731317D01*
X94917401Y-59700401D01*
X95082148Y-59453839D01*
X95140000Y-59163000D01*
X95140000Y-57009894D01*
X95359343Y-56863334D01*
X95650000Y-56428335D01*
X95940657Y-56863334D01*
X96389983Y-57163564D01*
X96920000Y-57268991D01*
X97450017Y-57163564D01*
X97899343Y-56863334D01*
X98190000Y-56428335D01*
X98480657Y-56863334D01*
X98929983Y-57163564D01*
X99460000Y-57268991D01*
X99990017Y-57163564D01*
X100439343Y-56863334D01*
X100739573Y-56414008D01*
X100741496Y-56404339D01*
X100769028Y-56497349D01*
X101110460Y-56919145D01*
X101587316Y-57178173D01*
X101658815Y-57192318D01*
X101873000Y-57069656D01*
X101873000Y-55627000D01*
X102127000Y-55627000D01*
X102127000Y-57069656D01*
X102341185Y-57192318D01*
X102412684Y-57178173D01*
X102889540Y-56919145D01*
X103230972Y-56497349D01*
X103385000Y-55977000D01*
X103385000Y-55627000D01*
X102127000Y-55627000D01*
X101873000Y-55627000D01*
X101853000Y-55627000D01*
X101853000Y-55373000D01*
X101873000Y-55373000D01*
X101873000Y-53930344D01*
X102127000Y-53930344D01*
X102127000Y-55373000D01*
X103385000Y-55373000D01*
X103385000Y-55023000D01*
X103230972Y-54502651D01*
X102889540Y-54080855D01*
X102412684Y-53821827D01*
X102341185Y-53807682D01*
X102127000Y-53930344D01*
X101873000Y-53930344D01*
X101658815Y-53807682D01*
X101587316Y-53821827D01*
X101110460Y-54080855D01*
X100769028Y-54502651D01*
X100741496Y-54595661D01*
X100739573Y-54585992D01*
X100439343Y-54136666D01*
X99990017Y-53836436D01*
X99460000Y-53731009D01*
X98929983Y-53836436D01*
X98480657Y-54136666D01*
X98190000Y-54571665D01*
X97899343Y-54136666D01*
X97450017Y-53836436D01*
X96920000Y-53731009D01*
X96389983Y-53836436D01*
X95940657Y-54136666D01*
X95650000Y-54571665D01*
X95359343Y-54136666D01*
X94910017Y-53836436D01*
X94380000Y-53731009D01*
X93849983Y-53836436D01*
X93400657Y-54136666D01*
X93100427Y-54585992D01*
X93098504Y-54595661D01*
X93070972Y-54502651D01*
X92729540Y-54080855D01*
X92252684Y-53821827D01*
X92181185Y-53807682D01*
X91967000Y-53930344D01*
X91967000Y-55373000D01*
X91987000Y-55373000D01*
X91987000Y-55627000D01*
X91967000Y-55627000D01*
X91967000Y-57069656D01*
X92181185Y-57192318D01*
X92252684Y-57178173D01*
X92729540Y-56919145D01*
X93070972Y-56497349D01*
X93098504Y-56404339D01*
X93100427Y-56414008D01*
X93400657Y-56863334D01*
X93620000Y-57009894D01*
X93620000Y-58848198D01*
X92299599Y-60168599D01*
X92134852Y-60415161D01*
X92077000Y-60706000D01*
X92077000Y-61026198D01*
X85029198Y-68074000D01*
X79429463Y-68074000D01*
X79397327Y-68041808D01*
X79053799Y-67899162D01*
X78681833Y-67898838D01*
X78611000Y-67928106D01*
X78611000Y-67782368D01*
X78807201Y-67863838D01*
X79179167Y-67864162D01*
X79522943Y-67722117D01*
X79786192Y-67459327D01*
X79928838Y-67115799D01*
X79928879Y-67068923D01*
X80578802Y-66419000D01*
X85162537Y-66419000D01*
X85194673Y-66451192D01*
X85538201Y-66593838D01*
X85910167Y-66594162D01*
X86253943Y-66452117D01*
X86517192Y-66189327D01*
X86659838Y-65845799D01*
X86660162Y-65473833D01*
X86518117Y-65130057D01*
X86255327Y-64866808D01*
X85911799Y-64724162D01*
X85539833Y-64723838D01*
X85196057Y-64865883D01*
X85162882Y-64899000D01*
X80264000Y-64899000D01*
X79973160Y-64956852D01*
X79726599Y-65121599D01*
X78854320Y-65993878D01*
X78808833Y-65993838D01*
X78706873Y-66035967D01*
X78785838Y-65845799D01*
X78786162Y-65473833D01*
X78644117Y-65130057D01*
X78381327Y-64866808D01*
X78037799Y-64724162D01*
X77924000Y-64724063D01*
X77924000Y-64607868D01*
X78196868Y-64335000D01*
X84709000Y-64335000D01*
X85028541Y-64271439D01*
X85299434Y-64090434D01*
X86061434Y-63328434D01*
X86242440Y-63057540D01*
X86306000Y-62738000D01*
X86306000Y-57178685D01*
X86760000Y-57268991D01*
X87290017Y-57163564D01*
X87739343Y-56863334D01*
X88030000Y-56428335D01*
X88320657Y-56863334D01*
X88769983Y-57163564D01*
X89300000Y-57268991D01*
X89830017Y-57163564D01*
X90279343Y-56863334D01*
X90579573Y-56414008D01*
X90581496Y-56404339D01*
X90609028Y-56497349D01*
X90950460Y-56919145D01*
X91427316Y-57178173D01*
X91498815Y-57192318D01*
X91713000Y-57069656D01*
X91713000Y-55627000D01*
X91693000Y-55627000D01*
X91693000Y-55373000D01*
X91713000Y-55373000D01*
X91713000Y-53930344D01*
X91498815Y-53807682D01*
X91427316Y-53821827D01*
X90950460Y-54080855D01*
X90609028Y-54502651D01*
X90581496Y-54595661D01*
X90579573Y-54585992D01*
X90279343Y-54136666D01*
X89830017Y-53836436D01*
X89300000Y-53731009D01*
X88769983Y-53836436D01*
X88320657Y-54136666D01*
X88030000Y-54571665D01*
X87739343Y-54136666D01*
X87290017Y-53836436D01*
X86760000Y-53731009D01*
X86306000Y-53821315D01*
X86306000Y-48768000D01*
X86279008Y-48632304D01*
X86279162Y-48455833D01*
X86137117Y-48112057D01*
X86104118Y-48079000D01*
X100746132Y-48079000D01*
X103813000Y-51145868D01*
X103813000Y-71536132D01*
X101311667Y-74037465D01*
X101071057Y-74136883D01*
X100807808Y-74399673D01*
X100665162Y-74743201D01*
X100665090Y-74825288D01*
X93247401Y-67407599D01*
X93000839Y-67242852D01*
X92710000Y-67185000D01*
X89843463Y-67185000D01*
X89811327Y-67152808D01*
X89467799Y-67010162D01*
X89095833Y-67009838D01*
X88752057Y-67151883D01*
X88488808Y-67414673D01*
X88346162Y-67758201D01*
X88345838Y-68130167D01*
X88487883Y-68473943D01*
X88750673Y-68737192D01*
X89094201Y-68879838D01*
X89466167Y-68880162D01*
X89809943Y-68738117D01*
X89843118Y-68705000D01*
X92395198Y-68705000D01*
X100332000Y-76641802D01*
X100332000Y-90369537D01*
X100299808Y-90401673D01*
X100157162Y-90745201D01*
X100156838Y-91117167D01*
X100298883Y-91460943D01*
X100561673Y-91724192D01*
X100905201Y-91866838D01*
X101277167Y-91867162D01*
X101620943Y-91725117D01*
X101884192Y-91462327D01*
X102026838Y-91118799D01*
X102027162Y-90746833D01*
X101885117Y-90403057D01*
X101852000Y-90369882D01*
X101852000Y-86663991D01*
X113018735Y-86663991D01*
X113251932Y-87228371D01*
X113683357Y-87660551D01*
X114247330Y-87894733D01*
X114857991Y-87895265D01*
X115422371Y-87662068D01*
X115854551Y-87230643D01*
X116088733Y-86666670D01*
X116089265Y-86056009D01*
X115856068Y-85491629D01*
X115424643Y-85059449D01*
X114860670Y-84825267D01*
X114250009Y-84824735D01*
X113685629Y-85057932D01*
X113253449Y-85489357D01*
X113019267Y-86053330D01*
X113018735Y-86663991D01*
X101852000Y-86663991D01*
X101852000Y-76327000D01*
X101794148Y-76036161D01*
X101679829Y-75865070D01*
X101785167Y-75865162D01*
X102128943Y-75723117D01*
X102392192Y-75460327D01*
X102492778Y-75218090D01*
X103962868Y-73748000D01*
X113768560Y-73748000D01*
X113768560Y-75548000D01*
X113812838Y-75783317D01*
X113951910Y-75999441D01*
X114164110Y-76144431D01*
X114416000Y-76195440D01*
X116216000Y-76195440D01*
X116451317Y-76151162D01*
X116667441Y-76012090D01*
X116812431Y-75799890D01*
X116863440Y-75548000D01*
X116863440Y-73748000D01*
X116819162Y-73512683D01*
X116680090Y-73296559D01*
X116467890Y-73151569D01*
X116216000Y-73100560D01*
X114416000Y-73100560D01*
X114180683Y-73144838D01*
X113964559Y-73283910D01*
X113819569Y-73496110D01*
X113768560Y-73748000D01*
X103962868Y-73748000D01*
X105238434Y-72472434D01*
X105268900Y-72426839D01*
X105401653Y-72228159D01*
X114415446Y-72228159D01*
X114501852Y-72484643D01*
X115075336Y-72694458D01*
X115685460Y-72668839D01*
X116130148Y-72484643D01*
X116216554Y-72228159D01*
X115316000Y-71327605D01*
X114415446Y-72228159D01*
X105401653Y-72228159D01*
X105419439Y-72201541D01*
X105483000Y-71882000D01*
X105483000Y-70907336D01*
X113769542Y-70907336D01*
X113795161Y-71517460D01*
X113979357Y-71962148D01*
X114235841Y-72048554D01*
X115136395Y-71148000D01*
X115495605Y-71148000D01*
X116396159Y-72048554D01*
X116652643Y-71962148D01*
X116862458Y-71388664D01*
X116836839Y-70778540D01*
X116652643Y-70333852D01*
X116396159Y-70247446D01*
X115495605Y-71148000D01*
X115136395Y-71148000D01*
X114235841Y-70247446D01*
X113979357Y-70333852D01*
X113769542Y-70907336D01*
X105483000Y-70907336D01*
X105483000Y-70067841D01*
X114415446Y-70067841D01*
X115316000Y-70968395D01*
X116216554Y-70067841D01*
X116130148Y-69811357D01*
X115556664Y-69601542D01*
X114946540Y-69627161D01*
X114501852Y-69811357D01*
X114415446Y-70067841D01*
X105483000Y-70067841D01*
X105483000Y-56579916D01*
X105676916Y-57049229D01*
X106347242Y-57720726D01*
X107223513Y-58084585D01*
X108172325Y-58085413D01*
X109049229Y-57723084D01*
X109720726Y-57052758D01*
X110084585Y-56176487D01*
X110085413Y-55227675D01*
X109723084Y-54350771D01*
X109052758Y-53679274D01*
X108176487Y-53315415D01*
X107227675Y-53314587D01*
X106350771Y-53676916D01*
X105679274Y-54347242D01*
X105483000Y-54819923D01*
X105483000Y-50800000D01*
X105419439Y-50480459D01*
X105238434Y-50209566D01*
X101682434Y-46653566D01*
X101411541Y-46472561D01*
X101092000Y-46409000D01*
X33274000Y-46409000D01*
X32954460Y-46472560D01*
X32683566Y-46653566D01*
X29118132Y-50219000D01*
X25065234Y-50219000D01*
X24824799Y-50119162D01*
X24452833Y-50118838D01*
X24109057Y-50260883D01*
X23845808Y-50523673D01*
X23703162Y-50867201D01*
X23702838Y-51239167D01*
X20710000Y-51239167D01*
X20710000Y-46159167D01*
X21670838Y-46159167D01*
X21812883Y-46502943D01*
X22075673Y-46766192D01*
X22419201Y-46908838D01*
X22436422Y-46908853D01*
X22476960Y-46935940D01*
X22796500Y-46999500D01*
X26070025Y-46999500D01*
X26079538Y-47050057D01*
X26218610Y-47266181D01*
X26430810Y-47411171D01*
X26682700Y-47462180D01*
X28181300Y-47462180D01*
X28416617Y-47417902D01*
X28632741Y-47278830D01*
X28777731Y-47066630D01*
X28828740Y-46814740D01*
X28828740Y-45514260D01*
X28784462Y-45278943D01*
X28742622Y-45213922D01*
X28816300Y-45036049D01*
X28816300Y-44545250D01*
X28657550Y-44386500D01*
X27559000Y-44386500D01*
X27559000Y-44406500D01*
X27305000Y-44406500D01*
X27305000Y-44386500D01*
X26206450Y-44386500D01*
X26047700Y-44545250D01*
X26047700Y-45036049D01*
X26120621Y-45212095D01*
X26086269Y-45262370D01*
X26072675Y-45329500D01*
X23283761Y-45329500D01*
X23136327Y-45181808D01*
X22792799Y-45039162D01*
X22420833Y-45038838D01*
X22077057Y-45180883D01*
X21813808Y-45443673D01*
X21671162Y-45787201D01*
X21670838Y-46159167D01*
X20710000Y-46159167D01*
X20710000Y-43482951D01*
X26047700Y-43482951D01*
X26047700Y-43973750D01*
X26206450Y-44132500D01*
X27305000Y-44132500D01*
X27305000Y-43133010D01*
X27559000Y-43133010D01*
X27559000Y-44132500D01*
X28657550Y-44132500D01*
X28816300Y-43973750D01*
X28816300Y-43482951D01*
X28719627Y-43249562D01*
X28540999Y-43070933D01*
X28307610Y-42974260D01*
X27717750Y-42974260D01*
X27559000Y-43133010D01*
X27305000Y-43133010D01*
X27146250Y-42974260D01*
X26556390Y-42974260D01*
X26323001Y-43070933D01*
X26144373Y-43249562D01*
X26047700Y-43482951D01*
X20710000Y-43482951D01*
X20710000Y-41513877D01*
X63382528Y-41513877D01*
X63542295Y-41832632D01*
X64333017Y-42142595D01*
X65182166Y-42126367D01*
X65891305Y-41832632D01*
X66051072Y-41513877D01*
X64716800Y-40179605D01*
X63382528Y-41513877D01*
X20710000Y-41513877D01*
X20710000Y-39616217D01*
X62574205Y-39616217D01*
X62590433Y-40465366D01*
X62884168Y-41174505D01*
X63202923Y-41334272D01*
X64537195Y-40000000D01*
X64896405Y-40000000D01*
X66230677Y-41334272D01*
X66549432Y-41174505D01*
X66859395Y-40383783D01*
X66843167Y-39534634D01*
X66549432Y-38825495D01*
X66230677Y-38665728D01*
X64896405Y-40000000D01*
X64537195Y-40000000D01*
X63202923Y-38665728D01*
X62884168Y-38825495D01*
X62574205Y-39616217D01*
X20710000Y-39616217D01*
X20710000Y-38486123D01*
X63382528Y-38486123D01*
X64716800Y-39820395D01*
X66035795Y-38501400D01*
X83068560Y-38501400D01*
X83068560Y-41498600D01*
X83112838Y-41733917D01*
X83251910Y-41950041D01*
X83464110Y-42095031D01*
X83716000Y-42146040D01*
X86713200Y-42146040D01*
X86948517Y-42101762D01*
X87164641Y-41962690D01*
X87309631Y-41750490D01*
X87360640Y-41498600D01*
X87360640Y-38501400D01*
X87316362Y-38266083D01*
X87177290Y-38049959D01*
X86965090Y-37904969D01*
X86713200Y-37853960D01*
X83716000Y-37853960D01*
X83480683Y-37898238D01*
X83264559Y-38037310D01*
X83119569Y-38249510D01*
X83068560Y-38501400D01*
X66035795Y-38501400D01*
X66051072Y-38486123D01*
X65891305Y-38167368D01*
X65100583Y-37857405D01*
X64251434Y-37873633D01*
X63542295Y-38167368D01*
X63382528Y-38486123D01*
X20710000Y-38486123D01*
X20710000Y-37148159D01*
X21987446Y-37148159D01*
X22073852Y-37404643D01*
X22647336Y-37614458D01*
X23257460Y-37588839D01*
X23702148Y-37404643D01*
X23788554Y-37148159D01*
X22888000Y-36247605D01*
X21987446Y-37148159D01*
X20710000Y-37148159D01*
X20710000Y-35827336D01*
X21341542Y-35827336D01*
X21367161Y-36437460D01*
X21551357Y-36882148D01*
X21807841Y-36968554D01*
X22708395Y-36068000D01*
X23067605Y-36068000D01*
X23968159Y-36968554D01*
X24224643Y-36882148D01*
X24434458Y-36308664D01*
X24408839Y-35698540D01*
X24224643Y-35253852D01*
X23969804Y-35168000D01*
X24840560Y-35168000D01*
X24840560Y-36968000D01*
X24884838Y-37203317D01*
X25023910Y-37419441D01*
X25236110Y-37564431D01*
X25488000Y-37615440D01*
X27288000Y-37615440D01*
X27523317Y-37571162D01*
X27739441Y-37432090D01*
X27884431Y-37219890D01*
X27935440Y-36968000D01*
X27935440Y-35168000D01*
X27891162Y-34932683D01*
X27752090Y-34716559D01*
X27539890Y-34571569D01*
X27288000Y-34520560D01*
X27223000Y-34520560D01*
X27223000Y-33481323D01*
X27400617Y-33447902D01*
X27616741Y-33308830D01*
X27761731Y-33096630D01*
X27812740Y-32844740D01*
X27812740Y-31544260D01*
X27768462Y-31308943D01*
X27726321Y-31243454D01*
X27761731Y-31191630D01*
X27812740Y-30939740D01*
X27812740Y-29639260D01*
X27768462Y-29403943D01*
X27672772Y-29255236D01*
X27706943Y-29241117D01*
X27970192Y-28978327D01*
X28112838Y-28634799D01*
X28113162Y-28262833D01*
X27971117Y-27919057D01*
X27708327Y-27655808D01*
X27364799Y-27513162D01*
X26992833Y-27512838D01*
X26649057Y-27654883D01*
X26385808Y-27917673D01*
X26243162Y-28261201D01*
X26243121Y-28308077D01*
X25878599Y-28672599D01*
X25713852Y-28919161D01*
X25699399Y-28991820D01*
X25666700Y-28991820D01*
X25431383Y-29036098D01*
X25215259Y-29175170D01*
X25070269Y-29387370D01*
X25019260Y-29639260D01*
X25019260Y-30939740D01*
X25063538Y-31175057D01*
X25105679Y-31240546D01*
X25070269Y-31292370D01*
X25019260Y-31544260D01*
X25019260Y-32844740D01*
X25063538Y-33080057D01*
X25202610Y-33296181D01*
X25414810Y-33441171D01*
X25553000Y-33469155D01*
X25553000Y-34520560D01*
X25488000Y-34520560D01*
X25252683Y-34564838D01*
X25036559Y-34703910D01*
X24891569Y-34916110D01*
X24840560Y-35168000D01*
X23969804Y-35168000D01*
X23968159Y-35167446D01*
X23067605Y-36068000D01*
X22708395Y-36068000D01*
X21807841Y-35167446D01*
X21551357Y-35253852D01*
X21341542Y-35827336D01*
X20710000Y-35827336D01*
X20710000Y-34987841D01*
X21987446Y-34987841D01*
X22888000Y-35888395D01*
X23788554Y-34987841D01*
X23702148Y-34731357D01*
X23128664Y-34521542D01*
X22518540Y-34547161D01*
X22073852Y-34731357D01*
X21987446Y-34987841D01*
X20710000Y-34987841D01*
X20710000Y-23703398D01*
X20976866Y-24349263D01*
X21647208Y-25020776D01*
X22523501Y-25384645D01*
X23472336Y-25385473D01*
X24349263Y-25023134D01*
X24600510Y-24772325D01*
X29914587Y-24772325D01*
X30276916Y-25649229D01*
X30947242Y-26320726D01*
X31823513Y-26684585D01*
X32772325Y-26685413D01*
X33649229Y-26323084D01*
X34320726Y-25652758D01*
X34684585Y-24776487D01*
X34684588Y-24772325D01*
X105314587Y-24772325D01*
X105676916Y-25649229D01*
X106347242Y-26320726D01*
X107223513Y-26684585D01*
X108172325Y-26685413D01*
X109049229Y-26323084D01*
X109720726Y-25652758D01*
X110084585Y-24776487D01*
X110085413Y-23827675D01*
X109723084Y-22950771D01*
X109052758Y-22279274D01*
X108176487Y-21915415D01*
X107227675Y-21914587D01*
X106350771Y-22276916D01*
X105679274Y-22947242D01*
X105315415Y-23823513D01*
X105314587Y-24772325D01*
X34684588Y-24772325D01*
X34685413Y-23827675D01*
X34323084Y-22950771D01*
X33652758Y-22279274D01*
X32776487Y-21915415D01*
X31827675Y-21914587D01*
X30950771Y-22276916D01*
X30279274Y-22947242D01*
X29915415Y-23823513D01*
X29914587Y-24772325D01*
X24600510Y-24772325D01*
X25020776Y-24352792D01*
X25384645Y-23476499D01*
X25385473Y-22527664D01*
X25023134Y-21650737D01*
X24352792Y-20979224D01*
X23704429Y-20710000D01*
X116296602Y-20710000D01*
X115650737Y-20976866D01*
X115650737Y-20976866D01*
G37*
X115650737Y-20976866D02*
X114979224Y-21647208D01*
X114615355Y-22523501D01*
X114614527Y-23472336D01*
X114976866Y-24349263D01*
X115647208Y-25020776D01*
X116523501Y-25384645D01*
X117472336Y-25385473D01*
X118349263Y-25023134D01*
X119020776Y-24352792D01*
X119290000Y-23704429D01*
X119290000Y-116296602D01*
X119023134Y-115650737D01*
X118352792Y-114979224D01*
X117476499Y-114615355D01*
X116527664Y-114614527D01*
X115650737Y-114976866D01*
X114979224Y-115647208D01*
X114615355Y-116523501D01*
X114614527Y-117472336D01*
X114976866Y-118349263D01*
X115647208Y-119020776D01*
X116295571Y-119290000D01*
X23703398Y-119290000D01*
X24349263Y-119023134D01*
X25020776Y-118352792D01*
X25384645Y-117476499D01*
X25385473Y-116527664D01*
X25023134Y-115650737D01*
X24352792Y-114979224D01*
X23476499Y-114615355D01*
X22527664Y-114614527D01*
X21650737Y-114976866D01*
X20979224Y-115647208D01*
X20710000Y-116295571D01*
X20710000Y-113373305D01*
X45614674Y-113373305D01*
X45901043Y-114066372D01*
X46430839Y-114597093D01*
X47123405Y-114884672D01*
X47873305Y-114885326D01*
X48566372Y-114598957D01*
X49097093Y-114069161D01*
X49384672Y-113376595D01*
X49385326Y-112626695D01*
X49098957Y-111933628D01*
X49003149Y-111837653D01*
X49622901Y-111217901D01*
X49787648Y-110971339D01*
X49845500Y-110680500D01*
X49845500Y-110212174D01*
X49981651Y-110012910D01*
X50032660Y-109761020D01*
X50032660Y-108760260D01*
X50043340Y-108760260D01*
X50043340Y-109761020D01*
X50087618Y-109996337D01*
X50226690Y-110212461D01*
X50230500Y-110215064D01*
X50230500Y-110680500D01*
X50288352Y-110971339D01*
X50453099Y-111217901D01*
X51034587Y-111799389D01*
X50902907Y-111930839D01*
X50615328Y-112623405D01*
X50614674Y-113373305D01*
X50901043Y-114066372D01*
X51430839Y-114597093D01*
X52123405Y-114884672D01*
X52873305Y-114885326D01*
X53566372Y-114598957D01*
X54097093Y-114069161D01*
X54384672Y-113376595D01*
X54384674Y-113373305D01*
X75614674Y-113373305D01*
X75901043Y-114066372D01*
X76430839Y-114597093D01*
X77123405Y-114884672D01*
X77873305Y-114885326D01*
X78566372Y-114598957D01*
X79097093Y-114069161D01*
X79384672Y-113376595D01*
X79384674Y-113373305D01*
X80614674Y-113373305D01*
X80901043Y-114066372D01*
X81430839Y-114597093D01*
X82123405Y-114884672D01*
X82873305Y-114885326D01*
X83566372Y-114598957D01*
X84097093Y-114069161D01*
X84384672Y-113376595D01*
X84384674Y-113373305D01*
X94614674Y-113373305D01*
X94901043Y-114066372D01*
X95430839Y-114597093D01*
X96123405Y-114884672D01*
X96873305Y-114885326D01*
X97566372Y-114598957D01*
X98097093Y-114069161D01*
X98384672Y-113376595D01*
X98384674Y-113373305D01*
X99614674Y-113373305D01*
X99901043Y-114066372D01*
X100430839Y-114597093D01*
X101123405Y-114884672D01*
X101873305Y-114885326D01*
X102566372Y-114598957D01*
X102832472Y-114333320D01*
X105346285Y-114333320D01*
X105475533Y-114626123D01*
X106175806Y-114894388D01*
X106925435Y-114874250D01*
X107524467Y-114626123D01*
X107653715Y-114333320D01*
X106500000Y-113179605D01*
X105346285Y-114333320D01*
X102832472Y-114333320D01*
X103097093Y-114069161D01*
X103384672Y-113376595D01*
X103385283Y-112675806D01*
X104605612Y-112675806D01*
X104625750Y-113425435D01*
X104873877Y-114024467D01*
X105166680Y-114153715D01*
X106320395Y-113000000D01*
X106679605Y-113000000D01*
X107833320Y-114153715D01*
X108126123Y-114024467D01*
X108375574Y-113373305D01*
X109614674Y-113373305D01*
X109901043Y-114066372D01*
X110430839Y-114597093D01*
X111123405Y-114884672D01*
X111873305Y-114885326D01*
X112566372Y-114598957D01*
X113097093Y-114069161D01*
X113384672Y-113376595D01*
X113385326Y-112626695D01*
X113098957Y-111933628D01*
X112569161Y-111402907D01*
X111876595Y-111115328D01*
X111126695Y-111114674D01*
X110433628Y-111401043D01*
X109902907Y-111930839D01*
X109615328Y-112623405D01*
X109614674Y-113373305D01*
X108375574Y-113373305D01*
X108394388Y-113324194D01*
X108374250Y-112574565D01*
X108126123Y-111975533D01*
X107833320Y-111846285D01*
X106679605Y-113000000D01*
X106320395Y-113000000D01*
X105166680Y-111846285D01*
X104873877Y-111975533D01*
X104605612Y-112675806D01*
X103385283Y-112675806D01*
X103385326Y-112626695D01*
X103098957Y-111933628D01*
X102832475Y-111666680D01*
X105346285Y-111666680D01*
X106500000Y-112820395D01*
X107653715Y-111666680D01*
X107524467Y-111373877D01*
X106824194Y-111105612D01*
X106074565Y-111125750D01*
X105475533Y-111373877D01*
X105346285Y-111666680D01*
X102832475Y-111666680D01*
X102569161Y-111402907D01*
X101876595Y-111115328D01*
X101126695Y-111114674D01*
X100433628Y-111401043D01*
X99902907Y-111930839D01*
X99615328Y-112623405D01*
X99614674Y-113373305D01*
X98384674Y-113373305D01*
X98385326Y-112626695D01*
X98098957Y-111933628D01*
X97569161Y-111402907D01*
X96876595Y-111115328D01*
X96126695Y-111114674D01*
X95433628Y-111401043D01*
X94902907Y-111930839D01*
X94615328Y-112623405D01*
X94614674Y-113373305D01*
X84384674Y-113373305D01*
X84385326Y-112626695D01*
X84098957Y-111933628D01*
X83569161Y-111402907D01*
X82876595Y-111115328D01*
X82126695Y-111114674D01*
X81433628Y-111401043D01*
X80902907Y-111930839D01*
X80615328Y-112623405D01*
X80614674Y-113373305D01*
X79384674Y-113373305D01*
X79385326Y-112626695D01*
X79098957Y-111933628D01*
X78569161Y-111402907D01*
X77876595Y-111115328D01*
X77126695Y-111114674D01*
X76433628Y-111401043D01*
X75902907Y-111930839D01*
X75615328Y-112623405D01*
X75614674Y-113373305D01*
X54384674Y-113373305D01*
X54385326Y-112626695D01*
X54098957Y-111933628D01*
X53569161Y-111402907D01*
X52876595Y-111115328D01*
X52499801Y-111114999D01*
X51750500Y-110365698D01*
X51750500Y-110212174D01*
X51886651Y-110012910D01*
X51937660Y-109761020D01*
X51937660Y-108760260D01*
X51893382Y-108524943D01*
X51754310Y-108308819D01*
X51542110Y-108163829D01*
X51290220Y-108112820D01*
X50770665Y-108112820D01*
X50876047Y-108007439D01*
X50972720Y-107774050D01*
X50972720Y-107433110D01*
X50813970Y-107274360D01*
X50165000Y-107274360D01*
X50165000Y-108123990D01*
X50298872Y-108257862D01*
X50239339Y-108296170D01*
X50094349Y-108508370D01*
X50043340Y-108760260D01*
X50032660Y-108760260D01*
X49988382Y-108524943D01*
X49849310Y-108308819D01*
X49776155Y-108258835D01*
X49911000Y-108123990D01*
X49911000Y-107274360D01*
X49262030Y-107274360D01*
X49103280Y-107433110D01*
X49103280Y-107774050D01*
X49199953Y-108007439D01*
X49305335Y-108112820D01*
X48785780Y-108112820D01*
X48550463Y-108157098D01*
X48334339Y-108296170D01*
X48189349Y-108508370D01*
X48138340Y-108760260D01*
X48138340Y-109761020D01*
X48182618Y-109996337D01*
X48321690Y-110212461D01*
X48325500Y-110215064D01*
X48325500Y-110365698D01*
X47576132Y-111115066D01*
X47126695Y-111114674D01*
X46433628Y-111401043D01*
X45902907Y-111930839D01*
X45615328Y-112623405D01*
X45614674Y-113373305D01*
X20710000Y-113373305D01*
X20710000Y-106520670D01*
X49103280Y-106520670D01*
X49103280Y-106861610D01*
X49262030Y-107020360D01*
X49911000Y-107020360D01*
X49911000Y-106170730D01*
X50165000Y-106170730D01*
X50165000Y-107020360D01*
X50813970Y-107020360D01*
X50972720Y-106861610D01*
X50972720Y-106520670D01*
X50876047Y-106287281D01*
X50697418Y-106108653D01*
X50464029Y-106011980D01*
X50323750Y-106011980D01*
X50165000Y-106170730D01*
X49911000Y-106170730D01*
X49752250Y-106011980D01*
X49611971Y-106011980D01*
X49378582Y-106108653D01*
X49199953Y-106287281D01*
X49103280Y-106520670D01*
X20710000Y-106520670D01*
X20710000Y-102270191D01*
X20760852Y-102525839D01*
X20925599Y-102772401D01*
X23338599Y-105185401D01*
X23585160Y-105350148D01*
X23876000Y-105408000D01*
X39243000Y-105408000D01*
X39533839Y-105350148D01*
X39780401Y-105185401D01*
X43367802Y-101598000D01*
X46939889Y-101598000D01*
X46705808Y-101831673D01*
X46563162Y-102175201D01*
X46562838Y-102547167D01*
X46704883Y-102890943D01*
X46967673Y-103154192D01*
X47311201Y-103296838D01*
X47358077Y-103296879D01*
X47468599Y-103407401D01*
X47715161Y-103572148D01*
X47787820Y-103586601D01*
X47787820Y-103619300D01*
X47832098Y-103854617D01*
X47971170Y-104070741D01*
X48183370Y-104215731D01*
X48435260Y-104266740D01*
X49735740Y-104266740D01*
X49971057Y-104222462D01*
X50036078Y-104180622D01*
X50213951Y-104254300D01*
X50704750Y-104254300D01*
X50863500Y-104095550D01*
X50863500Y-102997000D01*
X50843500Y-102997000D01*
X50843500Y-102743000D01*
X50863500Y-102743000D01*
X50863500Y-101644450D01*
X51117500Y-101644450D01*
X51117500Y-102743000D01*
X51137500Y-102743000D01*
X51137500Y-102997000D01*
X51117500Y-102997000D01*
X51117500Y-104095550D01*
X51276250Y-104254300D01*
X51767049Y-104254300D01*
X52000438Y-104157627D01*
X52179067Y-103978999D01*
X52275740Y-103745610D01*
X52275740Y-103155750D01*
X52116992Y-102997002D01*
X52275740Y-102997002D01*
X52275740Y-102874214D01*
X52301673Y-102900192D01*
X52645201Y-103042838D01*
X52692077Y-103042879D01*
X53056599Y-103407401D01*
X53303161Y-103572148D01*
X53594000Y-103630000D01*
X53885833Y-103630000D01*
X53928098Y-103854617D01*
X54067170Y-104070741D01*
X54279370Y-104215731D01*
X54531260Y-104266740D01*
X55831740Y-104266740D01*
X56067057Y-104222462D01*
X56132078Y-104180622D01*
X56309951Y-104254300D01*
X56800750Y-104254300D01*
X56959500Y-104095550D01*
X56959500Y-102997000D01*
X57213500Y-102997000D01*
X57213500Y-104095550D01*
X57372250Y-104254300D01*
X57863049Y-104254300D01*
X58096438Y-104157627D01*
X58275067Y-103978999D01*
X58371740Y-103745610D01*
X58371740Y-103155750D01*
X58212990Y-102997000D01*
X57213500Y-102997000D01*
X56959500Y-102997000D01*
X56939500Y-102997000D01*
X56939500Y-102743000D01*
X56959500Y-102743000D01*
X56959500Y-101644450D01*
X57213500Y-101644450D01*
X57213500Y-102743000D01*
X58212990Y-102743000D01*
X58371740Y-102584250D01*
X58371740Y-102238992D01*
X58524673Y-102392192D01*
X58868201Y-102534838D01*
X59240167Y-102535162D01*
X59583943Y-102393117D01*
X59617118Y-102360000D01*
X70739000Y-102360000D01*
X71029839Y-102302148D01*
X71276401Y-102137401D01*
X72402680Y-101011122D01*
X72448167Y-101011162D01*
X72791943Y-100869117D01*
X73055192Y-100606327D01*
X73197838Y-100262799D01*
X73198162Y-99890833D01*
X73056117Y-99547057D01*
X72941218Y-99431957D01*
X73070838Y-99119799D01*
X73071162Y-98747833D01*
X72929117Y-98404057D01*
X72666327Y-98140808D01*
X72322799Y-97998162D01*
X71950833Y-97997838D01*
X71607057Y-98139883D01*
X71573882Y-98173000D01*
X59944000Y-98173000D01*
X59701414Y-98221254D01*
X59653160Y-98230852D01*
X59406599Y-98395599D01*
X58280320Y-99521878D01*
X58234833Y-99521838D01*
X57891057Y-99663883D01*
X57627808Y-99926673D01*
X57485162Y-100270201D01*
X57484838Y-100642167D01*
X57626883Y-100985943D01*
X57889673Y-101249192D01*
X58144352Y-101354945D01*
X58120162Y-101413201D01*
X58119994Y-101605929D01*
X58096438Y-101582373D01*
X57863049Y-101485700D01*
X57372250Y-101485700D01*
X57213500Y-101644450D01*
X56959500Y-101644450D01*
X56800750Y-101485700D01*
X56309951Y-101485700D01*
X56133905Y-101558621D01*
X56083630Y-101524269D01*
X55831740Y-101473260D01*
X54531260Y-101473260D01*
X54295943Y-101517538D01*
X54079819Y-101656610D01*
X53934829Y-101868810D01*
X53889829Y-102091027D01*
X53767122Y-101968320D01*
X53767162Y-101922833D01*
X53625117Y-101579057D01*
X53362327Y-101315808D01*
X53018799Y-101173162D01*
X52646833Y-101172838D01*
X52303057Y-101314883D01*
X52039808Y-101577673D01*
X52026878Y-101608813D01*
X52000438Y-101582373D01*
X51767049Y-101485700D01*
X51276250Y-101485700D01*
X51117500Y-101644450D01*
X50863500Y-101644450D01*
X50772123Y-101553073D01*
X50957192Y-101368327D01*
X51099838Y-101024799D01*
X51100162Y-100652833D01*
X50958117Y-100309057D01*
X50915790Y-100266656D01*
X50957192Y-100225327D01*
X51099838Y-99881799D01*
X51100162Y-99509833D01*
X50958117Y-99166057D01*
X50695327Y-98902808D01*
X50351799Y-98760162D01*
X49979833Y-98759838D01*
X49636057Y-98901883D01*
X49602882Y-98935000D01*
X42605802Y-98935000D01*
X41146000Y-97475198D01*
X41146000Y-97313750D01*
X78280260Y-97313750D01*
X78280260Y-97903610D01*
X78376933Y-98136999D01*
X78555562Y-98315627D01*
X78788951Y-98412300D01*
X79279750Y-98412300D01*
X79438500Y-98253550D01*
X79438500Y-97155000D01*
X78439010Y-97155000D01*
X78280260Y-97313750D01*
X41146000Y-97313750D01*
X41146000Y-92837000D01*
X41088148Y-92546161D01*
X40923401Y-92299599D01*
X40502969Y-91879167D01*
X44276838Y-91879167D01*
X44418883Y-92222943D01*
X44452000Y-92256118D01*
X44452000Y-95758000D01*
X44509852Y-96048839D01*
X44530940Y-96080399D01*
X44530838Y-96197167D01*
X44672883Y-96540943D01*
X44935673Y-96804192D01*
X45279201Y-96946838D01*
X45651167Y-96947162D01*
X45994943Y-96805117D01*
X46258192Y-96542327D01*
X46400838Y-96198799D01*
X46401162Y-95826833D01*
X46259117Y-95483057D01*
X45996327Y-95219808D01*
X45992576Y-95218250D01*
X54241700Y-95218250D01*
X54241700Y-95709049D01*
X54338373Y-95942438D01*
X54517001Y-96121067D01*
X54750390Y-96217740D01*
X55340250Y-96217740D01*
X55499000Y-96058990D01*
X55499000Y-95059500D01*
X55753000Y-95059500D01*
X55753000Y-96058990D01*
X55911750Y-96217740D01*
X56501610Y-96217740D01*
X56659378Y-96152390D01*
X78280260Y-96152390D01*
X78280260Y-96742250D01*
X78439010Y-96901000D01*
X79438500Y-96901000D01*
X79438500Y-95802450D01*
X79279750Y-95643700D01*
X78788951Y-95643700D01*
X78555562Y-95740373D01*
X78376933Y-95919001D01*
X78280260Y-96152390D01*
X56659378Y-96152390D01*
X56734999Y-96121067D01*
X56913627Y-95942438D01*
X57010300Y-95709049D01*
X57010300Y-95218250D01*
X56851550Y-95059500D01*
X55753000Y-95059500D01*
X55499000Y-95059500D01*
X54400450Y-95059500D01*
X54241700Y-95218250D01*
X45992576Y-95218250D01*
X45972000Y-95209706D01*
X45972000Y-92256463D01*
X46004192Y-92224327D01*
X46146838Y-91880799D01*
X46147162Y-91508833D01*
X46005117Y-91165057D01*
X45742327Y-90901808D01*
X45398799Y-90759162D01*
X45026833Y-90758838D01*
X44683057Y-90900883D01*
X44419808Y-91163673D01*
X44277162Y-91507201D01*
X44276838Y-91879167D01*
X40502969Y-91879167D01*
X39272401Y-90648599D01*
X39025839Y-90483852D01*
X38735000Y-90426000D01*
X36408360Y-90426000D01*
X36117521Y-90483852D01*
X36104080Y-90492833D01*
X35870958Y-90648599D01*
X34308643Y-92210915D01*
X34144107Y-92142594D01*
X33493866Y-92142026D01*
X32892905Y-92390338D01*
X32432714Y-92849727D01*
X32183354Y-93450253D01*
X32182786Y-94100494D01*
X32431098Y-94701455D01*
X32890487Y-95161646D01*
X33057560Y-95231021D01*
X33057560Y-96809560D01*
X33115412Y-97100399D01*
X33280159Y-97346961D01*
X33498599Y-97565401D01*
X33745161Y-97730148D01*
X33817820Y-97744601D01*
X33817820Y-97777300D01*
X33862098Y-98012617D01*
X34001170Y-98228741D01*
X34213370Y-98373731D01*
X34465260Y-98424740D01*
X35765740Y-98424740D01*
X36001057Y-98380462D01*
X36066078Y-98338622D01*
X36243951Y-98412300D01*
X36734750Y-98412300D01*
X36893500Y-98253550D01*
X36893500Y-97155000D01*
X37147500Y-97155000D01*
X37147500Y-98253550D01*
X37306250Y-98412300D01*
X37797049Y-98412300D01*
X38030438Y-98315627D01*
X38209067Y-98136999D01*
X38305740Y-97903610D01*
X38305740Y-97313750D01*
X38146990Y-97155000D01*
X37147500Y-97155000D01*
X36893500Y-97155000D01*
X36873500Y-97155000D01*
X36873500Y-96901000D01*
X36893500Y-96901000D01*
X36893500Y-95802450D01*
X37147500Y-95802450D01*
X37147500Y-96901000D01*
X38146990Y-96901000D01*
X38305740Y-96742250D01*
X38305740Y-96152390D01*
X38209067Y-95919001D01*
X38030438Y-95740373D01*
X37797049Y-95643700D01*
X37306250Y-95643700D01*
X37147500Y-95802450D01*
X36893500Y-95802450D01*
X36734750Y-95643700D01*
X36243951Y-95643700D01*
X36067905Y-95716621D01*
X36017630Y-95682269D01*
X35765740Y-95631260D01*
X34577560Y-95631260D01*
X34577560Y-95231296D01*
X34742215Y-95163262D01*
X35202406Y-94703873D01*
X35451766Y-94103347D01*
X35452334Y-93453106D01*
X35383251Y-93285912D01*
X36723163Y-91946000D01*
X38420198Y-91946000D01*
X38616767Y-92142569D01*
X37994746Y-92142026D01*
X37393785Y-92390338D01*
X36933594Y-92849727D01*
X36684234Y-93450253D01*
X36683666Y-94100494D01*
X36931978Y-94701455D01*
X37391367Y-95161646D01*
X37991893Y-95411006D01*
X38642134Y-95411574D01*
X39243095Y-95163262D01*
X39626000Y-94781024D01*
X39626000Y-97790000D01*
X39683852Y-98080839D01*
X39848599Y-98327401D01*
X41753599Y-100232401D01*
X42000161Y-100397148D01*
X42291000Y-100455000D01*
X42361198Y-100455000D01*
X38928198Y-103888000D01*
X24190802Y-103888000D01*
X22223000Y-101920198D01*
X22223000Y-101087449D01*
X22271098Y-101203855D01*
X22730487Y-101664046D01*
X23331013Y-101913406D01*
X23981254Y-101913974D01*
X24582215Y-101665662D01*
X24816923Y-101431363D01*
X27185883Y-101431363D01*
X27284482Y-101698165D01*
X27894022Y-101924601D01*
X28543817Y-101900541D01*
X29032398Y-101698165D01*
X29130997Y-101431363D01*
X28158440Y-100458805D01*
X27185883Y-101431363D01*
X24816923Y-101431363D01*
X25042406Y-101206273D01*
X25291766Y-100605747D01*
X25292282Y-100014782D01*
X26513039Y-100014782D01*
X26537099Y-100664577D01*
X26739475Y-101153158D01*
X27006277Y-101251757D01*
X27978835Y-100279200D01*
X28338045Y-100279200D01*
X29310603Y-101251757D01*
X29577405Y-101153158D01*
X29781820Y-100602894D01*
X32182786Y-100602894D01*
X32431098Y-101203855D01*
X32890487Y-101664046D01*
X33491013Y-101913406D01*
X34141254Y-101913974D01*
X34742215Y-101665662D01*
X34976923Y-101431363D01*
X37345883Y-101431363D01*
X37444482Y-101698165D01*
X38054022Y-101924601D01*
X38703817Y-101900541D01*
X39192398Y-101698165D01*
X39290997Y-101431363D01*
X38318440Y-100458805D01*
X37345883Y-101431363D01*
X34976923Y-101431363D01*
X35202406Y-101206273D01*
X35451766Y-100605747D01*
X35452282Y-100014782D01*
X36673039Y-100014782D01*
X36697099Y-100664577D01*
X36899475Y-101153158D01*
X37166277Y-101251757D01*
X38138835Y-100279200D01*
X38498045Y-100279200D01*
X39470603Y-101251757D01*
X39737405Y-101153158D01*
X39963841Y-100543618D01*
X39939781Y-99893823D01*
X39737405Y-99405242D01*
X39470603Y-99306643D01*
X38498045Y-100279200D01*
X38138835Y-100279200D01*
X37166277Y-99306643D01*
X36899475Y-99405242D01*
X36673039Y-100014782D01*
X35452282Y-100014782D01*
X35452334Y-99955506D01*
X35204022Y-99354545D01*
X34976911Y-99127037D01*
X37345883Y-99127037D01*
X38318440Y-100099595D01*
X39290997Y-99127037D01*
X39192398Y-98860235D01*
X38582858Y-98633799D01*
X37933063Y-98657859D01*
X37444482Y-98860235D01*
X37345883Y-99127037D01*
X34976911Y-99127037D01*
X34744633Y-98894354D01*
X34144107Y-98644994D01*
X33493866Y-98644426D01*
X32892905Y-98892738D01*
X32432714Y-99352127D01*
X32183354Y-99952653D01*
X32182786Y-100602894D01*
X29781820Y-100602894D01*
X29803841Y-100543618D01*
X29779781Y-99893823D01*
X29577405Y-99405242D01*
X29310603Y-99306643D01*
X28338045Y-100279200D01*
X27978835Y-100279200D01*
X27006277Y-99306643D01*
X26739475Y-99405242D01*
X26513039Y-100014782D01*
X25292282Y-100014782D01*
X25292334Y-99955506D01*
X25044022Y-99354545D01*
X24816911Y-99127037D01*
X27185883Y-99127037D01*
X28158440Y-100099595D01*
X29130997Y-99127037D01*
X29032398Y-98860235D01*
X28422858Y-98633799D01*
X27773063Y-98657859D01*
X27284482Y-98860235D01*
X27185883Y-99127037D01*
X24816911Y-99127037D01*
X24584633Y-98894354D01*
X23984107Y-98644994D01*
X23333866Y-98644426D01*
X22732905Y-98892738D01*
X22272714Y-99352127D01*
X22223000Y-99471852D01*
X22223000Y-98358802D01*
X22793802Y-97788000D01*
X23659833Y-97788000D01*
X23702098Y-98012617D01*
X23841170Y-98228741D01*
X24053370Y-98373731D01*
X24305260Y-98424740D01*
X25605740Y-98424740D01*
X25841057Y-98380462D01*
X25906078Y-98338622D01*
X26083951Y-98412300D01*
X26574750Y-98412300D01*
X26733500Y-98253550D01*
X26733500Y-97155000D01*
X26987500Y-97155000D01*
X26987500Y-98253550D01*
X27146250Y-98412300D01*
X27637049Y-98412300D01*
X27870438Y-98315627D01*
X28049067Y-98136999D01*
X28145740Y-97903610D01*
X28145740Y-97313750D01*
X27986990Y-97155000D01*
X26987500Y-97155000D01*
X26733500Y-97155000D01*
X26713500Y-97155000D01*
X26713500Y-96901000D01*
X26733500Y-96901000D01*
X26733500Y-95802450D01*
X26987500Y-95802450D01*
X26987500Y-96901000D01*
X27986990Y-96901000D01*
X28145740Y-96742250D01*
X28145740Y-96152390D01*
X28049067Y-95919001D01*
X27870438Y-95740373D01*
X27637049Y-95643700D01*
X27146250Y-95643700D01*
X26987500Y-95802450D01*
X26733500Y-95802450D01*
X26574750Y-95643700D01*
X26083951Y-95643700D01*
X25907905Y-95716621D01*
X25857630Y-95682269D01*
X25605740Y-95631260D01*
X24417560Y-95631260D01*
X24417560Y-95231296D01*
X24582215Y-95163262D01*
X25042406Y-94703873D01*
X25291766Y-94103347D01*
X25291768Y-94100494D01*
X26523666Y-94100494D01*
X26771978Y-94701455D01*
X27231367Y-95161646D01*
X27831893Y-95411006D01*
X28482134Y-95411574D01*
X29083095Y-95163262D01*
X29543286Y-94703873D01*
X29792646Y-94103347D01*
X29793214Y-93453106D01*
X29544902Y-92852145D01*
X29085513Y-92391954D01*
X28484987Y-92142594D01*
X27834746Y-92142026D01*
X27233785Y-92390338D01*
X26773594Y-92849727D01*
X26524234Y-93450253D01*
X26523666Y-94100494D01*
X25291768Y-94100494D01*
X25292334Y-93453106D01*
X25044022Y-92852145D01*
X24584633Y-92391954D01*
X23984107Y-92142594D01*
X23333866Y-92142026D01*
X22732905Y-92390338D01*
X22272714Y-92849727D01*
X22023354Y-93450253D01*
X22022786Y-94100494D01*
X22271098Y-94701455D01*
X22730487Y-95161646D01*
X22897560Y-95231021D01*
X22897560Y-96268000D01*
X22479000Y-96268000D01*
X22188161Y-96325852D01*
X21941599Y-96490599D01*
X20925599Y-97506599D01*
X20760852Y-97753161D01*
X20710000Y-98008809D01*
X20710000Y-81598159D01*
X27079446Y-81598159D01*
X27165852Y-81854643D01*
X27739336Y-82064458D01*
X28349460Y-82038839D01*
X28794148Y-81854643D01*
X28880554Y-81598159D01*
X27980000Y-80697605D01*
X27079446Y-81598159D01*
X20710000Y-81598159D01*
X20710000Y-80277336D01*
X26433542Y-80277336D01*
X26459161Y-80887460D01*
X26643357Y-81332148D01*
X26899841Y-81418554D01*
X27800395Y-80518000D01*
X28159605Y-80518000D01*
X29060159Y-81418554D01*
X29316643Y-81332148D01*
X29526458Y-80758664D01*
X29500839Y-80148540D01*
X29316643Y-79703852D01*
X29060159Y-79617446D01*
X28159605Y-80518000D01*
X27800395Y-80518000D01*
X26899841Y-79617446D01*
X26643357Y-79703852D01*
X26433542Y-80277336D01*
X20710000Y-80277336D01*
X20710000Y-79437841D01*
X27079446Y-79437841D01*
X27980000Y-80338395D01*
X28880554Y-79437841D01*
X28794148Y-79181357D01*
X28220664Y-78971542D01*
X27610540Y-78997161D01*
X27165852Y-79181357D01*
X27079446Y-79437841D01*
X20710000Y-79437841D01*
X20710000Y-77247750D01*
X27988260Y-77247750D01*
X27988260Y-77837610D01*
X28084933Y-78070999D01*
X28263562Y-78249627D01*
X28496951Y-78346300D01*
X28987750Y-78346300D01*
X29146500Y-78187550D01*
X29146500Y-77089000D01*
X28147010Y-77089000D01*
X27988260Y-77247750D01*
X20710000Y-77247750D01*
X20710000Y-76086390D01*
X27988260Y-76086390D01*
X27988260Y-76676250D01*
X28147010Y-76835000D01*
X29146500Y-76835000D01*
X29146500Y-75736450D01*
X29400500Y-75736450D01*
X29400500Y-76835000D01*
X29420500Y-76835000D01*
X29420500Y-77089000D01*
X29400500Y-77089000D01*
X29400500Y-78187550D01*
X29559250Y-78346300D01*
X30050049Y-78346300D01*
X30226095Y-78273379D01*
X30276370Y-78307731D01*
X30343500Y-78321325D01*
X30343500Y-79692500D01*
X30407061Y-80012041D01*
X30498267Y-80148540D01*
X30588066Y-80282934D01*
X31413566Y-81108434D01*
X31432560Y-81121125D01*
X31432560Y-81418000D01*
X31476838Y-81653317D01*
X31615910Y-81869441D01*
X31828110Y-82014431D01*
X32080000Y-82065440D01*
X33880000Y-82065440D01*
X34115317Y-82021162D01*
X34331441Y-81882090D01*
X34476431Y-81669890D01*
X34527440Y-81418000D01*
X34527440Y-79618000D01*
X34483162Y-79382683D01*
X34344090Y-79166559D01*
X34131890Y-79021569D01*
X33880000Y-78970560D01*
X32080000Y-78970560D01*
X32013500Y-78983073D01*
X32013500Y-78323975D01*
X32064057Y-78314462D01*
X32280181Y-78175390D01*
X32425171Y-77963190D01*
X32476180Y-77711300D01*
X32476180Y-76212700D01*
X32431902Y-75977383D01*
X32292830Y-75761259D01*
X32080630Y-75616269D01*
X31828740Y-75565260D01*
X30528260Y-75565260D01*
X30292943Y-75609538D01*
X30227922Y-75651378D01*
X30050049Y-75577700D01*
X29559250Y-75577700D01*
X29400500Y-75736450D01*
X29146500Y-75736450D01*
X28987750Y-75577700D01*
X28496951Y-75577700D01*
X28263562Y-75674373D01*
X28084933Y-75853001D01*
X27988260Y-76086390D01*
X20710000Y-76086390D01*
X20710000Y-70889320D01*
X26024285Y-70889320D01*
X26153533Y-71182123D01*
X26853806Y-71450388D01*
X27603435Y-71430250D01*
X28202467Y-71182123D01*
X28331715Y-70889320D01*
X27178000Y-69735605D01*
X26024285Y-70889320D01*
X20710000Y-70889320D01*
X20710000Y-69231806D01*
X25283612Y-69231806D01*
X25303750Y-69981435D01*
X25551877Y-70580467D01*
X25844680Y-70709715D01*
X26998395Y-69556000D01*
X27357605Y-69556000D01*
X28511320Y-70709715D01*
X28804123Y-70580467D01*
X29072388Y-69880194D01*
X29052250Y-69130565D01*
X28804123Y-68531533D01*
X28511320Y-68402285D01*
X27357605Y-69556000D01*
X26998395Y-69556000D01*
X25844680Y-68402285D01*
X25551877Y-68531533D01*
X25283612Y-69231806D01*
X20710000Y-69231806D01*
X20710000Y-68222680D01*
X26024285Y-68222680D01*
X27178000Y-69376395D01*
X28331715Y-68222680D01*
X28202467Y-67929877D01*
X27502194Y-67661612D01*
X26752565Y-67681750D01*
X26153533Y-67929877D01*
X26024285Y-68222680D01*
X20710000Y-68222680D01*
X20710000Y-64929305D01*
X25292674Y-64929305D01*
X25579043Y-65622372D01*
X26108839Y-66153093D01*
X26801405Y-66440672D01*
X27551305Y-66441326D01*
X28244372Y-66154957D01*
X28775093Y-65625161D01*
X29062672Y-64932595D01*
X29063326Y-64182695D01*
X28776957Y-63489628D01*
X28247161Y-62958907D01*
X27554595Y-62671328D01*
X26804695Y-62670674D01*
X26111628Y-62957043D01*
X25580907Y-63486839D01*
X25293328Y-64179405D01*
X25292674Y-64929305D01*
X20710000Y-64929305D01*
X20710000Y-56172325D01*
X29914587Y-56172325D01*
X30276916Y-57049229D01*
X30947242Y-57720726D01*
X31823513Y-58084585D01*
X32772325Y-58085413D01*
X33649229Y-57723084D01*
X34320726Y-57052758D01*
X34684585Y-56176487D01*
X34685413Y-55227675D01*
X34323084Y-54350771D01*
X33652758Y-53679274D01*
X32776487Y-53315415D01*
X31827675Y-53314587D01*
X30950771Y-53676916D01*
X30279274Y-54347242D01*
X29915415Y-55223513D01*
X29914587Y-56172325D01*
X20710000Y-56172325D01*
X20710000Y-51239167D01*
X23702838Y-51239167D01*
X23844883Y-51582943D01*
X24107673Y-51846192D01*
X24451201Y-51988838D01*
X24823167Y-51989162D01*
X25065578Y-51889000D01*
X29464000Y-51889000D01*
X29783541Y-51825439D01*
X30054434Y-51644434D01*
X33619868Y-48079000D01*
X84583536Y-48079000D01*
X84551808Y-48110673D01*
X84409162Y-48454201D01*
X84408838Y-48826167D01*
X84550883Y-49169943D01*
X84636000Y-49255209D01*
X84636000Y-53813757D01*
X84220000Y-53731009D01*
X83689983Y-53836436D01*
X83240657Y-54136666D01*
X82950000Y-54571665D01*
X82659343Y-54136666D01*
X82210017Y-53836436D01*
X81680000Y-53731009D01*
X81201522Y-53826184D01*
X81325838Y-53526799D01*
X81326162Y-53154833D01*
X81184117Y-52811057D01*
X80921327Y-52547808D01*
X80577799Y-52405162D01*
X80530923Y-52405121D01*
X79912401Y-51786599D01*
X79665839Y-51621852D01*
X79375000Y-51564000D01*
X62738000Y-51564000D01*
X62447161Y-51621852D01*
X62200599Y-51786599D01*
X56866599Y-57120599D01*
X56701852Y-57367161D01*
X56644000Y-57658000D01*
X56644000Y-59629198D01*
X47843198Y-68430000D01*
X46469865Y-68430000D01*
X46317635Y-68202172D01*
X45895336Y-67920000D01*
X46317635Y-67637828D01*
X46620467Y-67184609D01*
X46726807Y-66650000D01*
X46620467Y-66115391D01*
X46317635Y-65662172D01*
X45864416Y-65359340D01*
X45329807Y-65253000D01*
X44586193Y-65253000D01*
X44051584Y-65359340D01*
X43598365Y-65662172D01*
X43295533Y-66115391D01*
X43189193Y-66650000D01*
X43295533Y-67184609D01*
X43598365Y-67637828D01*
X44020664Y-67920000D01*
X43598365Y-68202172D01*
X43295533Y-68655391D01*
X43189193Y-69190000D01*
X43295533Y-69724609D01*
X43598365Y-70177828D01*
X44020664Y-70460000D01*
X43598365Y-70742172D01*
X43446135Y-70970000D01*
X43088802Y-70970000D01*
X42797000Y-70678198D01*
X42797000Y-64957802D01*
X46923802Y-60831000D01*
X53793537Y-60831000D01*
X53825673Y-60863192D01*
X54169201Y-61005838D01*
X54541167Y-61006162D01*
X54884943Y-60864117D01*
X55148192Y-60601327D01*
X55290838Y-60257799D01*
X55291162Y-59885833D01*
X55149117Y-59542057D01*
X54886327Y-59278808D01*
X54542799Y-59136162D01*
X54170833Y-59135838D01*
X53827057Y-59277883D01*
X53793882Y-59311000D01*
X46609000Y-59311000D01*
X46366414Y-59359254D01*
X46318160Y-59368852D01*
X46071599Y-59533599D01*
X41499599Y-64105599D01*
X41334852Y-64352161D01*
X41277000Y-64643000D01*
X41277000Y-70993000D01*
X41334852Y-71283839D01*
X41499599Y-71530401D01*
X42236599Y-72267401D01*
X42483160Y-72432148D01*
X42774000Y-72490000D01*
X43446135Y-72490000D01*
X43598365Y-72717828D01*
X44033606Y-73008647D01*
X43968239Y-73027941D01*
X43542550Y-73371974D01*
X43280920Y-73852723D01*
X43265960Y-73926930D01*
X43388460Y-74143000D01*
X44831000Y-74143000D01*
X44831000Y-74123000D01*
X45085000Y-74123000D01*
X45085000Y-74143000D01*
X46527540Y-74143000D01*
X46650040Y-73926930D01*
X46635080Y-73852723D01*
X46373450Y-73371974D01*
X45947761Y-73027941D01*
X45882394Y-73008647D01*
X46317635Y-72717828D01*
X46620467Y-72264609D01*
X46726807Y-71730000D01*
X46620467Y-71195391D01*
X46317635Y-70742172D01*
X45895336Y-70460000D01*
X46317635Y-70177828D01*
X46469865Y-69950000D01*
X48158000Y-69950000D01*
X48448839Y-69892148D01*
X48695401Y-69727401D01*
X57941401Y-60481401D01*
X58106148Y-60234839D01*
X58164000Y-59944000D01*
X58164000Y-57972802D01*
X63052802Y-53084000D01*
X79060198Y-53084000D01*
X79455878Y-53479680D01*
X79455838Y-53525167D01*
X79576789Y-53817892D01*
X79140000Y-53731009D01*
X78609983Y-53836436D01*
X78160657Y-54136666D01*
X77870000Y-54571665D01*
X77579343Y-54136666D01*
X77130017Y-53836436D01*
X76600000Y-53731009D01*
X76069983Y-53836436D01*
X75620657Y-54136666D01*
X75330000Y-54571665D01*
X75039343Y-54136666D01*
X74590017Y-53836436D01*
X74060000Y-53731009D01*
X73529983Y-53836436D01*
X73080657Y-54136666D01*
X72790000Y-54571665D01*
X72499343Y-54136666D01*
X72050017Y-53836436D01*
X71520000Y-53731009D01*
X70989983Y-53836436D01*
X70540657Y-54136666D01*
X70250000Y-54571665D01*
X69959343Y-54136666D01*
X69510017Y-53836436D01*
X68980000Y-53731009D01*
X68449983Y-53836436D01*
X68000657Y-54136666D01*
X67710000Y-54571665D01*
X67419343Y-54136666D01*
X66970017Y-53836436D01*
X66440000Y-53731009D01*
X65909983Y-53836436D01*
X65460657Y-54136666D01*
X65170000Y-54571665D01*
X64879343Y-54136666D01*
X64430017Y-53836436D01*
X63900000Y-53731009D01*
X63369983Y-53836436D01*
X62920657Y-54136666D01*
X62620427Y-54585992D01*
X62515000Y-55116009D01*
X62515000Y-55883991D01*
X62620427Y-56414008D01*
X62920657Y-56863334D01*
X63369983Y-57163564D01*
X63900000Y-57268991D01*
X64430017Y-57163564D01*
X64879343Y-56863334D01*
X65170000Y-56428335D01*
X65460657Y-56863334D01*
X65605000Y-56959781D01*
X65605000Y-58182132D01*
X59863074Y-63924058D01*
X59863162Y-63822833D01*
X59721117Y-63479057D01*
X59458327Y-63215808D01*
X59114799Y-63073162D01*
X58742833Y-63072838D01*
X58399057Y-63214883D01*
X58365882Y-63248000D01*
X55753000Y-63248000D01*
X55462160Y-63305852D01*
X55215599Y-63470599D01*
X49754599Y-68931599D01*
X49589852Y-69178161D01*
X49545518Y-69401043D01*
X49499808Y-69446673D01*
X49357162Y-69790201D01*
X49356838Y-70162167D01*
X49498883Y-70505943D01*
X49761673Y-70769192D01*
X50105201Y-70911838D01*
X50477167Y-70912162D01*
X50727000Y-70808933D01*
X50727000Y-75600132D01*
X50009632Y-76317500D01*
X49621975Y-76317500D01*
X49612462Y-76266943D01*
X49570321Y-76201454D01*
X49605731Y-76149630D01*
X49656740Y-75897740D01*
X49656740Y-74597260D01*
X49612462Y-74361943D01*
X49473390Y-74145819D01*
X49261190Y-74000829D01*
X49020000Y-73951987D01*
X49020000Y-73152000D01*
X49009768Y-73100560D01*
X48962148Y-72861160D01*
X48941060Y-72829600D01*
X48941162Y-72712833D01*
X48799117Y-72369057D01*
X48536327Y-72105808D01*
X48192799Y-71963162D01*
X47820833Y-71962838D01*
X47477057Y-72104883D01*
X47213808Y-72367673D01*
X47071162Y-72711201D01*
X47070838Y-73083167D01*
X47212883Y-73426943D01*
X47475673Y-73690192D01*
X47500000Y-73700294D01*
X47500000Y-73951833D01*
X47275383Y-73994098D01*
X47059259Y-74133170D01*
X46914269Y-74345370D01*
X46863260Y-74597260D01*
X46863260Y-75897740D01*
X46907538Y-76133057D01*
X46949679Y-76198546D01*
X46914269Y-76250370D01*
X46900675Y-76317500D01*
X46764368Y-76317500D01*
X46666434Y-76219566D01*
X46561767Y-76149630D01*
X46516004Y-76119052D01*
X46317635Y-75822172D01*
X45882394Y-75531353D01*
X45947761Y-75512059D01*
X46373450Y-75168026D01*
X46635080Y-74687277D01*
X46650040Y-74613070D01*
X46527540Y-74397000D01*
X45085000Y-74397000D01*
X45085000Y-74417000D01*
X44831000Y-74417000D01*
X44831000Y-74397000D01*
X43388460Y-74397000D01*
X43265960Y-74613070D01*
X43280920Y-74687277D01*
X43542550Y-75168026D01*
X43968239Y-75512059D01*
X44033606Y-75531353D01*
X43598365Y-75822172D01*
X43295533Y-76275391D01*
X43189193Y-76810000D01*
X43295533Y-77344609D01*
X43598365Y-77797828D01*
X43822130Y-77947343D01*
X43622863Y-77984838D01*
X43406739Y-78123910D01*
X43261749Y-78336110D01*
X43210740Y-78588000D01*
X43210740Y-78590000D01*
X42834802Y-78590000D01*
X42162000Y-77917198D01*
X42162000Y-76000463D01*
X42194192Y-75968327D01*
X42336838Y-75624799D01*
X42337162Y-75252833D01*
X42195117Y-74909057D01*
X41932327Y-74645808D01*
X41588799Y-74503162D01*
X41216833Y-74502838D01*
X40873057Y-74644883D01*
X40609808Y-74907673D01*
X40467162Y-75251201D01*
X40466838Y-75623167D01*
X40608883Y-75966943D01*
X40642000Y-76000118D01*
X40642000Y-78232000D01*
X40699852Y-78522839D01*
X40864599Y-78769401D01*
X41982599Y-79887401D01*
X42229161Y-80052148D01*
X42520000Y-80110000D01*
X43210740Y-80110000D01*
X43210740Y-80112000D01*
X43255018Y-80347317D01*
X43394090Y-80563441D01*
X43606290Y-80708431D01*
X43858180Y-80759440D01*
X46057820Y-80759440D01*
X46213863Y-80730078D01*
X46155000Y-81026000D01*
X46155000Y-83566000D01*
X46218561Y-83885541D01*
X46371327Y-84114171D01*
X46399566Y-84156434D01*
X47606066Y-85362934D01*
X47876960Y-85543940D01*
X48166918Y-85601616D01*
X48177538Y-85658057D01*
X48316610Y-85874181D01*
X48528810Y-86019171D01*
X48780700Y-86070180D01*
X50279300Y-86070180D01*
X50514617Y-86025902D01*
X50730741Y-85886830D01*
X50875731Y-85674630D01*
X50889325Y-85607500D01*
X56804025Y-85607500D01*
X56813538Y-85658057D01*
X56952610Y-85874181D01*
X57164810Y-86019171D01*
X57331000Y-86052825D01*
X57331000Y-87884000D01*
X57394561Y-88203541D01*
X57545100Y-88428839D01*
X57575566Y-88474434D01*
X59109000Y-90007868D01*
X59109000Y-90499045D01*
X58915300Y-90459820D01*
X57416700Y-90459820D01*
X57181383Y-90504098D01*
X56965259Y-90643170D01*
X56820269Y-90855370D01*
X56819534Y-90859000D01*
X56053234Y-90859000D01*
X55812799Y-90759162D01*
X55440833Y-90758838D01*
X55097057Y-90900883D01*
X54833808Y-91163673D01*
X54691162Y-91507201D01*
X54690938Y-91764774D01*
X54641383Y-91774098D01*
X54425259Y-91913170D01*
X54280269Y-92125370D01*
X54229260Y-92377260D01*
X54229260Y-93677740D01*
X54273538Y-93913057D01*
X54315378Y-93978078D01*
X54241700Y-94155951D01*
X54241700Y-94646750D01*
X54400450Y-94805500D01*
X55499000Y-94805500D01*
X55499000Y-94785500D01*
X55753000Y-94785500D01*
X55753000Y-94805500D01*
X56851550Y-94805500D01*
X56931492Y-94725558D01*
X57057001Y-94851067D01*
X57290390Y-94947740D01*
X57880250Y-94947740D01*
X58039000Y-94788990D01*
X58039000Y-93789500D01*
X58293000Y-93789500D01*
X58293000Y-94788990D01*
X58451750Y-94947740D01*
X59041610Y-94947740D01*
X59274999Y-94851067D01*
X59453627Y-94672438D01*
X59550300Y-94439049D01*
X59550300Y-93948250D01*
X59391550Y-93789500D01*
X58293000Y-93789500D01*
X58039000Y-93789500D01*
X58019000Y-93789500D01*
X58019000Y-93535500D01*
X58039000Y-93535500D01*
X58039000Y-93515500D01*
X58293000Y-93515500D01*
X58293000Y-93535500D01*
X59391550Y-93535500D01*
X59550300Y-93376750D01*
X59550300Y-92885951D01*
X59477379Y-92709905D01*
X59511731Y-92659630D01*
X59525325Y-92592500D01*
X59669690Y-92592500D01*
X59757201Y-92628838D01*
X60129167Y-92629162D01*
X60371578Y-92529000D01*
X71282132Y-92529000D01*
X74085566Y-95332434D01*
X74356459Y-95513439D01*
X74676000Y-95577000D01*
X80635500Y-95577000D01*
X80635500Y-95666025D01*
X80584943Y-95675538D01*
X80519922Y-95717378D01*
X80342049Y-95643700D01*
X79851250Y-95643700D01*
X79692500Y-95802450D01*
X79692500Y-96901000D01*
X79712500Y-96901000D01*
X79712500Y-97155000D01*
X79692500Y-97155000D01*
X79692500Y-98253550D01*
X79851250Y-98412300D01*
X80342049Y-98412300D01*
X80518095Y-98339379D01*
X80568370Y-98373731D01*
X80820260Y-98424740D01*
X82120740Y-98424740D01*
X82356057Y-98380462D01*
X82572181Y-98241390D01*
X82717171Y-98029190D01*
X82750825Y-97863000D01*
X83138766Y-97863000D01*
X83379201Y-97962838D01*
X83751167Y-97963162D01*
X83993578Y-97863000D01*
X87030132Y-97863000D01*
X90595566Y-101428434D01*
X90866460Y-101609440D01*
X91186000Y-101673000D01*
X95377000Y-101673000D01*
X95696541Y-101609439D01*
X95967434Y-101428434D01*
X96347148Y-101048720D01*
X96346838Y-101404167D01*
X96488883Y-101747943D01*
X96751673Y-102011192D01*
X97095201Y-102153838D01*
X97467167Y-102154162D01*
X97583728Y-102106000D01*
X103958537Y-102106000D01*
X103990673Y-102138192D01*
X104334201Y-102280838D01*
X104706167Y-102281162D01*
X105049943Y-102139117D01*
X105285479Y-101903991D01*
X113018735Y-101903991D01*
X113251932Y-102468371D01*
X113683357Y-102900551D01*
X114247330Y-103134733D01*
X114857991Y-103135265D01*
X115422371Y-102902068D01*
X115854551Y-102470643D01*
X116088733Y-101906670D01*
X116089265Y-101296009D01*
X115856068Y-100731629D01*
X115424643Y-100299449D01*
X114860670Y-100065267D01*
X114250009Y-100064735D01*
X113685629Y-100297932D01*
X113253449Y-100729357D01*
X113019267Y-101293330D01*
X113018735Y-101903991D01*
X105285479Y-101903991D01*
X105313192Y-101876327D01*
X105455838Y-101532799D01*
X105456162Y-101160833D01*
X105314117Y-100817057D01*
X105051327Y-100553808D01*
X104707799Y-100411162D01*
X104335833Y-100410838D01*
X103992057Y-100552883D01*
X103958882Y-100586000D01*
X97971241Y-100586000D01*
X97812327Y-100426808D01*
X97468799Y-100284162D01*
X97112017Y-100283851D01*
X97554934Y-99840934D01*
X97653780Y-99693000D01*
X97735939Y-99570041D01*
X97799500Y-99250500D01*
X97799500Y-98389975D01*
X97850057Y-98380462D01*
X98066181Y-98241390D01*
X98211171Y-98029190D01*
X98244825Y-97863000D01*
X98886766Y-97863000D01*
X99127201Y-97962838D01*
X99499167Y-97963162D01*
X99842943Y-97821117D01*
X100106192Y-97558327D01*
X100206778Y-97316090D01*
X100698877Y-96823991D01*
X113018735Y-96823991D01*
X113251932Y-97388371D01*
X113683357Y-97820551D01*
X114247330Y-98054733D01*
X114857991Y-98055265D01*
X115422371Y-97822068D01*
X115854551Y-97390643D01*
X116088733Y-96826670D01*
X116089265Y-96216009D01*
X115856068Y-95651629D01*
X115424643Y-95219449D01*
X114860670Y-94985267D01*
X114250009Y-94984735D01*
X113685629Y-95217932D01*
X113253449Y-95649357D01*
X113019267Y-96213330D01*
X113018735Y-96823991D01*
X100698877Y-96823991D01*
X105247868Y-92275000D01*
X113238143Y-92275000D01*
X113251932Y-92308371D01*
X113683357Y-92740551D01*
X114247330Y-92974733D01*
X114857991Y-92975265D01*
X115422371Y-92742068D01*
X115854551Y-92310643D01*
X116088733Y-91746670D01*
X116089265Y-91136009D01*
X115856068Y-90571629D01*
X115424643Y-90139449D01*
X114860670Y-89905267D01*
X114250009Y-89904735D01*
X113685629Y-90137932D01*
X113253449Y-90569357D01*
X113238649Y-90605000D01*
X104902000Y-90605000D01*
X104582459Y-90668561D01*
X104323130Y-90841839D01*
X104311566Y-90849566D01*
X101917500Y-93243632D01*
X100022000Y-91348132D01*
X100022000Y-85009234D01*
X100121838Y-84768799D01*
X100122162Y-84396833D01*
X100022000Y-84154422D01*
X100022000Y-77089000D01*
X99958439Y-76769459D01*
X99777434Y-76498566D01*
X96856434Y-73577566D01*
X96786743Y-73531000D01*
X96585541Y-73396561D01*
X96266000Y-73333000D01*
X94788234Y-73333000D01*
X94547799Y-73233162D01*
X94276337Y-73232926D01*
X94268830Y-73221259D01*
X94056630Y-73076269D01*
X93848545Y-73034131D01*
X93744934Y-72879066D01*
X91522434Y-70656566D01*
X91469863Y-70621439D01*
X91251541Y-70475561D01*
X90932000Y-70412000D01*
X78740000Y-70412000D01*
X78420459Y-70475561D01*
X78202137Y-70621439D01*
X78149566Y-70656566D01*
X78032203Y-70773929D01*
X78009117Y-70718057D01*
X77752078Y-70460569D01*
X77769838Y-70417799D01*
X77770162Y-70045833D01*
X77670000Y-69803422D01*
X77670000Y-69514843D01*
X78036167Y-69515162D01*
X78170449Y-69459678D01*
X78336673Y-69626192D01*
X78680201Y-69768838D01*
X79052167Y-69769162D01*
X79395943Y-69627117D01*
X79429118Y-69594000D01*
X85344000Y-69594000D01*
X85634839Y-69536148D01*
X85881401Y-69371401D01*
X92967683Y-62285119D01*
X92963000Y-62308662D01*
X92963000Y-62343338D01*
X93030367Y-62682013D01*
X93222210Y-62969128D01*
X93509325Y-63160971D01*
X93848000Y-63228338D01*
X94186675Y-63160971D01*
X94473790Y-62969128D01*
X94665633Y-62682013D01*
X94733000Y-62343338D01*
X94733000Y-62308662D01*
X94666829Y-61976000D01*
X94733000Y-61643338D01*
X94733000Y-61608662D01*
X94665633Y-61269987D01*
X94473790Y-60982872D01*
X94186675Y-60791029D01*
X93886485Y-60731317D01*
X94917401Y-59700401D01*
X95082148Y-59453839D01*
X95140000Y-59163000D01*
X95140000Y-57009894D01*
X95359343Y-56863334D01*
X95650000Y-56428335D01*
X95940657Y-56863334D01*
X96389983Y-57163564D01*
X96920000Y-57268991D01*
X97450017Y-57163564D01*
X97899343Y-56863334D01*
X98190000Y-56428335D01*
X98480657Y-56863334D01*
X98929983Y-57163564D01*
X99460000Y-57268991D01*
X99990017Y-57163564D01*
X100439343Y-56863334D01*
X100739573Y-56414008D01*
X100741496Y-56404339D01*
X100769028Y-56497349D01*
X101110460Y-56919145D01*
X101587316Y-57178173D01*
X101658815Y-57192318D01*
X101873000Y-57069656D01*
X101873000Y-55627000D01*
X102127000Y-55627000D01*
X102127000Y-57069656D01*
X102341185Y-57192318D01*
X102412684Y-57178173D01*
X102889540Y-56919145D01*
X103230972Y-56497349D01*
X103385000Y-55977000D01*
X103385000Y-55627000D01*
X102127000Y-55627000D01*
X101873000Y-55627000D01*
X101853000Y-55627000D01*
X101853000Y-55373000D01*
X101873000Y-55373000D01*
X101873000Y-53930344D01*
X102127000Y-53930344D01*
X102127000Y-55373000D01*
X103385000Y-55373000D01*
X103385000Y-55023000D01*
X103230972Y-54502651D01*
X102889540Y-54080855D01*
X102412684Y-53821827D01*
X102341185Y-53807682D01*
X102127000Y-53930344D01*
X101873000Y-53930344D01*
X101658815Y-53807682D01*
X101587316Y-53821827D01*
X101110460Y-54080855D01*
X100769028Y-54502651D01*
X100741496Y-54595661D01*
X100739573Y-54585992D01*
X100439343Y-54136666D01*
X99990017Y-53836436D01*
X99460000Y-53731009D01*
X98929983Y-53836436D01*
X98480657Y-54136666D01*
X98190000Y-54571665D01*
X97899343Y-54136666D01*
X97450017Y-53836436D01*
X96920000Y-53731009D01*
X96389983Y-53836436D01*
X95940657Y-54136666D01*
X95650000Y-54571665D01*
X95359343Y-54136666D01*
X94910017Y-53836436D01*
X94380000Y-53731009D01*
X93849983Y-53836436D01*
X93400657Y-54136666D01*
X93100427Y-54585992D01*
X93098504Y-54595661D01*
X93070972Y-54502651D01*
X92729540Y-54080855D01*
X92252684Y-53821827D01*
X92181185Y-53807682D01*
X91967000Y-53930344D01*
X91967000Y-55373000D01*
X91987000Y-55373000D01*
X91987000Y-55627000D01*
X91967000Y-55627000D01*
X91967000Y-57069656D01*
X92181185Y-57192318D01*
X92252684Y-57178173D01*
X92729540Y-56919145D01*
X93070972Y-56497349D01*
X93098504Y-56404339D01*
X93100427Y-56414008D01*
X93400657Y-56863334D01*
X93620000Y-57009894D01*
X93620000Y-58848198D01*
X92299599Y-60168599D01*
X92134852Y-60415161D01*
X92077000Y-60706000D01*
X92077000Y-61026198D01*
X85029198Y-68074000D01*
X79429463Y-68074000D01*
X79397327Y-68041808D01*
X79053799Y-67899162D01*
X78681833Y-67898838D01*
X78611000Y-67928106D01*
X78611000Y-67782368D01*
X78807201Y-67863838D01*
X79179167Y-67864162D01*
X79522943Y-67722117D01*
X79786192Y-67459327D01*
X79928838Y-67115799D01*
X79928879Y-67068923D01*
X80578802Y-66419000D01*
X85162537Y-66419000D01*
X85194673Y-66451192D01*
X85538201Y-66593838D01*
X85910167Y-66594162D01*
X86253943Y-66452117D01*
X86517192Y-66189327D01*
X86659838Y-65845799D01*
X86660162Y-65473833D01*
X86518117Y-65130057D01*
X86255327Y-64866808D01*
X85911799Y-64724162D01*
X85539833Y-64723838D01*
X85196057Y-64865883D01*
X85162882Y-64899000D01*
X80264000Y-64899000D01*
X79973160Y-64956852D01*
X79726599Y-65121599D01*
X78854320Y-65993878D01*
X78808833Y-65993838D01*
X78706873Y-66035967D01*
X78785838Y-65845799D01*
X78786162Y-65473833D01*
X78644117Y-65130057D01*
X78381327Y-64866808D01*
X78037799Y-64724162D01*
X77924000Y-64724063D01*
X77924000Y-64607868D01*
X78196868Y-64335000D01*
X84709000Y-64335000D01*
X85028541Y-64271439D01*
X85299434Y-64090434D01*
X86061434Y-63328434D01*
X86242440Y-63057540D01*
X86306000Y-62738000D01*
X86306000Y-57178685D01*
X86760000Y-57268991D01*
X87290017Y-57163564D01*
X87739343Y-56863334D01*
X88030000Y-56428335D01*
X88320657Y-56863334D01*
X88769983Y-57163564D01*
X89300000Y-57268991D01*
X89830017Y-57163564D01*
X90279343Y-56863334D01*
X90579573Y-56414008D01*
X90581496Y-56404339D01*
X90609028Y-56497349D01*
X90950460Y-56919145D01*
X91427316Y-57178173D01*
X91498815Y-57192318D01*
X91713000Y-57069656D01*
X91713000Y-55627000D01*
X91693000Y-55627000D01*
X91693000Y-55373000D01*
X91713000Y-55373000D01*
X91713000Y-53930344D01*
X91498815Y-53807682D01*
X91427316Y-53821827D01*
X90950460Y-54080855D01*
X90609028Y-54502651D01*
X90581496Y-54595661D01*
X90579573Y-54585992D01*
X90279343Y-54136666D01*
X89830017Y-53836436D01*
X89300000Y-53731009D01*
X88769983Y-53836436D01*
X88320657Y-54136666D01*
X88030000Y-54571665D01*
X87739343Y-54136666D01*
X87290017Y-53836436D01*
X86760000Y-53731009D01*
X86306000Y-53821315D01*
X86306000Y-48768000D01*
X86279008Y-48632304D01*
X86279162Y-48455833D01*
X86137117Y-48112057D01*
X86104118Y-48079000D01*
X100746132Y-48079000D01*
X103813000Y-51145868D01*
X103813000Y-71536132D01*
X101311667Y-74037465D01*
X101071057Y-74136883D01*
X100807808Y-74399673D01*
X100665162Y-74743201D01*
X100665090Y-74825288D01*
X93247401Y-67407599D01*
X93000839Y-67242852D01*
X92710000Y-67185000D01*
X89843463Y-67185000D01*
X89811327Y-67152808D01*
X89467799Y-67010162D01*
X89095833Y-67009838D01*
X88752057Y-67151883D01*
X88488808Y-67414673D01*
X88346162Y-67758201D01*
X88345838Y-68130167D01*
X88487883Y-68473943D01*
X88750673Y-68737192D01*
X89094201Y-68879838D01*
X89466167Y-68880162D01*
X89809943Y-68738117D01*
X89843118Y-68705000D01*
X92395198Y-68705000D01*
X100332000Y-76641802D01*
X100332000Y-90369537D01*
X100299808Y-90401673D01*
X100157162Y-90745201D01*
X100156838Y-91117167D01*
X100298883Y-91460943D01*
X100561673Y-91724192D01*
X100905201Y-91866838D01*
X101277167Y-91867162D01*
X101620943Y-91725117D01*
X101884192Y-91462327D01*
X102026838Y-91118799D01*
X102027162Y-90746833D01*
X101885117Y-90403057D01*
X101852000Y-90369882D01*
X101852000Y-86663991D01*
X113018735Y-86663991D01*
X113251932Y-87228371D01*
X113683357Y-87660551D01*
X114247330Y-87894733D01*
X114857991Y-87895265D01*
X115422371Y-87662068D01*
X115854551Y-87230643D01*
X116088733Y-86666670D01*
X116089265Y-86056009D01*
X115856068Y-85491629D01*
X115424643Y-85059449D01*
X114860670Y-84825267D01*
X114250009Y-84824735D01*
X113685629Y-85057932D01*
X113253449Y-85489357D01*
X113019267Y-86053330D01*
X113018735Y-86663991D01*
X101852000Y-86663991D01*
X101852000Y-76327000D01*
X101794148Y-76036161D01*
X101679829Y-75865070D01*
X101785167Y-75865162D01*
X102128943Y-75723117D01*
X102392192Y-75460327D01*
X102492778Y-75218090D01*
X103962868Y-73748000D01*
X113768560Y-73748000D01*
X113768560Y-75548000D01*
X113812838Y-75783317D01*
X113951910Y-75999441D01*
X114164110Y-76144431D01*
X114416000Y-76195440D01*
X116216000Y-76195440D01*
X116451317Y-76151162D01*
X116667441Y-76012090D01*
X116812431Y-75799890D01*
X116863440Y-75548000D01*
X116863440Y-73748000D01*
X116819162Y-73512683D01*
X116680090Y-73296559D01*
X116467890Y-73151569D01*
X116216000Y-73100560D01*
X114416000Y-73100560D01*
X114180683Y-73144838D01*
X113964559Y-73283910D01*
X113819569Y-73496110D01*
X113768560Y-73748000D01*
X103962868Y-73748000D01*
X105238434Y-72472434D01*
X105268900Y-72426839D01*
X105401653Y-72228159D01*
X114415446Y-72228159D01*
X114501852Y-72484643D01*
X115075336Y-72694458D01*
X115685460Y-72668839D01*
X116130148Y-72484643D01*
X116216554Y-72228159D01*
X115316000Y-71327605D01*
X114415446Y-72228159D01*
X105401653Y-72228159D01*
X105419439Y-72201541D01*
X105483000Y-71882000D01*
X105483000Y-70907336D01*
X113769542Y-70907336D01*
X113795161Y-71517460D01*
X113979357Y-71962148D01*
X114235841Y-72048554D01*
X115136395Y-71148000D01*
X115495605Y-71148000D01*
X116396159Y-72048554D01*
X116652643Y-71962148D01*
X116862458Y-71388664D01*
X116836839Y-70778540D01*
X116652643Y-70333852D01*
X116396159Y-70247446D01*
X115495605Y-71148000D01*
X115136395Y-71148000D01*
X114235841Y-70247446D01*
X113979357Y-70333852D01*
X113769542Y-70907336D01*
X105483000Y-70907336D01*
X105483000Y-70067841D01*
X114415446Y-70067841D01*
X115316000Y-70968395D01*
X116216554Y-70067841D01*
X116130148Y-69811357D01*
X115556664Y-69601542D01*
X114946540Y-69627161D01*
X114501852Y-69811357D01*
X114415446Y-70067841D01*
X105483000Y-70067841D01*
X105483000Y-56579916D01*
X105676916Y-57049229D01*
X106347242Y-57720726D01*
X107223513Y-58084585D01*
X108172325Y-58085413D01*
X109049229Y-57723084D01*
X109720726Y-57052758D01*
X110084585Y-56176487D01*
X110085413Y-55227675D01*
X109723084Y-54350771D01*
X109052758Y-53679274D01*
X108176487Y-53315415D01*
X107227675Y-53314587D01*
X106350771Y-53676916D01*
X105679274Y-54347242D01*
X105483000Y-54819923D01*
X105483000Y-50800000D01*
X105419439Y-50480459D01*
X105238434Y-50209566D01*
X101682434Y-46653566D01*
X101411541Y-46472561D01*
X101092000Y-46409000D01*
X33274000Y-46409000D01*
X32954460Y-46472560D01*
X32683566Y-46653566D01*
X29118132Y-50219000D01*
X25065234Y-50219000D01*
X24824799Y-50119162D01*
X24452833Y-50118838D01*
X24109057Y-50260883D01*
X23845808Y-50523673D01*
X23703162Y-50867201D01*
X23702838Y-51239167D01*
X20710000Y-51239167D01*
X20710000Y-46159167D01*
X21670838Y-46159167D01*
X21812883Y-46502943D01*
X22075673Y-46766192D01*
X22419201Y-46908838D01*
X22436422Y-46908853D01*
X22476960Y-46935940D01*
X22796500Y-46999500D01*
X26070025Y-46999500D01*
X26079538Y-47050057D01*
X26218610Y-47266181D01*
X26430810Y-47411171D01*
X26682700Y-47462180D01*
X28181300Y-47462180D01*
X28416617Y-47417902D01*
X28632741Y-47278830D01*
X28777731Y-47066630D01*
X28828740Y-46814740D01*
X28828740Y-45514260D01*
X28784462Y-45278943D01*
X28742622Y-45213922D01*
X28816300Y-45036049D01*
X28816300Y-44545250D01*
X28657550Y-44386500D01*
X27559000Y-44386500D01*
X27559000Y-44406500D01*
X27305000Y-44406500D01*
X27305000Y-44386500D01*
X26206450Y-44386500D01*
X26047700Y-44545250D01*
X26047700Y-45036049D01*
X26120621Y-45212095D01*
X26086269Y-45262370D01*
X26072675Y-45329500D01*
X23283761Y-45329500D01*
X23136327Y-45181808D01*
X22792799Y-45039162D01*
X22420833Y-45038838D01*
X22077057Y-45180883D01*
X21813808Y-45443673D01*
X21671162Y-45787201D01*
X21670838Y-46159167D01*
X20710000Y-46159167D01*
X20710000Y-43482951D01*
X26047700Y-43482951D01*
X26047700Y-43973750D01*
X26206450Y-44132500D01*
X27305000Y-44132500D01*
X27305000Y-43133010D01*
X27559000Y-43133010D01*
X27559000Y-44132500D01*
X28657550Y-44132500D01*
X28816300Y-43973750D01*
X28816300Y-43482951D01*
X28719627Y-43249562D01*
X28540999Y-43070933D01*
X28307610Y-42974260D01*
X27717750Y-42974260D01*
X27559000Y-43133010D01*
X27305000Y-43133010D01*
X27146250Y-42974260D01*
X26556390Y-42974260D01*
X26323001Y-43070933D01*
X26144373Y-43249562D01*
X26047700Y-43482951D01*
X20710000Y-43482951D01*
X20710000Y-41513877D01*
X63382528Y-41513877D01*
X63542295Y-41832632D01*
X64333017Y-42142595D01*
X65182166Y-42126367D01*
X65891305Y-41832632D01*
X66051072Y-41513877D01*
X64716800Y-40179605D01*
X63382528Y-41513877D01*
X20710000Y-41513877D01*
X20710000Y-39616217D01*
X62574205Y-39616217D01*
X62590433Y-40465366D01*
X62884168Y-41174505D01*
X63202923Y-41334272D01*
X64537195Y-40000000D01*
X64896405Y-40000000D01*
X66230677Y-41334272D01*
X66549432Y-41174505D01*
X66859395Y-40383783D01*
X66843167Y-39534634D01*
X66549432Y-38825495D01*
X66230677Y-38665728D01*
X64896405Y-40000000D01*
X64537195Y-40000000D01*
X63202923Y-38665728D01*
X62884168Y-38825495D01*
X62574205Y-39616217D01*
X20710000Y-39616217D01*
X20710000Y-38486123D01*
X63382528Y-38486123D01*
X64716800Y-39820395D01*
X66035795Y-38501400D01*
X83068560Y-38501400D01*
X83068560Y-41498600D01*
X83112838Y-41733917D01*
X83251910Y-41950041D01*
X83464110Y-42095031D01*
X83716000Y-42146040D01*
X86713200Y-42146040D01*
X86948517Y-42101762D01*
X87164641Y-41962690D01*
X87309631Y-41750490D01*
X87360640Y-41498600D01*
X87360640Y-38501400D01*
X87316362Y-38266083D01*
X87177290Y-38049959D01*
X86965090Y-37904969D01*
X86713200Y-37853960D01*
X83716000Y-37853960D01*
X83480683Y-37898238D01*
X83264559Y-38037310D01*
X83119569Y-38249510D01*
X83068560Y-38501400D01*
X66035795Y-38501400D01*
X66051072Y-38486123D01*
X65891305Y-38167368D01*
X65100583Y-37857405D01*
X64251434Y-37873633D01*
X63542295Y-38167368D01*
X63382528Y-38486123D01*
X20710000Y-38486123D01*
X20710000Y-37148159D01*
X21987446Y-37148159D01*
X22073852Y-37404643D01*
X22647336Y-37614458D01*
X23257460Y-37588839D01*
X23702148Y-37404643D01*
X23788554Y-37148159D01*
X22888000Y-36247605D01*
X21987446Y-37148159D01*
X20710000Y-37148159D01*
X20710000Y-35827336D01*
X21341542Y-35827336D01*
X21367161Y-36437460D01*
X21551357Y-36882148D01*
X21807841Y-36968554D01*
X22708395Y-36068000D01*
X23067605Y-36068000D01*
X23968159Y-36968554D01*
X24224643Y-36882148D01*
X24434458Y-36308664D01*
X24408839Y-35698540D01*
X24224643Y-35253852D01*
X23969804Y-35168000D01*
X24840560Y-35168000D01*
X24840560Y-36968000D01*
X24884838Y-37203317D01*
X25023910Y-37419441D01*
X25236110Y-37564431D01*
X25488000Y-37615440D01*
X27288000Y-37615440D01*
X27523317Y-37571162D01*
X27739441Y-37432090D01*
X27884431Y-37219890D01*
X27935440Y-36968000D01*
X27935440Y-35168000D01*
X27891162Y-34932683D01*
X27752090Y-34716559D01*
X27539890Y-34571569D01*
X27288000Y-34520560D01*
X27223000Y-34520560D01*
X27223000Y-33481323D01*
X27400617Y-33447902D01*
X27616741Y-33308830D01*
X27761731Y-33096630D01*
X27812740Y-32844740D01*
X27812740Y-31544260D01*
X27768462Y-31308943D01*
X27726321Y-31243454D01*
X27761731Y-31191630D01*
X27812740Y-30939740D01*
X27812740Y-29639260D01*
X27768462Y-29403943D01*
X27672772Y-29255236D01*
X27706943Y-29241117D01*
X27970192Y-28978327D01*
X28112838Y-28634799D01*
X28113162Y-28262833D01*
X27971117Y-27919057D01*
X27708327Y-27655808D01*
X27364799Y-27513162D01*
X26992833Y-27512838D01*
X26649057Y-27654883D01*
X26385808Y-27917673D01*
X26243162Y-28261201D01*
X26243121Y-28308077D01*
X25878599Y-28672599D01*
X25713852Y-28919161D01*
X25699399Y-28991820D01*
X25666700Y-28991820D01*
X25431383Y-29036098D01*
X25215259Y-29175170D01*
X25070269Y-29387370D01*
X25019260Y-29639260D01*
X25019260Y-30939740D01*
X25063538Y-31175057D01*
X25105679Y-31240546D01*
X25070269Y-31292370D01*
X25019260Y-31544260D01*
X25019260Y-32844740D01*
X25063538Y-33080057D01*
X25202610Y-33296181D01*
X25414810Y-33441171D01*
X25553000Y-33469155D01*
X25553000Y-34520560D01*
X25488000Y-34520560D01*
X25252683Y-34564838D01*
X25036559Y-34703910D01*
X24891569Y-34916110D01*
X24840560Y-35168000D01*
X23969804Y-35168000D01*
X23968159Y-35167446D01*
X23067605Y-36068000D01*
X22708395Y-36068000D01*
X21807841Y-35167446D01*
X21551357Y-35253852D01*
X21341542Y-35827336D01*
X20710000Y-35827336D01*
X20710000Y-34987841D01*
X21987446Y-34987841D01*
X22888000Y-35888395D01*
X23788554Y-34987841D01*
X23702148Y-34731357D01*
X23128664Y-34521542D01*
X22518540Y-34547161D01*
X22073852Y-34731357D01*
X21987446Y-34987841D01*
X20710000Y-34987841D01*
X20710000Y-23703398D01*
X20976866Y-24349263D01*
X21647208Y-25020776D01*
X22523501Y-25384645D01*
X23472336Y-25385473D01*
X24349263Y-25023134D01*
X24600510Y-24772325D01*
X29914587Y-24772325D01*
X30276916Y-25649229D01*
X30947242Y-26320726D01*
X31823513Y-26684585D01*
X32772325Y-26685413D01*
X33649229Y-26323084D01*
X34320726Y-25652758D01*
X34684585Y-24776487D01*
X34684588Y-24772325D01*
X105314587Y-24772325D01*
X105676916Y-25649229D01*
X106347242Y-26320726D01*
X107223513Y-26684585D01*
X108172325Y-26685413D01*
X109049229Y-26323084D01*
X109720726Y-25652758D01*
X110084585Y-24776487D01*
X110085413Y-23827675D01*
X109723084Y-22950771D01*
X109052758Y-22279274D01*
X108176487Y-21915415D01*
X107227675Y-21914587D01*
X106350771Y-22276916D01*
X105679274Y-22947242D01*
X105315415Y-23823513D01*
X105314587Y-24772325D01*
X34684588Y-24772325D01*
X34685413Y-23827675D01*
X34323084Y-22950771D01*
X33652758Y-22279274D01*
X32776487Y-21915415D01*
X31827675Y-21914587D01*
X30950771Y-22276916D01*
X30279274Y-22947242D01*
X29915415Y-23823513D01*
X29914587Y-24772325D01*
X24600510Y-24772325D01*
X25020776Y-24352792D01*
X25384645Y-23476499D01*
X25385473Y-22527664D01*
X25023134Y-21650737D01*
X24352792Y-20979224D01*
X23704429Y-20710000D01*
X116296602Y-20710000D01*
X115650737Y-20976866D01*
G36*
X91541832Y-73037700D02*
X91535250Y-73037700D01*
X91376500Y-73196450D01*
X91376500Y-74295000D01*
X91396500Y-74295000D01*
X91396500Y-74549000D01*
X91376500Y-74549000D01*
X91376500Y-75647550D01*
X91535250Y-75806300D01*
X92026049Y-75806300D01*
X92202095Y-75733379D01*
X92252370Y-75767731D01*
X92504260Y-75818740D01*
X93804740Y-75818740D01*
X94040057Y-75774462D01*
X94256181Y-75635390D01*
X94401171Y-75423190D01*
X94451007Y-75177091D01*
X94586739Y-75086398D01*
X94788578Y-75003000D01*
X95920132Y-75003000D01*
X98352000Y-77434868D01*
X98352000Y-84154766D01*
X98252162Y-84395201D01*
X98251838Y-84767167D01*
X98352000Y-85009578D01*
X98352000Y-91694000D01*
X98415561Y-92013541D01*
X98547792Y-92211439D01*
X98596566Y-92284434D01*
X100736632Y-94424500D01*
X99025667Y-96135465D01*
X98886422Y-96193000D01*
X98246054Y-96193000D01*
X98217902Y-96043383D01*
X98078830Y-95827259D01*
X97866630Y-95682269D01*
X97614740Y-95631260D01*
X96314260Y-95631260D01*
X96078943Y-95675538D01*
X96013922Y-95717378D01*
X95836049Y-95643700D01*
X95345250Y-95643700D01*
X95186500Y-95802450D01*
X95186500Y-96901000D01*
X95206500Y-96901000D01*
X95206500Y-97155000D01*
X95186500Y-97155000D01*
X95186500Y-98253550D01*
X95345250Y-98412300D01*
X95836049Y-98412300D01*
X96012095Y-98339379D01*
X96062370Y-98373731D01*
X96129500Y-98387325D01*
X96129500Y-98904632D01*
X95031132Y-100003000D01*
X91531868Y-100003000D01*
X88842618Y-97313750D01*
X93774260Y-97313750D01*
X93774260Y-97903610D01*
X93870933Y-98136999D01*
X94049562Y-98315627D01*
X94282951Y-98412300D01*
X94773750Y-98412300D01*
X94932500Y-98253550D01*
X94932500Y-97155000D01*
X93933010Y-97155000D01*
X93774260Y-97313750D01*
X88842618Y-97313750D01*
X87966434Y-96437566D01*
X87799242Y-96325852D01*
X87695541Y-96256561D01*
X87376000Y-96193000D01*
X83993234Y-96193000D01*
X83895435Y-96152390D01*
X93774260Y-96152390D01*
X93774260Y-96742250D01*
X93933010Y-96901000D01*
X94932500Y-96901000D01*
X94932500Y-95802450D01*
X94773750Y-95643700D01*
X94282951Y-95643700D01*
X94049562Y-95740373D01*
X93870933Y-95919001D01*
X93774260Y-96152390D01*
X83895435Y-96152390D01*
X83752799Y-96093162D01*
X83380833Y-96092838D01*
X83138422Y-96193000D01*
X82752054Y-96193000D01*
X82723902Y-96043383D01*
X82584830Y-95827259D01*
X82372630Y-95682269D01*
X82305500Y-95668675D01*
X82305500Y-84878983D01*
X82326192Y-84858327D01*
X82468838Y-84514799D01*
X82469162Y-84142833D01*
X82327117Y-83799057D01*
X82064327Y-83535808D01*
X81720799Y-83393162D01*
X81348833Y-83392838D01*
X81005057Y-83534883D01*
X80741808Y-83797673D01*
X80599162Y-84141201D01*
X80598838Y-84513167D01*
X80635500Y-84601896D01*
X80635500Y-93907000D01*
X75021868Y-93907000D01*
X72218434Y-91103566D01*
X72042575Y-90986061D01*
X71947541Y-90922561D01*
X71628000Y-90859000D01*
X60779000Y-90859000D01*
X60779000Y-89662000D01*
X60748658Y-89509460D01*
X61057599Y-89818401D01*
X61304160Y-89983148D01*
X61595000Y-90041000D01*
X71567198Y-90041000D01*
X74121878Y-92595680D01*
X74121838Y-92641167D01*
X74263883Y-92984943D01*
X74526673Y-93248192D01*
X74870201Y-93390838D01*
X75242167Y-93391162D01*
X75585943Y-93249117D01*
X75849192Y-92986327D01*
X75991838Y-92642799D01*
X75992162Y-92270833D01*
X75850117Y-91927057D01*
X75587327Y-91663808D01*
X75243799Y-91521162D01*
X75196923Y-91521121D01*
X75111149Y-91435347D01*
X75331943Y-91344117D01*
X75501565Y-91174791D01*
X75669673Y-91343192D01*
X76013201Y-91485838D01*
X76385167Y-91486162D01*
X76728943Y-91344117D01*
X76992192Y-91081327D01*
X77134838Y-90737799D01*
X77135162Y-90365833D01*
X76993117Y-90022057D01*
X76960000Y-89988882D01*
X76960000Y-88519000D01*
X76902148Y-88228161D01*
X76737401Y-87981599D01*
X72175371Y-83419569D01*
X72263000Y-83437000D01*
X74244667Y-83437000D01*
X74137808Y-83543673D01*
X73995162Y-83887201D01*
X73994838Y-84259167D01*
X74136883Y-84602943D01*
X74399673Y-84866192D01*
X74743201Y-85008838D01*
X75115167Y-85009162D01*
X75458943Y-84867117D01*
X75492118Y-84834000D01*
X77542537Y-84834000D01*
X77574673Y-84866192D01*
X77918201Y-85008838D01*
X78290167Y-85009162D01*
X78488000Y-84927419D01*
X78488000Y-88591537D01*
X78455808Y-88623673D01*
X78313162Y-88967201D01*
X78312838Y-89339167D01*
X78454883Y-89682943D01*
X78717673Y-89946192D01*
X79061201Y-90088838D01*
X79433167Y-90089162D01*
X79776943Y-89947117D01*
X80040192Y-89684327D01*
X80182838Y-89340799D01*
X80183162Y-88968833D01*
X80041117Y-88625057D01*
X80008000Y-88591882D01*
X80008000Y-83118802D01*
X82464785Y-80662017D01*
X82518883Y-80792943D01*
X82781673Y-81056192D01*
X83060000Y-81171764D01*
X83060000Y-90115537D01*
X83027808Y-90147673D01*
X82885162Y-90491201D01*
X82884838Y-90863167D01*
X83026883Y-91206943D01*
X83289673Y-91470192D01*
X83633201Y-91612838D01*
X84005167Y-91613162D01*
X84348943Y-91471117D01*
X84612192Y-91208327D01*
X84754838Y-90864799D01*
X84755162Y-90492833D01*
X84613117Y-90149057D01*
X84580000Y-90115882D01*
X84580000Y-88323167D01*
X87329838Y-88323167D01*
X87471883Y-88666943D01*
X87734673Y-88930192D01*
X88078201Y-89072838D01*
X88450167Y-89073162D01*
X88793943Y-88931117D01*
X88827118Y-88898000D01*
X95824198Y-88898000D01*
X95838878Y-88912680D01*
X95838838Y-88958167D01*
X95980883Y-89301943D01*
X96243673Y-89565192D01*
X96587201Y-89707838D01*
X96959167Y-89708162D01*
X97302943Y-89566117D01*
X97566192Y-89303327D01*
X97708838Y-88959799D01*
X97709162Y-88587833D01*
X97567117Y-88244057D01*
X97304327Y-87980808D01*
X96960799Y-87838162D01*
X96913923Y-87838121D01*
X96676401Y-87600599D01*
X96429839Y-87435852D01*
X96139000Y-87378000D01*
X88827463Y-87378000D01*
X88795327Y-87345808D01*
X88451799Y-87203162D01*
X88079833Y-87202838D01*
X87736057Y-87344883D01*
X87472808Y-87607673D01*
X87330162Y-87951201D01*
X87329838Y-88323167D01*
X84580000Y-88323167D01*
X84580000Y-80772000D01*
X84522148Y-80481161D01*
X84357401Y-80234599D01*
X84247122Y-80124320D01*
X84247162Y-80078833D01*
X84105117Y-79735057D01*
X83842327Y-79471808D01*
X83709958Y-79416844D01*
X84611401Y-78515401D01*
X84776148Y-78268839D01*
X84834000Y-77978000D01*
X84834000Y-75492463D01*
X84866192Y-75460327D01*
X85008838Y-75116799D01*
X85009002Y-74928000D01*
X86299198Y-74928000D01*
X87632000Y-76260802D01*
X87632000Y-79248000D01*
X87689852Y-79538839D01*
X87854599Y-79785401D01*
X89996878Y-81927680D01*
X89996838Y-81973167D01*
X90138883Y-82316943D01*
X90401673Y-82580192D01*
X90745201Y-82722838D01*
X91117167Y-82723162D01*
X91460943Y-82581117D01*
X91724192Y-82318327D01*
X91866838Y-81974799D01*
X91867162Y-81602833D01*
X91725117Y-81259057D01*
X91462327Y-80995808D01*
X91118799Y-80853162D01*
X91071923Y-80853121D01*
X89152000Y-78933198D01*
X89152000Y-75946000D01*
X89094148Y-75655161D01*
X88929401Y-75408599D01*
X88228552Y-74707750D01*
X89964260Y-74707750D01*
X89964260Y-75297610D01*
X90060933Y-75530999D01*
X90239562Y-75709627D01*
X90472951Y-75806300D01*
X90963750Y-75806300D01*
X91122500Y-75647550D01*
X91122500Y-74549000D01*
X90123010Y-74549000D01*
X89964260Y-74707750D01*
X88228552Y-74707750D01*
X87151401Y-73630599D01*
X87025373Y-73546390D01*
X89964260Y-73546390D01*
X89964260Y-74136250D01*
X90123010Y-74295000D01*
X91122500Y-74295000D01*
X91122500Y-73196450D01*
X90963750Y-73037700D01*
X90472951Y-73037700D01*
X90239562Y-73134373D01*
X90060933Y-73313001D01*
X89964260Y-73546390D01*
X87025373Y-73546390D01*
X86904839Y-73465852D01*
X86614000Y-73408000D01*
X83992888Y-73408000D01*
X83993162Y-73093833D01*
X83851117Y-72750057D01*
X83588327Y-72486808D01*
X83244799Y-72344162D01*
X83197923Y-72344121D01*
X83087401Y-72233599D01*
X82860516Y-72082000D01*
X90586132Y-72082000D01*
X91541832Y-73037700D01*
X91541832Y-73037700D01*
G37*
X91541832Y-73037700D02*
X91535250Y-73037700D01*
X91376500Y-73196450D01*
X91376500Y-74295000D01*
X91396500Y-74295000D01*
X91396500Y-74549000D01*
X91376500Y-74549000D01*
X91376500Y-75647550D01*
X91535250Y-75806300D01*
X92026049Y-75806300D01*
X92202095Y-75733379D01*
X92252370Y-75767731D01*
X92504260Y-75818740D01*
X93804740Y-75818740D01*
X94040057Y-75774462D01*
X94256181Y-75635390D01*
X94401171Y-75423190D01*
X94451007Y-75177091D01*
X94586739Y-75086398D01*
X94788578Y-75003000D01*
X95920132Y-75003000D01*
X98352000Y-77434868D01*
X98352000Y-84154766D01*
X98252162Y-84395201D01*
X98251838Y-84767167D01*
X98352000Y-85009578D01*
X98352000Y-91694000D01*
X98415561Y-92013541D01*
X98547792Y-92211439D01*
X98596566Y-92284434D01*
X100736632Y-94424500D01*
X99025667Y-96135465D01*
X98886422Y-96193000D01*
X98246054Y-96193000D01*
X98217902Y-96043383D01*
X98078830Y-95827259D01*
X97866630Y-95682269D01*
X97614740Y-95631260D01*
X96314260Y-95631260D01*
X96078943Y-95675538D01*
X96013922Y-95717378D01*
X95836049Y-95643700D01*
X95345250Y-95643700D01*
X95186500Y-95802450D01*
X95186500Y-96901000D01*
X95206500Y-96901000D01*
X95206500Y-97155000D01*
X95186500Y-97155000D01*
X95186500Y-98253550D01*
X95345250Y-98412300D01*
X95836049Y-98412300D01*
X96012095Y-98339379D01*
X96062370Y-98373731D01*
X96129500Y-98387325D01*
X96129500Y-98904632D01*
X95031132Y-100003000D01*
X91531868Y-100003000D01*
X88842618Y-97313750D01*
X93774260Y-97313750D01*
X93774260Y-97903610D01*
X93870933Y-98136999D01*
X94049562Y-98315627D01*
X94282951Y-98412300D01*
X94773750Y-98412300D01*
X94932500Y-98253550D01*
X94932500Y-97155000D01*
X93933010Y-97155000D01*
X93774260Y-97313750D01*
X88842618Y-97313750D01*
X87966434Y-96437566D01*
X87799242Y-96325852D01*
X87695541Y-96256561D01*
X87376000Y-96193000D01*
X83993234Y-96193000D01*
X83895435Y-96152390D01*
X93774260Y-96152390D01*
X93774260Y-96742250D01*
X93933010Y-96901000D01*
X94932500Y-96901000D01*
X94932500Y-95802450D01*
X94773750Y-95643700D01*
X94282951Y-95643700D01*
X94049562Y-95740373D01*
X93870933Y-95919001D01*
X93774260Y-96152390D01*
X83895435Y-96152390D01*
X83752799Y-96093162D01*
X83380833Y-96092838D01*
X83138422Y-96193000D01*
X82752054Y-96193000D01*
X82723902Y-96043383D01*
X82584830Y-95827259D01*
X82372630Y-95682269D01*
X82305500Y-95668675D01*
X82305500Y-84878983D01*
X82326192Y-84858327D01*
X82468838Y-84514799D01*
X82469162Y-84142833D01*
X82327117Y-83799057D01*
X82064327Y-83535808D01*
X81720799Y-83393162D01*
X81348833Y-83392838D01*
X81005057Y-83534883D01*
X80741808Y-83797673D01*
X80599162Y-84141201D01*
X80598838Y-84513167D01*
X80635500Y-84601896D01*
X80635500Y-93907000D01*
X75021868Y-93907000D01*
X72218434Y-91103566D01*
X72042575Y-90986061D01*
X71947541Y-90922561D01*
X71628000Y-90859000D01*
X60779000Y-90859000D01*
X60779000Y-89662000D01*
X60748658Y-89509460D01*
X61057599Y-89818401D01*
X61304160Y-89983148D01*
X61595000Y-90041000D01*
X71567198Y-90041000D01*
X74121878Y-92595680D01*
X74121838Y-92641167D01*
X74263883Y-92984943D01*
X74526673Y-93248192D01*
X74870201Y-93390838D01*
X75242167Y-93391162D01*
X75585943Y-93249117D01*
X75849192Y-92986327D01*
X75991838Y-92642799D01*
X75992162Y-92270833D01*
X75850117Y-91927057D01*
X75587327Y-91663808D01*
X75243799Y-91521162D01*
X75196923Y-91521121D01*
X75111149Y-91435347D01*
X75331943Y-91344117D01*
X75501565Y-91174791D01*
X75669673Y-91343192D01*
X76013201Y-91485838D01*
X76385167Y-91486162D01*
X76728943Y-91344117D01*
X76992192Y-91081327D01*
X77134838Y-90737799D01*
X77135162Y-90365833D01*
X76993117Y-90022057D01*
X76960000Y-89988882D01*
X76960000Y-88519000D01*
X76902148Y-88228161D01*
X76737401Y-87981599D01*
X72175371Y-83419569D01*
X72263000Y-83437000D01*
X74244667Y-83437000D01*
X74137808Y-83543673D01*
X73995162Y-83887201D01*
X73994838Y-84259167D01*
X74136883Y-84602943D01*
X74399673Y-84866192D01*
X74743201Y-85008838D01*
X75115167Y-85009162D01*
X75458943Y-84867117D01*
X75492118Y-84834000D01*
X77542537Y-84834000D01*
X77574673Y-84866192D01*
X77918201Y-85008838D01*
X78290167Y-85009162D01*
X78488000Y-84927419D01*
X78488000Y-88591537D01*
X78455808Y-88623673D01*
X78313162Y-88967201D01*
X78312838Y-89339167D01*
X78454883Y-89682943D01*
X78717673Y-89946192D01*
X79061201Y-90088838D01*
X79433167Y-90089162D01*
X79776943Y-89947117D01*
X80040192Y-89684327D01*
X80182838Y-89340799D01*
X80183162Y-88968833D01*
X80041117Y-88625057D01*
X80008000Y-88591882D01*
X80008000Y-83118802D01*
X82464785Y-80662017D01*
X82518883Y-80792943D01*
X82781673Y-81056192D01*
X83060000Y-81171764D01*
X83060000Y-90115537D01*
X83027808Y-90147673D01*
X82885162Y-90491201D01*
X82884838Y-90863167D01*
X83026883Y-91206943D01*
X83289673Y-91470192D01*
X83633201Y-91612838D01*
X84005167Y-91613162D01*
X84348943Y-91471117D01*
X84612192Y-91208327D01*
X84754838Y-90864799D01*
X84755162Y-90492833D01*
X84613117Y-90149057D01*
X84580000Y-90115882D01*
X84580000Y-88323167D01*
X87329838Y-88323167D01*
X87471883Y-88666943D01*
X87734673Y-88930192D01*
X88078201Y-89072838D01*
X88450167Y-89073162D01*
X88793943Y-88931117D01*
X88827118Y-88898000D01*
X95824198Y-88898000D01*
X95838878Y-88912680D01*
X95838838Y-88958167D01*
X95980883Y-89301943D01*
X96243673Y-89565192D01*
X96587201Y-89707838D01*
X96959167Y-89708162D01*
X97302943Y-89566117D01*
X97566192Y-89303327D01*
X97708838Y-88959799D01*
X97709162Y-88587833D01*
X97567117Y-88244057D01*
X97304327Y-87980808D01*
X96960799Y-87838162D01*
X96913923Y-87838121D01*
X96676401Y-87600599D01*
X96429839Y-87435852D01*
X96139000Y-87378000D01*
X88827463Y-87378000D01*
X88795327Y-87345808D01*
X88451799Y-87203162D01*
X88079833Y-87202838D01*
X87736057Y-87344883D01*
X87472808Y-87607673D01*
X87330162Y-87951201D01*
X87329838Y-88323167D01*
X84580000Y-88323167D01*
X84580000Y-80772000D01*
X84522148Y-80481161D01*
X84357401Y-80234599D01*
X84247122Y-80124320D01*
X84247162Y-80078833D01*
X84105117Y-79735057D01*
X83842327Y-79471808D01*
X83709958Y-79416844D01*
X84611401Y-78515401D01*
X84776148Y-78268839D01*
X84834000Y-77978000D01*
X84834000Y-75492463D01*
X84866192Y-75460327D01*
X85008838Y-75116799D01*
X85009002Y-74928000D01*
X86299198Y-74928000D01*
X87632000Y-76260802D01*
X87632000Y-79248000D01*
X87689852Y-79538839D01*
X87854599Y-79785401D01*
X89996878Y-81927680D01*
X89996838Y-81973167D01*
X90138883Y-82316943D01*
X90401673Y-82580192D01*
X90745201Y-82722838D01*
X91117167Y-82723162D01*
X91460943Y-82581117D01*
X91724192Y-82318327D01*
X91866838Y-81974799D01*
X91867162Y-81602833D01*
X91725117Y-81259057D01*
X91462327Y-80995808D01*
X91118799Y-80853162D01*
X91071923Y-80853121D01*
X89152000Y-78933198D01*
X89152000Y-75946000D01*
X89094148Y-75655161D01*
X88929401Y-75408599D01*
X88228552Y-74707750D01*
X89964260Y-74707750D01*
X89964260Y-75297610D01*
X90060933Y-75530999D01*
X90239562Y-75709627D01*
X90472951Y-75806300D01*
X90963750Y-75806300D01*
X91122500Y-75647550D01*
X91122500Y-74549000D01*
X90123010Y-74549000D01*
X89964260Y-74707750D01*
X88228552Y-74707750D01*
X87151401Y-73630599D01*
X87025373Y-73546390D01*
X89964260Y-73546390D01*
X89964260Y-74136250D01*
X90123010Y-74295000D01*
X91122500Y-74295000D01*
X91122500Y-73196450D01*
X90963750Y-73037700D01*
X90472951Y-73037700D01*
X90239562Y-73134373D01*
X90060933Y-73313001D01*
X89964260Y-73546390D01*
X87025373Y-73546390D01*
X86904839Y-73465852D01*
X86614000Y-73408000D01*
X83992888Y-73408000D01*
X83993162Y-73093833D01*
X83851117Y-72750057D01*
X83588327Y-72486808D01*
X83244799Y-72344162D01*
X83197923Y-72344121D01*
X83087401Y-72233599D01*
X82860516Y-72082000D01*
X90586132Y-72082000D01*
X91541832Y-73037700D01*
G36*
X74043000Y-88833802D02*
X74043000Y-89988537D01*
X74010808Y-90020673D01*
X73918581Y-90242779D01*
X72419401Y-88743599D01*
X72172839Y-88578852D01*
X71882000Y-88521000D01*
X61909802Y-88521000D01*
X61686281Y-88297479D01*
X61996943Y-88169117D01*
X62260192Y-87906327D01*
X62402838Y-87562799D01*
X62402879Y-87515923D01*
X64176785Y-85742017D01*
X64230883Y-85872943D01*
X64493673Y-86136192D01*
X64685009Y-86215642D01*
X64597162Y-86427201D01*
X64596838Y-86799167D01*
X64738883Y-87142943D01*
X65001673Y-87406192D01*
X65345201Y-87548838D01*
X65717167Y-87549162D01*
X66060943Y-87407117D01*
X66139189Y-87329008D01*
X66203839Y-87316148D01*
X66450401Y-87151401D01*
X67703680Y-85898122D01*
X67749167Y-85898162D01*
X68092943Y-85756117D01*
X68356192Y-85493327D01*
X68498838Y-85149799D01*
X68499162Y-84777833D01*
X68357117Y-84434057D01*
X68094327Y-84170808D01*
X67750799Y-84028162D01*
X67414933Y-84027869D01*
X68101401Y-83341401D01*
X68114900Y-83321198D01*
X68322829Y-83113631D01*
X74043000Y-88833802D01*
X74043000Y-88833802D01*
G37*
X74043000Y-88833802D02*
X74043000Y-89988537D01*
X74010808Y-90020673D01*
X73918581Y-90242779D01*
X72419401Y-88743599D01*
X72172839Y-88578852D01*
X71882000Y-88521000D01*
X61909802Y-88521000D01*
X61686281Y-88297479D01*
X61996943Y-88169117D01*
X62260192Y-87906327D01*
X62402838Y-87562799D01*
X62402879Y-87515923D01*
X64176785Y-85742017D01*
X64230883Y-85872943D01*
X64493673Y-86136192D01*
X64685009Y-86215642D01*
X64597162Y-86427201D01*
X64596838Y-86799167D01*
X64738883Y-87142943D01*
X65001673Y-87406192D01*
X65345201Y-87548838D01*
X65717167Y-87549162D01*
X66060943Y-87407117D01*
X66139189Y-87329008D01*
X66203839Y-87316148D01*
X66450401Y-87151401D01*
X67703680Y-85898122D01*
X67749167Y-85898162D01*
X68092943Y-85756117D01*
X68356192Y-85493327D01*
X68498838Y-85149799D01*
X68499162Y-84777833D01*
X68357117Y-84434057D01*
X68094327Y-84170808D01*
X67750799Y-84028162D01*
X67414933Y-84027869D01*
X68101401Y-83341401D01*
X68114900Y-83321198D01*
X68322829Y-83113631D01*
X74043000Y-88833802D01*
G36*
X53003538Y-69783057D02*
X53045679Y-69848546D01*
X53010269Y-69900370D01*
X52959260Y-70152260D01*
X52959260Y-71452740D01*
X53003538Y-71688057D01*
X53007996Y-71694985D01*
X52938057Y-71723883D01*
X52674808Y-71986673D01*
X52532162Y-72330201D01*
X52531838Y-72702167D01*
X52673883Y-73045943D01*
X52707000Y-73079118D01*
X52707000Y-76327000D01*
X52764852Y-76617839D01*
X52929599Y-76864401D01*
X56204198Y-80139000D01*
X52892802Y-80139000D01*
X52751122Y-79997320D01*
X52751162Y-79951833D01*
X52609117Y-79608057D01*
X52346327Y-79344808D01*
X52002799Y-79202162D01*
X51630833Y-79201838D01*
X51287057Y-79343883D01*
X51023808Y-79606673D01*
X50881162Y-79950201D01*
X50880838Y-80322167D01*
X51022883Y-80665943D01*
X51285673Y-80929192D01*
X51629201Y-81071838D01*
X51676077Y-81071879D01*
X52040599Y-81436401D01*
X52287161Y-81601148D01*
X52578000Y-81659000D01*
X57104001Y-81659000D01*
X57103997Y-81663895D01*
X56965259Y-81753170D01*
X56820269Y-81965370D01*
X56769260Y-82217260D01*
X56769260Y-83517740D01*
X56813538Y-83753057D01*
X56855679Y-83818546D01*
X56820269Y-83870370D01*
X56806675Y-83937500D01*
X50891975Y-83937500D01*
X50882462Y-83886943D01*
X50840321Y-83821454D01*
X50875731Y-83769630D01*
X50926740Y-83517740D01*
X50926740Y-82217260D01*
X50882462Y-81981943D01*
X50743390Y-81765819D01*
X50531190Y-81620829D01*
X50290000Y-81571987D01*
X50290000Y-81026000D01*
X50264738Y-80899000D01*
X50232148Y-80735160D01*
X50211060Y-80703600D01*
X50211162Y-80586833D01*
X50069117Y-80243057D01*
X49806327Y-79979808D01*
X49462799Y-79837162D01*
X49090833Y-79836838D01*
X49077853Y-79842201D01*
X49095000Y-79756000D01*
X49095000Y-78434054D01*
X49244617Y-78405902D01*
X49460741Y-78266830D01*
X49605731Y-78054630D01*
X49619325Y-77987500D01*
X50355500Y-77987500D01*
X50675041Y-77923939D01*
X50945934Y-77742934D01*
X52152434Y-76536434D01*
X52333440Y-76265540D01*
X52397000Y-75946000D01*
X52397000Y-70195868D01*
X52860368Y-69732500D01*
X52994025Y-69732500D01*
X53003538Y-69783057D01*
X53003538Y-69783057D01*
G37*
X53003538Y-69783057D02*
X53045679Y-69848546D01*
X53010269Y-69900370D01*
X52959260Y-70152260D01*
X52959260Y-71452740D01*
X53003538Y-71688057D01*
X53007996Y-71694985D01*
X52938057Y-71723883D01*
X52674808Y-71986673D01*
X52532162Y-72330201D01*
X52531838Y-72702167D01*
X52673883Y-73045943D01*
X52707000Y-73079118D01*
X52707000Y-76327000D01*
X52764852Y-76617839D01*
X52929599Y-76864401D01*
X56204198Y-80139000D01*
X52892802Y-80139000D01*
X52751122Y-79997320D01*
X52751162Y-79951833D01*
X52609117Y-79608057D01*
X52346327Y-79344808D01*
X52002799Y-79202162D01*
X51630833Y-79201838D01*
X51287057Y-79343883D01*
X51023808Y-79606673D01*
X50881162Y-79950201D01*
X50880838Y-80322167D01*
X51022883Y-80665943D01*
X51285673Y-80929192D01*
X51629201Y-81071838D01*
X51676077Y-81071879D01*
X52040599Y-81436401D01*
X52287161Y-81601148D01*
X52578000Y-81659000D01*
X57104001Y-81659000D01*
X57103997Y-81663895D01*
X56965259Y-81753170D01*
X56820269Y-81965370D01*
X56769260Y-82217260D01*
X56769260Y-83517740D01*
X56813538Y-83753057D01*
X56855679Y-83818546D01*
X56820269Y-83870370D01*
X56806675Y-83937500D01*
X50891975Y-83937500D01*
X50882462Y-83886943D01*
X50840321Y-83821454D01*
X50875731Y-83769630D01*
X50926740Y-83517740D01*
X50926740Y-82217260D01*
X50882462Y-81981943D01*
X50743390Y-81765819D01*
X50531190Y-81620829D01*
X50290000Y-81571987D01*
X50290000Y-81026000D01*
X50264738Y-80899000D01*
X50232148Y-80735160D01*
X50211060Y-80703600D01*
X50211162Y-80586833D01*
X50069117Y-80243057D01*
X49806327Y-79979808D01*
X49462799Y-79837162D01*
X49090833Y-79836838D01*
X49077853Y-79842201D01*
X49095000Y-79756000D01*
X49095000Y-78434054D01*
X49244617Y-78405902D01*
X49460741Y-78266830D01*
X49605731Y-78054630D01*
X49619325Y-77987500D01*
X50355500Y-77987500D01*
X50675041Y-77923939D01*
X50945934Y-77742934D01*
X52152434Y-76536434D01*
X52333440Y-76265540D01*
X52397000Y-75946000D01*
X52397000Y-70195868D01*
X52860368Y-69732500D01*
X52994025Y-69732500D01*
X53003538Y-69783057D01*
G36*
X78583599Y-74705401D02*
X78830161Y-74870148D01*
X79121000Y-74928000D01*
X83139001Y-74928000D01*
X83138838Y-75115167D01*
X83280883Y-75458943D01*
X83314000Y-75492118D01*
X83314000Y-77663198D01*
X81111215Y-79865983D01*
X81057117Y-79735057D01*
X80794327Y-79471808D01*
X80450799Y-79329162D01*
X80078833Y-79328838D01*
X79735057Y-79470883D01*
X79701882Y-79504000D01*
X78105000Y-79504000D01*
X77814160Y-79561852D01*
X77567599Y-79726599D01*
X76520198Y-80774000D01*
X73466802Y-80774000D01*
X73150000Y-80457198D01*
X73150000Y-80318463D01*
X73182192Y-80286327D01*
X73324838Y-79942799D01*
X73325162Y-79570833D01*
X73273557Y-79445939D01*
X73292390Y-79453740D01*
X73882250Y-79453740D01*
X74041000Y-79294990D01*
X74041000Y-78295500D01*
X74295000Y-78295500D01*
X74295000Y-79294990D01*
X74453750Y-79453740D01*
X75043610Y-79453740D01*
X75276999Y-79357067D01*
X75438000Y-79196065D01*
X75599001Y-79357067D01*
X75832390Y-79453740D01*
X76422250Y-79453740D01*
X76581000Y-79294990D01*
X76581000Y-78295500D01*
X76835000Y-78295500D01*
X76835000Y-79294990D01*
X76993750Y-79453740D01*
X77583610Y-79453740D01*
X77816999Y-79357067D01*
X77995627Y-79178438D01*
X78092300Y-78945049D01*
X78092300Y-78454250D01*
X77933550Y-78295500D01*
X76835000Y-78295500D01*
X76581000Y-78295500D01*
X75482450Y-78295500D01*
X75438000Y-78339950D01*
X75393550Y-78295500D01*
X74295000Y-78295500D01*
X74041000Y-78295500D01*
X72942450Y-78295500D01*
X72783700Y-78454250D01*
X72783700Y-78473849D01*
X72675117Y-78211057D01*
X72569290Y-78105046D01*
X72674192Y-78000327D01*
X72783700Y-77736604D01*
X72783700Y-77882750D01*
X72942450Y-78041500D01*
X74041000Y-78041500D01*
X74041000Y-78021500D01*
X74295000Y-78021500D01*
X74295000Y-78041500D01*
X75393550Y-78041500D01*
X75438000Y-77997050D01*
X75482450Y-78041500D01*
X76581000Y-78041500D01*
X76581000Y-78021500D01*
X76835000Y-78021500D01*
X76835000Y-78041500D01*
X77933550Y-78041500D01*
X78092300Y-77882750D01*
X78092300Y-77391951D01*
X78019379Y-77215905D01*
X78053731Y-77165630D01*
X78104740Y-76913740D01*
X78104740Y-75613260D01*
X78060462Y-75377943D01*
X77921390Y-75161819D01*
X77764350Y-75054518D01*
X78012333Y-74806535D01*
X78252943Y-74707117D01*
X78419274Y-74541076D01*
X78583599Y-74705401D01*
X78583599Y-74705401D01*
G37*
X78583599Y-74705401D02*
X78830161Y-74870148D01*
X79121000Y-74928000D01*
X83139001Y-74928000D01*
X83138838Y-75115167D01*
X83280883Y-75458943D01*
X83314000Y-75492118D01*
X83314000Y-77663198D01*
X81111215Y-79865983D01*
X81057117Y-79735057D01*
X80794327Y-79471808D01*
X80450799Y-79329162D01*
X80078833Y-79328838D01*
X79735057Y-79470883D01*
X79701882Y-79504000D01*
X78105000Y-79504000D01*
X77814160Y-79561852D01*
X77567599Y-79726599D01*
X76520198Y-80774000D01*
X73466802Y-80774000D01*
X73150000Y-80457198D01*
X73150000Y-80318463D01*
X73182192Y-80286327D01*
X73324838Y-79942799D01*
X73325162Y-79570833D01*
X73273557Y-79445939D01*
X73292390Y-79453740D01*
X73882250Y-79453740D01*
X74041000Y-79294990D01*
X74041000Y-78295500D01*
X74295000Y-78295500D01*
X74295000Y-79294990D01*
X74453750Y-79453740D01*
X75043610Y-79453740D01*
X75276999Y-79357067D01*
X75438000Y-79196065D01*
X75599001Y-79357067D01*
X75832390Y-79453740D01*
X76422250Y-79453740D01*
X76581000Y-79294990D01*
X76581000Y-78295500D01*
X76835000Y-78295500D01*
X76835000Y-79294990D01*
X76993750Y-79453740D01*
X77583610Y-79453740D01*
X77816999Y-79357067D01*
X77995627Y-79178438D01*
X78092300Y-78945049D01*
X78092300Y-78454250D01*
X77933550Y-78295500D01*
X76835000Y-78295500D01*
X76581000Y-78295500D01*
X75482450Y-78295500D01*
X75438000Y-78339950D01*
X75393550Y-78295500D01*
X74295000Y-78295500D01*
X74041000Y-78295500D01*
X72942450Y-78295500D01*
X72783700Y-78454250D01*
X72783700Y-78473849D01*
X72675117Y-78211057D01*
X72569290Y-78105046D01*
X72674192Y-78000327D01*
X72783700Y-77736604D01*
X72783700Y-77882750D01*
X72942450Y-78041500D01*
X74041000Y-78041500D01*
X74041000Y-78021500D01*
X74295000Y-78021500D01*
X74295000Y-78041500D01*
X75393550Y-78041500D01*
X75438000Y-77997050D01*
X75482450Y-78041500D01*
X76581000Y-78041500D01*
X76581000Y-78021500D01*
X76835000Y-78021500D01*
X76835000Y-78041500D01*
X77933550Y-78041500D01*
X78092300Y-77882750D01*
X78092300Y-77391951D01*
X78019379Y-77215905D01*
X78053731Y-77165630D01*
X78104740Y-76913740D01*
X78104740Y-75613260D01*
X78060462Y-75377943D01*
X77921390Y-75161819D01*
X77764350Y-75054518D01*
X78012333Y-74806535D01*
X78252943Y-74707117D01*
X78419274Y-74541076D01*
X78583599Y-74705401D01*
G36*
X63581162Y-64837201D02*
X63580838Y-65209167D01*
X63673409Y-65433206D01*
X63596808Y-65509673D01*
X63454162Y-65853201D01*
X63453838Y-66225167D01*
X63579466Y-66529210D01*
X63516510Y-66529210D01*
X63281193Y-66573488D01*
X63065069Y-66712560D01*
X62920079Y-66924760D01*
X62869070Y-67176650D01*
X62869070Y-69914128D01*
X61891953Y-70891245D01*
X61756830Y-70681259D01*
X61544630Y-70536269D01*
X61292740Y-70485260D01*
X59992260Y-70485260D01*
X59756943Y-70529538D01*
X59691922Y-70571378D01*
X59514049Y-70497700D01*
X59023250Y-70497700D01*
X58864500Y-70656450D01*
X58864500Y-71755000D01*
X58884500Y-71755000D01*
X58884500Y-72009000D01*
X58864500Y-72009000D01*
X58864500Y-73107550D01*
X59023250Y-73266300D01*
X59514049Y-73266300D01*
X59690095Y-73193379D01*
X59740370Y-73227731D01*
X59992260Y-73278740D01*
X61292740Y-73278740D01*
X61528057Y-73234462D01*
X61744181Y-73095390D01*
X61889171Y-72883190D01*
X61938013Y-72642000D01*
X61976000Y-72642000D01*
X62266839Y-72584148D01*
X62513401Y-72419401D01*
X62869070Y-72063732D01*
X62869070Y-72675750D01*
X62913348Y-72911067D01*
X63052420Y-73127191D01*
X63264620Y-73272181D01*
X63516510Y-73323190D01*
X63756000Y-73323190D01*
X63756000Y-74168000D01*
X63813852Y-74458839D01*
X63978599Y-74705401D01*
X64088878Y-74815680D01*
X64088838Y-74861167D01*
X64222383Y-75184371D01*
X64089162Y-75505201D01*
X64089121Y-75552077D01*
X63978599Y-75662599D01*
X63813852Y-75909161D01*
X63790052Y-76028810D01*
X63516510Y-76028810D01*
X63281193Y-76073088D01*
X63065069Y-76212160D01*
X62920079Y-76424360D01*
X62869070Y-76676250D01*
X62869070Y-77288268D01*
X62513401Y-76932599D01*
X62266839Y-76767852D01*
X61976000Y-76710000D01*
X61938167Y-76710000D01*
X61895902Y-76485383D01*
X61756830Y-76269259D01*
X61544630Y-76124269D01*
X61292740Y-76073260D01*
X59992260Y-76073260D01*
X59756943Y-76117538D01*
X59691922Y-76159378D01*
X59514049Y-76085700D01*
X59023250Y-76085700D01*
X58864500Y-76244450D01*
X58864500Y-77343000D01*
X58884500Y-77343000D01*
X58884500Y-77597000D01*
X58864500Y-77597000D01*
X58864500Y-77617000D01*
X58610500Y-77617000D01*
X58610500Y-77597000D01*
X58590500Y-77597000D01*
X58590500Y-77343000D01*
X58610500Y-77343000D01*
X58610500Y-76244450D01*
X58451750Y-76085700D01*
X57960951Y-76085700D01*
X57727562Y-76182373D01*
X57656000Y-76253935D01*
X57656000Y-73098065D01*
X57727562Y-73169627D01*
X57960951Y-73266300D01*
X58451750Y-73266300D01*
X58610500Y-73107550D01*
X58610500Y-72009000D01*
X58590500Y-72009000D01*
X58590500Y-71755000D01*
X58610500Y-71755000D01*
X58610500Y-70656450D01*
X58451750Y-70497700D01*
X57960951Y-70497700D01*
X57727562Y-70594373D01*
X57688607Y-70633328D01*
X57830838Y-70290799D01*
X57831162Y-69918833D01*
X57689117Y-69575057D01*
X57426327Y-69311808D01*
X57109957Y-69180439D01*
X57180192Y-69110327D01*
X57280778Y-68868090D01*
X60787148Y-65361720D01*
X60786838Y-65717167D01*
X60928883Y-66060943D01*
X61191673Y-66324192D01*
X61535201Y-66466838D01*
X61907167Y-66467162D01*
X62250943Y-66325117D01*
X62514192Y-66062327D01*
X62656838Y-65718799D01*
X62656879Y-65671923D01*
X63644759Y-64684043D01*
X63581162Y-64837201D01*
X63581162Y-64837201D01*
G37*
X63581162Y-64837201D02*
X63580838Y-65209167D01*
X63673409Y-65433206D01*
X63596808Y-65509673D01*
X63454162Y-65853201D01*
X63453838Y-66225167D01*
X63579466Y-66529210D01*
X63516510Y-66529210D01*
X63281193Y-66573488D01*
X63065069Y-66712560D01*
X62920079Y-66924760D01*
X62869070Y-67176650D01*
X62869070Y-69914128D01*
X61891953Y-70891245D01*
X61756830Y-70681259D01*
X61544630Y-70536269D01*
X61292740Y-70485260D01*
X59992260Y-70485260D01*
X59756943Y-70529538D01*
X59691922Y-70571378D01*
X59514049Y-70497700D01*
X59023250Y-70497700D01*
X58864500Y-70656450D01*
X58864500Y-71755000D01*
X58884500Y-71755000D01*
X58884500Y-72009000D01*
X58864500Y-72009000D01*
X58864500Y-73107550D01*
X59023250Y-73266300D01*
X59514049Y-73266300D01*
X59690095Y-73193379D01*
X59740370Y-73227731D01*
X59992260Y-73278740D01*
X61292740Y-73278740D01*
X61528057Y-73234462D01*
X61744181Y-73095390D01*
X61889171Y-72883190D01*
X61938013Y-72642000D01*
X61976000Y-72642000D01*
X62266839Y-72584148D01*
X62513401Y-72419401D01*
X62869070Y-72063732D01*
X62869070Y-72675750D01*
X62913348Y-72911067D01*
X63052420Y-73127191D01*
X63264620Y-73272181D01*
X63516510Y-73323190D01*
X63756000Y-73323190D01*
X63756000Y-74168000D01*
X63813852Y-74458839D01*
X63978599Y-74705401D01*
X64088878Y-74815680D01*
X64088838Y-74861167D01*
X64222383Y-75184371D01*
X64089162Y-75505201D01*
X64089121Y-75552077D01*
X63978599Y-75662599D01*
X63813852Y-75909161D01*
X63790052Y-76028810D01*
X63516510Y-76028810D01*
X63281193Y-76073088D01*
X63065069Y-76212160D01*
X62920079Y-76424360D01*
X62869070Y-76676250D01*
X62869070Y-77288268D01*
X62513401Y-76932599D01*
X62266839Y-76767852D01*
X61976000Y-76710000D01*
X61938167Y-76710000D01*
X61895902Y-76485383D01*
X61756830Y-76269259D01*
X61544630Y-76124269D01*
X61292740Y-76073260D01*
X59992260Y-76073260D01*
X59756943Y-76117538D01*
X59691922Y-76159378D01*
X59514049Y-76085700D01*
X59023250Y-76085700D01*
X58864500Y-76244450D01*
X58864500Y-77343000D01*
X58884500Y-77343000D01*
X58884500Y-77597000D01*
X58864500Y-77597000D01*
X58864500Y-77617000D01*
X58610500Y-77617000D01*
X58610500Y-77597000D01*
X58590500Y-77597000D01*
X58590500Y-77343000D01*
X58610500Y-77343000D01*
X58610500Y-76244450D01*
X58451750Y-76085700D01*
X57960951Y-76085700D01*
X57727562Y-76182373D01*
X57656000Y-76253935D01*
X57656000Y-73098065D01*
X57727562Y-73169627D01*
X57960951Y-73266300D01*
X58451750Y-73266300D01*
X58610500Y-73107550D01*
X58610500Y-72009000D01*
X58590500Y-72009000D01*
X58590500Y-71755000D01*
X58610500Y-71755000D01*
X58610500Y-70656450D01*
X58451750Y-70497700D01*
X57960951Y-70497700D01*
X57727562Y-70594373D01*
X57688607Y-70633328D01*
X57830838Y-70290799D01*
X57831162Y-69918833D01*
X57689117Y-69575057D01*
X57426327Y-69311808D01*
X57109957Y-69180439D01*
X57180192Y-69110327D01*
X57280778Y-68868090D01*
X60787148Y-65361720D01*
X60786838Y-65717167D01*
X60928883Y-66060943D01*
X61191673Y-66324192D01*
X61535201Y-66466838D01*
X61907167Y-66467162D01*
X62250943Y-66325117D01*
X62514192Y-66062327D01*
X62656838Y-65718799D01*
X62656879Y-65671923D01*
X63644759Y-64684043D01*
X63581162Y-64837201D01*
M02*
