G04 #@! TF.FileFunction,Paste,Bot*
%FSLAX46Y46*%
G04 Gerber Fmt 4.6, Leading zero omitted, Abs format (unit mm)*
G04 Created by KiCad (PCBNEW 4.0.6) date 07/24/17 16:42:21*
%MOMM*%
%LPD*%
G01*
G04 APERTURE LIST*
%ADD10C,0.100000*%
%ADD11R,1.300480X1.498600*%
%ADD12R,1.498600X1.300480*%
%ADD13R,0.599440X1.000760*%
%ADD14R,1.998980X5.499100*%
G04 APERTURE END LIST*
D10*
D11*
X60642500Y-77470000D03*
X58737500Y-77470000D03*
X60642500Y-71882000D03*
X58737500Y-71882000D03*
D12*
X74168000Y-76263500D03*
X74168000Y-78168500D03*
X76708000Y-76263500D03*
X76708000Y-78168500D03*
D11*
X31178500Y-76962000D03*
X29273500Y-76962000D03*
D12*
X27432000Y-46164500D03*
X27432000Y-44259500D03*
D11*
X93154500Y-74422000D03*
X91249500Y-74422000D03*
X55181500Y-102870000D03*
X57086500Y-102870000D03*
X49085500Y-102870000D03*
X50990500Y-102870000D03*
D12*
X58166000Y-91757500D03*
X58166000Y-93662500D03*
D11*
X96964500Y-97028000D03*
X95059500Y-97028000D03*
D12*
X55626000Y-93027500D03*
X55626000Y-94932500D03*
D11*
X81470500Y-97028000D03*
X79565500Y-97028000D03*
D12*
X26416000Y-30289500D03*
X26416000Y-32194500D03*
X48260000Y-75247500D03*
X48260000Y-77152500D03*
X58166000Y-82867500D03*
X58166000Y-84772500D03*
X54356000Y-70802500D03*
X54356000Y-68897500D03*
X49530000Y-82867500D03*
X49530000Y-84772500D03*
D13*
X50990500Y-109260640D03*
X50038000Y-107147360D03*
X49085500Y-109260640D03*
D14*
X64516000Y-79425800D03*
X64516000Y-69926200D03*
D11*
X24955500Y-97028000D03*
X26860500Y-97028000D03*
X35115500Y-97028000D03*
X37020500Y-97028000D03*
M02*
