G04 #@! TF.FileFunction,Paste,Top*
%FSLAX46Y46*%
G04 Gerber Fmt 4.6, Leading zero omitted, Abs format (unit mm)*
G04 Created by KiCad (PCBNEW 4.0.6) date 07/24/17 16:42:21*
%MOMM*%
%LPD*%
G01*
G04 APERTURE LIST*
%ADD10C,0.100000*%
%ADD11R,0.551180X1.430020*%
%ADD12R,1.498600X1.300480*%
%ADD13R,1.300480X1.498600*%
%ADD14R,1.699260X2.100580*%
%ADD15R,1.198880X1.198880*%
%ADD16R,2.100580X1.699260*%
%ADD17R,1.000760X0.599440*%
%ADD18R,0.599440X1.000760*%
%ADD19R,0.800100X0.599440*%
%ADD20R,0.701040X1.099820*%
%ADD21R,0.599440X1.998980*%
%ADD22R,1.800860X1.300480*%
%ADD23R,1.800860X3.799840*%
%ADD24R,1.800860X4.201160*%
%ADD25R,9.999980X9.499600*%
%ADD26R,1.998980X0.599440*%
%ADD27R,2.000000X2.000000*%
%ADD28R,5.499100X1.998980*%
G04 APERTURE END LIST*
D10*
D11*
X60198000Y-99298760D03*
X61468000Y-99298760D03*
X62738000Y-99298760D03*
X64008000Y-99298760D03*
X65278000Y-99298760D03*
X66548000Y-99298760D03*
X67818000Y-99298760D03*
X69088000Y-99298760D03*
X70358000Y-99298760D03*
X70358000Y-89677240D03*
X69088000Y-89677240D03*
X67818000Y-89677240D03*
X66548000Y-89677240D03*
X65278000Y-89677240D03*
X64008000Y-89677240D03*
X62738000Y-89677240D03*
X61468000Y-89677240D03*
X60198000Y-89677240D03*
D12*
X109474000Y-79438500D03*
X109474000Y-77533500D03*
D13*
X62547500Y-108966000D03*
X64452500Y-108966000D03*
X72072500Y-108966000D03*
X70167500Y-108966000D03*
D14*
X24638000Y-53896260D03*
X24638000Y-57355740D03*
D15*
X25687020Y-28448000D03*
X23588980Y-28448000D03*
X58199020Y-66802000D03*
X56100980Y-66802000D03*
X51595020Y-66802000D03*
X49496980Y-66802000D03*
D16*
X104442260Y-97536000D03*
X107901740Y-97536000D03*
D15*
X115603020Y-80518000D03*
X113504980Y-80518000D03*
X49496980Y-72644000D03*
X51595020Y-72644000D03*
X58199020Y-78486000D03*
X56100980Y-78486000D03*
X56354980Y-72644000D03*
X58453020Y-72644000D03*
X49496980Y-78486000D03*
X51595020Y-78486000D03*
D17*
X105369360Y-89217500D03*
X107482640Y-90170000D03*
X105369360Y-91122500D03*
D18*
X78930500Y-86065360D03*
X77978000Y-88178640D03*
X77025500Y-86065360D03*
D17*
X85684360Y-69659500D03*
X87797640Y-70612000D03*
X85684360Y-71564500D03*
D12*
X90932000Y-76009500D03*
X90932000Y-77914500D03*
X93218000Y-76009500D03*
X93218000Y-77914500D03*
D13*
X62293500Y-77978000D03*
X64198500Y-77978000D03*
D12*
X41402000Y-68262500D03*
X41402000Y-66357500D03*
D13*
X62293500Y-80264000D03*
X64198500Y-80264000D03*
X107378500Y-86614000D03*
X105473500Y-86614000D03*
X107378500Y-93980000D03*
X105473500Y-93980000D03*
X59880500Y-55372000D03*
X57975500Y-55372000D03*
D12*
X52578000Y-103949500D03*
X52578000Y-105854500D03*
X118872000Y-93027500D03*
X118872000Y-94932500D03*
X47498000Y-103949500D03*
X47498000Y-105854500D03*
X84328000Y-86169500D03*
X84328000Y-88074500D03*
D13*
X82486500Y-71120000D03*
X80581500Y-71120000D03*
D12*
X81534000Y-88074500D03*
X81534000Y-86169500D03*
X99314000Y-88074500D03*
X99314000Y-86169500D03*
D13*
X80581500Y-77470000D03*
X82486500Y-77470000D03*
X82486500Y-74930000D03*
X80581500Y-74930000D03*
X80581500Y-66040000D03*
X82486500Y-66040000D03*
X82486500Y-68580000D03*
X80581500Y-68580000D03*
X42227500Y-94234000D03*
X44132500Y-94234000D03*
X77406500Y-101346000D03*
X75501500Y-101346000D03*
X81470500Y-101346000D03*
X79565500Y-101346000D03*
X85534500Y-101346000D03*
X83629500Y-101346000D03*
X100774500Y-103378000D03*
X98869500Y-103378000D03*
X104838500Y-103378000D03*
X102933500Y-103378000D03*
X108902500Y-103378000D03*
X106997500Y-103378000D03*
D19*
X100106480Y-51704240D03*
D20*
X97607120Y-51054000D03*
D19*
X100106480Y-50403760D03*
D10*
G36*
X68745458Y-69658446D02*
X69311215Y-70224203D01*
X69063360Y-70472058D01*
X68497603Y-69906301D01*
X68745458Y-69658446D01*
X68745458Y-69658446D01*
G37*
G36*
X68285669Y-70118235D02*
X68851426Y-70683992D01*
X68603571Y-70931847D01*
X68037814Y-70366090D01*
X68285669Y-70118235D01*
X68285669Y-70118235D01*
G37*
G36*
X67825880Y-70578025D02*
X68391637Y-71143782D01*
X68143782Y-71391637D01*
X67578025Y-70825880D01*
X67825880Y-70578025D01*
X67825880Y-70578025D01*
G37*
G36*
X67366090Y-71037814D02*
X67931847Y-71603571D01*
X67683992Y-71851426D01*
X67118235Y-71285669D01*
X67366090Y-71037814D01*
X67366090Y-71037814D01*
G37*
G36*
X66762618Y-73230792D02*
X67010473Y-73478647D01*
X66444716Y-74044404D01*
X66196861Y-73796549D01*
X66762618Y-73230792D01*
X66762618Y-73230792D01*
G37*
G36*
X67222407Y-73690581D02*
X67470262Y-73938436D01*
X66904505Y-74504193D01*
X66656650Y-74256338D01*
X67222407Y-73690581D01*
X67222407Y-73690581D01*
G37*
G36*
X67682196Y-74150370D02*
X67930051Y-74398225D01*
X67364294Y-74963982D01*
X67116439Y-74716127D01*
X67682196Y-74150370D01*
X67682196Y-74150370D01*
G37*
G36*
X68141985Y-74610160D02*
X68389840Y-74858015D01*
X67824083Y-75423772D01*
X67576228Y-75175917D01*
X68141985Y-74610160D01*
X68141985Y-74610160D01*
G37*
G36*
X68601775Y-75069949D02*
X68849630Y-75317804D01*
X68283873Y-75883561D01*
X68036018Y-75635706D01*
X68601775Y-75069949D01*
X68601775Y-75069949D01*
G37*
G36*
X69061564Y-75529738D02*
X69309419Y-75777593D01*
X68743662Y-76343350D01*
X68495807Y-76095495D01*
X69061564Y-75529738D01*
X69061564Y-75529738D01*
G37*
G36*
X69521353Y-75989527D02*
X69769208Y-76237382D01*
X69203451Y-76803139D01*
X68955596Y-76555284D01*
X69521353Y-75989527D01*
X69521353Y-75989527D01*
G37*
G36*
X69205247Y-69198657D02*
X69771004Y-69764414D01*
X69523149Y-70012269D01*
X68957392Y-69446512D01*
X69205247Y-69198657D01*
X69205247Y-69198657D01*
G37*
G36*
X68656554Y-71796646D02*
X69859908Y-73000000D01*
X68656554Y-74203354D01*
X67453200Y-73000000D01*
X68656554Y-71796646D01*
X68656554Y-71796646D01*
G37*
G36*
X70000000Y-70453200D02*
X71203354Y-71656554D01*
X70000000Y-72859908D01*
X68796646Y-71656554D01*
X70000000Y-70453200D01*
X70000000Y-70453200D01*
G37*
G36*
X71343446Y-71796646D02*
X72546800Y-73000000D01*
X71343446Y-74203354D01*
X70140092Y-73000000D01*
X71343446Y-71796646D01*
X71343446Y-71796646D01*
G37*
G36*
X70000000Y-73140092D02*
X71203354Y-74343446D01*
X70000000Y-75546800D01*
X68796646Y-74343446D01*
X70000000Y-73140092D01*
X70000000Y-73140092D01*
G37*
G36*
X70442726Y-76025448D02*
X71008483Y-76591205D01*
X70760628Y-76839060D01*
X70194871Y-76273303D01*
X70442726Y-76025448D01*
X70442726Y-76025448D01*
G37*
G36*
X70902515Y-75565659D02*
X71468272Y-76131416D01*
X71220417Y-76379271D01*
X70654660Y-75813514D01*
X70902515Y-75565659D01*
X70902515Y-75565659D01*
G37*
G36*
X71362304Y-75105870D02*
X71928061Y-75671627D01*
X71680206Y-75919482D01*
X71114449Y-75353725D01*
X71362304Y-75105870D01*
X71362304Y-75105870D01*
G37*
G36*
X71858015Y-74610160D02*
X72423772Y-75175917D01*
X72175917Y-75423772D01*
X71610160Y-74858015D01*
X71858015Y-74610160D01*
X71858015Y-74610160D01*
G37*
G36*
X72281883Y-74186291D02*
X72847640Y-74752048D01*
X72599785Y-74999903D01*
X72034028Y-74434146D01*
X72281883Y-74186291D01*
X72281883Y-74186291D01*
G37*
G36*
X72741672Y-73726502D02*
X73307429Y-74292259D01*
X73059574Y-74540114D01*
X72493817Y-73974357D01*
X72741672Y-73726502D01*
X72741672Y-73726502D01*
G37*
G36*
X73201461Y-73266713D02*
X73767218Y-73832470D01*
X73519363Y-74080325D01*
X72953606Y-73514568D01*
X73201461Y-73266713D01*
X73201461Y-73266713D01*
G37*
G36*
X73553488Y-71957392D02*
X73801343Y-72205247D01*
X73235586Y-72771004D01*
X72987731Y-72523149D01*
X73553488Y-71957392D01*
X73553488Y-71957392D01*
G37*
G36*
X73093699Y-71497603D02*
X73341554Y-71745458D01*
X72775797Y-72311215D01*
X72527942Y-72063360D01*
X73093699Y-71497603D01*
X73093699Y-71497603D01*
G37*
G36*
X72633910Y-71037814D02*
X72881765Y-71285669D01*
X72316008Y-71851426D01*
X72068153Y-71603571D01*
X72633910Y-71037814D01*
X72633910Y-71037814D01*
G37*
G36*
X72174120Y-70578025D02*
X72421975Y-70825880D01*
X71856218Y-71391637D01*
X71608363Y-71143782D01*
X72174120Y-70578025D01*
X72174120Y-70578025D01*
G37*
G36*
X71714331Y-70118235D02*
X71962186Y-70366090D01*
X71396429Y-70931847D01*
X71148574Y-70683992D01*
X71714331Y-70118235D01*
X71714331Y-70118235D01*
G37*
G36*
X71254542Y-69658446D02*
X71502397Y-69906301D01*
X70936640Y-70472058D01*
X70688785Y-70224203D01*
X71254542Y-69658446D01*
X71254542Y-69658446D01*
G37*
G36*
X70794753Y-69198657D02*
X71042608Y-69446512D01*
X70476851Y-70012269D01*
X70228996Y-69764414D01*
X70794753Y-69198657D01*
X70794753Y-69198657D01*
G37*
G36*
X66906301Y-71497603D02*
X67472058Y-72063360D01*
X67224203Y-72311215D01*
X66658446Y-71745458D01*
X66906301Y-71497603D01*
X66906301Y-71497603D01*
G37*
G36*
X66446512Y-71957392D02*
X67012269Y-72523149D01*
X66764414Y-72771004D01*
X66198657Y-72205247D01*
X66446512Y-71957392D01*
X66446512Y-71957392D01*
G37*
D21*
X94615000Y-66040000D03*
X93345000Y-66040000D03*
X92075000Y-66040000D03*
X90805000Y-66040000D03*
X90805000Y-71628000D03*
X92075000Y-71628000D03*
X93345000Y-71628000D03*
X94615000Y-71628000D03*
D22*
X24686260Y-43926760D03*
X24686260Y-46228000D03*
X24686260Y-48529240D03*
D23*
X30685740Y-46228000D03*
D24*
X101894640Y-78407260D03*
X106893360Y-78407260D03*
D25*
X104394000Y-68404740D03*
D26*
X53086000Y-94107000D03*
X53086000Y-92837000D03*
X53086000Y-91567000D03*
X53086000Y-90297000D03*
X47498000Y-90297000D03*
X47498000Y-91567000D03*
X47498000Y-92837000D03*
X47498000Y-94107000D03*
D21*
X82423000Y-91440000D03*
X81153000Y-91440000D03*
X79883000Y-91440000D03*
X78613000Y-91440000D03*
X78613000Y-97028000D03*
X79883000Y-97028000D03*
X81153000Y-97028000D03*
X82423000Y-97028000D03*
X97917000Y-91440000D03*
X96647000Y-91440000D03*
X95377000Y-91440000D03*
X94107000Y-91440000D03*
X94107000Y-97028000D03*
X95377000Y-97028000D03*
X96647000Y-97028000D03*
X97917000Y-97028000D03*
D27*
X87378000Y-61976000D03*
D28*
X62560200Y-104648000D03*
X72059800Y-104648000D03*
D12*
X66294000Y-64960500D03*
X66294000Y-63055500D03*
X23622000Y-88455500D03*
X23622000Y-90360500D03*
X33782000Y-88455500D03*
X33782000Y-90360500D03*
M02*
