G04 #@! TF.FileFunction,Legend,Top*
%FSLAX46Y46*%
G04 Gerber Fmt 4.6, Leading zero omitted, Abs format (unit mm)*
G04 Created by KiCad (PCBNEW 4.0.6) date 07/24/17 16:42:21*
%MOMM*%
%LPD*%
G01*
G04 APERTURE LIST*
%ADD10C,0.100000*%
%ADD11C,0.254000*%
%ADD12C,0.127000*%
%ADD13C,0.304800*%
%ADD14C,1.000760*%
%ADD15C,0.381000*%
%ADD16C,0.500000*%
%ADD17C,0.300000*%
%ADD18C,0.200660*%
%ADD19C,0.299720*%
%ADD20C,2.540000*%
%ADD21C,0.150000*%
G04 APERTURE END LIST*
D10*
D11*
X71076820Y-90738960D02*
X59479180Y-90738960D01*
X59479180Y-98237040D02*
X71076820Y-98237040D01*
D12*
X70358000Y-90728800D02*
X70358000Y-89636600D01*
X69088000Y-90728800D02*
X69088000Y-89636600D01*
X67818000Y-90728800D02*
X67818000Y-89636600D01*
X60198000Y-99339400D02*
X60198000Y-98247200D01*
D11*
X71076820Y-98237040D02*
X71076820Y-90738960D01*
X59479180Y-90738960D02*
X59479180Y-98237040D01*
D12*
X60198000Y-90728800D02*
X60198000Y-89636600D01*
X61468000Y-90728800D02*
X61468000Y-89636600D01*
X62738000Y-90728800D02*
X62738000Y-89636600D01*
X64008000Y-89636600D02*
X64008000Y-90728800D01*
X65278000Y-89636600D02*
X65278000Y-90728800D01*
X66548000Y-89636600D02*
X66548000Y-90728800D01*
X70358000Y-98247200D02*
X70358000Y-99339400D01*
X69088000Y-98247200D02*
X69088000Y-99339400D01*
X67818000Y-98247200D02*
X67818000Y-99339400D01*
X61468000Y-98247200D02*
X61468000Y-99339400D01*
X62738000Y-99339400D02*
X62738000Y-98247200D01*
X66548000Y-99339400D02*
X66548000Y-98247200D01*
X65278000Y-99339400D02*
X65278000Y-98247200D01*
X64008000Y-99339400D02*
X64008000Y-98247200D01*
D11*
X61135287Y-97134680D02*
G75*
G03X61135287Y-97134680I-472467J0D01*
G01*
D13*
X111200000Y-55700000D02*
G75*
G03X111200000Y-55700000I-3500000J0D01*
G01*
X35800000Y-55700000D02*
G75*
G03X35800000Y-55700000I-3500000J0D01*
G01*
X35800000Y-24300000D02*
G75*
G03X35800000Y-24300000I-3500000J0D01*
G01*
X111200000Y-24300000D02*
G75*
G03X111200000Y-24300000I-3500000J0D01*
G01*
X105350000Y-51900000D02*
X34650000Y-51900000D01*
X34650000Y-51900000D02*
X34650000Y-28100000D01*
X34650000Y-28100000D02*
X105350000Y-28100000D01*
X105350000Y-28100000D02*
X105350000Y-51900000D01*
X104000000Y-47200000D02*
X104000000Y-32800000D01*
X104000000Y-32800000D02*
X36000000Y-32800000D01*
X36000000Y-32800000D02*
X36000000Y-47200000D01*
X36000000Y-47200000D02*
X104000000Y-47200000D01*
D14*
X110000000Y-58000000D02*
X30000000Y-58000000D01*
X30000000Y-58000000D02*
X30000000Y-22000000D01*
X30000000Y-22000000D02*
X110000000Y-22000000D01*
X110000000Y-22000000D02*
X110000000Y-58000000D01*
D11*
X23000000Y-20587000D02*
X23000000Y-25413000D01*
X20587000Y-23000000D02*
X25413000Y-23000000D01*
X25032000Y-23000000D02*
G75*
G03X25032000Y-23000000I-2032000J0D01*
G01*
X23000000Y-114587000D02*
X23000000Y-119413000D01*
X20587000Y-117000000D02*
X25413000Y-117000000D01*
X25032000Y-117000000D02*
G75*
G03X25032000Y-117000000I-2032000J0D01*
G01*
D15*
X109000000Y-117100000D02*
X109000000Y-117600000D01*
X113500000Y-113100000D02*
G75*
G03X113500000Y-113100000I-2000000J0D01*
G01*
X108500000Y-113100000D02*
G75*
G03X108500000Y-113100000I-2000000J0D01*
G01*
X104000000Y-117100000D02*
X104000000Y-117600000D01*
X99000000Y-117100000D02*
X99000000Y-117600000D01*
X103500000Y-113100000D02*
G75*
G03X103500000Y-113100000I-2000000J0D01*
G01*
X98500000Y-113100000D02*
G75*
G03X98500000Y-113100000I-2000000J0D01*
G01*
X94000000Y-115600000D02*
X114000000Y-115600000D01*
X94000000Y-110700000D02*
X114000000Y-110700000D01*
X94000000Y-117100000D02*
X114000000Y-117100000D01*
X94000000Y-117600000D02*
X114000000Y-117600000D01*
X114000000Y-117600000D02*
X114000000Y-107800000D01*
X114000000Y-107800000D02*
X94000000Y-107800000D01*
X94000000Y-107800000D02*
X94000000Y-117600000D01*
D13*
X36980000Y-80518000D02*
G75*
G03X36980000Y-80518000I-6500000J0D01*
G01*
X24780000Y-83618000D02*
X24780000Y-77418000D01*
X24580000Y-78118000D02*
X24580000Y-82918000D01*
X24380000Y-78518000D02*
X24380000Y-82518000D01*
X24180000Y-81918000D02*
X24180000Y-79118000D01*
D16*
X26980000Y-79018000D02*
X26980000Y-77518000D01*
D12*
X110109000Y-79121000D02*
X108839000Y-79121000D01*
X110109000Y-77851000D02*
X108864400Y-77851000D01*
X110109000Y-77470000D02*
X110109000Y-79502000D01*
X110109000Y-79502000D02*
X108839000Y-79502000D01*
X108839000Y-79502000D02*
X108839000Y-77470000D01*
X108839000Y-77470000D02*
X110109000Y-77470000D01*
D13*
X112916000Y-69398000D02*
X117716000Y-69398000D01*
X119616000Y-72898000D02*
G75*
G03X119616000Y-72898000I-4300000J0D01*
G01*
X113516000Y-69198000D02*
X117116000Y-69198000D01*
X113916000Y-68998000D02*
X116716000Y-68998000D01*
X114516000Y-68798000D02*
X116216000Y-68798000D01*
D17*
X116616000Y-70698000D02*
X117816000Y-70698000D01*
D13*
X21138000Y-38468000D02*
X21138000Y-33668000D01*
X28938000Y-36068000D02*
G75*
G03X28938000Y-36068000I-4300000J0D01*
G01*
X20938000Y-37868000D02*
X20938000Y-34268000D01*
X20738000Y-37468000D02*
X20738000Y-34668000D01*
X20538000Y-36868000D02*
X20538000Y-35168000D01*
D17*
X22438000Y-34768000D02*
X22438000Y-33568000D01*
D12*
X62865000Y-109601000D02*
X62865000Y-108331000D01*
X64135000Y-109601000D02*
X64135000Y-108356400D01*
X64516000Y-109601000D02*
X62484000Y-109601000D01*
X62484000Y-109601000D02*
X62484000Y-108331000D01*
X62484000Y-108331000D02*
X64516000Y-108331000D01*
X64516000Y-108331000D02*
X64516000Y-109601000D01*
X71755000Y-108331000D02*
X71755000Y-109601000D01*
X70485000Y-108331000D02*
X70485000Y-109575600D01*
X70104000Y-108331000D02*
X72136000Y-108331000D01*
X72136000Y-108331000D02*
X72136000Y-109601000D01*
X72136000Y-109601000D02*
X70104000Y-109601000D01*
X70104000Y-109601000D02*
X70104000Y-108331000D01*
X26037540Y-53525420D02*
X23238460Y-53525420D01*
X23238460Y-53627020D02*
X26037540Y-53627020D01*
X26037540Y-53726080D02*
X23238460Y-53726080D01*
X23238460Y-53825140D02*
X26037540Y-53825140D01*
X23238460Y-53926740D02*
X26037540Y-53926740D01*
X23238460Y-53426360D02*
X23238460Y-57825640D01*
X23238460Y-57825640D02*
X26037540Y-57825640D01*
X26037540Y-57825640D02*
X26037540Y-53426360D01*
X26037540Y-53426360D02*
X23238460Y-53426360D01*
X24437340Y-28448000D02*
X24737060Y-28747720D01*
X24737060Y-28747720D02*
X24737060Y-28148280D01*
X24737060Y-28148280D02*
X24437340Y-28448000D01*
X24538940Y-28348940D02*
X24538940Y-28547060D01*
X24638000Y-28648660D02*
X24638000Y-28247340D01*
X24338280Y-27647900D02*
X24338280Y-29248100D01*
X24937720Y-29248100D02*
X24937720Y-27647900D01*
X25638760Y-29248100D02*
X23637240Y-29248100D01*
X23637240Y-29248100D02*
X23637240Y-27647900D01*
X23637240Y-27647900D02*
X25638760Y-27647900D01*
X25638760Y-27647900D02*
X25638760Y-29248100D01*
X56949340Y-66802000D02*
X57249060Y-67101720D01*
X57249060Y-67101720D02*
X57249060Y-66502280D01*
X57249060Y-66502280D02*
X56949340Y-66802000D01*
X57050940Y-66702940D02*
X57050940Y-66901060D01*
X57150000Y-67002660D02*
X57150000Y-66601340D01*
X56850280Y-66001900D02*
X56850280Y-67602100D01*
X57449720Y-67602100D02*
X57449720Y-66001900D01*
X58150760Y-67602100D02*
X56149240Y-67602100D01*
X56149240Y-67602100D02*
X56149240Y-66001900D01*
X56149240Y-66001900D02*
X58150760Y-66001900D01*
X58150760Y-66001900D02*
X58150760Y-67602100D01*
X50345340Y-66802000D02*
X50645060Y-67101720D01*
X50645060Y-67101720D02*
X50645060Y-66502280D01*
X50645060Y-66502280D02*
X50345340Y-66802000D01*
X50446940Y-66702940D02*
X50446940Y-66901060D01*
X50546000Y-67002660D02*
X50546000Y-66601340D01*
X50246280Y-66001900D02*
X50246280Y-67602100D01*
X50845720Y-67602100D02*
X50845720Y-66001900D01*
X51546760Y-67602100D02*
X49545240Y-67602100D01*
X49545240Y-67602100D02*
X49545240Y-66001900D01*
X49545240Y-66001900D02*
X51546760Y-66001900D01*
X51546760Y-66001900D02*
X51546760Y-67602100D01*
X104071420Y-96136460D02*
X104071420Y-98935540D01*
X104173020Y-98935540D02*
X104173020Y-96136460D01*
X104272080Y-96136460D02*
X104272080Y-98935540D01*
X104371140Y-98935540D02*
X104371140Y-96136460D01*
X104472740Y-98935540D02*
X104472740Y-96136460D01*
X103972360Y-98935540D02*
X108371640Y-98935540D01*
X108371640Y-98935540D02*
X108371640Y-96136460D01*
X108371640Y-96136460D02*
X103972360Y-96136460D01*
X103972360Y-96136460D02*
X103972360Y-98935540D01*
X114353340Y-80518000D02*
X114653060Y-80817720D01*
X114653060Y-80817720D02*
X114653060Y-80218280D01*
X114653060Y-80218280D02*
X114353340Y-80518000D01*
X114454940Y-80418940D02*
X114454940Y-80617060D01*
X114554000Y-80718660D02*
X114554000Y-80317340D01*
X114254280Y-79717900D02*
X114254280Y-81318100D01*
X114853720Y-81318100D02*
X114853720Y-79717900D01*
X115554760Y-81318100D02*
X113553240Y-81318100D01*
X113553240Y-81318100D02*
X113553240Y-79717900D01*
X113553240Y-79717900D02*
X115554760Y-79717900D01*
X115554760Y-79717900D02*
X115554760Y-81318100D01*
X50746660Y-72644000D02*
X50446940Y-72344280D01*
X50446940Y-72344280D02*
X50446940Y-72943720D01*
X50446940Y-72943720D02*
X50746660Y-72644000D01*
X50645060Y-72743060D02*
X50645060Y-72544940D01*
X50546000Y-72443340D02*
X50546000Y-72844660D01*
X50845720Y-73444100D02*
X50845720Y-71843900D01*
X50246280Y-71843900D02*
X50246280Y-73444100D01*
X49545240Y-71843900D02*
X51546760Y-71843900D01*
X51546760Y-71843900D02*
X51546760Y-73444100D01*
X51546760Y-73444100D02*
X49545240Y-73444100D01*
X49545240Y-73444100D02*
X49545240Y-71843900D01*
X56949340Y-78486000D02*
X57249060Y-78785720D01*
X57249060Y-78785720D02*
X57249060Y-78186280D01*
X57249060Y-78186280D02*
X56949340Y-78486000D01*
X57050940Y-78386940D02*
X57050940Y-78585060D01*
X57150000Y-78686660D02*
X57150000Y-78285340D01*
X56850280Y-77685900D02*
X56850280Y-79286100D01*
X57449720Y-79286100D02*
X57449720Y-77685900D01*
X58150760Y-79286100D02*
X56149240Y-79286100D01*
X56149240Y-79286100D02*
X56149240Y-77685900D01*
X56149240Y-77685900D02*
X58150760Y-77685900D01*
X58150760Y-77685900D02*
X58150760Y-79286100D01*
X57604660Y-72644000D02*
X57304940Y-72344280D01*
X57304940Y-72344280D02*
X57304940Y-72943720D01*
X57304940Y-72943720D02*
X57604660Y-72644000D01*
X57503060Y-72743060D02*
X57503060Y-72544940D01*
X57404000Y-72443340D02*
X57404000Y-72844660D01*
X57703720Y-73444100D02*
X57703720Y-71843900D01*
X57104280Y-71843900D02*
X57104280Y-73444100D01*
X56403240Y-71843900D02*
X58404760Y-71843900D01*
X58404760Y-71843900D02*
X58404760Y-73444100D01*
X58404760Y-73444100D02*
X56403240Y-73444100D01*
X56403240Y-73444100D02*
X56403240Y-71843900D01*
X50746660Y-78486000D02*
X50446940Y-78186280D01*
X50446940Y-78186280D02*
X50446940Y-78785720D01*
X50446940Y-78785720D02*
X50746660Y-78486000D01*
X50645060Y-78585060D02*
X50645060Y-78386940D01*
X50546000Y-78285340D02*
X50546000Y-78686660D01*
X50845720Y-79286100D02*
X50845720Y-77685900D01*
X50246280Y-77685900D02*
X50246280Y-79286100D01*
X49545240Y-77685900D02*
X51546760Y-77685900D01*
X51546760Y-77685900D02*
X51546760Y-79286100D01*
X51546760Y-79286100D02*
X49545240Y-79286100D01*
X49545240Y-79286100D02*
X49545240Y-77685900D01*
D15*
X23078000Y-67056000D02*
X22578000Y-67056000D01*
X29078000Y-69556000D02*
G75*
G03X29078000Y-69556000I-2000000J0D01*
G01*
X29078000Y-64556000D02*
G75*
G03X29078000Y-64556000I-2000000J0D01*
G01*
X24578000Y-62056000D02*
X24578000Y-72056000D01*
X29478000Y-62056000D02*
X29478000Y-72056000D01*
X23078000Y-62056000D02*
X23078000Y-72056000D01*
X22578000Y-62056000D02*
X22578000Y-72056000D01*
X22578000Y-72056000D02*
X32378000Y-72056000D01*
X32378000Y-72056000D02*
X32378000Y-62056000D01*
X32378000Y-62056000D02*
X22578000Y-62056000D01*
D13*
X43688000Y-78080000D02*
X46228000Y-78080000D01*
X46228000Y-80620000D02*
X43688000Y-80620000D01*
X43688000Y-80620000D02*
X43688000Y-65380000D01*
X43688000Y-65380000D02*
X46228000Y-65380000D01*
X46228000Y-65380000D02*
X46228000Y-80620000D01*
D15*
X50000000Y-117100000D02*
X50000000Y-117600000D01*
X54500000Y-113100000D02*
G75*
G03X54500000Y-113100000I-2000000J0D01*
G01*
X49500000Y-113100000D02*
G75*
G03X49500000Y-113100000I-2000000J0D01*
G01*
X45000000Y-115600000D02*
X55000000Y-115600000D01*
X45000000Y-110700000D02*
X55000000Y-110700000D01*
X45000000Y-117100000D02*
X55000000Y-117100000D01*
X45000000Y-117600000D02*
X55000000Y-117600000D01*
X55000000Y-117600000D02*
X55000000Y-107800000D01*
X55000000Y-107800000D02*
X45000000Y-107800000D01*
X45000000Y-107800000D02*
X45000000Y-117600000D01*
D12*
X105727500Y-91122500D02*
X105067100Y-91122500D01*
X105727500Y-89217500D02*
X105067100Y-89217500D01*
X107124500Y-90170000D02*
X107784900Y-90170000D01*
X107124500Y-88671400D02*
X107124500Y-91668600D01*
X107124500Y-91668600D02*
X105727500Y-91668600D01*
X105727500Y-91668600D02*
X105727500Y-88671400D01*
X105727500Y-88671400D02*
X107124500Y-88671400D01*
X77025500Y-86423500D02*
X77025500Y-85763100D01*
X78930500Y-86423500D02*
X78930500Y-85763100D01*
X77978000Y-87820500D02*
X77978000Y-88480900D01*
X79476600Y-87820500D02*
X76479400Y-87820500D01*
X76479400Y-87820500D02*
X76479400Y-86423500D01*
X76479400Y-86423500D02*
X79476600Y-86423500D01*
X79476600Y-86423500D02*
X79476600Y-87820500D01*
X86042500Y-71564500D02*
X85382100Y-71564500D01*
X86042500Y-69659500D02*
X85382100Y-69659500D01*
X87439500Y-70612000D02*
X88099900Y-70612000D01*
X87439500Y-69113400D02*
X87439500Y-72110600D01*
X87439500Y-72110600D02*
X86042500Y-72110600D01*
X86042500Y-72110600D02*
X86042500Y-69113400D01*
X86042500Y-69113400D02*
X87439500Y-69113400D01*
X90297000Y-76327000D02*
X91567000Y-76327000D01*
X90297000Y-77597000D02*
X91541600Y-77597000D01*
X90297000Y-77978000D02*
X90297000Y-75946000D01*
X90297000Y-75946000D02*
X91567000Y-75946000D01*
X91567000Y-75946000D02*
X91567000Y-77978000D01*
X91567000Y-77978000D02*
X90297000Y-77978000D01*
X92583000Y-76327000D02*
X93853000Y-76327000D01*
X92583000Y-77597000D02*
X93827600Y-77597000D01*
X92583000Y-77978000D02*
X92583000Y-75946000D01*
X92583000Y-75946000D02*
X93853000Y-75946000D01*
X93853000Y-75946000D02*
X93853000Y-77978000D01*
X93853000Y-77978000D02*
X92583000Y-77978000D01*
X62611000Y-78613000D02*
X62611000Y-77343000D01*
X63881000Y-78613000D02*
X63881000Y-77368400D01*
X64262000Y-78613000D02*
X62230000Y-78613000D01*
X62230000Y-78613000D02*
X62230000Y-77343000D01*
X62230000Y-77343000D02*
X64262000Y-77343000D01*
X64262000Y-77343000D02*
X64262000Y-78613000D01*
X42037000Y-67945000D02*
X40767000Y-67945000D01*
X42037000Y-66675000D02*
X40792400Y-66675000D01*
X42037000Y-66294000D02*
X42037000Y-68326000D01*
X42037000Y-68326000D02*
X40767000Y-68326000D01*
X40767000Y-68326000D02*
X40767000Y-66294000D01*
X40767000Y-66294000D02*
X42037000Y-66294000D01*
X62611000Y-80899000D02*
X62611000Y-79629000D01*
X63881000Y-80899000D02*
X63881000Y-79654400D01*
X64262000Y-80899000D02*
X62230000Y-80899000D01*
X62230000Y-80899000D02*
X62230000Y-79629000D01*
X62230000Y-79629000D02*
X64262000Y-79629000D01*
X64262000Y-79629000D02*
X64262000Y-80899000D01*
X107061000Y-85979000D02*
X107061000Y-87249000D01*
X105791000Y-85979000D02*
X105791000Y-87223600D01*
X105410000Y-85979000D02*
X107442000Y-85979000D01*
X107442000Y-85979000D02*
X107442000Y-87249000D01*
X107442000Y-87249000D02*
X105410000Y-87249000D01*
X105410000Y-87249000D02*
X105410000Y-85979000D01*
X107061000Y-93345000D02*
X107061000Y-94615000D01*
X105791000Y-93345000D02*
X105791000Y-94589600D01*
X105410000Y-93345000D02*
X107442000Y-93345000D01*
X107442000Y-93345000D02*
X107442000Y-94615000D01*
X107442000Y-94615000D02*
X105410000Y-94615000D01*
X105410000Y-94615000D02*
X105410000Y-93345000D01*
X59563000Y-54737000D02*
X59563000Y-56007000D01*
X58293000Y-54737000D02*
X58293000Y-55981600D01*
X57912000Y-54737000D02*
X59944000Y-54737000D01*
X59944000Y-54737000D02*
X59944000Y-56007000D01*
X59944000Y-56007000D02*
X57912000Y-56007000D01*
X57912000Y-56007000D02*
X57912000Y-54737000D01*
X51943000Y-104267000D02*
X53213000Y-104267000D01*
X51943000Y-105537000D02*
X53187600Y-105537000D01*
X51943000Y-105918000D02*
X51943000Y-103886000D01*
X51943000Y-103886000D02*
X53213000Y-103886000D01*
X53213000Y-103886000D02*
X53213000Y-105918000D01*
X53213000Y-105918000D02*
X51943000Y-105918000D01*
X118237000Y-93345000D02*
X119507000Y-93345000D01*
X118237000Y-94615000D02*
X119481600Y-94615000D01*
X118237000Y-94996000D02*
X118237000Y-92964000D01*
X118237000Y-92964000D02*
X119507000Y-92964000D01*
X119507000Y-92964000D02*
X119507000Y-94996000D01*
X119507000Y-94996000D02*
X118237000Y-94996000D01*
X46863000Y-104267000D02*
X48133000Y-104267000D01*
X46863000Y-105537000D02*
X48107600Y-105537000D01*
X46863000Y-105918000D02*
X46863000Y-103886000D01*
X46863000Y-103886000D02*
X48133000Y-103886000D01*
X48133000Y-103886000D02*
X48133000Y-105918000D01*
X48133000Y-105918000D02*
X46863000Y-105918000D01*
X83693000Y-86487000D02*
X84963000Y-86487000D01*
X83693000Y-87757000D02*
X84937600Y-87757000D01*
X83693000Y-88138000D02*
X83693000Y-86106000D01*
X83693000Y-86106000D02*
X84963000Y-86106000D01*
X84963000Y-86106000D02*
X84963000Y-88138000D01*
X84963000Y-88138000D02*
X83693000Y-88138000D01*
X82169000Y-70485000D02*
X82169000Y-71755000D01*
X80899000Y-70485000D02*
X80899000Y-71729600D01*
X80518000Y-70485000D02*
X82550000Y-70485000D01*
X82550000Y-70485000D02*
X82550000Y-71755000D01*
X82550000Y-71755000D02*
X80518000Y-71755000D01*
X80518000Y-71755000D02*
X80518000Y-70485000D01*
X82169000Y-87757000D02*
X80899000Y-87757000D01*
X82169000Y-86487000D02*
X80924400Y-86487000D01*
X82169000Y-86106000D02*
X82169000Y-88138000D01*
X82169000Y-88138000D02*
X80899000Y-88138000D01*
X80899000Y-88138000D02*
X80899000Y-86106000D01*
X80899000Y-86106000D02*
X82169000Y-86106000D01*
X99949000Y-87757000D02*
X98679000Y-87757000D01*
X99949000Y-86487000D02*
X98704400Y-86487000D01*
X99949000Y-86106000D02*
X99949000Y-88138000D01*
X99949000Y-88138000D02*
X98679000Y-88138000D01*
X98679000Y-88138000D02*
X98679000Y-86106000D01*
X98679000Y-86106000D02*
X99949000Y-86106000D01*
X80899000Y-78105000D02*
X80899000Y-76835000D01*
X82169000Y-78105000D02*
X82169000Y-76860400D01*
X82550000Y-78105000D02*
X80518000Y-78105000D01*
X80518000Y-78105000D02*
X80518000Y-76835000D01*
X80518000Y-76835000D02*
X82550000Y-76835000D01*
X82550000Y-76835000D02*
X82550000Y-78105000D01*
X82169000Y-74295000D02*
X82169000Y-75565000D01*
X80899000Y-74295000D02*
X80899000Y-75539600D01*
X80518000Y-74295000D02*
X82550000Y-74295000D01*
X82550000Y-74295000D02*
X82550000Y-75565000D01*
X82550000Y-75565000D02*
X80518000Y-75565000D01*
X80518000Y-75565000D02*
X80518000Y-74295000D01*
X80899000Y-66675000D02*
X80899000Y-65405000D01*
X82169000Y-66675000D02*
X82169000Y-65430400D01*
X82550000Y-66675000D02*
X80518000Y-66675000D01*
X80518000Y-66675000D02*
X80518000Y-65405000D01*
X80518000Y-65405000D02*
X82550000Y-65405000D01*
X82550000Y-65405000D02*
X82550000Y-66675000D01*
X82169000Y-67945000D02*
X82169000Y-69215000D01*
X80899000Y-67945000D02*
X80899000Y-69189600D01*
X80518000Y-67945000D02*
X82550000Y-67945000D01*
X82550000Y-67945000D02*
X82550000Y-69215000D01*
X82550000Y-69215000D02*
X80518000Y-69215000D01*
X80518000Y-69215000D02*
X80518000Y-67945000D01*
X42545000Y-94869000D02*
X42545000Y-93599000D01*
X43815000Y-94869000D02*
X43815000Y-93624400D01*
X44196000Y-94869000D02*
X42164000Y-94869000D01*
X42164000Y-94869000D02*
X42164000Y-93599000D01*
X42164000Y-93599000D02*
X44196000Y-93599000D01*
X44196000Y-93599000D02*
X44196000Y-94869000D01*
X77089000Y-100711000D02*
X77089000Y-101981000D01*
X75819000Y-100711000D02*
X75819000Y-101955600D01*
X75438000Y-100711000D02*
X77470000Y-100711000D01*
X77470000Y-100711000D02*
X77470000Y-101981000D01*
X77470000Y-101981000D02*
X75438000Y-101981000D01*
X75438000Y-101981000D02*
X75438000Y-100711000D01*
X81153000Y-100711000D02*
X81153000Y-101981000D01*
X79883000Y-100711000D02*
X79883000Y-101955600D01*
X79502000Y-100711000D02*
X81534000Y-100711000D01*
X81534000Y-100711000D02*
X81534000Y-101981000D01*
X81534000Y-101981000D02*
X79502000Y-101981000D01*
X79502000Y-101981000D02*
X79502000Y-100711000D01*
X85217000Y-100711000D02*
X85217000Y-101981000D01*
X83947000Y-100711000D02*
X83947000Y-101955600D01*
X83566000Y-100711000D02*
X85598000Y-100711000D01*
X85598000Y-100711000D02*
X85598000Y-101981000D01*
X85598000Y-101981000D02*
X83566000Y-101981000D01*
X83566000Y-101981000D02*
X83566000Y-100711000D01*
X100457000Y-102743000D02*
X100457000Y-104013000D01*
X99187000Y-102743000D02*
X99187000Y-103987600D01*
X98806000Y-102743000D02*
X100838000Y-102743000D01*
X100838000Y-102743000D02*
X100838000Y-104013000D01*
X100838000Y-104013000D02*
X98806000Y-104013000D01*
X98806000Y-104013000D02*
X98806000Y-102743000D01*
X104521000Y-102743000D02*
X104521000Y-104013000D01*
X103251000Y-102743000D02*
X103251000Y-103987600D01*
X102870000Y-102743000D02*
X104902000Y-102743000D01*
X104902000Y-102743000D02*
X104902000Y-104013000D01*
X104902000Y-104013000D02*
X102870000Y-104013000D01*
X102870000Y-104013000D02*
X102870000Y-102743000D01*
X108585000Y-102743000D02*
X108585000Y-104013000D01*
X107315000Y-102743000D02*
X107315000Y-103987600D01*
X106934000Y-102743000D02*
X108966000Y-102743000D01*
X108966000Y-102743000D02*
X108966000Y-104013000D01*
X108966000Y-104013000D02*
X106934000Y-104013000D01*
X106934000Y-104013000D02*
X106934000Y-102743000D01*
D13*
X111554000Y-102580000D02*
X117554000Y-102580000D01*
X114554000Y-93180000D02*
X114554000Y-91480000D01*
X114554000Y-96480000D02*
X114554000Y-94780000D01*
X115354000Y-94780000D02*
X113754000Y-93180000D01*
X113754000Y-94780000D02*
X113754000Y-93180000D01*
X113754000Y-93180000D02*
X115354000Y-93180000D01*
X115354000Y-94780000D02*
X115354000Y-93180000D01*
X115354000Y-94780000D02*
X113754000Y-94780000D01*
X112754000Y-92480000D02*
X112754000Y-86380000D01*
X112754000Y-86380000D02*
X114554000Y-86380000D01*
X112754000Y-101580000D02*
X114554000Y-101580000D01*
X112754000Y-101580000D02*
X112754000Y-95080000D01*
X112754000Y-95080000D02*
X112254000Y-92480000D01*
X111554000Y-83680000D02*
X117554000Y-83680000D01*
X111554000Y-104280000D02*
X117554000Y-104280000D01*
X117554000Y-104280000D02*
X117554000Y-83680000D01*
X111554000Y-104280000D02*
X111554000Y-83680000D01*
D12*
X99806760Y-50553620D02*
X99606100Y-50553620D01*
X99705160Y-51554380D02*
X99705160Y-50553620D01*
X99806760Y-50553620D02*
X99806760Y-51554380D01*
X99806760Y-51554380D02*
X99606100Y-51554380D01*
X98506280Y-51755040D02*
X99105720Y-51755040D01*
X99105720Y-51755040D02*
X99105720Y-51353720D01*
X99105720Y-51353720D02*
X99507040Y-51353720D01*
X99507040Y-51353720D02*
X99507040Y-50754280D01*
X99507040Y-50754280D02*
X99105720Y-50754280D01*
X99105720Y-50754280D02*
X99105720Y-50352960D01*
X99105720Y-50352960D02*
X98506280Y-50352960D01*
X98506280Y-50352960D02*
X98506280Y-50754280D01*
X98506280Y-50754280D02*
X98104960Y-50754280D01*
X98104960Y-50754280D02*
X98104960Y-51254660D01*
X98104960Y-51254660D02*
X98104960Y-51353720D01*
X98104960Y-51353720D02*
X98506280Y-51353720D01*
X98506280Y-51353720D02*
X98506280Y-51755040D01*
X99749684Y-51054000D02*
G75*
G03X99749684Y-51054000I-943684J0D01*
G01*
X97706180Y-52153820D02*
X97706180Y-49954180D01*
X97706180Y-49954180D02*
X99905820Y-49954180D01*
X99905820Y-49954180D02*
X99905820Y-52153820D01*
X99905820Y-52153820D02*
X97706180Y-52153820D01*
X70635802Y-69253437D02*
X69364198Y-69253437D01*
X69364198Y-69253437D02*
X70000000Y-68617635D01*
X70000000Y-68617635D02*
X70635802Y-69253437D01*
X69576132Y-69181595D02*
X70423868Y-69181595D01*
X70423868Y-69181595D02*
X70353822Y-69111549D01*
X70353822Y-69111549D02*
X69646178Y-69111549D01*
X69646178Y-69111549D02*
X69718020Y-69039707D01*
X69718020Y-69039707D02*
X70281980Y-69039707D01*
X70281980Y-69039707D02*
X70211934Y-68969661D01*
X70211934Y-68969661D02*
X69788066Y-68969661D01*
X69788066Y-68969661D02*
X69858112Y-68899615D01*
X69858112Y-68899615D02*
X70141888Y-68899615D01*
X74242273Y-73000000D02*
X70000000Y-77242273D01*
X70000000Y-77242273D02*
X65757727Y-73000000D01*
X65757727Y-73000000D02*
X70000000Y-68757727D01*
X70000000Y-68757727D02*
X74242273Y-73000000D01*
D18*
X70224448Y-69747351D02*
G75*
G03X70224448Y-69747351I-222652J0D01*
G01*
D12*
X95123000Y-70815200D02*
X95123000Y-66852800D01*
X95123000Y-66852800D02*
X90297000Y-66852800D01*
X90297000Y-66852800D02*
X90297000Y-70815200D01*
X90297000Y-70815200D02*
X95123000Y-70815200D01*
X94615000Y-70815200D02*
X94615000Y-71907400D01*
X93345000Y-70815200D02*
X93345000Y-71907400D01*
X92075000Y-70815200D02*
X92075000Y-71907400D01*
X90805000Y-71907400D02*
X90805000Y-70815200D01*
X90805000Y-66852800D02*
X90805000Y-65760600D01*
X92075000Y-65760600D02*
X92075000Y-66852800D01*
X93345000Y-65760600D02*
X93345000Y-66852800D01*
X94615000Y-65760600D02*
X94615000Y-66852800D01*
X94858867Y-67589400D02*
G75*
G03X94858867Y-67589400I-472467J0D01*
G01*
X31330900Y-44678600D02*
X31330900Y-47777400D01*
X31330900Y-47777400D02*
X29540200Y-47777400D01*
X31330900Y-44678600D02*
X29540200Y-44678600D01*
X24041100Y-48120300D02*
X24041100Y-48933100D01*
X24041100Y-48933100D02*
X25831800Y-48933100D01*
X24041100Y-48120300D02*
X25831800Y-48120300D01*
X24041100Y-45821600D02*
X25831800Y-45821600D01*
X24041100Y-46634400D02*
X25831800Y-46634400D01*
X24041100Y-45821600D02*
X24041100Y-46634400D01*
X24041100Y-43522900D02*
X24041100Y-44335700D01*
X24041100Y-44335700D02*
X25831800Y-44335700D01*
X24041100Y-43522900D02*
X25831800Y-43522900D01*
X25831800Y-49580800D02*
X25831800Y-42875200D01*
X25831800Y-42875200D02*
X29540200Y-42875200D01*
X29540200Y-42875200D02*
X29540200Y-49580800D01*
X29540200Y-49580800D02*
X25831800Y-49580800D01*
X99390200Y-66433700D02*
X99390200Y-64071500D01*
X99390200Y-64071500D02*
X109397800Y-64071500D01*
X109397800Y-64071500D02*
X109397800Y-66433700D01*
X107391200Y-80416400D02*
X107391200Y-76085700D01*
X106387900Y-80416400D02*
X107391200Y-80416400D01*
X106387900Y-76085700D02*
X106387900Y-80416400D01*
X101396800Y-76085700D02*
X101396800Y-80416400D01*
X101396800Y-80416400D02*
X102400100Y-80416400D01*
X102400100Y-80416400D02*
X102400100Y-76085700D01*
X99047300Y-66433700D02*
X109740700Y-66433700D01*
X109740700Y-66433700D02*
X109740700Y-76085700D01*
X109740700Y-76085700D02*
X99047300Y-76085700D01*
X99047300Y-76085700D02*
X99047300Y-66433700D01*
X48310800Y-94615000D02*
X52273200Y-94615000D01*
X52273200Y-94615000D02*
X52273200Y-89789000D01*
X52273200Y-89789000D02*
X48310800Y-89789000D01*
X48310800Y-89789000D02*
X48310800Y-94615000D01*
X48310800Y-94107000D02*
X47218600Y-94107000D01*
X48310800Y-92837000D02*
X47218600Y-92837000D01*
X48310800Y-91567000D02*
X47218600Y-91567000D01*
X47218600Y-90297000D02*
X48310800Y-90297000D01*
X52273200Y-90297000D02*
X53365400Y-90297000D01*
X53365400Y-91567000D02*
X52273200Y-91567000D01*
X53365400Y-92837000D02*
X52273200Y-92837000D01*
X53365400Y-94107000D02*
X52273200Y-94107000D01*
X52009067Y-93878400D02*
G75*
G03X52009067Y-93878400I-472467J0D01*
G01*
X82931000Y-96215200D02*
X82931000Y-92252800D01*
X82931000Y-92252800D02*
X78105000Y-92252800D01*
X78105000Y-92252800D02*
X78105000Y-96215200D01*
X78105000Y-96215200D02*
X82931000Y-96215200D01*
X82423000Y-96215200D02*
X82423000Y-97307400D01*
X81153000Y-96215200D02*
X81153000Y-97307400D01*
X79883000Y-96215200D02*
X79883000Y-97307400D01*
X78613000Y-97307400D02*
X78613000Y-96215200D01*
X78613000Y-92252800D02*
X78613000Y-91160600D01*
X79883000Y-91160600D02*
X79883000Y-92252800D01*
X81153000Y-91160600D02*
X81153000Y-92252800D01*
X82423000Y-91160600D02*
X82423000Y-92252800D01*
X82666867Y-92989400D02*
G75*
G03X82666867Y-92989400I-472467J0D01*
G01*
X98425000Y-96215200D02*
X98425000Y-92252800D01*
X98425000Y-92252800D02*
X93599000Y-92252800D01*
X93599000Y-92252800D02*
X93599000Y-96215200D01*
X93599000Y-96215200D02*
X98425000Y-96215200D01*
X97917000Y-96215200D02*
X97917000Y-97307400D01*
X96647000Y-96215200D02*
X96647000Y-97307400D01*
X95377000Y-96215200D02*
X95377000Y-97307400D01*
X94107000Y-97307400D02*
X94107000Y-96215200D01*
X94107000Y-92252800D02*
X94107000Y-91160600D01*
X95377000Y-91160600D02*
X95377000Y-92252800D01*
X96647000Y-91160600D02*
X96647000Y-92252800D01*
X97917000Y-91160600D02*
X97917000Y-92252800D01*
X98160867Y-92989400D02*
G75*
G03X98160867Y-92989400I-472467J0D01*
G01*
D11*
X93378000Y-60976000D02*
X87378000Y-60976000D01*
X93378000Y-60976000D02*
X93378000Y-62976000D01*
X93378000Y-62976000D02*
X87378000Y-62976000D01*
X87378000Y-60976000D02*
X87378000Y-62976000D01*
D19*
X61511180Y-102148640D02*
X61511180Y-107147360D01*
X61511180Y-107147360D02*
X73108820Y-107147360D01*
X73108820Y-107147360D02*
X73108820Y-102148640D01*
X73108820Y-102148640D02*
X61511180Y-102148640D01*
D11*
X72898000Y-104648000D02*
G75*
G03X70612000Y-102362000I-2286000J0D01*
G01*
X64008000Y-106426000D02*
X70612000Y-106426000D01*
X70612000Y-102870000D02*
X64008000Y-102870000D01*
X70612000Y-106426000D02*
G75*
G03X72390000Y-104648000I0J1778000D01*
G01*
X72390000Y-104648000D02*
G75*
G03X70612000Y-102870000I-1778000J0D01*
G01*
X62230000Y-104648000D02*
G75*
G03X64008000Y-106426000I1778000J0D01*
G01*
X64008000Y-102870000D02*
G75*
G03X62230000Y-104648000I0J-1778000D01*
G01*
X70612000Y-106934000D02*
G75*
G03X72898000Y-104648000I0J2286000D01*
G01*
X70612000Y-106934000D02*
X64008000Y-106934000D01*
X64008000Y-102362000D02*
X70612000Y-102362000D01*
X61722000Y-104648000D02*
G75*
G03X64008000Y-106934000I2286000J0D01*
G01*
X64008000Y-102362000D02*
G75*
G03X61722000Y-104648000I0J-2286000D01*
G01*
D15*
X80000000Y-117100000D02*
X80000000Y-117600000D01*
X84500000Y-113100000D02*
G75*
G03X84500000Y-113100000I-2000000J0D01*
G01*
X79500000Y-113100000D02*
G75*
G03X79500000Y-113100000I-2000000J0D01*
G01*
X75000000Y-115600000D02*
X85000000Y-115600000D01*
X75000000Y-110700000D02*
X85000000Y-110700000D01*
X75000000Y-117100000D02*
X85000000Y-117100000D01*
X75000000Y-117600000D02*
X85000000Y-117600000D01*
X85000000Y-117600000D02*
X85000000Y-107800000D01*
X85000000Y-107800000D02*
X75000000Y-107800000D01*
X75000000Y-107800000D02*
X75000000Y-117600000D01*
D12*
X66929000Y-64643000D02*
X65659000Y-64643000D01*
X66929000Y-63373000D02*
X65684400Y-63373000D01*
X66929000Y-62992000D02*
X66929000Y-65024000D01*
X66929000Y-65024000D02*
X65659000Y-65024000D01*
X65659000Y-65024000D02*
X65659000Y-62992000D01*
X65659000Y-62992000D02*
X66929000Y-62992000D01*
X22987000Y-88773000D02*
X24257000Y-88773000D01*
X22987000Y-90043000D02*
X24231600Y-90043000D01*
X22987000Y-90424000D02*
X22987000Y-88392000D01*
X22987000Y-88392000D02*
X24257000Y-88392000D01*
X24257000Y-88392000D02*
X24257000Y-90424000D01*
X24257000Y-90424000D02*
X22987000Y-90424000D01*
X33147000Y-88773000D02*
X34417000Y-88773000D01*
X33147000Y-90043000D02*
X34391600Y-90043000D01*
X33147000Y-90424000D02*
X33147000Y-88392000D01*
X33147000Y-88392000D02*
X34417000Y-88392000D01*
X34417000Y-88392000D02*
X34417000Y-90424000D01*
X34417000Y-90424000D02*
X33147000Y-90424000D01*
D13*
X22860000Y-93980000D02*
X28956000Y-93980000D01*
X28956000Y-93980000D02*
X28956000Y-100076000D01*
X28956000Y-100076000D02*
X22860000Y-100076000D01*
X22860000Y-100076000D02*
X22860000Y-93980000D01*
D20*
X26711219Y-97028000D02*
G75*
G03X26711219Y-97028000I-803219J0D01*
G01*
D13*
X33020000Y-93980000D02*
X39116000Y-93980000D01*
X39116000Y-93980000D02*
X39116000Y-100076000D01*
X39116000Y-100076000D02*
X33020000Y-100076000D01*
X33020000Y-100076000D02*
X33020000Y-93980000D01*
D20*
X36871219Y-97028000D02*
G75*
G03X36871219Y-97028000I-803219J0D01*
G01*
D11*
X117000000Y-20587000D02*
X117000000Y-25413000D01*
X114587000Y-23000000D02*
X119413000Y-23000000D01*
X119032000Y-23000000D02*
G75*
G03X119032000Y-23000000I-2032000J0D01*
G01*
X117000000Y-114587000D02*
X117000000Y-119413000D01*
X114587000Y-117000000D02*
X119413000Y-117000000D01*
X119032000Y-117000000D02*
G75*
G03X119032000Y-117000000I-2032000J0D01*
G01*
D21*
X59182095Y-86828381D02*
X59182095Y-87637905D01*
X59229714Y-87733143D01*
X59277333Y-87780762D01*
X59372571Y-87828381D01*
X59563048Y-87828381D01*
X59658286Y-87780762D01*
X59705905Y-87733143D01*
X59753524Y-87637905D01*
X59753524Y-86828381D01*
X60705905Y-86828381D02*
X60229714Y-86828381D01*
X60182095Y-87304571D01*
X60229714Y-87256952D01*
X60324952Y-87209333D01*
X60563048Y-87209333D01*
X60658286Y-87256952D01*
X60705905Y-87304571D01*
X60753524Y-87399810D01*
X60753524Y-87637905D01*
X60705905Y-87733143D01*
X60658286Y-87780762D01*
X60563048Y-87828381D01*
X60324952Y-87828381D01*
X60229714Y-87780762D01*
X60182095Y-87733143D01*
X68785714Y-35451121D02*
X68785714Y-34451121D01*
X69023809Y-34451121D01*
X69166667Y-34498740D01*
X69261905Y-34593978D01*
X69309524Y-34689216D01*
X69357143Y-34879692D01*
X69357143Y-35022550D01*
X69309524Y-35213026D01*
X69261905Y-35308264D01*
X69166667Y-35403502D01*
X69023809Y-35451121D01*
X68785714Y-35451121D01*
X69738095Y-35403502D02*
X69880952Y-35451121D01*
X70119048Y-35451121D01*
X70214286Y-35403502D01*
X70261905Y-35355883D01*
X70309524Y-35260645D01*
X70309524Y-35165407D01*
X70261905Y-35070169D01*
X70214286Y-35022550D01*
X70119048Y-34974930D01*
X69928571Y-34927311D01*
X69833333Y-34879692D01*
X69785714Y-34832073D01*
X69738095Y-34736835D01*
X69738095Y-34641597D01*
X69785714Y-34546359D01*
X69833333Y-34498740D01*
X69928571Y-34451121D01*
X70166667Y-34451121D01*
X70309524Y-34498740D01*
X71261905Y-35451121D02*
X70690476Y-35451121D01*
X70976190Y-35451121D02*
X70976190Y-34451121D01*
X70880952Y-34593978D01*
X70785714Y-34689216D01*
X70690476Y-34736835D01*
X103666667Y-105852381D02*
X103666667Y-106566667D01*
X103619047Y-106709524D01*
X103523809Y-106804762D01*
X103380952Y-106852381D01*
X103285714Y-106852381D01*
X104571429Y-106185714D02*
X104571429Y-106852381D01*
X104333333Y-105804762D02*
X104095238Y-106519048D01*
X104714286Y-106519048D01*
X100785714Y-118828571D02*
X101119048Y-118828571D01*
X101261905Y-119352381D02*
X100785714Y-119352381D01*
X100785714Y-118352381D01*
X101261905Y-118352381D01*
X101690476Y-119352381D02*
X101690476Y-118352381D01*
X102261905Y-119352381D01*
X102261905Y-118352381D01*
X103309524Y-119257143D02*
X103261905Y-119304762D01*
X103119048Y-119352381D01*
X103023810Y-119352381D01*
X102880952Y-119304762D01*
X102785714Y-119209524D01*
X102738095Y-119114286D01*
X102690476Y-118923810D01*
X102690476Y-118780952D01*
X102738095Y-118590476D01*
X102785714Y-118495238D01*
X102880952Y-118400000D01*
X103023810Y-118352381D01*
X103119048Y-118352381D01*
X103261905Y-118400000D01*
X103309524Y-118447619D01*
X103928571Y-118352381D02*
X104119048Y-118352381D01*
X104214286Y-118400000D01*
X104309524Y-118495238D01*
X104357143Y-118685714D01*
X104357143Y-119019048D01*
X104309524Y-119209524D01*
X104214286Y-119304762D01*
X104119048Y-119352381D01*
X103928571Y-119352381D01*
X103833333Y-119304762D01*
X103738095Y-119209524D01*
X103690476Y-119019048D01*
X103690476Y-118685714D01*
X103738095Y-118495238D01*
X103833333Y-118400000D01*
X103928571Y-118352381D01*
X104785714Y-119352381D02*
X104785714Y-118352381D01*
X105023809Y-118352381D01*
X105166667Y-118400000D01*
X105261905Y-118495238D01*
X105309524Y-118590476D01*
X105357143Y-118780952D01*
X105357143Y-118923810D01*
X105309524Y-119114286D01*
X105261905Y-119209524D01*
X105166667Y-119304762D01*
X105023809Y-119352381D01*
X104785714Y-119352381D01*
X105785714Y-118828571D02*
X106119048Y-118828571D01*
X106261905Y-119352381D02*
X105785714Y-119352381D01*
X105785714Y-118352381D01*
X106261905Y-118352381D01*
X107261905Y-119352381D02*
X106928571Y-118876190D01*
X106690476Y-119352381D02*
X106690476Y-118352381D01*
X107071429Y-118352381D01*
X107166667Y-118400000D01*
X107214286Y-118447619D01*
X107261905Y-118542857D01*
X107261905Y-118685714D01*
X107214286Y-118780952D01*
X107166667Y-118828571D01*
X107071429Y-118876190D01*
X106690476Y-118876190D01*
X36155334Y-74271143D02*
X36107715Y-74318762D01*
X35964858Y-74366381D01*
X35869620Y-74366381D01*
X35726762Y-74318762D01*
X35631524Y-74223524D01*
X35583905Y-74128286D01*
X35536286Y-73937810D01*
X35536286Y-73794952D01*
X35583905Y-73604476D01*
X35631524Y-73509238D01*
X35726762Y-73414000D01*
X35869620Y-73366381D01*
X35964858Y-73366381D01*
X36107715Y-73414000D01*
X36155334Y-73461619D01*
X37012477Y-73699714D02*
X37012477Y-74366381D01*
X36774381Y-73318762D02*
X36536286Y-74033048D01*
X37155334Y-74033048D01*
X109831143Y-81954666D02*
X109878762Y-82002285D01*
X109926381Y-82145142D01*
X109926381Y-82240380D01*
X109878762Y-82383238D01*
X109783524Y-82478476D01*
X109688286Y-82526095D01*
X109497810Y-82573714D01*
X109354952Y-82573714D01*
X109164476Y-82526095D01*
X109069238Y-82478476D01*
X108974000Y-82383238D01*
X108926381Y-82240380D01*
X108926381Y-82145142D01*
X108974000Y-82002285D01*
X109021619Y-81954666D01*
X109354952Y-81383238D02*
X109307333Y-81478476D01*
X109259714Y-81526095D01*
X109164476Y-81573714D01*
X109116857Y-81573714D01*
X109021619Y-81526095D01*
X108974000Y-81478476D01*
X108926381Y-81383238D01*
X108926381Y-81192761D01*
X108974000Y-81097523D01*
X109021619Y-81049904D01*
X109116857Y-81002285D01*
X109164476Y-81002285D01*
X109259714Y-81049904D01*
X109307333Y-81097523D01*
X109354952Y-81192761D01*
X109354952Y-81383238D01*
X109402571Y-81478476D01*
X109450190Y-81526095D01*
X109545429Y-81573714D01*
X109735905Y-81573714D01*
X109831143Y-81526095D01*
X109878762Y-81478476D01*
X109926381Y-81383238D01*
X109926381Y-81192761D01*
X109878762Y-81097523D01*
X109831143Y-81049904D01*
X109735905Y-81002285D01*
X109545429Y-81002285D01*
X109450190Y-81049904D01*
X109402571Y-81097523D01*
X109354952Y-81192761D01*
X114673143Y-67159143D02*
X114625524Y-67206762D01*
X114482667Y-67254381D01*
X114387429Y-67254381D01*
X114244571Y-67206762D01*
X114149333Y-67111524D01*
X114101714Y-67016286D01*
X114054095Y-66825810D01*
X114054095Y-66682952D01*
X114101714Y-66492476D01*
X114149333Y-66397238D01*
X114244571Y-66302000D01*
X114387429Y-66254381D01*
X114482667Y-66254381D01*
X114625524Y-66302000D01*
X114673143Y-66349619D01*
X115625524Y-67254381D02*
X115054095Y-67254381D01*
X115339809Y-67254381D02*
X115339809Y-66254381D01*
X115244571Y-66397238D01*
X115149333Y-66492476D01*
X115054095Y-66540095D01*
X116244571Y-66254381D02*
X116339810Y-66254381D01*
X116435048Y-66302000D01*
X116482667Y-66349619D01*
X116530286Y-66444857D01*
X116577905Y-66635333D01*
X116577905Y-66873429D01*
X116530286Y-67063905D01*
X116482667Y-67159143D01*
X116435048Y-67206762D01*
X116339810Y-67254381D01*
X116244571Y-67254381D01*
X116149333Y-67206762D01*
X116101714Y-67159143D01*
X116054095Y-67063905D01*
X116006476Y-66873429D01*
X116006476Y-66635333D01*
X116054095Y-66444857D01*
X116101714Y-66349619D01*
X116149333Y-66302000D01*
X116244571Y-66254381D01*
X27043143Y-31599143D02*
X26995524Y-31646762D01*
X26852667Y-31694381D01*
X26757429Y-31694381D01*
X26614571Y-31646762D01*
X26519333Y-31551524D01*
X26471714Y-31456286D01*
X26424095Y-31265810D01*
X26424095Y-31122952D01*
X26471714Y-30932476D01*
X26519333Y-30837238D01*
X26614571Y-30742000D01*
X26757429Y-30694381D01*
X26852667Y-30694381D01*
X26995524Y-30742000D01*
X27043143Y-30789619D01*
X27995524Y-31694381D02*
X27424095Y-31694381D01*
X27709809Y-31694381D02*
X27709809Y-30694381D01*
X27614571Y-30837238D01*
X27519333Y-30932476D01*
X27424095Y-30980095D01*
X28947905Y-31694381D02*
X28376476Y-31694381D01*
X28662190Y-31694381D02*
X28662190Y-30694381D01*
X28566952Y-30837238D01*
X28471714Y-30932476D01*
X28376476Y-30980095D01*
X62857143Y-111101143D02*
X62809524Y-111148762D01*
X62666667Y-111196381D01*
X62571429Y-111196381D01*
X62428571Y-111148762D01*
X62333333Y-111053524D01*
X62285714Y-110958286D01*
X62238095Y-110767810D01*
X62238095Y-110624952D01*
X62285714Y-110434476D01*
X62333333Y-110339238D01*
X62428571Y-110244000D01*
X62571429Y-110196381D01*
X62666667Y-110196381D01*
X62809524Y-110244000D01*
X62857143Y-110291619D01*
X63809524Y-111196381D02*
X63238095Y-111196381D01*
X63523809Y-111196381D02*
X63523809Y-110196381D01*
X63428571Y-110339238D01*
X63333333Y-110434476D01*
X63238095Y-110482095D01*
X64190476Y-110291619D02*
X64238095Y-110244000D01*
X64333333Y-110196381D01*
X64571429Y-110196381D01*
X64666667Y-110244000D01*
X64714286Y-110291619D01*
X64761905Y-110386857D01*
X64761905Y-110482095D01*
X64714286Y-110624952D01*
X64142857Y-111196381D01*
X64761905Y-111196381D01*
X70477143Y-111101143D02*
X70429524Y-111148762D01*
X70286667Y-111196381D01*
X70191429Y-111196381D01*
X70048571Y-111148762D01*
X69953333Y-111053524D01*
X69905714Y-110958286D01*
X69858095Y-110767810D01*
X69858095Y-110624952D01*
X69905714Y-110434476D01*
X69953333Y-110339238D01*
X70048571Y-110244000D01*
X70191429Y-110196381D01*
X70286667Y-110196381D01*
X70429524Y-110244000D01*
X70477143Y-110291619D01*
X71429524Y-111196381D02*
X70858095Y-111196381D01*
X71143809Y-111196381D02*
X71143809Y-110196381D01*
X71048571Y-110339238D01*
X70953333Y-110434476D01*
X70858095Y-110482095D01*
X71762857Y-110196381D02*
X72381905Y-110196381D01*
X72048571Y-110577333D01*
X72191429Y-110577333D01*
X72286667Y-110624952D01*
X72334286Y-110672571D01*
X72381905Y-110767810D01*
X72381905Y-111005905D01*
X72334286Y-111101143D01*
X72286667Y-111148762D01*
X72191429Y-111196381D01*
X71905714Y-111196381D01*
X71810476Y-111148762D01*
X71762857Y-111101143D01*
X23121881Y-56364095D02*
X22121881Y-56364095D01*
X22121881Y-56126000D01*
X22169500Y-55983142D01*
X22264738Y-55887904D01*
X22359976Y-55840285D01*
X22550452Y-55792666D01*
X22693310Y-55792666D01*
X22883786Y-55840285D01*
X22979024Y-55887904D01*
X23074262Y-55983142D01*
X23121881Y-56126000D01*
X23121881Y-56364095D01*
X23121881Y-54840285D02*
X23121881Y-55411714D01*
X23121881Y-55126000D02*
X22121881Y-55126000D01*
X22264738Y-55221238D01*
X22359976Y-55316476D01*
X22407595Y-55411714D01*
X27201905Y-28900381D02*
X27201905Y-27900381D01*
X27440000Y-27900381D01*
X27582858Y-27948000D01*
X27678096Y-28043238D01*
X27725715Y-28138476D01*
X27773334Y-28328952D01*
X27773334Y-28471810D01*
X27725715Y-28662286D01*
X27678096Y-28757524D01*
X27582858Y-28852762D01*
X27440000Y-28900381D01*
X27201905Y-28900381D01*
X28154286Y-27995619D02*
X28201905Y-27948000D01*
X28297143Y-27900381D01*
X28535239Y-27900381D01*
X28630477Y-27948000D01*
X28678096Y-27995619D01*
X28725715Y-28090857D01*
X28725715Y-28186095D01*
X28678096Y-28328952D01*
X28106667Y-28900381D01*
X28725715Y-28900381D01*
X23304667Y-26868381D02*
X23304667Y-25868381D01*
X23685620Y-25868381D01*
X23780858Y-25916000D01*
X23828477Y-25963619D01*
X23876096Y-26058857D01*
X23876096Y-26201714D01*
X23828477Y-26296952D01*
X23780858Y-26344571D01*
X23685620Y-26392190D01*
X23304667Y-26392190D01*
X24209429Y-25868381D02*
X24447524Y-26868381D01*
X24638001Y-26154095D01*
X24828477Y-26868381D01*
X25066572Y-25868381D01*
X26018953Y-26868381D02*
X25685619Y-26392190D01*
X25447524Y-26868381D02*
X25447524Y-25868381D01*
X25828477Y-25868381D01*
X25923715Y-25916000D01*
X25971334Y-25963619D01*
X26018953Y-26058857D01*
X26018953Y-26201714D01*
X25971334Y-26296952D01*
X25923715Y-26344571D01*
X25828477Y-26392190D01*
X25447524Y-26392190D01*
X56284905Y-65603381D02*
X56284905Y-64603381D01*
X56523000Y-64603381D01*
X56665858Y-64651000D01*
X56761096Y-64746238D01*
X56808715Y-64841476D01*
X56856334Y-65031952D01*
X56856334Y-65174810D01*
X56808715Y-65365286D01*
X56761096Y-65460524D01*
X56665858Y-65555762D01*
X56523000Y-65603381D01*
X56284905Y-65603381D01*
X57189667Y-64603381D02*
X57808715Y-64603381D01*
X57475381Y-64984333D01*
X57618239Y-64984333D01*
X57713477Y-65031952D01*
X57761096Y-65079571D01*
X57808715Y-65174810D01*
X57808715Y-65412905D01*
X57761096Y-65508143D01*
X57713477Y-65555762D01*
X57618239Y-65603381D01*
X57332524Y-65603381D01*
X57237286Y-65555762D01*
X57189667Y-65508143D01*
X56507143Y-68937143D02*
X56459524Y-68984762D01*
X56316667Y-69032381D01*
X56221429Y-69032381D01*
X56078571Y-68984762D01*
X55983333Y-68889524D01*
X55935714Y-68794286D01*
X55888095Y-68603810D01*
X55888095Y-68460952D01*
X55935714Y-68270476D01*
X55983333Y-68175238D01*
X56078571Y-68080000D01*
X56221429Y-68032381D01*
X56316667Y-68032381D01*
X56459524Y-68080000D01*
X56507143Y-68127619D01*
X56888095Y-68746667D02*
X57364286Y-68746667D01*
X56792857Y-69032381D02*
X57126190Y-68032381D01*
X57459524Y-69032381D01*
X57792857Y-69032381D02*
X57792857Y-68032381D01*
X58364286Y-69032381D01*
X58364286Y-68032381D01*
X49807905Y-65603381D02*
X49807905Y-64603381D01*
X50046000Y-64603381D01*
X50188858Y-64651000D01*
X50284096Y-64746238D01*
X50331715Y-64841476D01*
X50379334Y-65031952D01*
X50379334Y-65174810D01*
X50331715Y-65365286D01*
X50284096Y-65460524D01*
X50188858Y-65555762D01*
X50046000Y-65603381D01*
X49807905Y-65603381D01*
X51236477Y-64936714D02*
X51236477Y-65603381D01*
X50998381Y-64555762D02*
X50760286Y-65270048D01*
X51379334Y-65270048D01*
X49807905Y-69032381D02*
X49474571Y-68556190D01*
X49236476Y-69032381D02*
X49236476Y-68032381D01*
X49617429Y-68032381D01*
X49712667Y-68080000D01*
X49760286Y-68127619D01*
X49807905Y-68222857D01*
X49807905Y-68365714D01*
X49760286Y-68460952D01*
X49712667Y-68508571D01*
X49617429Y-68556190D01*
X49236476Y-68556190D01*
X50236476Y-68032381D02*
X50236476Y-68841905D01*
X50284095Y-68937143D01*
X50331714Y-68984762D01*
X50426952Y-69032381D01*
X50617429Y-69032381D01*
X50712667Y-68984762D01*
X50760286Y-68937143D01*
X50807905Y-68841905D01*
X50807905Y-68032381D01*
X51284095Y-69032381D02*
X51284095Y-68032381D01*
X51855524Y-69032381D01*
X51855524Y-68032381D01*
X100861905Y-97734381D02*
X100861905Y-96734381D01*
X101100000Y-96734381D01*
X101242858Y-96782000D01*
X101338096Y-96877238D01*
X101385715Y-96972476D01*
X101433334Y-97162952D01*
X101433334Y-97305810D01*
X101385715Y-97496286D01*
X101338096Y-97591524D01*
X101242858Y-97686762D01*
X101100000Y-97734381D01*
X100861905Y-97734381D01*
X102338096Y-96734381D02*
X101861905Y-96734381D01*
X101814286Y-97210571D01*
X101861905Y-97162952D01*
X101957143Y-97115333D01*
X102195239Y-97115333D01*
X102290477Y-97162952D01*
X102338096Y-97210571D01*
X102385715Y-97305810D01*
X102385715Y-97543905D01*
X102338096Y-97639143D01*
X102290477Y-97686762D01*
X102195239Y-97734381D01*
X101957143Y-97734381D01*
X101861905Y-97686762D01*
X101814286Y-97639143D01*
X113815905Y-82621381D02*
X113815905Y-81621381D01*
X114054000Y-81621381D01*
X114196858Y-81669000D01*
X114292096Y-81764238D01*
X114339715Y-81859476D01*
X114387334Y-82049952D01*
X114387334Y-82192810D01*
X114339715Y-82383286D01*
X114292096Y-82478524D01*
X114196858Y-82573762D01*
X114054000Y-82621381D01*
X113815905Y-82621381D01*
X115244477Y-81621381D02*
X115054000Y-81621381D01*
X114958762Y-81669000D01*
X114911143Y-81716619D01*
X114815905Y-81859476D01*
X114768286Y-82049952D01*
X114768286Y-82430905D01*
X114815905Y-82526143D01*
X114863524Y-82573762D01*
X114958762Y-82621381D01*
X115149239Y-82621381D01*
X115244477Y-82573762D01*
X115292096Y-82526143D01*
X115339715Y-82430905D01*
X115339715Y-82192810D01*
X115292096Y-82097571D01*
X115244477Y-82049952D01*
X115149239Y-82002333D01*
X114958762Y-82002333D01*
X114863524Y-82049952D01*
X114815905Y-82097571D01*
X114768286Y-82192810D01*
X111339714Y-78645711D02*
X111673048Y-78645711D01*
X111815905Y-79169521D02*
X111339714Y-79169521D01*
X111339714Y-78169521D01*
X111815905Y-78169521D01*
X112244476Y-79169521D02*
X112244476Y-78169521D01*
X112815905Y-79169521D01*
X112815905Y-78169521D01*
X113863524Y-79074283D02*
X113815905Y-79121902D01*
X113673048Y-79169521D01*
X113577810Y-79169521D01*
X113434952Y-79121902D01*
X113339714Y-79026664D01*
X113292095Y-78931426D01*
X113244476Y-78740950D01*
X113244476Y-78598092D01*
X113292095Y-78407616D01*
X113339714Y-78312378D01*
X113434952Y-78217140D01*
X113577810Y-78169521D01*
X113673048Y-78169521D01*
X113815905Y-78217140D01*
X113863524Y-78264759D01*
X114482571Y-78169521D02*
X114673048Y-78169521D01*
X114768286Y-78217140D01*
X114863524Y-78312378D01*
X114911143Y-78502854D01*
X114911143Y-78836188D01*
X114863524Y-79026664D01*
X114768286Y-79121902D01*
X114673048Y-79169521D01*
X114482571Y-79169521D01*
X114387333Y-79121902D01*
X114292095Y-79026664D01*
X114244476Y-78836188D01*
X114244476Y-78502854D01*
X114292095Y-78312378D01*
X114387333Y-78217140D01*
X114482571Y-78169521D01*
X115339714Y-79169521D02*
X115339714Y-78169521D01*
X115577809Y-78169521D01*
X115720667Y-78217140D01*
X115815905Y-78312378D01*
X115863524Y-78407616D01*
X115911143Y-78598092D01*
X115911143Y-78740950D01*
X115863524Y-78931426D01*
X115815905Y-79026664D01*
X115720667Y-79121902D01*
X115577809Y-79169521D01*
X115339714Y-79169521D01*
X116339714Y-78645711D02*
X116673048Y-78645711D01*
X116815905Y-79169521D02*
X116339714Y-79169521D01*
X116339714Y-78169521D01*
X116815905Y-78169521D01*
X117815905Y-79169521D02*
X117482571Y-78693330D01*
X117244476Y-79169521D02*
X117244476Y-78169521D01*
X117625429Y-78169521D01*
X117720667Y-78217140D01*
X117768286Y-78264759D01*
X117815905Y-78359997D01*
X117815905Y-78502854D01*
X117768286Y-78598092D01*
X117720667Y-78645711D01*
X117625429Y-78693330D01*
X117244476Y-78693330D01*
X49807905Y-71445381D02*
X49807905Y-70445381D01*
X50046000Y-70445381D01*
X50188858Y-70493000D01*
X50284096Y-70588238D01*
X50331715Y-70683476D01*
X50379334Y-70873952D01*
X50379334Y-71016810D01*
X50331715Y-71207286D01*
X50284096Y-71302524D01*
X50188858Y-71397762D01*
X50046000Y-71445381D01*
X49807905Y-71445381D01*
X50712667Y-70445381D02*
X51379334Y-70445381D01*
X50950762Y-71445381D01*
X49307905Y-73897241D02*
X49879334Y-73897241D01*
X49593619Y-74897241D02*
X49593619Y-73897241D01*
X50117429Y-73897241D02*
X50784096Y-74897241D01*
X50784096Y-73897241D02*
X50117429Y-74897241D01*
X51117429Y-73992479D02*
X51165048Y-73944860D01*
X51260286Y-73897241D01*
X51498382Y-73897241D01*
X51593620Y-73944860D01*
X51641239Y-73992479D01*
X51688858Y-74087717D01*
X51688858Y-74182955D01*
X51641239Y-74325812D01*
X51069810Y-74897241D01*
X51688858Y-74897241D01*
X56411905Y-77287381D02*
X56411905Y-76287381D01*
X56650000Y-76287381D01*
X56792858Y-76335000D01*
X56888096Y-76430238D01*
X56935715Y-76525476D01*
X56983334Y-76715952D01*
X56983334Y-76858810D01*
X56935715Y-77049286D01*
X56888096Y-77144524D01*
X56792858Y-77239762D01*
X56650000Y-77287381D01*
X56411905Y-77287381D01*
X57554762Y-76715952D02*
X57459524Y-76668333D01*
X57411905Y-76620714D01*
X57364286Y-76525476D01*
X57364286Y-76477857D01*
X57411905Y-76382619D01*
X57459524Y-76335000D01*
X57554762Y-76287381D01*
X57745239Y-76287381D01*
X57840477Y-76335000D01*
X57888096Y-76382619D01*
X57935715Y-76477857D01*
X57935715Y-76525476D01*
X57888096Y-76620714D01*
X57840477Y-76668333D01*
X57745239Y-76715952D01*
X57554762Y-76715952D01*
X57459524Y-76763571D01*
X57411905Y-76811190D01*
X57364286Y-76906429D01*
X57364286Y-77096905D01*
X57411905Y-77192143D01*
X57459524Y-77239762D01*
X57554762Y-77287381D01*
X57745239Y-77287381D01*
X57840477Y-77239762D01*
X57888096Y-77192143D01*
X57935715Y-77096905D01*
X57935715Y-76906429D01*
X57888096Y-76811190D01*
X57840477Y-76763571D01*
X57745239Y-76715952D01*
X55911905Y-79716381D02*
X56483334Y-79716381D01*
X56197619Y-80716381D02*
X56197619Y-79716381D01*
X56721429Y-79716381D02*
X57388096Y-80716381D01*
X57388096Y-79716381D02*
X56721429Y-80716381D01*
X58292858Y-80716381D02*
X57721429Y-80716381D01*
X58007143Y-80716381D02*
X58007143Y-79716381D01*
X57911905Y-79859238D01*
X57816667Y-79954476D01*
X57721429Y-80002095D01*
X56665905Y-71445381D02*
X56665905Y-70445381D01*
X56904000Y-70445381D01*
X57046858Y-70493000D01*
X57142096Y-70588238D01*
X57189715Y-70683476D01*
X57237334Y-70873952D01*
X57237334Y-71016810D01*
X57189715Y-71207286D01*
X57142096Y-71302524D01*
X57046858Y-71397762D01*
X56904000Y-71445381D01*
X56665905Y-71445381D01*
X57713524Y-71445381D02*
X57904000Y-71445381D01*
X57999239Y-71397762D01*
X58046858Y-71350143D01*
X58142096Y-71207286D01*
X58189715Y-71016810D01*
X58189715Y-70635857D01*
X58142096Y-70540619D01*
X58094477Y-70493000D01*
X57999239Y-70445381D01*
X57808762Y-70445381D01*
X57713524Y-70493000D01*
X57665905Y-70540619D01*
X57618286Y-70635857D01*
X57618286Y-70873952D01*
X57665905Y-70969190D01*
X57713524Y-71016810D01*
X57808762Y-71064429D01*
X57999239Y-71064429D01*
X58094477Y-71016810D01*
X58142096Y-70969190D01*
X58189715Y-70873952D01*
X56761143Y-74897241D02*
X56427809Y-74421050D01*
X56189714Y-74897241D02*
X56189714Y-73897241D01*
X56570667Y-73897241D01*
X56665905Y-73944860D01*
X56713524Y-73992479D01*
X56761143Y-74087717D01*
X56761143Y-74230574D01*
X56713524Y-74325812D01*
X56665905Y-74373431D01*
X56570667Y-74421050D01*
X56189714Y-74421050D01*
X57094476Y-73897241D02*
X57761143Y-74897241D01*
X57761143Y-73897241D02*
X57094476Y-74897241D01*
X58094476Y-73992479D02*
X58142095Y-73944860D01*
X58237333Y-73897241D01*
X58475429Y-73897241D01*
X58570667Y-73944860D01*
X58618286Y-73992479D01*
X58665905Y-74087717D01*
X58665905Y-74182955D01*
X58618286Y-74325812D01*
X58046857Y-74897241D01*
X58665905Y-74897241D01*
X49331714Y-77287381D02*
X49331714Y-76287381D01*
X49569809Y-76287381D01*
X49712667Y-76335000D01*
X49807905Y-76430238D01*
X49855524Y-76525476D01*
X49903143Y-76715952D01*
X49903143Y-76858810D01*
X49855524Y-77049286D01*
X49807905Y-77144524D01*
X49712667Y-77239762D01*
X49569809Y-77287381D01*
X49331714Y-77287381D01*
X50855524Y-77287381D02*
X50284095Y-77287381D01*
X50569809Y-77287381D02*
X50569809Y-76287381D01*
X50474571Y-76430238D01*
X50379333Y-76525476D01*
X50284095Y-76573095D01*
X51474571Y-76287381D02*
X51569810Y-76287381D01*
X51665048Y-76335000D01*
X51712667Y-76382619D01*
X51760286Y-76477857D01*
X51807905Y-76668333D01*
X51807905Y-76906429D01*
X51760286Y-77096905D01*
X51712667Y-77192143D01*
X51665048Y-77239762D01*
X51569810Y-77287381D01*
X51474571Y-77287381D01*
X51379333Y-77239762D01*
X51331714Y-77192143D01*
X51284095Y-77096905D01*
X51236476Y-76906429D01*
X51236476Y-76668333D01*
X51284095Y-76477857D01*
X51331714Y-76382619D01*
X51379333Y-76335000D01*
X51474571Y-76287381D01*
X49903143Y-80739241D02*
X49569809Y-80263050D01*
X49331714Y-80739241D02*
X49331714Y-79739241D01*
X49712667Y-79739241D01*
X49807905Y-79786860D01*
X49855524Y-79834479D01*
X49903143Y-79929717D01*
X49903143Y-80072574D01*
X49855524Y-80167812D01*
X49807905Y-80215431D01*
X49712667Y-80263050D01*
X49331714Y-80263050D01*
X50236476Y-79739241D02*
X50903143Y-80739241D01*
X50903143Y-79739241D02*
X50236476Y-80739241D01*
X51807905Y-80739241D02*
X51236476Y-80739241D01*
X51522190Y-80739241D02*
X51522190Y-79739241D01*
X51426952Y-79882098D01*
X51331714Y-79977336D01*
X51236476Y-80024955D01*
X33230381Y-67389333D02*
X33944667Y-67389333D01*
X34087524Y-67436953D01*
X34182762Y-67532191D01*
X34230381Y-67675048D01*
X34230381Y-67770286D01*
X34230381Y-66389333D02*
X34230381Y-66960762D01*
X34230381Y-66675048D02*
X33230381Y-66675048D01*
X33373238Y-66770286D01*
X33468476Y-66865524D01*
X33516095Y-66960762D01*
X20778000Y-69817904D02*
X20730381Y-69913142D01*
X20730381Y-70055999D01*
X20778000Y-70198857D01*
X20873238Y-70294095D01*
X20968476Y-70341714D01*
X21158952Y-70389333D01*
X21301810Y-70389333D01*
X21492286Y-70341714D01*
X21587524Y-70294095D01*
X21682762Y-70198857D01*
X21730381Y-70055999D01*
X21730381Y-69960761D01*
X21682762Y-69817904D01*
X21635143Y-69770285D01*
X21301810Y-69770285D01*
X21301810Y-69960761D01*
X21730381Y-69341714D02*
X20730381Y-69341714D01*
X21730381Y-68770285D01*
X20730381Y-68770285D01*
X21730381Y-68294095D02*
X20730381Y-68294095D01*
X20730381Y-68056000D01*
X20778000Y-67913142D01*
X20873238Y-67817904D01*
X20968476Y-67770285D01*
X21158952Y-67722666D01*
X21301810Y-67722666D01*
X21492286Y-67770285D01*
X21587524Y-67817904D01*
X21682762Y-67913142D01*
X21730381Y-68056000D01*
X21730381Y-68294095D01*
X21349429Y-67294095D02*
X21349429Y-66532190D01*
X20825619Y-66103619D02*
X20778000Y-66056000D01*
X20730381Y-65960762D01*
X20730381Y-65722666D01*
X20778000Y-65627428D01*
X20825619Y-65579809D01*
X20920857Y-65532190D01*
X21016095Y-65532190D01*
X21158952Y-65579809D01*
X21730381Y-66151238D01*
X21730381Y-65532190D01*
X21063714Y-64675047D02*
X21730381Y-64675047D01*
X20682762Y-64913143D02*
X21397048Y-65151238D01*
X21397048Y-64532190D01*
X20730381Y-64294095D02*
X21730381Y-63960762D01*
X20730381Y-63627428D01*
X42251381Y-73333333D02*
X42965667Y-73333333D01*
X43108524Y-73380953D01*
X43203762Y-73476191D01*
X43251381Y-73619048D01*
X43251381Y-73714286D01*
X42346619Y-72904762D02*
X42299000Y-72857143D01*
X42251381Y-72761905D01*
X42251381Y-72523809D01*
X42299000Y-72428571D01*
X42346619Y-72380952D01*
X42441857Y-72333333D01*
X42537095Y-72333333D01*
X42679952Y-72380952D01*
X43251381Y-72952381D01*
X43251381Y-72333333D01*
X41854381Y-74222190D02*
X40854381Y-74222190D01*
X41759143Y-73174571D02*
X41806762Y-73222190D01*
X41854381Y-73365047D01*
X41854381Y-73460285D01*
X41806762Y-73603143D01*
X41711524Y-73698381D01*
X41616286Y-73746000D01*
X41425810Y-73793619D01*
X41282952Y-73793619D01*
X41092476Y-73746000D01*
X40997238Y-73698381D01*
X40902000Y-73603143D01*
X40854381Y-73460285D01*
X40854381Y-73365047D01*
X40902000Y-73222190D01*
X40949619Y-73174571D01*
X41806762Y-72793619D02*
X41854381Y-72650762D01*
X41854381Y-72412666D01*
X41806762Y-72317428D01*
X41759143Y-72269809D01*
X41663905Y-72222190D01*
X41568667Y-72222190D01*
X41473429Y-72269809D01*
X41425810Y-72317428D01*
X41378190Y-72412666D01*
X41330571Y-72603143D01*
X41282952Y-72698381D01*
X41235333Y-72746000D01*
X41140095Y-72793619D01*
X41044857Y-72793619D01*
X40949619Y-72746000D01*
X40902000Y-72698381D01*
X40854381Y-72603143D01*
X40854381Y-72365047D01*
X40902000Y-72222190D01*
X41854381Y-71793619D02*
X40854381Y-71793619D01*
X40854381Y-71412666D01*
X40902000Y-71317428D01*
X40949619Y-71269809D01*
X41044857Y-71222190D01*
X41187714Y-71222190D01*
X41282952Y-71269809D01*
X41330571Y-71317428D01*
X41378190Y-71412666D01*
X41378190Y-71793619D01*
X49666667Y-105852381D02*
X49666667Y-106566667D01*
X49619047Y-106709524D01*
X49523809Y-106804762D01*
X49380952Y-106852381D01*
X49285714Y-106852381D01*
X50047619Y-105852381D02*
X50666667Y-105852381D01*
X50333333Y-106233333D01*
X50476191Y-106233333D01*
X50571429Y-106280952D01*
X50619048Y-106328571D01*
X50666667Y-106423810D01*
X50666667Y-106661905D01*
X50619048Y-106757143D01*
X50571429Y-106804762D01*
X50476191Y-106852381D01*
X50190476Y-106852381D01*
X50095238Y-106804762D01*
X50047619Y-106757143D01*
X49357143Y-119257143D02*
X49309524Y-119304762D01*
X49166667Y-119352381D01*
X49071429Y-119352381D01*
X48928571Y-119304762D01*
X48833333Y-119209524D01*
X48785714Y-119114286D01*
X48738095Y-118923810D01*
X48738095Y-118780952D01*
X48785714Y-118590476D01*
X48833333Y-118495238D01*
X48928571Y-118400000D01*
X49071429Y-118352381D01*
X49166667Y-118352381D01*
X49309524Y-118400000D01*
X49357143Y-118447619D01*
X49738095Y-119066667D02*
X50214286Y-119066667D01*
X49642857Y-119352381D02*
X49976190Y-118352381D01*
X50309524Y-119352381D01*
X50642857Y-119352381D02*
X50642857Y-118352381D01*
X51214286Y-119352381D01*
X51214286Y-118352381D01*
X103028762Y-90717619D02*
X102933524Y-90670000D01*
X102838286Y-90574762D01*
X102695429Y-90431905D01*
X102600190Y-90384286D01*
X102504952Y-90384286D01*
X102552571Y-90622381D02*
X102457333Y-90574762D01*
X102362095Y-90479524D01*
X102314476Y-90289048D01*
X102314476Y-89955714D01*
X102362095Y-89765238D01*
X102457333Y-89670000D01*
X102552571Y-89622381D01*
X102743048Y-89622381D01*
X102838286Y-89670000D01*
X102933524Y-89765238D01*
X102981143Y-89955714D01*
X102981143Y-90289048D01*
X102933524Y-90479524D01*
X102838286Y-90574762D01*
X102743048Y-90622381D01*
X102552571Y-90622381D01*
X103933524Y-90622381D02*
X103362095Y-90622381D01*
X103647809Y-90622381D02*
X103647809Y-89622381D01*
X103552571Y-89765238D01*
X103457333Y-89860476D01*
X103362095Y-89908095D01*
X77882762Y-84875619D02*
X77787524Y-84828000D01*
X77692286Y-84732762D01*
X77549429Y-84589905D01*
X77454190Y-84542286D01*
X77358952Y-84542286D01*
X77406571Y-84780381D02*
X77311333Y-84732762D01*
X77216095Y-84637524D01*
X77168476Y-84447048D01*
X77168476Y-84113714D01*
X77216095Y-83923238D01*
X77311333Y-83828000D01*
X77406571Y-83780381D01*
X77597048Y-83780381D01*
X77692286Y-83828000D01*
X77787524Y-83923238D01*
X77835143Y-84113714D01*
X77835143Y-84447048D01*
X77787524Y-84637524D01*
X77692286Y-84732762D01*
X77597048Y-84780381D01*
X77406571Y-84780381D01*
X78216095Y-83875619D02*
X78263714Y-83828000D01*
X78358952Y-83780381D01*
X78597048Y-83780381D01*
X78692286Y-83828000D01*
X78739905Y-83875619D01*
X78787524Y-83970857D01*
X78787524Y-84066095D01*
X78739905Y-84208952D01*
X78168476Y-84780381D01*
X78787524Y-84780381D01*
X86772762Y-68619619D02*
X86677524Y-68572000D01*
X86582286Y-68476762D01*
X86439429Y-68333905D01*
X86344190Y-68286286D01*
X86248952Y-68286286D01*
X86296571Y-68524381D02*
X86201333Y-68476762D01*
X86106095Y-68381524D01*
X86058476Y-68191048D01*
X86058476Y-67857714D01*
X86106095Y-67667238D01*
X86201333Y-67572000D01*
X86296571Y-67524381D01*
X86487048Y-67524381D01*
X86582286Y-67572000D01*
X86677524Y-67667238D01*
X86725143Y-67857714D01*
X86725143Y-68191048D01*
X86677524Y-68381524D01*
X86582286Y-68476762D01*
X86487048Y-68524381D01*
X86296571Y-68524381D01*
X87058476Y-67524381D02*
X87677524Y-67524381D01*
X87344190Y-67905333D01*
X87487048Y-67905333D01*
X87582286Y-67952952D01*
X87629905Y-68000571D01*
X87677524Y-68095810D01*
X87677524Y-68333905D01*
X87629905Y-68429143D01*
X87582286Y-68476762D01*
X87487048Y-68524381D01*
X87201333Y-68524381D01*
X87106095Y-68476762D01*
X87058476Y-68429143D01*
X91384381Y-79922666D02*
X90908190Y-80256000D01*
X91384381Y-80494095D02*
X90384381Y-80494095D01*
X90384381Y-80113142D01*
X90432000Y-80017904D01*
X90479619Y-79970285D01*
X90574857Y-79922666D01*
X90717714Y-79922666D01*
X90812952Y-79970285D01*
X90860571Y-80017904D01*
X90908190Y-80113142D01*
X90908190Y-80494095D01*
X91384381Y-78970285D02*
X91384381Y-79541714D01*
X91384381Y-79256000D02*
X90384381Y-79256000D01*
X90527238Y-79351238D01*
X90622476Y-79446476D01*
X90670095Y-79541714D01*
X93670381Y-80176666D02*
X93194190Y-80510000D01*
X93670381Y-80748095D02*
X92670381Y-80748095D01*
X92670381Y-80367142D01*
X92718000Y-80271904D01*
X92765619Y-80224285D01*
X92860857Y-80176666D01*
X93003714Y-80176666D01*
X93098952Y-80224285D01*
X93146571Y-80271904D01*
X93194190Y-80367142D01*
X93194190Y-80748095D01*
X92765619Y-79795714D02*
X92718000Y-79748095D01*
X92670381Y-79652857D01*
X92670381Y-79414761D01*
X92718000Y-79319523D01*
X92765619Y-79271904D01*
X92860857Y-79224285D01*
X92956095Y-79224285D01*
X93098952Y-79271904D01*
X93670381Y-79843333D01*
X93670381Y-79224285D01*
X60031334Y-78430381D02*
X59698000Y-77954190D01*
X59459905Y-78430381D02*
X59459905Y-77430381D01*
X59840858Y-77430381D01*
X59936096Y-77478000D01*
X59983715Y-77525619D01*
X60031334Y-77620857D01*
X60031334Y-77763714D01*
X59983715Y-77858952D01*
X59936096Y-77906571D01*
X59840858Y-77954190D01*
X59459905Y-77954190D01*
X60888477Y-77763714D02*
X60888477Y-78430381D01*
X60650381Y-77382762D02*
X60412286Y-78097048D01*
X61031334Y-78097048D01*
X41854381Y-64174666D02*
X41378190Y-64508000D01*
X41854381Y-64746095D02*
X40854381Y-64746095D01*
X40854381Y-64365142D01*
X40902000Y-64269904D01*
X40949619Y-64222285D01*
X41044857Y-64174666D01*
X41187714Y-64174666D01*
X41282952Y-64222285D01*
X41330571Y-64269904D01*
X41378190Y-64365142D01*
X41378190Y-64746095D01*
X40854381Y-63269904D02*
X40854381Y-63746095D01*
X41330571Y-63793714D01*
X41282952Y-63746095D01*
X41235333Y-63650857D01*
X41235333Y-63412761D01*
X41282952Y-63317523D01*
X41330571Y-63269904D01*
X41425810Y-63222285D01*
X41663905Y-63222285D01*
X41759143Y-63269904D01*
X41806762Y-63317523D01*
X41854381Y-63412761D01*
X41854381Y-63650857D01*
X41806762Y-63746095D01*
X41759143Y-63793714D01*
X60031334Y-80716381D02*
X59698000Y-80240190D01*
X59459905Y-80716381D02*
X59459905Y-79716381D01*
X59840858Y-79716381D01*
X59936096Y-79764000D01*
X59983715Y-79811619D01*
X60031334Y-79906857D01*
X60031334Y-80049714D01*
X59983715Y-80144952D01*
X59936096Y-80192571D01*
X59840858Y-80240190D01*
X59459905Y-80240190D01*
X60888477Y-79716381D02*
X60698000Y-79716381D01*
X60602762Y-79764000D01*
X60555143Y-79811619D01*
X60459905Y-79954476D01*
X60412286Y-80144952D01*
X60412286Y-80525905D01*
X60459905Y-80621143D01*
X60507524Y-80668762D01*
X60602762Y-80716381D01*
X60793239Y-80716381D01*
X60888477Y-80668762D01*
X60936096Y-80621143D01*
X60983715Y-80525905D01*
X60983715Y-80287810D01*
X60936096Y-80192571D01*
X60888477Y-80144952D01*
X60793239Y-80097333D01*
X60602762Y-80097333D01*
X60507524Y-80144952D01*
X60459905Y-80192571D01*
X60412286Y-80287810D01*
X102957334Y-87066381D02*
X102624000Y-86590190D01*
X102385905Y-87066381D02*
X102385905Y-86066381D01*
X102766858Y-86066381D01*
X102862096Y-86114000D01*
X102909715Y-86161619D01*
X102957334Y-86256857D01*
X102957334Y-86399714D01*
X102909715Y-86494952D01*
X102862096Y-86542571D01*
X102766858Y-86590190D01*
X102385905Y-86590190D01*
X103290667Y-86066381D02*
X103957334Y-86066381D01*
X103528762Y-87066381D01*
X102703334Y-94432381D02*
X102370000Y-93956190D01*
X102131905Y-94432381D02*
X102131905Y-93432381D01*
X102512858Y-93432381D01*
X102608096Y-93480000D01*
X102655715Y-93527619D01*
X102703334Y-93622857D01*
X102703334Y-93765714D01*
X102655715Y-93860952D01*
X102608096Y-93908571D01*
X102512858Y-93956190D01*
X102131905Y-93956190D01*
X103274762Y-93860952D02*
X103179524Y-93813333D01*
X103131905Y-93765714D01*
X103084286Y-93670476D01*
X103084286Y-93622857D01*
X103131905Y-93527619D01*
X103179524Y-93480000D01*
X103274762Y-93432381D01*
X103465239Y-93432381D01*
X103560477Y-93480000D01*
X103608096Y-93527619D01*
X103655715Y-93622857D01*
X103655715Y-93670476D01*
X103608096Y-93765714D01*
X103560477Y-93813333D01*
X103465239Y-93860952D01*
X103274762Y-93860952D01*
X103179524Y-93908571D01*
X103131905Y-93956190D01*
X103084286Y-94051429D01*
X103084286Y-94241905D01*
X103131905Y-94337143D01*
X103179524Y-94384762D01*
X103274762Y-94432381D01*
X103465239Y-94432381D01*
X103560477Y-94384762D01*
X103608096Y-94337143D01*
X103655715Y-94241905D01*
X103655715Y-94051429D01*
X103608096Y-93956190D01*
X103560477Y-93908571D01*
X103465239Y-93860952D01*
X58761334Y-54046381D02*
X58428000Y-53570190D01*
X58189905Y-54046381D02*
X58189905Y-53046381D01*
X58570858Y-53046381D01*
X58666096Y-53094000D01*
X58713715Y-53141619D01*
X58761334Y-53236857D01*
X58761334Y-53379714D01*
X58713715Y-53474952D01*
X58666096Y-53522571D01*
X58570858Y-53570190D01*
X58189905Y-53570190D01*
X59237524Y-54046381D02*
X59428000Y-54046381D01*
X59523239Y-53998762D01*
X59570858Y-53951143D01*
X59666096Y-53808286D01*
X59713715Y-53617810D01*
X59713715Y-53236857D01*
X59666096Y-53141619D01*
X59618477Y-53094000D01*
X59523239Y-53046381D01*
X59332762Y-53046381D01*
X59237524Y-53094000D01*
X59189905Y-53141619D01*
X59142286Y-53236857D01*
X59142286Y-53474952D01*
X59189905Y-53570190D01*
X59237524Y-53617810D01*
X59332762Y-53665429D01*
X59523239Y-53665429D01*
X59618477Y-53617810D01*
X59666096Y-53570190D01*
X59713715Y-53474952D01*
X54808381Y-105544857D02*
X54332190Y-105878191D01*
X54808381Y-106116286D02*
X53808381Y-106116286D01*
X53808381Y-105735333D01*
X53856000Y-105640095D01*
X53903619Y-105592476D01*
X53998857Y-105544857D01*
X54141714Y-105544857D01*
X54236952Y-105592476D01*
X54284571Y-105640095D01*
X54332190Y-105735333D01*
X54332190Y-106116286D01*
X54808381Y-104592476D02*
X54808381Y-105163905D01*
X54808381Y-104878191D02*
X53808381Y-104878191D01*
X53951238Y-104973429D01*
X54046476Y-105068667D01*
X54094095Y-105163905D01*
X53808381Y-103973429D02*
X53808381Y-103878190D01*
X53856000Y-103782952D01*
X53903619Y-103735333D01*
X53998857Y-103687714D01*
X54189333Y-103640095D01*
X54427429Y-103640095D01*
X54617905Y-103687714D01*
X54713143Y-103735333D01*
X54760762Y-103782952D01*
X54808381Y-103878190D01*
X54808381Y-103973429D01*
X54760762Y-104068667D01*
X54713143Y-104116286D01*
X54617905Y-104163905D01*
X54427429Y-104211524D01*
X54189333Y-104211524D01*
X53998857Y-104163905D01*
X53903619Y-104116286D01*
X53856000Y-104068667D01*
X53808381Y-103973429D01*
X119324381Y-90812857D02*
X118848190Y-91146191D01*
X119324381Y-91384286D02*
X118324381Y-91384286D01*
X118324381Y-91003333D01*
X118372000Y-90908095D01*
X118419619Y-90860476D01*
X118514857Y-90812857D01*
X118657714Y-90812857D01*
X118752952Y-90860476D01*
X118800571Y-90908095D01*
X118848190Y-91003333D01*
X118848190Y-91384286D01*
X119324381Y-89860476D02*
X119324381Y-90431905D01*
X119324381Y-90146191D02*
X118324381Y-90146191D01*
X118467238Y-90241429D01*
X118562476Y-90336667D01*
X118610095Y-90431905D01*
X119324381Y-88908095D02*
X119324381Y-89479524D01*
X119324381Y-89193810D02*
X118324381Y-89193810D01*
X118467238Y-89289048D01*
X118562476Y-89384286D01*
X118610095Y-89479524D01*
X46172381Y-105544857D02*
X45696190Y-105878191D01*
X46172381Y-106116286D02*
X45172381Y-106116286D01*
X45172381Y-105735333D01*
X45220000Y-105640095D01*
X45267619Y-105592476D01*
X45362857Y-105544857D01*
X45505714Y-105544857D01*
X45600952Y-105592476D01*
X45648571Y-105640095D01*
X45696190Y-105735333D01*
X45696190Y-106116286D01*
X46172381Y-104592476D02*
X46172381Y-105163905D01*
X46172381Y-104878191D02*
X45172381Y-104878191D01*
X45315238Y-104973429D01*
X45410476Y-105068667D01*
X45458095Y-105163905D01*
X45267619Y-104211524D02*
X45220000Y-104163905D01*
X45172381Y-104068667D01*
X45172381Y-103830571D01*
X45220000Y-103735333D01*
X45267619Y-103687714D01*
X45362857Y-103640095D01*
X45458095Y-103640095D01*
X45600952Y-103687714D01*
X46172381Y-104259143D01*
X46172381Y-103640095D01*
X83685143Y-84780381D02*
X83351809Y-84304190D01*
X83113714Y-84780381D02*
X83113714Y-83780381D01*
X83494667Y-83780381D01*
X83589905Y-83828000D01*
X83637524Y-83875619D01*
X83685143Y-83970857D01*
X83685143Y-84113714D01*
X83637524Y-84208952D01*
X83589905Y-84256571D01*
X83494667Y-84304190D01*
X83113714Y-84304190D01*
X84637524Y-84780381D02*
X84066095Y-84780381D01*
X84351809Y-84780381D02*
X84351809Y-83780381D01*
X84256571Y-83923238D01*
X84161333Y-84018476D01*
X84066095Y-84066095D01*
X84970857Y-83780381D02*
X85589905Y-83780381D01*
X85256571Y-84161333D01*
X85399429Y-84161333D01*
X85494667Y-84208952D01*
X85542286Y-84256571D01*
X85589905Y-84351810D01*
X85589905Y-84589905D01*
X85542286Y-84685143D01*
X85494667Y-84732762D01*
X85399429Y-84780381D01*
X85113714Y-84780381D01*
X85018476Y-84732762D01*
X84970857Y-84685143D01*
X77208143Y-71572381D02*
X76874809Y-71096190D01*
X76636714Y-71572381D02*
X76636714Y-70572381D01*
X77017667Y-70572381D01*
X77112905Y-70620000D01*
X77160524Y-70667619D01*
X77208143Y-70762857D01*
X77208143Y-70905714D01*
X77160524Y-71000952D01*
X77112905Y-71048571D01*
X77017667Y-71096190D01*
X76636714Y-71096190D01*
X78160524Y-71572381D02*
X77589095Y-71572381D01*
X77874809Y-71572381D02*
X77874809Y-70572381D01*
X77779571Y-70715238D01*
X77684333Y-70810476D01*
X77589095Y-70858095D01*
X79017667Y-70905714D02*
X79017667Y-71572381D01*
X78779571Y-70524762D02*
X78541476Y-71239048D01*
X79160524Y-71239048D01*
X80891143Y-84780381D02*
X80557809Y-84304190D01*
X80319714Y-84780381D02*
X80319714Y-83780381D01*
X80700667Y-83780381D01*
X80795905Y-83828000D01*
X80843524Y-83875619D01*
X80891143Y-83970857D01*
X80891143Y-84113714D01*
X80843524Y-84208952D01*
X80795905Y-84256571D01*
X80700667Y-84304190D01*
X80319714Y-84304190D01*
X81843524Y-84780381D02*
X81272095Y-84780381D01*
X81557809Y-84780381D02*
X81557809Y-83780381D01*
X81462571Y-83923238D01*
X81367333Y-84018476D01*
X81272095Y-84066095D01*
X82748286Y-83780381D02*
X82272095Y-83780381D01*
X82224476Y-84256571D01*
X82272095Y-84208952D01*
X82367333Y-84161333D01*
X82605429Y-84161333D01*
X82700667Y-84208952D01*
X82748286Y-84256571D01*
X82795905Y-84351810D01*
X82795905Y-84589905D01*
X82748286Y-84685143D01*
X82700667Y-84732762D01*
X82605429Y-84780381D01*
X82367333Y-84780381D01*
X82272095Y-84732762D01*
X82224476Y-84685143D01*
X98671143Y-84780381D02*
X98337809Y-84304190D01*
X98099714Y-84780381D02*
X98099714Y-83780381D01*
X98480667Y-83780381D01*
X98575905Y-83828000D01*
X98623524Y-83875619D01*
X98671143Y-83970857D01*
X98671143Y-84113714D01*
X98623524Y-84208952D01*
X98575905Y-84256571D01*
X98480667Y-84304190D01*
X98099714Y-84304190D01*
X99623524Y-84780381D02*
X99052095Y-84780381D01*
X99337809Y-84780381D02*
X99337809Y-83780381D01*
X99242571Y-83923238D01*
X99147333Y-84018476D01*
X99052095Y-84066095D01*
X100480667Y-83780381D02*
X100290190Y-83780381D01*
X100194952Y-83828000D01*
X100147333Y-83875619D01*
X100052095Y-84018476D01*
X100004476Y-84208952D01*
X100004476Y-84589905D01*
X100052095Y-84685143D01*
X100099714Y-84732762D01*
X100194952Y-84780381D01*
X100385429Y-84780381D01*
X100480667Y-84732762D01*
X100528286Y-84685143D01*
X100575905Y-84589905D01*
X100575905Y-84351810D01*
X100528286Y-84256571D01*
X100480667Y-84208952D01*
X100385429Y-84161333D01*
X100194952Y-84161333D01*
X100099714Y-84208952D01*
X100052095Y-84256571D01*
X100004476Y-84351810D01*
X84574143Y-77922381D02*
X84240809Y-77446190D01*
X84002714Y-77922381D02*
X84002714Y-76922381D01*
X84383667Y-76922381D01*
X84478905Y-76970000D01*
X84526524Y-77017619D01*
X84574143Y-77112857D01*
X84574143Y-77255714D01*
X84526524Y-77350952D01*
X84478905Y-77398571D01*
X84383667Y-77446190D01*
X84002714Y-77446190D01*
X85526524Y-77922381D02*
X84955095Y-77922381D01*
X85240809Y-77922381D02*
X85240809Y-76922381D01*
X85145571Y-77065238D01*
X85050333Y-77160476D01*
X84955095Y-77208095D01*
X85859857Y-76922381D02*
X86526524Y-76922381D01*
X86097952Y-77922381D01*
X84574143Y-75382381D02*
X84240809Y-74906190D01*
X84002714Y-75382381D02*
X84002714Y-74382381D01*
X84383667Y-74382381D01*
X84478905Y-74430000D01*
X84526524Y-74477619D01*
X84574143Y-74572857D01*
X84574143Y-74715714D01*
X84526524Y-74810952D01*
X84478905Y-74858571D01*
X84383667Y-74906190D01*
X84002714Y-74906190D01*
X85526524Y-75382381D02*
X84955095Y-75382381D01*
X85240809Y-75382381D02*
X85240809Y-74382381D01*
X85145571Y-74525238D01*
X85050333Y-74620476D01*
X84955095Y-74668095D01*
X86097952Y-74810952D02*
X86002714Y-74763333D01*
X85955095Y-74715714D01*
X85907476Y-74620476D01*
X85907476Y-74572857D01*
X85955095Y-74477619D01*
X86002714Y-74430000D01*
X86097952Y-74382381D01*
X86288429Y-74382381D01*
X86383667Y-74430000D01*
X86431286Y-74477619D01*
X86478905Y-74572857D01*
X86478905Y-74620476D01*
X86431286Y-74715714D01*
X86383667Y-74763333D01*
X86288429Y-74810952D01*
X86097952Y-74810952D01*
X86002714Y-74858571D01*
X85955095Y-74906190D01*
X85907476Y-75001429D01*
X85907476Y-75191905D01*
X85955095Y-75287143D01*
X86002714Y-75334762D01*
X86097952Y-75382381D01*
X86288429Y-75382381D01*
X86383667Y-75334762D01*
X86431286Y-75287143D01*
X86478905Y-75191905D01*
X86478905Y-75001429D01*
X86431286Y-74906190D01*
X86383667Y-74858571D01*
X86288429Y-74810952D01*
X77208143Y-66492381D02*
X76874809Y-66016190D01*
X76636714Y-66492381D02*
X76636714Y-65492381D01*
X77017667Y-65492381D01*
X77112905Y-65540000D01*
X77160524Y-65587619D01*
X77208143Y-65682857D01*
X77208143Y-65825714D01*
X77160524Y-65920952D01*
X77112905Y-65968571D01*
X77017667Y-66016190D01*
X76636714Y-66016190D01*
X78160524Y-66492381D02*
X77589095Y-66492381D01*
X77874809Y-66492381D02*
X77874809Y-65492381D01*
X77779571Y-65635238D01*
X77684333Y-65730476D01*
X77589095Y-65778095D01*
X78636714Y-66492381D02*
X78827190Y-66492381D01*
X78922429Y-66444762D01*
X78970048Y-66397143D01*
X79065286Y-66254286D01*
X79112905Y-66063810D01*
X79112905Y-65682857D01*
X79065286Y-65587619D01*
X79017667Y-65540000D01*
X78922429Y-65492381D01*
X78731952Y-65492381D01*
X78636714Y-65540000D01*
X78589095Y-65587619D01*
X78541476Y-65682857D01*
X78541476Y-65920952D01*
X78589095Y-66016190D01*
X78636714Y-66063810D01*
X78731952Y-66111429D01*
X78922429Y-66111429D01*
X79017667Y-66063810D01*
X79065286Y-66016190D01*
X79112905Y-65920952D01*
X77335143Y-69032381D02*
X77001809Y-68556190D01*
X76763714Y-69032381D02*
X76763714Y-68032381D01*
X77144667Y-68032381D01*
X77239905Y-68080000D01*
X77287524Y-68127619D01*
X77335143Y-68222857D01*
X77335143Y-68365714D01*
X77287524Y-68460952D01*
X77239905Y-68508571D01*
X77144667Y-68556190D01*
X76763714Y-68556190D01*
X77716095Y-68127619D02*
X77763714Y-68080000D01*
X77858952Y-68032381D01*
X78097048Y-68032381D01*
X78192286Y-68080000D01*
X78239905Y-68127619D01*
X78287524Y-68222857D01*
X78287524Y-68318095D01*
X78239905Y-68460952D01*
X77668476Y-69032381D01*
X78287524Y-69032381D01*
X78906571Y-68032381D02*
X79001810Y-68032381D01*
X79097048Y-68080000D01*
X79144667Y-68127619D01*
X79192286Y-68222857D01*
X79239905Y-68413333D01*
X79239905Y-68651429D01*
X79192286Y-68841905D01*
X79144667Y-68937143D01*
X79097048Y-68984762D01*
X79001810Y-69032381D01*
X78906571Y-69032381D01*
X78811333Y-68984762D01*
X78763714Y-68937143D01*
X78716095Y-68841905D01*
X78668476Y-68651429D01*
X78668476Y-68413333D01*
X78716095Y-68222857D01*
X78763714Y-68127619D01*
X78811333Y-68080000D01*
X78906571Y-68032381D01*
X42537143Y-92654381D02*
X42203809Y-92178190D01*
X41965714Y-92654381D02*
X41965714Y-91654381D01*
X42346667Y-91654381D01*
X42441905Y-91702000D01*
X42489524Y-91749619D01*
X42537143Y-91844857D01*
X42537143Y-91987714D01*
X42489524Y-92082952D01*
X42441905Y-92130571D01*
X42346667Y-92178190D01*
X41965714Y-92178190D01*
X42918095Y-91749619D02*
X42965714Y-91702000D01*
X43060952Y-91654381D01*
X43299048Y-91654381D01*
X43394286Y-91702000D01*
X43441905Y-91749619D01*
X43489524Y-91844857D01*
X43489524Y-91940095D01*
X43441905Y-92082952D01*
X42870476Y-92654381D01*
X43489524Y-92654381D01*
X43822857Y-91654381D02*
X44441905Y-91654381D01*
X44108571Y-92035333D01*
X44251429Y-92035333D01*
X44346667Y-92082952D01*
X44394286Y-92130571D01*
X44441905Y-92225810D01*
X44441905Y-92463905D01*
X44394286Y-92559143D01*
X44346667Y-92606762D01*
X44251429Y-92654381D01*
X43965714Y-92654381D01*
X43870476Y-92606762D01*
X43822857Y-92559143D01*
X75811143Y-100020381D02*
X75477809Y-99544190D01*
X75239714Y-100020381D02*
X75239714Y-99020381D01*
X75620667Y-99020381D01*
X75715905Y-99068000D01*
X75763524Y-99115619D01*
X75811143Y-99210857D01*
X75811143Y-99353714D01*
X75763524Y-99448952D01*
X75715905Y-99496571D01*
X75620667Y-99544190D01*
X75239714Y-99544190D01*
X76192095Y-99115619D02*
X76239714Y-99068000D01*
X76334952Y-99020381D01*
X76573048Y-99020381D01*
X76668286Y-99068000D01*
X76715905Y-99115619D01*
X76763524Y-99210857D01*
X76763524Y-99306095D01*
X76715905Y-99448952D01*
X76144476Y-100020381D01*
X76763524Y-100020381D01*
X77620667Y-99020381D02*
X77430190Y-99020381D01*
X77334952Y-99068000D01*
X77287333Y-99115619D01*
X77192095Y-99258476D01*
X77144476Y-99448952D01*
X77144476Y-99829905D01*
X77192095Y-99925143D01*
X77239714Y-99972762D01*
X77334952Y-100020381D01*
X77525429Y-100020381D01*
X77620667Y-99972762D01*
X77668286Y-99925143D01*
X77715905Y-99829905D01*
X77715905Y-99591810D01*
X77668286Y-99496571D01*
X77620667Y-99448952D01*
X77525429Y-99401333D01*
X77334952Y-99401333D01*
X77239714Y-99448952D01*
X77192095Y-99496571D01*
X77144476Y-99591810D01*
X79875143Y-100020381D02*
X79541809Y-99544190D01*
X79303714Y-100020381D02*
X79303714Y-99020381D01*
X79684667Y-99020381D01*
X79779905Y-99068000D01*
X79827524Y-99115619D01*
X79875143Y-99210857D01*
X79875143Y-99353714D01*
X79827524Y-99448952D01*
X79779905Y-99496571D01*
X79684667Y-99544190D01*
X79303714Y-99544190D01*
X80256095Y-99115619D02*
X80303714Y-99068000D01*
X80398952Y-99020381D01*
X80637048Y-99020381D01*
X80732286Y-99068000D01*
X80779905Y-99115619D01*
X80827524Y-99210857D01*
X80827524Y-99306095D01*
X80779905Y-99448952D01*
X80208476Y-100020381D01*
X80827524Y-100020381D01*
X81160857Y-99020381D02*
X81827524Y-99020381D01*
X81398952Y-100020381D01*
X83939143Y-100020381D02*
X83605809Y-99544190D01*
X83367714Y-100020381D02*
X83367714Y-99020381D01*
X83748667Y-99020381D01*
X83843905Y-99068000D01*
X83891524Y-99115619D01*
X83939143Y-99210857D01*
X83939143Y-99353714D01*
X83891524Y-99448952D01*
X83843905Y-99496571D01*
X83748667Y-99544190D01*
X83367714Y-99544190D01*
X84320095Y-99115619D02*
X84367714Y-99068000D01*
X84462952Y-99020381D01*
X84701048Y-99020381D01*
X84796286Y-99068000D01*
X84843905Y-99115619D01*
X84891524Y-99210857D01*
X84891524Y-99306095D01*
X84843905Y-99448952D01*
X84272476Y-100020381D01*
X84891524Y-100020381D01*
X85462952Y-99448952D02*
X85367714Y-99401333D01*
X85320095Y-99353714D01*
X85272476Y-99258476D01*
X85272476Y-99210857D01*
X85320095Y-99115619D01*
X85367714Y-99068000D01*
X85462952Y-99020381D01*
X85653429Y-99020381D01*
X85748667Y-99068000D01*
X85796286Y-99115619D01*
X85843905Y-99210857D01*
X85843905Y-99258476D01*
X85796286Y-99353714D01*
X85748667Y-99401333D01*
X85653429Y-99448952D01*
X85462952Y-99448952D01*
X85367714Y-99496571D01*
X85320095Y-99544190D01*
X85272476Y-99639429D01*
X85272476Y-99829905D01*
X85320095Y-99925143D01*
X85367714Y-99972762D01*
X85462952Y-100020381D01*
X85653429Y-100020381D01*
X85748667Y-99972762D01*
X85796286Y-99925143D01*
X85843905Y-99829905D01*
X85843905Y-99639429D01*
X85796286Y-99544190D01*
X85748667Y-99496571D01*
X85653429Y-99448952D01*
X99179143Y-102052381D02*
X98845809Y-101576190D01*
X98607714Y-102052381D02*
X98607714Y-101052381D01*
X98988667Y-101052381D01*
X99083905Y-101100000D01*
X99131524Y-101147619D01*
X99179143Y-101242857D01*
X99179143Y-101385714D01*
X99131524Y-101480952D01*
X99083905Y-101528571D01*
X98988667Y-101576190D01*
X98607714Y-101576190D01*
X99560095Y-101147619D02*
X99607714Y-101100000D01*
X99702952Y-101052381D01*
X99941048Y-101052381D01*
X100036286Y-101100000D01*
X100083905Y-101147619D01*
X100131524Y-101242857D01*
X100131524Y-101338095D01*
X100083905Y-101480952D01*
X99512476Y-102052381D01*
X100131524Y-102052381D01*
X100607714Y-102052381D02*
X100798190Y-102052381D01*
X100893429Y-102004762D01*
X100941048Y-101957143D01*
X101036286Y-101814286D01*
X101083905Y-101623810D01*
X101083905Y-101242857D01*
X101036286Y-101147619D01*
X100988667Y-101100000D01*
X100893429Y-101052381D01*
X100702952Y-101052381D01*
X100607714Y-101100000D01*
X100560095Y-101147619D01*
X100512476Y-101242857D01*
X100512476Y-101480952D01*
X100560095Y-101576190D01*
X100607714Y-101623810D01*
X100702952Y-101671429D01*
X100893429Y-101671429D01*
X100988667Y-101623810D01*
X101036286Y-101576190D01*
X101083905Y-101480952D01*
X103243143Y-102052381D02*
X102909809Y-101576190D01*
X102671714Y-102052381D02*
X102671714Y-101052381D01*
X103052667Y-101052381D01*
X103147905Y-101100000D01*
X103195524Y-101147619D01*
X103243143Y-101242857D01*
X103243143Y-101385714D01*
X103195524Y-101480952D01*
X103147905Y-101528571D01*
X103052667Y-101576190D01*
X102671714Y-101576190D01*
X103576476Y-101052381D02*
X104195524Y-101052381D01*
X103862190Y-101433333D01*
X104005048Y-101433333D01*
X104100286Y-101480952D01*
X104147905Y-101528571D01*
X104195524Y-101623810D01*
X104195524Y-101861905D01*
X104147905Y-101957143D01*
X104100286Y-102004762D01*
X104005048Y-102052381D01*
X103719333Y-102052381D01*
X103624095Y-102004762D01*
X103576476Y-101957143D01*
X104814571Y-101052381D02*
X104909810Y-101052381D01*
X105005048Y-101100000D01*
X105052667Y-101147619D01*
X105100286Y-101242857D01*
X105147905Y-101433333D01*
X105147905Y-101671429D01*
X105100286Y-101861905D01*
X105052667Y-101957143D01*
X105005048Y-102004762D01*
X104909810Y-102052381D01*
X104814571Y-102052381D01*
X104719333Y-102004762D01*
X104671714Y-101957143D01*
X104624095Y-101861905D01*
X104576476Y-101671429D01*
X104576476Y-101433333D01*
X104624095Y-101242857D01*
X104671714Y-101147619D01*
X104719333Y-101100000D01*
X104814571Y-101052381D01*
X107307143Y-102052381D02*
X106973809Y-101576190D01*
X106735714Y-102052381D02*
X106735714Y-101052381D01*
X107116667Y-101052381D01*
X107211905Y-101100000D01*
X107259524Y-101147619D01*
X107307143Y-101242857D01*
X107307143Y-101385714D01*
X107259524Y-101480952D01*
X107211905Y-101528571D01*
X107116667Y-101576190D01*
X106735714Y-101576190D01*
X107640476Y-101052381D02*
X108259524Y-101052381D01*
X107926190Y-101433333D01*
X108069048Y-101433333D01*
X108164286Y-101480952D01*
X108211905Y-101528571D01*
X108259524Y-101623810D01*
X108259524Y-101861905D01*
X108211905Y-101957143D01*
X108164286Y-102004762D01*
X108069048Y-102052381D01*
X107783333Y-102052381D01*
X107688095Y-102004762D01*
X107640476Y-101957143D01*
X109211905Y-102052381D02*
X108640476Y-102052381D01*
X108926190Y-102052381D02*
X108926190Y-101052381D01*
X108830952Y-101195238D01*
X108735714Y-101290476D01*
X108640476Y-101338095D01*
X110906381Y-94980000D02*
X110430190Y-95313334D01*
X110906381Y-95551429D02*
X109906381Y-95551429D01*
X109906381Y-95170476D01*
X109954000Y-95075238D01*
X110001619Y-95027619D01*
X110096857Y-94980000D01*
X110239714Y-94980000D01*
X110334952Y-95027619D01*
X110382571Y-95075238D01*
X110430190Y-95170476D01*
X110430190Y-95551429D01*
X110906381Y-94075238D02*
X110906381Y-94551429D01*
X109906381Y-94551429D01*
X110430190Y-93551429D02*
X110906381Y-93551429D01*
X109906381Y-93884762D02*
X110430190Y-93551429D01*
X109906381Y-93218095D01*
X110906381Y-92360952D02*
X110906381Y-92932381D01*
X110906381Y-92646667D02*
X109906381Y-92646667D01*
X110049238Y-92741905D01*
X110144476Y-92837143D01*
X110192095Y-92932381D01*
X97157801Y-51649238D02*
X96681610Y-51982572D01*
X97157801Y-52220667D02*
X96157801Y-52220667D01*
X96157801Y-51839714D01*
X96205420Y-51744476D01*
X96253039Y-51696857D01*
X96348277Y-51649238D01*
X96491134Y-51649238D01*
X96586372Y-51696857D01*
X96633991Y-51744476D01*
X96681610Y-51839714D01*
X96681610Y-52220667D01*
X96157801Y-51363524D02*
X97157801Y-51030191D01*
X96157801Y-50696857D01*
X97157801Y-49839714D02*
X97157801Y-50411143D01*
X97157801Y-50125429D02*
X96157801Y-50125429D01*
X96300658Y-50220667D01*
X96395896Y-50315905D01*
X96443515Y-50411143D01*
X71902808Y-75980304D02*
X72475228Y-76552724D01*
X72576243Y-76586396D01*
X72643586Y-76586396D01*
X72744601Y-76552724D01*
X72879289Y-76418036D01*
X72912961Y-76317021D01*
X72912961Y-76249678D01*
X72879289Y-76148663D01*
X72306869Y-75576243D01*
X73721083Y-75576243D02*
X73317021Y-75980304D01*
X73519052Y-75778274D02*
X72811945Y-75071167D01*
X72845617Y-75239526D01*
X72845617Y-75374212D01*
X72811945Y-75475228D01*
X95758095Y-70318381D02*
X95758095Y-71127905D01*
X95805714Y-71223143D01*
X95853333Y-71270762D01*
X95948571Y-71318381D01*
X96139048Y-71318381D01*
X96234286Y-71270762D01*
X96281905Y-71223143D01*
X96329524Y-71127905D01*
X96329524Y-70318381D01*
X96758095Y-70413619D02*
X96805714Y-70366000D01*
X96900952Y-70318381D01*
X97139048Y-70318381D01*
X97234286Y-70366000D01*
X97281905Y-70413619D01*
X97329524Y-70508857D01*
X97329524Y-70604095D01*
X97281905Y-70746952D01*
X96710476Y-71318381D01*
X97329524Y-71318381D01*
X27976581Y-47040705D02*
X28786105Y-47040705D01*
X28881343Y-46993086D01*
X28928962Y-46945467D01*
X28976581Y-46850229D01*
X28976581Y-46659752D01*
X28928962Y-46564514D01*
X28881343Y-46516895D01*
X28786105Y-46469276D01*
X27976581Y-46469276D01*
X27976581Y-46088324D02*
X27976581Y-45469276D01*
X28357533Y-45802610D01*
X28357533Y-45659752D01*
X28405152Y-45564514D01*
X28452771Y-45516895D01*
X28548010Y-45469276D01*
X28786105Y-45469276D01*
X28881343Y-45516895D01*
X28928962Y-45564514D01*
X28976581Y-45659752D01*
X28976581Y-45945467D01*
X28928962Y-46040705D01*
X28881343Y-46088324D01*
X99568095Y-61682381D02*
X99568095Y-62491905D01*
X99615714Y-62587143D01*
X99663333Y-62634762D01*
X99758571Y-62682381D01*
X99949048Y-62682381D01*
X100044286Y-62634762D01*
X100091905Y-62587143D01*
X100139524Y-62491905D01*
X100139524Y-61682381D01*
X101044286Y-62015714D02*
X101044286Y-62682381D01*
X100806190Y-61634762D02*
X100568095Y-62349048D01*
X101187143Y-62349048D01*
X48260095Y-88352381D02*
X48260095Y-89161905D01*
X48307714Y-89257143D01*
X48355333Y-89304762D01*
X48450571Y-89352381D01*
X48641048Y-89352381D01*
X48736286Y-89304762D01*
X48783905Y-89257143D01*
X48831524Y-89161905D01*
X48831524Y-88352381D01*
X49212476Y-88352381D02*
X49879143Y-88352381D01*
X49450571Y-89352381D01*
X76668381Y-94741905D02*
X77477905Y-94741905D01*
X77573143Y-94694286D01*
X77620762Y-94646667D01*
X77668381Y-94551429D01*
X77668381Y-94360952D01*
X77620762Y-94265714D01*
X77573143Y-94218095D01*
X77477905Y-94170476D01*
X76668381Y-94170476D01*
X77096952Y-93551429D02*
X77049333Y-93646667D01*
X77001714Y-93694286D01*
X76906476Y-93741905D01*
X76858857Y-93741905D01*
X76763619Y-93694286D01*
X76716000Y-93646667D01*
X76668381Y-93551429D01*
X76668381Y-93360952D01*
X76716000Y-93265714D01*
X76763619Y-93218095D01*
X76858857Y-93170476D01*
X76906476Y-93170476D01*
X77001714Y-93218095D01*
X77049333Y-93265714D01*
X77096952Y-93360952D01*
X77096952Y-93551429D01*
X77144571Y-93646667D01*
X77192190Y-93694286D01*
X77287429Y-93741905D01*
X77477905Y-93741905D01*
X77573143Y-93694286D01*
X77620762Y-93646667D01*
X77668381Y-93551429D01*
X77668381Y-93360952D01*
X77620762Y-93265714D01*
X77573143Y-93218095D01*
X77477905Y-93170476D01*
X77287429Y-93170476D01*
X77192190Y-93218095D01*
X77144571Y-93265714D01*
X77096952Y-93360952D01*
X95250095Y-94702381D02*
X95250095Y-95511905D01*
X95297714Y-95607143D01*
X95345333Y-95654762D01*
X95440571Y-95702381D01*
X95631048Y-95702381D01*
X95726286Y-95654762D01*
X95773905Y-95607143D01*
X95821524Y-95511905D01*
X95821524Y-94702381D01*
X96345333Y-95702381D02*
X96535809Y-95702381D01*
X96631048Y-95654762D01*
X96678667Y-95607143D01*
X96773905Y-95464286D01*
X96821524Y-95273810D01*
X96821524Y-94892857D01*
X96773905Y-94797619D01*
X96726286Y-94750000D01*
X96631048Y-94702381D01*
X96440571Y-94702381D01*
X96345333Y-94750000D01*
X96297714Y-94797619D01*
X96250095Y-94892857D01*
X96250095Y-95130952D01*
X96297714Y-95226190D01*
X96345333Y-95273810D01*
X96440571Y-95321429D01*
X96631048Y-95321429D01*
X96726286Y-95273810D01*
X96773905Y-95226190D01*
X96821524Y-95130952D01*
X94954190Y-62452191D02*
X95430381Y-62452191D01*
X94430381Y-62785524D02*
X94954190Y-62452191D01*
X94430381Y-62118857D01*
X94525619Y-61833143D02*
X94478000Y-61785524D01*
X94430381Y-61690286D01*
X94430381Y-61452190D01*
X94478000Y-61356952D01*
X94525619Y-61309333D01*
X94620857Y-61261714D01*
X94716095Y-61261714D01*
X94858952Y-61309333D01*
X95430381Y-61880762D01*
X95430381Y-61261714D01*
X66833809Y-101322190D02*
X66833809Y-101798381D01*
X66500476Y-100798381D02*
X66833809Y-101322190D01*
X67167143Y-100798381D01*
X67405238Y-100798381D02*
X68024286Y-100798381D01*
X67690952Y-101179333D01*
X67833810Y-101179333D01*
X67929048Y-101226952D01*
X67976667Y-101274571D01*
X68024286Y-101369810D01*
X68024286Y-101607905D01*
X67976667Y-101703143D01*
X67929048Y-101750762D01*
X67833810Y-101798381D01*
X67548095Y-101798381D01*
X67452857Y-101750762D01*
X67405238Y-101703143D01*
X79666667Y-105852381D02*
X79666667Y-106566667D01*
X79619047Y-106709524D01*
X79523809Y-106804762D01*
X79380952Y-106852381D01*
X79285714Y-106852381D01*
X80619048Y-105852381D02*
X80142857Y-105852381D01*
X80095238Y-106328571D01*
X80142857Y-106280952D01*
X80238095Y-106233333D01*
X80476191Y-106233333D01*
X80571429Y-106280952D01*
X80619048Y-106328571D01*
X80666667Y-106423810D01*
X80666667Y-106661905D01*
X80619048Y-106757143D01*
X80571429Y-106804762D01*
X80476191Y-106852381D01*
X80238095Y-106852381D01*
X80142857Y-106804762D01*
X80095238Y-106757143D01*
X78833333Y-119304762D02*
X78976190Y-119352381D01*
X79214286Y-119352381D01*
X79309524Y-119304762D01*
X79357143Y-119257143D01*
X79404762Y-119161905D01*
X79404762Y-119066667D01*
X79357143Y-118971429D01*
X79309524Y-118923810D01*
X79214286Y-118876190D01*
X79023809Y-118828571D01*
X78928571Y-118780952D01*
X78880952Y-118733333D01*
X78833333Y-118638095D01*
X78833333Y-118542857D01*
X78880952Y-118447619D01*
X78928571Y-118400000D01*
X79023809Y-118352381D01*
X79261905Y-118352381D01*
X79404762Y-118400000D01*
X80309524Y-119352381D02*
X79833333Y-119352381D01*
X79833333Y-118352381D01*
X81166667Y-119352381D02*
X80595238Y-119352381D01*
X80880952Y-119352381D02*
X80880952Y-118352381D01*
X80785714Y-118495238D01*
X80690476Y-118590476D01*
X80595238Y-118638095D01*
X68778381Y-64650857D02*
X68302190Y-64984191D01*
X68778381Y-65222286D02*
X67778381Y-65222286D01*
X67778381Y-64841333D01*
X67826000Y-64746095D01*
X67873619Y-64698476D01*
X67968857Y-64650857D01*
X68111714Y-64650857D01*
X68206952Y-64698476D01*
X68254571Y-64746095D01*
X68302190Y-64841333D01*
X68302190Y-65222286D01*
X67778381Y-64317524D02*
X67778381Y-63698476D01*
X68159333Y-64031810D01*
X68159333Y-63888952D01*
X68206952Y-63793714D01*
X68254571Y-63746095D01*
X68349810Y-63698476D01*
X68587905Y-63698476D01*
X68683143Y-63746095D01*
X68730762Y-63793714D01*
X68778381Y-63888952D01*
X68778381Y-64174667D01*
X68730762Y-64269905D01*
X68683143Y-64317524D01*
X67873619Y-63317524D02*
X67826000Y-63269905D01*
X67778381Y-63174667D01*
X67778381Y-62936571D01*
X67826000Y-62841333D01*
X67873619Y-62793714D01*
X67968857Y-62746095D01*
X68064095Y-62746095D01*
X68206952Y-62793714D01*
X68778381Y-63365143D01*
X68778381Y-62746095D01*
X24074381Y-86240857D02*
X23598190Y-86574191D01*
X24074381Y-86812286D02*
X23074381Y-86812286D01*
X23074381Y-86431333D01*
X23122000Y-86336095D01*
X23169619Y-86288476D01*
X23264857Y-86240857D01*
X23407714Y-86240857D01*
X23502952Y-86288476D01*
X23550571Y-86336095D01*
X23598190Y-86431333D01*
X23598190Y-86812286D01*
X23074381Y-85907524D02*
X23074381Y-85288476D01*
X23455333Y-85621810D01*
X23455333Y-85478952D01*
X23502952Y-85383714D01*
X23550571Y-85336095D01*
X23645810Y-85288476D01*
X23883905Y-85288476D01*
X23979143Y-85336095D01*
X24026762Y-85383714D01*
X24074381Y-85478952D01*
X24074381Y-85764667D01*
X24026762Y-85859905D01*
X23979143Y-85907524D01*
X23074381Y-84955143D02*
X23074381Y-84336095D01*
X23455333Y-84669429D01*
X23455333Y-84526571D01*
X23502952Y-84431333D01*
X23550571Y-84383714D01*
X23645810Y-84336095D01*
X23883905Y-84336095D01*
X23979143Y-84383714D01*
X24026762Y-84431333D01*
X24074381Y-84526571D01*
X24074381Y-84812286D01*
X24026762Y-84907524D01*
X23979143Y-84955143D01*
X36520381Y-90050857D02*
X36044190Y-90384191D01*
X36520381Y-90622286D02*
X35520381Y-90622286D01*
X35520381Y-90241333D01*
X35568000Y-90146095D01*
X35615619Y-90098476D01*
X35710857Y-90050857D01*
X35853714Y-90050857D01*
X35948952Y-90098476D01*
X35996571Y-90146095D01*
X36044190Y-90241333D01*
X36044190Y-90622286D01*
X35520381Y-89717524D02*
X35520381Y-89098476D01*
X35901333Y-89431810D01*
X35901333Y-89288952D01*
X35948952Y-89193714D01*
X35996571Y-89146095D01*
X36091810Y-89098476D01*
X36329905Y-89098476D01*
X36425143Y-89146095D01*
X36472762Y-89193714D01*
X36520381Y-89288952D01*
X36520381Y-89574667D01*
X36472762Y-89669905D01*
X36425143Y-89717524D01*
X35853714Y-88241333D02*
X36520381Y-88241333D01*
X35472762Y-88479429D02*
X36187048Y-88717524D01*
X36187048Y-88098476D01*
X24574667Y-92352762D02*
X24717524Y-92400381D01*
X24955620Y-92400381D01*
X25050858Y-92352762D01*
X25098477Y-92305143D01*
X25146096Y-92209905D01*
X25146096Y-92114667D01*
X25098477Y-92019429D01*
X25050858Y-91971810D01*
X24955620Y-91924190D01*
X24765143Y-91876571D01*
X24669905Y-91828952D01*
X24622286Y-91781333D01*
X24574667Y-91686095D01*
X24574667Y-91590857D01*
X24622286Y-91495619D01*
X24669905Y-91448000D01*
X24765143Y-91400381D01*
X25003239Y-91400381D01*
X25146096Y-91448000D01*
X25479429Y-91400381D02*
X25717524Y-92400381D01*
X25908001Y-91686095D01*
X26098477Y-92400381D01*
X26336572Y-91400381D01*
X27241334Y-92400381D02*
X26669905Y-92400381D01*
X26955619Y-92400381D02*
X26955619Y-91400381D01*
X26860381Y-91543238D01*
X26765143Y-91638476D01*
X26669905Y-91686095D01*
X34734667Y-92352762D02*
X34877524Y-92400381D01*
X35115620Y-92400381D01*
X35210858Y-92352762D01*
X35258477Y-92305143D01*
X35306096Y-92209905D01*
X35306096Y-92114667D01*
X35258477Y-92019429D01*
X35210858Y-91971810D01*
X35115620Y-91924190D01*
X34925143Y-91876571D01*
X34829905Y-91828952D01*
X34782286Y-91781333D01*
X34734667Y-91686095D01*
X34734667Y-91590857D01*
X34782286Y-91495619D01*
X34829905Y-91448000D01*
X34925143Y-91400381D01*
X35163239Y-91400381D01*
X35306096Y-91448000D01*
X35639429Y-91400381D02*
X35877524Y-92400381D01*
X36068001Y-91686095D01*
X36258477Y-92400381D01*
X36496572Y-91400381D01*
X36829905Y-91495619D02*
X36877524Y-91448000D01*
X36972762Y-91400381D01*
X37210858Y-91400381D01*
X37306096Y-91448000D01*
X37353715Y-91495619D01*
X37401334Y-91590857D01*
X37401334Y-91686095D01*
X37353715Y-91828952D01*
X36782286Y-92400381D01*
X37401334Y-92400381D01*
M02*
