G04 #@! TF.FileFunction,Legend,Bot*
%FSLAX46Y46*%
G04 Gerber Fmt 4.6, Leading zero omitted, Abs format (unit mm)*
G04 Created by KiCad (PCBNEW 4.0.6) date 07/24/17 16:42:21*
%MOMM*%
%LPD*%
G01*
G04 APERTURE LIST*
%ADD10C,0.100000*%
%ADD11C,0.254000*%
%ADD12C,0.398780*%
%ADD13C,0.127000*%
%ADD14C,0.299720*%
%ADD15C,0.150000*%
G04 APERTURE END LIST*
D10*
D11*
X61643400Y-32278400D02*
X62557800Y-33116600D01*
X61643400Y-47721600D02*
X62583200Y-46858000D01*
X71828800Y-41371600D02*
G75*
G02X68628400Y-41828800I-1828800J1371600D01*
G01*
X68628400Y-38171200D02*
G75*
G02X71828800Y-38628400I1371600J-1828800D01*
G01*
X67714000Y-40000000D02*
G75*
G02X70000000Y-37714000I2286000J0D01*
G01*
X70000000Y-42286000D02*
G75*
G02X67714000Y-40000000I0J2286000D01*
G01*
X68628400Y-33802400D02*
G75*
G02X76197600Y-38628400I1371600J-6197600D01*
G01*
X76197600Y-41397000D02*
G75*
G02X68603000Y-46197600I-6197600J1397000D01*
G01*
X63650000Y-40000000D02*
G75*
G02X70000000Y-33650000I6350000J0D01*
G01*
X69974600Y-46350000D02*
G75*
G02X63650000Y-39974600I25400J6350000D01*
G01*
X80033000Y-41346200D02*
G75*
G02X68653800Y-50033000I-10033000J1346200D01*
G01*
X68653800Y-29967000D02*
G75*
G02X80033000Y-38653800I1346200J-10033000D01*
G01*
X59890800Y-40000000D02*
G75*
G02X70000000Y-29890800I10109200J0D01*
G01*
X70000000Y-50109200D02*
G75*
G02X59890800Y-40000000I0J10109200D01*
G01*
X81684000Y-42921000D02*
X86891000Y-42921000D01*
X80820400Y-43581400D02*
G75*
G02X66418600Y-50820400I-10820400J3581400D01*
G01*
X86891000Y-37079000D02*
X81684000Y-37079000D01*
X66393200Y-29205000D02*
G75*
G02X80795000Y-36393200I3606800J-10795000D01*
G01*
X87322800Y-42540000D02*
X87322800Y-37510800D01*
X58620800Y-40000000D02*
G75*
G02X70000000Y-28620800I11379200J0D01*
G01*
X70000000Y-51379200D02*
G75*
G02X58620800Y-40000000I0J11379200D01*
G01*
X85199360Y-38699520D02*
X68999240Y-38699520D01*
X68999240Y-41300480D02*
X85199360Y-41300480D01*
X80845800Y-43556000D02*
G75*
G02X81734800Y-42921000I762000J-127000D01*
G01*
X81684000Y-37079000D02*
G75*
G02X80795000Y-36444000I-127000J762000D01*
G01*
D12*
X84838680Y-44508500D02*
X86840200Y-44508500D01*
X85841980Y-43505200D02*
X85841980Y-45509260D01*
D11*
X67698760Y-40000000D02*
G75*
G02X68999240Y-38699520I1300480J0D01*
G01*
X68999240Y-41300480D02*
G75*
G02X67698760Y-40000000I0J1300480D01*
G01*
X85206980Y-41300480D02*
X85206980Y-38699520D01*
X86913860Y-37091700D02*
G75*
G02X87315180Y-37493020I0J-401320D01*
G01*
X87315180Y-42506980D02*
G75*
G02X86913860Y-42908300I-401320J0D01*
G01*
D13*
X60325000Y-78105000D02*
X60325000Y-76835000D01*
X59055000Y-78105000D02*
X59055000Y-76860400D01*
X58674000Y-78105000D02*
X60706000Y-78105000D01*
X60706000Y-78105000D02*
X60706000Y-76835000D01*
X60706000Y-76835000D02*
X58674000Y-76835000D01*
X58674000Y-76835000D02*
X58674000Y-78105000D01*
X60325000Y-72517000D02*
X60325000Y-71247000D01*
X59055000Y-72517000D02*
X59055000Y-71272400D01*
X58674000Y-72517000D02*
X60706000Y-72517000D01*
X60706000Y-72517000D02*
X60706000Y-71247000D01*
X60706000Y-71247000D02*
X58674000Y-71247000D01*
X58674000Y-71247000D02*
X58674000Y-72517000D01*
X74803000Y-76581000D02*
X73533000Y-76581000D01*
X74803000Y-77851000D02*
X73558400Y-77851000D01*
X74803000Y-78232000D02*
X74803000Y-76200000D01*
X74803000Y-76200000D02*
X73533000Y-76200000D01*
X73533000Y-76200000D02*
X73533000Y-78232000D01*
X73533000Y-78232000D02*
X74803000Y-78232000D01*
X77343000Y-76581000D02*
X76073000Y-76581000D01*
X77343000Y-77851000D02*
X76098400Y-77851000D01*
X77343000Y-78232000D02*
X77343000Y-76200000D01*
X77343000Y-76200000D02*
X76073000Y-76200000D01*
X76073000Y-76200000D02*
X76073000Y-78232000D01*
X76073000Y-78232000D02*
X77343000Y-78232000D01*
X30861000Y-77597000D02*
X30861000Y-76327000D01*
X29591000Y-77597000D02*
X29591000Y-76352400D01*
X29210000Y-77597000D02*
X31242000Y-77597000D01*
X31242000Y-77597000D02*
X31242000Y-76327000D01*
X31242000Y-76327000D02*
X29210000Y-76327000D01*
X29210000Y-76327000D02*
X29210000Y-77597000D01*
X26797000Y-45847000D02*
X28067000Y-45847000D01*
X26797000Y-44577000D02*
X28041600Y-44577000D01*
X26797000Y-44196000D02*
X26797000Y-46228000D01*
X26797000Y-46228000D02*
X28067000Y-46228000D01*
X28067000Y-46228000D02*
X28067000Y-44196000D01*
X28067000Y-44196000D02*
X26797000Y-44196000D01*
X92837000Y-75057000D02*
X92837000Y-73787000D01*
X91567000Y-75057000D02*
X91567000Y-73812400D01*
X91186000Y-75057000D02*
X93218000Y-75057000D01*
X93218000Y-75057000D02*
X93218000Y-73787000D01*
X93218000Y-73787000D02*
X91186000Y-73787000D01*
X91186000Y-73787000D02*
X91186000Y-75057000D01*
X55499000Y-102235000D02*
X55499000Y-103505000D01*
X56769000Y-102235000D02*
X56769000Y-103479600D01*
X57150000Y-102235000D02*
X55118000Y-102235000D01*
X55118000Y-102235000D02*
X55118000Y-103505000D01*
X55118000Y-103505000D02*
X57150000Y-103505000D01*
X57150000Y-103505000D02*
X57150000Y-102235000D01*
X49403000Y-102235000D02*
X49403000Y-103505000D01*
X50673000Y-102235000D02*
X50673000Y-103479600D01*
X51054000Y-102235000D02*
X49022000Y-102235000D01*
X49022000Y-102235000D02*
X49022000Y-103505000D01*
X49022000Y-103505000D02*
X51054000Y-103505000D01*
X51054000Y-103505000D02*
X51054000Y-102235000D01*
X58801000Y-92075000D02*
X57531000Y-92075000D01*
X58801000Y-93345000D02*
X57556400Y-93345000D01*
X58801000Y-93726000D02*
X58801000Y-91694000D01*
X58801000Y-91694000D02*
X57531000Y-91694000D01*
X57531000Y-91694000D02*
X57531000Y-93726000D01*
X57531000Y-93726000D02*
X58801000Y-93726000D01*
X96647000Y-97663000D02*
X96647000Y-96393000D01*
X95377000Y-97663000D02*
X95377000Y-96418400D01*
X94996000Y-97663000D02*
X97028000Y-97663000D01*
X97028000Y-97663000D02*
X97028000Y-96393000D01*
X97028000Y-96393000D02*
X94996000Y-96393000D01*
X94996000Y-96393000D02*
X94996000Y-97663000D01*
X56261000Y-93345000D02*
X54991000Y-93345000D01*
X56261000Y-94615000D02*
X55016400Y-94615000D01*
X56261000Y-94996000D02*
X56261000Y-92964000D01*
X56261000Y-92964000D02*
X54991000Y-92964000D01*
X54991000Y-92964000D02*
X54991000Y-94996000D01*
X54991000Y-94996000D02*
X56261000Y-94996000D01*
X81153000Y-97663000D02*
X81153000Y-96393000D01*
X79883000Y-97663000D02*
X79883000Y-96418400D01*
X79502000Y-97663000D02*
X81534000Y-97663000D01*
X81534000Y-97663000D02*
X81534000Y-96393000D01*
X81534000Y-96393000D02*
X79502000Y-96393000D01*
X79502000Y-96393000D02*
X79502000Y-97663000D01*
X27051000Y-30607000D02*
X25781000Y-30607000D01*
X27051000Y-31877000D02*
X25806400Y-31877000D01*
X27051000Y-32258000D02*
X27051000Y-30226000D01*
X27051000Y-30226000D02*
X25781000Y-30226000D01*
X25781000Y-30226000D02*
X25781000Y-32258000D01*
X25781000Y-32258000D02*
X27051000Y-32258000D01*
X48895000Y-75565000D02*
X47625000Y-75565000D01*
X48895000Y-76835000D02*
X47650400Y-76835000D01*
X48895000Y-77216000D02*
X48895000Y-75184000D01*
X48895000Y-75184000D02*
X47625000Y-75184000D01*
X47625000Y-75184000D02*
X47625000Y-77216000D01*
X47625000Y-77216000D02*
X48895000Y-77216000D01*
X58801000Y-83185000D02*
X57531000Y-83185000D01*
X58801000Y-84455000D02*
X57556400Y-84455000D01*
X58801000Y-84836000D02*
X58801000Y-82804000D01*
X58801000Y-82804000D02*
X57531000Y-82804000D01*
X57531000Y-82804000D02*
X57531000Y-84836000D01*
X57531000Y-84836000D02*
X58801000Y-84836000D01*
X53721000Y-70485000D02*
X54991000Y-70485000D01*
X53721000Y-69215000D02*
X54965600Y-69215000D01*
X53721000Y-68834000D02*
X53721000Y-70866000D01*
X53721000Y-70866000D02*
X54991000Y-70866000D01*
X54991000Y-70866000D02*
X54991000Y-68834000D01*
X54991000Y-68834000D02*
X53721000Y-68834000D01*
X50165000Y-83185000D02*
X48895000Y-83185000D01*
X50165000Y-84455000D02*
X48920400Y-84455000D01*
X50165000Y-84836000D02*
X50165000Y-82804000D01*
X50165000Y-82804000D02*
X48895000Y-82804000D01*
X48895000Y-82804000D02*
X48895000Y-84836000D01*
X48895000Y-84836000D02*
X50165000Y-84836000D01*
X49085500Y-108902500D02*
X49085500Y-109562900D01*
X50990500Y-108902500D02*
X50990500Y-109562900D01*
X50038000Y-107505500D02*
X50038000Y-106845100D01*
X51536600Y-107505500D02*
X48539400Y-107505500D01*
X48539400Y-107505500D02*
X48539400Y-108902500D01*
X48539400Y-108902500D02*
X51536600Y-108902500D01*
X51536600Y-108902500D02*
X51536600Y-107505500D01*
D14*
X67015360Y-80474820D02*
X62016640Y-80474820D01*
X62016640Y-80474820D02*
X62016640Y-68877180D01*
X62016640Y-68877180D02*
X67015360Y-68877180D01*
X67015360Y-68877180D02*
X67015360Y-80474820D01*
D11*
X64516000Y-69088000D02*
G75*
G02X66802000Y-71374000I0J-2286000D01*
G01*
X62738000Y-77978000D02*
X62738000Y-71374000D01*
X66294000Y-71374000D02*
X66294000Y-77978000D01*
X62738000Y-71374000D02*
G75*
G02X64516000Y-69596000I1778000J0D01*
G01*
X64516000Y-69596000D02*
G75*
G02X66294000Y-71374000I0J-1778000D01*
G01*
X64516000Y-79756000D02*
G75*
G02X62738000Y-77978000I0J1778000D01*
G01*
X66294000Y-77978000D02*
G75*
G02X64516000Y-79756000I-1778000J0D01*
G01*
X62230000Y-71374000D02*
G75*
G02X64516000Y-69088000I2286000J0D01*
G01*
X62230000Y-71374000D02*
X62230000Y-77978000D01*
X66802000Y-77978000D02*
X66802000Y-71374000D01*
X64516000Y-80264000D02*
G75*
G02X62230000Y-77978000I0J2286000D01*
G01*
X66802000Y-77978000D02*
G75*
G02X64516000Y-80264000I-2286000J0D01*
G01*
D13*
X25273000Y-96393000D02*
X25273000Y-97663000D01*
X26543000Y-96393000D02*
X26543000Y-97637600D01*
X26924000Y-96393000D02*
X24892000Y-96393000D01*
X24892000Y-96393000D02*
X24892000Y-97663000D01*
X24892000Y-97663000D02*
X26924000Y-97663000D01*
X26924000Y-97663000D02*
X26924000Y-96393000D01*
X35433000Y-96393000D02*
X35433000Y-97663000D01*
X36703000Y-96393000D02*
X36703000Y-97637600D01*
X37084000Y-96393000D02*
X35052000Y-96393000D01*
X35052000Y-96393000D02*
X35052000Y-97663000D01*
X35052000Y-97663000D02*
X37084000Y-97663000D01*
X37084000Y-97663000D02*
X37084000Y-96393000D01*
D15*
X70785714Y-52425371D02*
X70642857Y-52472990D01*
X70595238Y-52520610D01*
X70547619Y-52615848D01*
X70547619Y-52758705D01*
X70595238Y-52853943D01*
X70642857Y-52901562D01*
X70738095Y-52949181D01*
X71119048Y-52949181D01*
X71119048Y-51949181D01*
X70785714Y-51949181D01*
X70690476Y-51996800D01*
X70642857Y-52044419D01*
X70595238Y-52139657D01*
X70595238Y-52234895D01*
X70642857Y-52330133D01*
X70690476Y-52377752D01*
X70785714Y-52425371D01*
X71119048Y-52425371D01*
X70261905Y-51949181D02*
X69690476Y-51949181D01*
X69976191Y-52949181D02*
X69976191Y-51949181D01*
X68833333Y-52949181D02*
X69404762Y-52949181D01*
X69119048Y-52949181D02*
X69119048Y-51949181D01*
X69214286Y-52092038D01*
X69309524Y-52187276D01*
X69404762Y-52234895D01*
X72071429Y-27076171D02*
X71928572Y-27123790D01*
X71880953Y-27171410D01*
X71833334Y-27266648D01*
X71833334Y-27409505D01*
X71880953Y-27504743D01*
X71928572Y-27552362D01*
X72023810Y-27599981D01*
X72404763Y-27599981D01*
X72404763Y-26599981D01*
X72071429Y-26599981D01*
X71976191Y-26647600D01*
X71928572Y-26695219D01*
X71880953Y-26790457D01*
X71880953Y-26885695D01*
X71928572Y-26980933D01*
X71976191Y-27028552D01*
X72071429Y-27076171D01*
X72404763Y-27076171D01*
X70976191Y-27599981D02*
X70976191Y-27076171D01*
X71023810Y-26980933D01*
X71119048Y-26933314D01*
X71309525Y-26933314D01*
X71404763Y-26980933D01*
X70976191Y-27552362D02*
X71071429Y-27599981D01*
X71309525Y-27599981D01*
X71404763Y-27552362D01*
X71452382Y-27457124D01*
X71452382Y-27361886D01*
X71404763Y-27266648D01*
X71309525Y-27219029D01*
X71071429Y-27219029D01*
X70976191Y-27171410D01*
X70642858Y-26933314D02*
X70261906Y-26933314D01*
X70500001Y-26599981D02*
X70500001Y-27457124D01*
X70452382Y-27552362D01*
X70357144Y-27599981D01*
X70261906Y-27599981D01*
X70071429Y-26933314D02*
X69690477Y-26933314D01*
X69928572Y-26599981D02*
X69928572Y-27457124D01*
X69880953Y-27552362D01*
X69785715Y-27599981D01*
X69690477Y-27599981D01*
X68976190Y-27552362D02*
X69071428Y-27599981D01*
X69261905Y-27599981D01*
X69357143Y-27552362D01*
X69404762Y-27457124D01*
X69404762Y-27076171D01*
X69357143Y-26980933D01*
X69261905Y-26933314D01*
X69071428Y-26933314D01*
X68976190Y-26980933D01*
X68928571Y-27076171D01*
X68928571Y-27171410D01*
X69404762Y-27266648D01*
X68500000Y-27599981D02*
X68500000Y-26933314D01*
X68500000Y-27123790D02*
X68452381Y-27028552D01*
X68404762Y-26980933D01*
X68309524Y-26933314D01*
X68214285Y-26933314D01*
X67976190Y-26933314D02*
X67738095Y-27599981D01*
X67499999Y-26933314D02*
X67738095Y-27599981D01*
X67833333Y-27838076D01*
X67880952Y-27885695D01*
X67976190Y-27933314D01*
X57062666Y-77827143D02*
X57110285Y-77874762D01*
X57253142Y-77922381D01*
X57348380Y-77922381D01*
X57491238Y-77874762D01*
X57586476Y-77779524D01*
X57634095Y-77684286D01*
X57681714Y-77493810D01*
X57681714Y-77350952D01*
X57634095Y-77160476D01*
X57586476Y-77065238D01*
X57491238Y-76970000D01*
X57348380Y-76922381D01*
X57253142Y-76922381D01*
X57110285Y-76970000D01*
X57062666Y-77017619D01*
X56110285Y-77922381D02*
X56681714Y-77922381D01*
X56396000Y-77922381D02*
X56396000Y-76922381D01*
X56491238Y-77065238D01*
X56586476Y-77160476D01*
X56681714Y-77208095D01*
X57062666Y-72239143D02*
X57110285Y-72286762D01*
X57253142Y-72334381D01*
X57348380Y-72334381D01*
X57491238Y-72286762D01*
X57586476Y-72191524D01*
X57634095Y-72096286D01*
X57681714Y-71905810D01*
X57681714Y-71762952D01*
X57634095Y-71572476D01*
X57586476Y-71477238D01*
X57491238Y-71382000D01*
X57348380Y-71334381D01*
X57253142Y-71334381D01*
X57110285Y-71382000D01*
X57062666Y-71429619D01*
X56681714Y-71429619D02*
X56634095Y-71382000D01*
X56538857Y-71334381D01*
X56300761Y-71334381D01*
X56205523Y-71382000D01*
X56157904Y-71429619D01*
X56110285Y-71524857D01*
X56110285Y-71620095D01*
X56157904Y-71762952D01*
X56729333Y-72334381D01*
X56110285Y-72334381D01*
X74525143Y-80097334D02*
X74572762Y-80049715D01*
X74620381Y-79906858D01*
X74620381Y-79811620D01*
X74572762Y-79668762D01*
X74477524Y-79573524D01*
X74382286Y-79525905D01*
X74191810Y-79478286D01*
X74048952Y-79478286D01*
X73858476Y-79525905D01*
X73763238Y-79573524D01*
X73668000Y-79668762D01*
X73620381Y-79811620D01*
X73620381Y-79906858D01*
X73668000Y-80049715D01*
X73715619Y-80097334D01*
X73620381Y-80430667D02*
X73620381Y-81049715D01*
X74001333Y-80716381D01*
X74001333Y-80859239D01*
X74048952Y-80954477D01*
X74096571Y-81002096D01*
X74191810Y-81049715D01*
X74429905Y-81049715D01*
X74525143Y-81002096D01*
X74572762Y-80954477D01*
X74620381Y-80859239D01*
X74620381Y-80573524D01*
X74572762Y-80478286D01*
X74525143Y-80430667D01*
X77065143Y-80097334D02*
X77112762Y-80049715D01*
X77160381Y-79906858D01*
X77160381Y-79811620D01*
X77112762Y-79668762D01*
X77017524Y-79573524D01*
X76922286Y-79525905D01*
X76731810Y-79478286D01*
X76588952Y-79478286D01*
X76398476Y-79525905D01*
X76303238Y-79573524D01*
X76208000Y-79668762D01*
X76160381Y-79811620D01*
X76160381Y-79906858D01*
X76208000Y-80049715D01*
X76255619Y-80097334D01*
X76160381Y-81002096D02*
X76160381Y-80525905D01*
X76636571Y-80478286D01*
X76588952Y-80525905D01*
X76541333Y-80621143D01*
X76541333Y-80859239D01*
X76588952Y-80954477D01*
X76636571Y-81002096D01*
X76731810Y-81049715D01*
X76969905Y-81049715D01*
X77065143Y-81002096D01*
X77112762Y-80954477D01*
X77160381Y-80859239D01*
X77160381Y-80621143D01*
X77112762Y-80525905D01*
X77065143Y-80478286D01*
X30392666Y-79224143D02*
X30440285Y-79271762D01*
X30583142Y-79319381D01*
X30678380Y-79319381D01*
X30821238Y-79271762D01*
X30916476Y-79176524D01*
X30964095Y-79081286D01*
X31011714Y-78890810D01*
X31011714Y-78747952D01*
X30964095Y-78557476D01*
X30916476Y-78462238D01*
X30821238Y-78367000D01*
X30678380Y-78319381D01*
X30583142Y-78319381D01*
X30440285Y-78367000D01*
X30392666Y-78414619D01*
X29535523Y-78319381D02*
X29726000Y-78319381D01*
X29821238Y-78367000D01*
X29868857Y-78414619D01*
X29964095Y-78557476D01*
X30011714Y-78747952D01*
X30011714Y-79128905D01*
X29964095Y-79224143D01*
X29916476Y-79271762D01*
X29821238Y-79319381D01*
X29630761Y-79319381D01*
X29535523Y-79271762D01*
X29487904Y-79224143D01*
X29440285Y-79128905D01*
X29440285Y-78890810D01*
X29487904Y-78795571D01*
X29535523Y-78747952D01*
X29630761Y-78700333D01*
X29821238Y-78700333D01*
X29916476Y-78747952D01*
X29964095Y-78795571D01*
X30011714Y-78890810D01*
X26798543Y-45045334D02*
X26846162Y-44997715D01*
X26893781Y-44854858D01*
X26893781Y-44759620D01*
X26846162Y-44616762D01*
X26750924Y-44521524D01*
X26655686Y-44473905D01*
X26465210Y-44426286D01*
X26322352Y-44426286D01*
X26131876Y-44473905D01*
X26036638Y-44521524D01*
X25941400Y-44616762D01*
X25893781Y-44759620D01*
X25893781Y-44854858D01*
X25941400Y-44997715D01*
X25989019Y-45045334D01*
X25893781Y-45378667D02*
X25893781Y-46045334D01*
X26893781Y-45616762D01*
X89320666Y-74779143D02*
X89368285Y-74826762D01*
X89511142Y-74874381D01*
X89606380Y-74874381D01*
X89749238Y-74826762D01*
X89844476Y-74731524D01*
X89892095Y-74636286D01*
X89939714Y-74445810D01*
X89939714Y-74302952D01*
X89892095Y-74112476D01*
X89844476Y-74017238D01*
X89749238Y-73922000D01*
X89606380Y-73874381D01*
X89511142Y-73874381D01*
X89368285Y-73922000D01*
X89320666Y-73969619D01*
X88844476Y-74874381D02*
X88654000Y-74874381D01*
X88558761Y-74826762D01*
X88511142Y-74779143D01*
X88415904Y-74636286D01*
X88368285Y-74445810D01*
X88368285Y-74064857D01*
X88415904Y-73969619D01*
X88463523Y-73922000D01*
X88558761Y-73874381D01*
X88749238Y-73874381D01*
X88844476Y-73922000D01*
X88892095Y-73969619D01*
X88939714Y-74064857D01*
X88939714Y-74302952D01*
X88892095Y-74398190D01*
X88844476Y-74445810D01*
X88749238Y-74493429D01*
X88558761Y-74493429D01*
X88463523Y-74445810D01*
X88415904Y-74398190D01*
X88368285Y-74302952D01*
X56903857Y-101322143D02*
X56951476Y-101369762D01*
X57094333Y-101417381D01*
X57189571Y-101417381D01*
X57332429Y-101369762D01*
X57427667Y-101274524D01*
X57475286Y-101179286D01*
X57522905Y-100988810D01*
X57522905Y-100845952D01*
X57475286Y-100655476D01*
X57427667Y-100560238D01*
X57332429Y-100465000D01*
X57189571Y-100417381D01*
X57094333Y-100417381D01*
X56951476Y-100465000D01*
X56903857Y-100512619D01*
X55951476Y-101417381D02*
X56522905Y-101417381D01*
X56237191Y-101417381D02*
X56237191Y-100417381D01*
X56332429Y-100560238D01*
X56427667Y-100655476D01*
X56522905Y-100703095D01*
X55094333Y-100750714D02*
X55094333Y-101417381D01*
X55332429Y-100369762D02*
X55570524Y-101084048D01*
X54951476Y-101084048D01*
X50680857Y-101322143D02*
X50728476Y-101369762D01*
X50871333Y-101417381D01*
X50966571Y-101417381D01*
X51109429Y-101369762D01*
X51204667Y-101274524D01*
X51252286Y-101179286D01*
X51299905Y-100988810D01*
X51299905Y-100845952D01*
X51252286Y-100655476D01*
X51204667Y-100560238D01*
X51109429Y-100465000D01*
X50966571Y-100417381D01*
X50871333Y-100417381D01*
X50728476Y-100465000D01*
X50680857Y-100512619D01*
X49728476Y-101417381D02*
X50299905Y-101417381D01*
X50014191Y-101417381D02*
X50014191Y-100417381D01*
X50109429Y-100560238D01*
X50204667Y-100655476D01*
X50299905Y-100703095D01*
X48823714Y-100417381D02*
X49299905Y-100417381D01*
X49347524Y-100893571D01*
X49299905Y-100845952D01*
X49204667Y-100798333D01*
X48966571Y-100798333D01*
X48871333Y-100845952D01*
X48823714Y-100893571D01*
X48776095Y-100988810D01*
X48776095Y-101226905D01*
X48823714Y-101322143D01*
X48871333Y-101369762D01*
X48966571Y-101417381D01*
X49204667Y-101417381D01*
X49299905Y-101369762D01*
X49347524Y-101322143D01*
X58523143Y-95750143D02*
X58570762Y-95702524D01*
X58618381Y-95559667D01*
X58618381Y-95464429D01*
X58570762Y-95321571D01*
X58475524Y-95226333D01*
X58380286Y-95178714D01*
X58189810Y-95131095D01*
X58046952Y-95131095D01*
X57856476Y-95178714D01*
X57761238Y-95226333D01*
X57666000Y-95321571D01*
X57618381Y-95464429D01*
X57618381Y-95559667D01*
X57666000Y-95702524D01*
X57713619Y-95750143D01*
X58618381Y-96702524D02*
X58618381Y-96131095D01*
X58618381Y-96416809D02*
X57618381Y-96416809D01*
X57761238Y-96321571D01*
X57856476Y-96226333D01*
X57904095Y-96131095D01*
X57618381Y-97559667D02*
X57618381Y-97369190D01*
X57666000Y-97273952D01*
X57713619Y-97226333D01*
X57856476Y-97131095D01*
X58046952Y-97083476D01*
X58427905Y-97083476D01*
X58523143Y-97131095D01*
X58570762Y-97178714D01*
X58618381Y-97273952D01*
X58618381Y-97464429D01*
X58570762Y-97559667D01*
X58523143Y-97607286D01*
X58427905Y-97654905D01*
X58189810Y-97654905D01*
X58094571Y-97607286D01*
X58046952Y-97559667D01*
X57999333Y-97464429D01*
X57999333Y-97273952D01*
X58046952Y-97178714D01*
X58094571Y-97131095D01*
X58189810Y-97083476D01*
X96654857Y-99163143D02*
X96702476Y-99210762D01*
X96845333Y-99258381D01*
X96940571Y-99258381D01*
X97083429Y-99210762D01*
X97178667Y-99115524D01*
X97226286Y-99020286D01*
X97273905Y-98829810D01*
X97273905Y-98686952D01*
X97226286Y-98496476D01*
X97178667Y-98401238D01*
X97083429Y-98306000D01*
X96940571Y-98258381D01*
X96845333Y-98258381D01*
X96702476Y-98306000D01*
X96654857Y-98353619D01*
X95702476Y-99258381D02*
X96273905Y-99258381D01*
X95988191Y-99258381D02*
X95988191Y-98258381D01*
X96083429Y-98401238D01*
X96178667Y-98496476D01*
X96273905Y-98544095D01*
X95369143Y-98258381D02*
X94702476Y-98258381D01*
X95131048Y-99258381D01*
X55983143Y-89273143D02*
X56030762Y-89225524D01*
X56078381Y-89082667D01*
X56078381Y-88987429D01*
X56030762Y-88844571D01*
X55935524Y-88749333D01*
X55840286Y-88701714D01*
X55649810Y-88654095D01*
X55506952Y-88654095D01*
X55316476Y-88701714D01*
X55221238Y-88749333D01*
X55126000Y-88844571D01*
X55078381Y-88987429D01*
X55078381Y-89082667D01*
X55126000Y-89225524D01*
X55173619Y-89273143D01*
X56078381Y-90225524D02*
X56078381Y-89654095D01*
X56078381Y-89939809D02*
X55078381Y-89939809D01*
X55221238Y-89844571D01*
X55316476Y-89749333D01*
X55364095Y-89654095D01*
X55506952Y-90796952D02*
X55459333Y-90701714D01*
X55411714Y-90654095D01*
X55316476Y-90606476D01*
X55268857Y-90606476D01*
X55173619Y-90654095D01*
X55126000Y-90701714D01*
X55078381Y-90796952D01*
X55078381Y-90987429D01*
X55126000Y-91082667D01*
X55173619Y-91130286D01*
X55268857Y-91177905D01*
X55316476Y-91177905D01*
X55411714Y-91130286D01*
X55459333Y-91082667D01*
X55506952Y-90987429D01*
X55506952Y-90796952D01*
X55554571Y-90701714D01*
X55602190Y-90654095D01*
X55697429Y-90606476D01*
X55887905Y-90606476D01*
X55983143Y-90654095D01*
X56030762Y-90701714D01*
X56078381Y-90796952D01*
X56078381Y-90987429D01*
X56030762Y-91082667D01*
X55983143Y-91130286D01*
X55887905Y-91177905D01*
X55697429Y-91177905D01*
X55602190Y-91130286D01*
X55554571Y-91082667D01*
X55506952Y-90987429D01*
X81160857Y-99417143D02*
X81208476Y-99464762D01*
X81351333Y-99512381D01*
X81446571Y-99512381D01*
X81589429Y-99464762D01*
X81684667Y-99369524D01*
X81732286Y-99274286D01*
X81779905Y-99083810D01*
X81779905Y-98940952D01*
X81732286Y-98750476D01*
X81684667Y-98655238D01*
X81589429Y-98560000D01*
X81446571Y-98512381D01*
X81351333Y-98512381D01*
X81208476Y-98560000D01*
X81160857Y-98607619D01*
X80208476Y-99512381D02*
X80779905Y-99512381D01*
X80494191Y-99512381D02*
X80494191Y-98512381D01*
X80589429Y-98655238D01*
X80684667Y-98750476D01*
X80779905Y-98798095D01*
X79732286Y-99512381D02*
X79541810Y-99512381D01*
X79446571Y-99464762D01*
X79398952Y-99417143D01*
X79303714Y-99274286D01*
X79256095Y-99083810D01*
X79256095Y-98702857D01*
X79303714Y-98607619D01*
X79351333Y-98560000D01*
X79446571Y-98512381D01*
X79637048Y-98512381D01*
X79732286Y-98560000D01*
X79779905Y-98607619D01*
X79827524Y-98702857D01*
X79827524Y-98940952D01*
X79779905Y-99036190D01*
X79732286Y-99083810D01*
X79637048Y-99131429D01*
X79446571Y-99131429D01*
X79351333Y-99083810D01*
X79303714Y-99036190D01*
X79256095Y-98940952D01*
X26868381Y-27773334D02*
X26392190Y-27440000D01*
X26868381Y-27201905D02*
X25868381Y-27201905D01*
X25868381Y-27582858D01*
X25916000Y-27678096D01*
X25963619Y-27725715D01*
X26058857Y-27773334D01*
X26201714Y-27773334D01*
X26296952Y-27725715D01*
X26344571Y-27678096D01*
X26392190Y-27582858D01*
X26392190Y-27201905D01*
X25868381Y-28106667D02*
X25868381Y-28725715D01*
X26249333Y-28392381D01*
X26249333Y-28535239D01*
X26296952Y-28630477D01*
X26344571Y-28678096D01*
X26439810Y-28725715D01*
X26677905Y-28725715D01*
X26773143Y-28678096D01*
X26820762Y-28630477D01*
X26868381Y-28535239D01*
X26868381Y-28249524D01*
X26820762Y-28154286D01*
X26773143Y-28106667D01*
X46680381Y-75557143D02*
X46204190Y-75223809D01*
X46680381Y-74985714D02*
X45680381Y-74985714D01*
X45680381Y-75366667D01*
X45728000Y-75461905D01*
X45775619Y-75509524D01*
X45870857Y-75557143D01*
X46013714Y-75557143D01*
X46108952Y-75509524D01*
X46156571Y-75461905D01*
X46204190Y-75366667D01*
X46204190Y-74985714D01*
X45775619Y-75938095D02*
X45728000Y-75985714D01*
X45680381Y-76080952D01*
X45680381Y-76319048D01*
X45728000Y-76414286D01*
X45775619Y-76461905D01*
X45870857Y-76509524D01*
X45966095Y-76509524D01*
X46108952Y-76461905D01*
X46680381Y-75890476D01*
X46680381Y-76509524D01*
X46680381Y-77461905D02*
X46680381Y-76890476D01*
X46680381Y-77176190D02*
X45680381Y-77176190D01*
X45823238Y-77080952D01*
X45918476Y-76985714D01*
X45966095Y-76890476D01*
X60650381Y-83177143D02*
X60174190Y-82843809D01*
X60650381Y-82605714D02*
X59650381Y-82605714D01*
X59650381Y-82986667D01*
X59698000Y-83081905D01*
X59745619Y-83129524D01*
X59840857Y-83177143D01*
X59983714Y-83177143D01*
X60078952Y-83129524D01*
X60126571Y-83081905D01*
X60174190Y-82986667D01*
X60174190Y-82605714D01*
X59745619Y-83558095D02*
X59698000Y-83605714D01*
X59650381Y-83700952D01*
X59650381Y-83939048D01*
X59698000Y-84034286D01*
X59745619Y-84081905D01*
X59840857Y-84129524D01*
X59936095Y-84129524D01*
X60078952Y-84081905D01*
X60650381Y-83510476D01*
X60650381Y-84129524D01*
X59745619Y-84510476D02*
X59698000Y-84558095D01*
X59650381Y-84653333D01*
X59650381Y-84891429D01*
X59698000Y-84986667D01*
X59745619Y-85034286D01*
X59840857Y-85081905D01*
X59936095Y-85081905D01*
X60078952Y-85034286D01*
X60650381Y-84462857D01*
X60650381Y-85081905D01*
X53030381Y-69207143D02*
X52554190Y-68873809D01*
X53030381Y-68635714D02*
X52030381Y-68635714D01*
X52030381Y-69016667D01*
X52078000Y-69111905D01*
X52125619Y-69159524D01*
X52220857Y-69207143D01*
X52363714Y-69207143D01*
X52458952Y-69159524D01*
X52506571Y-69111905D01*
X52554190Y-69016667D01*
X52554190Y-68635714D01*
X52125619Y-69588095D02*
X52078000Y-69635714D01*
X52030381Y-69730952D01*
X52030381Y-69969048D01*
X52078000Y-70064286D01*
X52125619Y-70111905D01*
X52220857Y-70159524D01*
X52316095Y-70159524D01*
X52458952Y-70111905D01*
X53030381Y-69540476D01*
X53030381Y-70159524D01*
X52363714Y-71016667D02*
X53030381Y-71016667D01*
X51982762Y-70778571D02*
X52697048Y-70540476D01*
X52697048Y-71159524D01*
X48204381Y-83177143D02*
X47728190Y-82843809D01*
X48204381Y-82605714D02*
X47204381Y-82605714D01*
X47204381Y-82986667D01*
X47252000Y-83081905D01*
X47299619Y-83129524D01*
X47394857Y-83177143D01*
X47537714Y-83177143D01*
X47632952Y-83129524D01*
X47680571Y-83081905D01*
X47728190Y-82986667D01*
X47728190Y-82605714D01*
X47299619Y-83558095D02*
X47252000Y-83605714D01*
X47204381Y-83700952D01*
X47204381Y-83939048D01*
X47252000Y-84034286D01*
X47299619Y-84081905D01*
X47394857Y-84129524D01*
X47490095Y-84129524D01*
X47632952Y-84081905D01*
X48204381Y-83510476D01*
X48204381Y-84129524D01*
X47204381Y-85034286D02*
X47204381Y-84558095D01*
X47680571Y-84510476D01*
X47632952Y-84558095D01*
X47585333Y-84653333D01*
X47585333Y-84891429D01*
X47632952Y-84986667D01*
X47680571Y-85034286D01*
X47775810Y-85081905D01*
X48013905Y-85081905D01*
X48109143Y-85034286D01*
X48156762Y-84986667D01*
X48204381Y-84891429D01*
X48204381Y-84653333D01*
X48156762Y-84558095D01*
X48109143Y-84510476D01*
X49021905Y-105624381D02*
X49021905Y-106433905D01*
X48974286Y-106529143D01*
X48926667Y-106576762D01*
X48831429Y-106624381D01*
X48640952Y-106624381D01*
X48545714Y-106576762D01*
X48498095Y-106529143D01*
X48450476Y-106433905D01*
X48450476Y-105624381D01*
X47545714Y-105624381D02*
X47736191Y-105624381D01*
X47831429Y-105672000D01*
X47879048Y-105719619D01*
X47974286Y-105862476D01*
X48021905Y-106052952D01*
X48021905Y-106433905D01*
X47974286Y-106529143D01*
X47926667Y-106576762D01*
X47831429Y-106624381D01*
X47640952Y-106624381D01*
X47545714Y-106576762D01*
X47498095Y-106529143D01*
X47450476Y-106433905D01*
X47450476Y-106195810D01*
X47498095Y-106100571D01*
X47545714Y-106052952D01*
X47640952Y-106005333D01*
X47831429Y-106005333D01*
X47926667Y-106052952D01*
X47974286Y-106100571D01*
X48021905Y-106195810D01*
X67794190Y-74199809D02*
X68270381Y-74199809D01*
X67270381Y-73866476D02*
X67794190Y-74199809D01*
X67270381Y-74533143D01*
X68270381Y-75390286D02*
X68270381Y-74818857D01*
X68270381Y-75104571D02*
X67270381Y-75104571D01*
X67413238Y-75009333D01*
X67508476Y-74914095D01*
X67556095Y-74818857D01*
X29852857Y-97385143D02*
X29900476Y-97432762D01*
X30043333Y-97480381D01*
X30138571Y-97480381D01*
X30281429Y-97432762D01*
X30376667Y-97337524D01*
X30424286Y-97242286D01*
X30471905Y-97051810D01*
X30471905Y-96908952D01*
X30424286Y-96718476D01*
X30376667Y-96623238D01*
X30281429Y-96528000D01*
X30138571Y-96480381D01*
X30043333Y-96480381D01*
X29900476Y-96528000D01*
X29852857Y-96575619D01*
X29471905Y-96575619D02*
X29424286Y-96528000D01*
X29329048Y-96480381D01*
X29090952Y-96480381D01*
X28995714Y-96528000D01*
X28948095Y-96575619D01*
X28900476Y-96670857D01*
X28900476Y-96766095D01*
X28948095Y-96908952D01*
X29519524Y-97480381D01*
X28900476Y-97480381D01*
X28281429Y-96480381D02*
X28186190Y-96480381D01*
X28090952Y-96528000D01*
X28043333Y-96575619D01*
X27995714Y-96670857D01*
X27948095Y-96861333D01*
X27948095Y-97099429D01*
X27995714Y-97289905D01*
X28043333Y-97385143D01*
X28090952Y-97432762D01*
X28186190Y-97480381D01*
X28281429Y-97480381D01*
X28376667Y-97432762D01*
X28424286Y-97385143D01*
X28471905Y-97289905D01*
X28519524Y-97099429D01*
X28519524Y-96861333D01*
X28471905Y-96670857D01*
X28424286Y-96575619D01*
X28376667Y-96528000D01*
X28281429Y-96480381D01*
X40012857Y-97385143D02*
X40060476Y-97432762D01*
X40203333Y-97480381D01*
X40298571Y-97480381D01*
X40441429Y-97432762D01*
X40536667Y-97337524D01*
X40584286Y-97242286D01*
X40631905Y-97051810D01*
X40631905Y-96908952D01*
X40584286Y-96718476D01*
X40536667Y-96623238D01*
X40441429Y-96528000D01*
X40298571Y-96480381D01*
X40203333Y-96480381D01*
X40060476Y-96528000D01*
X40012857Y-96575619D01*
X39631905Y-96575619D02*
X39584286Y-96528000D01*
X39489048Y-96480381D01*
X39250952Y-96480381D01*
X39155714Y-96528000D01*
X39108095Y-96575619D01*
X39060476Y-96670857D01*
X39060476Y-96766095D01*
X39108095Y-96908952D01*
X39679524Y-97480381D01*
X39060476Y-97480381D01*
X38108095Y-97480381D02*
X38679524Y-97480381D01*
X38393810Y-97480381D02*
X38393810Y-96480381D01*
X38489048Y-96623238D01*
X38584286Y-96718476D01*
X38679524Y-96766095D01*
M02*
