G04 #@! TF.FileFunction,Legend,Top*
%FSLAX46Y46*%
G04 Gerber Fmt 4.6, Leading zero omitted, Abs format (unit mm)*
G04 Created by KiCad (PCBNEW 4.0.6) date 07/06/17 08:29:15*
%MOMM*%
%LPD*%
G01*
G04 APERTURE LIST*
%ADD10C,0.100000*%
%ADD11C,0.304800*%
%ADD12C,0.500000*%
%ADD13C,0.127000*%
%ADD14C,0.300000*%
%ADD15C,1.000760*%
%ADD16C,0.381000*%
%ADD17C,0.149860*%
%ADD18C,0.150000*%
%ADD19C,0.254000*%
%ADD20C,0.299720*%
G04 APERTURE END LIST*
D10*
D11*
X107998000Y-105628000D02*
X113998000Y-105628000D01*
X110998000Y-96228000D02*
X110998000Y-94528000D01*
X110998000Y-99528000D02*
X110998000Y-97828000D01*
X111798000Y-97828000D02*
X110198000Y-96228000D01*
X110198000Y-97828000D02*
X110198000Y-96228000D01*
X110198000Y-96228000D02*
X111798000Y-96228000D01*
X111798000Y-97828000D02*
X111798000Y-96228000D01*
X111798000Y-97828000D02*
X110198000Y-97828000D01*
X109198000Y-95528000D02*
X109198000Y-89428000D01*
X109198000Y-89428000D02*
X110998000Y-89428000D01*
X109198000Y-104628000D02*
X110998000Y-104628000D01*
X109198000Y-104628000D02*
X109198000Y-98128000D01*
X109198000Y-98128000D02*
X108698000Y-95528000D01*
X107998000Y-86728000D02*
X113998000Y-86728000D01*
X107998000Y-107328000D02*
X113998000Y-107328000D01*
X113998000Y-107328000D02*
X113998000Y-86728000D01*
X107998000Y-107328000D02*
X107998000Y-86728000D01*
X47394000Y-67056000D02*
G75*
G03X47394000Y-67056000I-6500000J0D01*
G01*
X43994000Y-72756000D02*
X37794000Y-72756000D01*
X38494000Y-72956000D02*
X43294000Y-72956000D01*
X38894000Y-73156000D02*
X42894000Y-73156000D01*
X42294000Y-73356000D02*
X39494000Y-73356000D01*
D12*
X39394000Y-70556000D02*
X37894000Y-70556000D01*
D13*
X106045000Y-61341000D02*
X106045000Y-62611000D01*
X104775000Y-61341000D02*
X104775000Y-62585600D01*
X104394000Y-61341000D02*
X106426000Y-61341000D01*
X106426000Y-61341000D02*
X106426000Y-62611000D01*
X106426000Y-62611000D02*
X104394000Y-62611000D01*
X104394000Y-62611000D02*
X104394000Y-61341000D01*
D11*
X103238000Y-72842000D02*
X98438000Y-72842000D01*
X105138000Y-69342000D02*
G75*
G03X105138000Y-69342000I-4300000J0D01*
G01*
X102638000Y-73042000D02*
X99038000Y-73042000D01*
X102238000Y-73242000D02*
X99438000Y-73242000D01*
X101638000Y-73442000D02*
X99938000Y-73442000D01*
D14*
X99538000Y-71542000D02*
X98338000Y-71542000D01*
D13*
X46101000Y-98171000D02*
X46101000Y-99441000D01*
X44831000Y-98171000D02*
X44831000Y-99415600D01*
X44450000Y-98171000D02*
X46482000Y-98171000D01*
X46482000Y-98171000D02*
X46482000Y-99441000D01*
X46482000Y-99441000D02*
X44450000Y-99441000D01*
X44450000Y-99441000D02*
X44450000Y-98171000D01*
X62865000Y-108585000D02*
X62865000Y-109855000D01*
X61595000Y-108585000D02*
X61595000Y-109829600D01*
X61214000Y-108585000D02*
X63246000Y-108585000D01*
X63246000Y-108585000D02*
X63246000Y-109855000D01*
X63246000Y-109855000D02*
X61214000Y-109855000D01*
X61214000Y-109855000D02*
X61214000Y-108585000D01*
X39751000Y-99441000D02*
X39751000Y-98171000D01*
X41021000Y-99441000D02*
X41021000Y-98196400D01*
X41402000Y-99441000D02*
X39370000Y-99441000D01*
X39370000Y-99441000D02*
X39370000Y-98171000D01*
X39370000Y-98171000D02*
X41402000Y-98171000D01*
X41402000Y-98171000D02*
X41402000Y-99441000D01*
X55499000Y-109855000D02*
X55499000Y-108585000D01*
X56769000Y-109855000D02*
X56769000Y-108610400D01*
X57150000Y-109855000D02*
X55118000Y-109855000D01*
X55118000Y-109855000D02*
X55118000Y-108585000D01*
X55118000Y-108585000D02*
X57150000Y-108585000D01*
X57150000Y-108585000D02*
X57150000Y-109855000D01*
X31310580Y-64137540D02*
X31310580Y-61338460D01*
X31208980Y-61338460D02*
X31208980Y-64137540D01*
X31109920Y-64137540D02*
X31109920Y-61338460D01*
X31010860Y-61338460D02*
X31010860Y-64137540D01*
X30909260Y-61338460D02*
X30909260Y-64137540D01*
X31409640Y-61338460D02*
X27010360Y-61338460D01*
X27010360Y-61338460D02*
X27010360Y-64137540D01*
X27010360Y-64137540D02*
X31409640Y-64137540D01*
X31409640Y-64137540D02*
X31409640Y-61338460D01*
X105793540Y-93403420D02*
X102994460Y-93403420D01*
X102994460Y-93505020D02*
X105793540Y-93505020D01*
X105793540Y-93604080D02*
X102994460Y-93604080D01*
X102994460Y-93703140D02*
X105793540Y-93703140D01*
X102994460Y-93804740D02*
X105793540Y-93804740D01*
X102994460Y-93304360D02*
X102994460Y-97703640D01*
X102994460Y-97703640D02*
X105793540Y-97703640D01*
X105793540Y-97703640D02*
X105793540Y-93304360D01*
X105793540Y-93304360D02*
X102994460Y-93304360D01*
X23568660Y-30226000D02*
X23268940Y-29926280D01*
X23268940Y-29926280D02*
X23268940Y-30525720D01*
X23268940Y-30525720D02*
X23568660Y-30226000D01*
X23467060Y-30325060D02*
X23467060Y-30126940D01*
X23368000Y-30025340D02*
X23368000Y-30426660D01*
X23667720Y-31026100D02*
X23667720Y-29425900D01*
X23068280Y-29425900D02*
X23068280Y-31026100D01*
X22367240Y-29425900D02*
X24368760Y-29425900D01*
X24368760Y-29425900D02*
X24368760Y-31026100D01*
X24368760Y-31026100D02*
X22367240Y-31026100D01*
X22367240Y-31026100D02*
X22367240Y-29425900D01*
X110797340Y-82804000D02*
X111097060Y-83103720D01*
X111097060Y-83103720D02*
X111097060Y-82504280D01*
X111097060Y-82504280D02*
X110797340Y-82804000D01*
X110898940Y-82704940D02*
X110898940Y-82903060D01*
X110998000Y-83004660D02*
X110998000Y-82603340D01*
X110698280Y-82003900D02*
X110698280Y-83604100D01*
X111297720Y-83604100D02*
X111297720Y-82003900D01*
X111998760Y-83604100D02*
X109997240Y-83604100D01*
X109997240Y-83604100D02*
X109997240Y-82003900D01*
X109997240Y-82003900D02*
X111998760Y-82003900D01*
X111998760Y-82003900D02*
X111998760Y-83604100D01*
X49075340Y-83058000D02*
X49375060Y-83357720D01*
X49375060Y-83357720D02*
X49375060Y-82758280D01*
X49375060Y-82758280D02*
X49075340Y-83058000D01*
X49176940Y-82958940D02*
X49176940Y-83157060D01*
X49276000Y-83258660D02*
X49276000Y-82857340D01*
X48976280Y-82257900D02*
X48976280Y-83858100D01*
X49575720Y-83858100D02*
X49575720Y-82257900D01*
X50276760Y-83858100D02*
X48275240Y-83858100D01*
X48275240Y-83858100D02*
X48275240Y-82257900D01*
X48275240Y-82257900D02*
X50276760Y-82257900D01*
X50276760Y-82257900D02*
X50276760Y-83858100D01*
X48821340Y-77470000D02*
X49121060Y-77769720D01*
X49121060Y-77769720D02*
X49121060Y-77170280D01*
X49121060Y-77170280D02*
X48821340Y-77470000D01*
X48922940Y-77370940D02*
X48922940Y-77569060D01*
X49022000Y-77670660D02*
X49022000Y-77269340D01*
X48722280Y-76669900D02*
X48722280Y-78270100D01*
X49321720Y-78270100D02*
X49321720Y-76669900D01*
X50022760Y-78270100D02*
X48021240Y-78270100D01*
X48021240Y-78270100D02*
X48021240Y-76669900D01*
X48021240Y-76669900D02*
X50022760Y-76669900D01*
X50022760Y-76669900D02*
X50022760Y-78270100D01*
X48821340Y-71882000D02*
X49121060Y-72181720D01*
X49121060Y-72181720D02*
X49121060Y-71582280D01*
X49121060Y-71582280D02*
X48821340Y-71882000D01*
X48922940Y-71782940D02*
X48922940Y-71981060D01*
X49022000Y-72082660D02*
X49022000Y-71681340D01*
X48722280Y-71081900D02*
X48722280Y-72682100D01*
X49321720Y-72682100D02*
X49321720Y-71081900D01*
X50022760Y-72682100D02*
X48021240Y-72682100D01*
X48021240Y-72682100D02*
X48021240Y-71081900D01*
X48021240Y-71081900D02*
X50022760Y-71081900D01*
X50022760Y-71081900D02*
X50022760Y-72682100D01*
D11*
X111200000Y-55700000D02*
G75*
G03X111200000Y-55700000I-3500000J0D01*
G01*
X35800000Y-55700000D02*
G75*
G03X35800000Y-55700000I-3500000J0D01*
G01*
X35800000Y-24300000D02*
G75*
G03X35800000Y-24300000I-3500000J0D01*
G01*
X111200000Y-24300000D02*
G75*
G03X111200000Y-24300000I-3500000J0D01*
G01*
X105350000Y-51900000D02*
X34650000Y-51900000D01*
X34650000Y-51900000D02*
X34650000Y-28100000D01*
X34650000Y-28100000D02*
X105350000Y-28100000D01*
X105350000Y-28100000D02*
X105350000Y-51900000D01*
X104000000Y-47200000D02*
X104000000Y-32800000D01*
X104000000Y-32800000D02*
X36000000Y-32800000D01*
X36000000Y-32800000D02*
X36000000Y-47200000D01*
X36000000Y-47200000D02*
X104000000Y-47200000D01*
D15*
X110000000Y-58000000D02*
X30000000Y-58000000D01*
X30000000Y-58000000D02*
X30000000Y-22000000D01*
X30000000Y-22000000D02*
X110000000Y-22000000D01*
X110000000Y-22000000D02*
X110000000Y-58000000D01*
D16*
X99996000Y-116876000D02*
X99996000Y-117376000D01*
X104496000Y-112876000D02*
G75*
G03X104496000Y-112876000I-2000000J0D01*
G01*
X99496000Y-112876000D02*
G75*
G03X99496000Y-112876000I-2000000J0D01*
G01*
X94996000Y-116876000D02*
X94996000Y-117376000D01*
X89996000Y-116876000D02*
X89996000Y-117376000D01*
X94496000Y-112876000D02*
G75*
G03X94496000Y-112876000I-2000000J0D01*
G01*
X89496000Y-112876000D02*
G75*
G03X89496000Y-112876000I-2000000J0D01*
G01*
X84996000Y-115376000D02*
X104996000Y-115376000D01*
X84996000Y-110476000D02*
X104996000Y-110476000D01*
X84996000Y-116876000D02*
X104996000Y-116876000D01*
X84996000Y-117376000D02*
X104996000Y-117376000D01*
X104996000Y-117376000D02*
X104996000Y-107576000D01*
X104996000Y-107576000D02*
X84996000Y-107576000D01*
X84996000Y-107576000D02*
X84996000Y-117376000D01*
D11*
X61976000Y-61722000D02*
X69596000Y-61722000D01*
X69596000Y-61722000D02*
X69596000Y-66802000D01*
X69596000Y-66802000D02*
X61976000Y-66802000D01*
X61976000Y-64262000D02*
X64516000Y-64262000D01*
X64516000Y-64262000D02*
X64516000Y-66802000D01*
X61976000Y-61722000D02*
X61976000Y-66802000D01*
D16*
X43180000Y-116368000D02*
X43180000Y-116868000D01*
X47680000Y-112368000D02*
G75*
G03X47680000Y-112368000I-2000000J0D01*
G01*
X42680000Y-112368000D02*
G75*
G03X42680000Y-112368000I-2000000J0D01*
G01*
X38180000Y-114868000D02*
X48180000Y-114868000D01*
X38180000Y-109968000D02*
X48180000Y-109968000D01*
X38180000Y-116368000D02*
X48180000Y-116368000D01*
X38180000Y-116868000D02*
X48180000Y-116868000D01*
X48180000Y-116868000D02*
X48180000Y-107068000D01*
X48180000Y-107068000D02*
X38180000Y-107068000D01*
X38180000Y-107068000D02*
X38180000Y-116868000D01*
D13*
X103441500Y-89217500D02*
X103441500Y-88557100D01*
X105346500Y-89217500D02*
X105346500Y-88557100D01*
X104394000Y-90614500D02*
X104394000Y-91274900D01*
X105892600Y-90614500D02*
X102895400Y-90614500D01*
X102895400Y-90614500D02*
X102895400Y-89217500D01*
X102895400Y-89217500D02*
X105892600Y-89217500D01*
X105892600Y-89217500D02*
X105892600Y-90614500D01*
X86677500Y-91249500D02*
X86677500Y-90589100D01*
X88582500Y-91249500D02*
X88582500Y-90589100D01*
X87630000Y-92646500D02*
X87630000Y-93306900D01*
X89128600Y-92646500D02*
X86131400Y-92646500D01*
X86131400Y-92646500D02*
X86131400Y-91249500D01*
X86131400Y-91249500D02*
X89128600Y-91249500D01*
X89128600Y-91249500D02*
X89128600Y-92646500D01*
X77089000Y-63373000D02*
X75819000Y-63373000D01*
X77089000Y-62103000D02*
X75844400Y-62103000D01*
X77089000Y-61722000D02*
X77089000Y-63754000D01*
X77089000Y-63754000D02*
X75819000Y-63754000D01*
X75819000Y-63754000D02*
X75819000Y-61722000D01*
X75819000Y-61722000D02*
X77089000Y-61722000D01*
X74803000Y-63373000D02*
X73533000Y-63373000D01*
X74803000Y-62103000D02*
X73558400Y-62103000D01*
X74803000Y-61722000D02*
X74803000Y-63754000D01*
X74803000Y-63754000D02*
X73533000Y-63754000D01*
X73533000Y-63754000D02*
X73533000Y-61722000D01*
X73533000Y-61722000D02*
X74803000Y-61722000D01*
X103759000Y-86233000D02*
X103759000Y-84963000D01*
X105029000Y-86233000D02*
X105029000Y-84988400D01*
X105410000Y-86233000D02*
X103378000Y-86233000D01*
X103378000Y-86233000D02*
X103378000Y-84963000D01*
X103378000Y-84963000D02*
X105410000Y-84963000D01*
X105410000Y-84963000D02*
X105410000Y-86233000D01*
X101727000Y-90551000D02*
X100457000Y-90551000D01*
X101727000Y-89281000D02*
X100482400Y-89281000D01*
X101727000Y-88900000D02*
X101727000Y-90932000D01*
X101727000Y-90932000D02*
X100457000Y-90932000D01*
X100457000Y-90932000D02*
X100457000Y-88900000D01*
X100457000Y-88900000D02*
X101727000Y-88900000D01*
X21717000Y-33655000D02*
X22987000Y-33655000D01*
X21717000Y-34925000D02*
X22961600Y-34925000D01*
X21717000Y-35306000D02*
X21717000Y-33274000D01*
X21717000Y-33274000D02*
X22987000Y-33274000D01*
X22987000Y-33274000D02*
X22987000Y-35306000D01*
X22987000Y-35306000D02*
X21717000Y-35306000D01*
X115951000Y-87757000D02*
X117221000Y-87757000D01*
X115951000Y-89027000D02*
X117195600Y-89027000D01*
X115951000Y-89408000D02*
X115951000Y-87376000D01*
X115951000Y-87376000D02*
X117221000Y-87376000D01*
X117221000Y-87376000D02*
X117221000Y-89408000D01*
X117221000Y-89408000D02*
X115951000Y-89408000D01*
X45847000Y-101727000D02*
X47117000Y-101727000D01*
X45847000Y-102997000D02*
X47091600Y-102997000D01*
X45847000Y-103378000D02*
X45847000Y-101346000D01*
X45847000Y-101346000D02*
X47117000Y-101346000D01*
X47117000Y-101346000D02*
X47117000Y-103378000D01*
X47117000Y-103378000D02*
X45847000Y-103378000D01*
X38735000Y-101727000D02*
X40005000Y-101727000D01*
X38735000Y-102997000D02*
X39979600Y-102997000D01*
X38735000Y-103378000D02*
X38735000Y-101346000D01*
X38735000Y-101346000D02*
X40005000Y-101346000D01*
X40005000Y-101346000D02*
X40005000Y-103378000D01*
X40005000Y-103378000D02*
X38735000Y-103378000D01*
X91567000Y-92075000D02*
X90297000Y-92075000D01*
X91567000Y-90805000D02*
X90322400Y-90805000D01*
X91567000Y-90424000D02*
X91567000Y-92456000D01*
X91567000Y-92456000D02*
X90297000Y-92456000D01*
X90297000Y-92456000D02*
X90297000Y-90424000D01*
X90297000Y-90424000D02*
X91567000Y-90424000D01*
X84963000Y-92583000D02*
X83693000Y-92583000D01*
X84963000Y-91313000D02*
X83718400Y-91313000D01*
X84963000Y-90932000D02*
X84963000Y-92964000D01*
X84963000Y-92964000D02*
X83693000Y-92964000D01*
X83693000Y-92964000D02*
X83693000Y-90932000D01*
X83693000Y-90932000D02*
X84963000Y-90932000D01*
X52959000Y-83693000D02*
X52959000Y-82423000D01*
X54229000Y-83693000D02*
X54229000Y-82448400D01*
X54610000Y-83693000D02*
X52578000Y-83693000D01*
X52578000Y-83693000D02*
X52578000Y-82423000D01*
X52578000Y-82423000D02*
X54610000Y-82423000D01*
X54610000Y-82423000D02*
X54610000Y-83693000D01*
X95631000Y-92075000D02*
X94361000Y-92075000D01*
X95631000Y-90805000D02*
X94386400Y-90805000D01*
X95631000Y-90424000D02*
X95631000Y-92456000D01*
X95631000Y-92456000D02*
X94361000Y-92456000D01*
X94361000Y-92456000D02*
X94361000Y-90424000D01*
X94361000Y-90424000D02*
X95631000Y-90424000D01*
X92329000Y-90805000D02*
X93599000Y-90805000D01*
X92329000Y-92075000D02*
X93573600Y-92075000D01*
X92329000Y-92456000D02*
X92329000Y-90424000D01*
X92329000Y-90424000D02*
X93599000Y-90424000D01*
X93599000Y-90424000D02*
X93599000Y-92456000D01*
X93599000Y-92456000D02*
X92329000Y-92456000D01*
X52959000Y-78105000D02*
X52959000Y-76835000D01*
X54229000Y-78105000D02*
X54229000Y-76860400D01*
X54610000Y-78105000D02*
X52578000Y-78105000D01*
X52578000Y-78105000D02*
X52578000Y-76835000D01*
X52578000Y-76835000D02*
X54610000Y-76835000D01*
X54610000Y-76835000D02*
X54610000Y-78105000D01*
X52959000Y-72517000D02*
X52959000Y-71247000D01*
X54229000Y-72517000D02*
X54229000Y-71272400D01*
X54610000Y-72517000D02*
X52578000Y-72517000D01*
X52578000Y-72517000D02*
X52578000Y-71247000D01*
X52578000Y-71247000D02*
X54610000Y-71247000D01*
X54610000Y-71247000D02*
X54610000Y-72517000D01*
X45593000Y-93599000D02*
X45593000Y-94869000D01*
X44323000Y-93599000D02*
X44323000Y-94843600D01*
X43942000Y-93599000D02*
X45974000Y-93599000D01*
X45974000Y-93599000D02*
X45974000Y-94869000D01*
X45974000Y-94869000D02*
X43942000Y-94869000D01*
X43942000Y-94869000D02*
X43942000Y-93599000D01*
X86741000Y-105283000D02*
X85471000Y-105283000D01*
X86741000Y-104013000D02*
X85496400Y-104013000D01*
X86741000Y-103632000D02*
X86741000Y-105664000D01*
X86741000Y-105664000D02*
X85471000Y-105664000D01*
X85471000Y-105664000D02*
X85471000Y-103632000D01*
X85471000Y-103632000D02*
X86741000Y-103632000D01*
X89789000Y-105283000D02*
X89789000Y-106553000D01*
X88519000Y-105283000D02*
X88519000Y-106527600D01*
X88138000Y-105283000D02*
X90170000Y-105283000D01*
X90170000Y-105283000D02*
X90170000Y-106553000D01*
X90170000Y-106553000D02*
X88138000Y-106553000D01*
X88138000Y-106553000D02*
X88138000Y-105283000D01*
X91821000Y-104267000D02*
X93091000Y-104267000D01*
X91821000Y-105537000D02*
X93065600Y-105537000D01*
X91821000Y-105918000D02*
X91821000Y-103886000D01*
X91821000Y-103886000D02*
X93091000Y-103886000D01*
X93091000Y-103886000D02*
X93091000Y-105918000D01*
X93091000Y-105918000D02*
X91821000Y-105918000D01*
X99806760Y-60967620D02*
X99606100Y-60967620D01*
X99705160Y-61968380D02*
X99705160Y-60967620D01*
X99806760Y-60967620D02*
X99806760Y-61968380D01*
X99806760Y-61968380D02*
X99606100Y-61968380D01*
X98506280Y-62169040D02*
X99105720Y-62169040D01*
X99105720Y-62169040D02*
X99105720Y-61767720D01*
X99105720Y-61767720D02*
X99507040Y-61767720D01*
X99507040Y-61767720D02*
X99507040Y-61168280D01*
X99507040Y-61168280D02*
X99105720Y-61168280D01*
X99105720Y-61168280D02*
X99105720Y-60766960D01*
X99105720Y-60766960D02*
X98506280Y-60766960D01*
X98506280Y-60766960D02*
X98506280Y-61168280D01*
X98506280Y-61168280D02*
X98104960Y-61168280D01*
X98104960Y-61168280D02*
X98104960Y-61668660D01*
X98104960Y-61668660D02*
X98104960Y-61767720D01*
X98104960Y-61767720D02*
X98506280Y-61767720D01*
X98506280Y-61767720D02*
X98506280Y-62169040D01*
X99749684Y-61468000D02*
G75*
G03X99749684Y-61468000I-943684J0D01*
G01*
X97706180Y-62567820D02*
X97706180Y-60368180D01*
X97706180Y-60368180D02*
X99905820Y-60368180D01*
X99905820Y-60368180D02*
X99905820Y-62567820D01*
X99905820Y-62567820D02*
X97706180Y-62567820D01*
D17*
X65390112Y-71814235D02*
X65673888Y-71814235D01*
X65813980Y-71954327D02*
X65250020Y-71954327D01*
X65108132Y-72096215D02*
X65955868Y-72096215D01*
X64966244Y-72238103D02*
X65532000Y-71672347D01*
X65532000Y-71672347D02*
X66097756Y-72238103D01*
X66097756Y-72238103D02*
X64966244Y-72238103D01*
X60300103Y-78035756D02*
X59734347Y-77470000D01*
X59734347Y-77470000D02*
X60300103Y-76904244D01*
X66097756Y-82701897D02*
X65532000Y-83267653D01*
X65532000Y-83267653D02*
X64966244Y-82701897D01*
X70763897Y-76904244D02*
X71329653Y-77470000D01*
X71329653Y-77470000D02*
X70763897Y-78035756D01*
D13*
X65815981Y-74057503D02*
G75*
G03X65815981Y-74057503I-283981J0D01*
G01*
X60772464Y-77739408D02*
X60772464Y-77200592D01*
X60772464Y-77200592D02*
X65262592Y-72710464D01*
X65262592Y-72710464D02*
X65801408Y-72710464D01*
X65801408Y-72710464D02*
X70291536Y-77200592D01*
X70291536Y-77200592D02*
X70291536Y-77739408D01*
X70291536Y-77739408D02*
X65801408Y-82229536D01*
X65801408Y-82229536D02*
X65262592Y-82229536D01*
X65262592Y-82229536D02*
X60772464Y-77739408D01*
X77520800Y-70485000D02*
X81483200Y-70485000D01*
X81483200Y-70485000D02*
X81483200Y-65659000D01*
X81483200Y-65659000D02*
X77520800Y-65659000D01*
X77520800Y-65659000D02*
X77520800Y-70485000D01*
X77520800Y-69977000D02*
X76428600Y-69977000D01*
X77520800Y-68707000D02*
X76428600Y-68707000D01*
X77520800Y-67437000D02*
X76428600Y-67437000D01*
X76428600Y-66167000D02*
X77520800Y-66167000D01*
X81483200Y-66167000D02*
X82575400Y-66167000D01*
X82575400Y-67437000D02*
X81483200Y-67437000D01*
X82575400Y-68707000D02*
X81483200Y-68707000D01*
X82575400Y-69977000D02*
X81483200Y-69977000D01*
X81219067Y-69748400D02*
G75*
G03X81219067Y-69748400I-472467J0D01*
G01*
D18*
X51368000Y-61562000D02*
X51368000Y-66912000D01*
X52618000Y-60312000D02*
G75*
G03X51368000Y-61562000I0J-1250000D01*
G01*
X57618000Y-60312000D02*
X52618000Y-60312000D01*
X58868000Y-61562000D02*
G75*
G03X57618000Y-60312000I-1250000J0D01*
G01*
X58868000Y-66912000D02*
X58868000Y-61562000D01*
X51368000Y-66912000D02*
G75*
G03X52568000Y-68212000I1250000J-50000D01*
G01*
X57668000Y-68212000D02*
X52568000Y-68212000D01*
X57668000Y-68212000D02*
G75*
G03X58868000Y-66912000I-50000J1250000D01*
G01*
D13*
X41973500Y-101663500D02*
X41973500Y-101003100D01*
X43878500Y-101663500D02*
X43878500Y-101003100D01*
X42926000Y-103060500D02*
X42926000Y-103720900D01*
X44424600Y-103060500D02*
X41427400Y-103060500D01*
X41427400Y-103060500D02*
X41427400Y-101663500D01*
X41427400Y-101663500D02*
X44424600Y-101663500D01*
X44424600Y-101663500D02*
X44424600Y-103060500D01*
X42037000Y-93675200D02*
X42037000Y-89712800D01*
X42037000Y-89712800D02*
X37211000Y-89712800D01*
X37211000Y-89712800D02*
X37211000Y-93675200D01*
X37211000Y-93675200D02*
X42037000Y-93675200D01*
X41529000Y-93675200D02*
X41529000Y-94767400D01*
X40259000Y-93675200D02*
X40259000Y-94767400D01*
X38989000Y-93675200D02*
X38989000Y-94767400D01*
X37719000Y-94767400D02*
X37719000Y-93675200D01*
X37719000Y-89712800D02*
X37719000Y-88620600D01*
X38989000Y-88620600D02*
X38989000Y-89712800D01*
X40259000Y-88620600D02*
X40259000Y-89712800D01*
X41529000Y-88620600D02*
X41529000Y-89712800D01*
X41772867Y-90449400D02*
G75*
G03X41772867Y-90449400I-472467J0D01*
G01*
D19*
X62931040Y-99524820D02*
X62931040Y-87927180D01*
X55432960Y-87927180D02*
X55432960Y-99524820D01*
D13*
X62941200Y-98806000D02*
X64033400Y-98806000D01*
X62941200Y-97536000D02*
X64033400Y-97536000D01*
X62941200Y-96266000D02*
X64033400Y-96266000D01*
X54330600Y-88646000D02*
X55422800Y-88646000D01*
D19*
X55432960Y-99524820D02*
X62931040Y-99524820D01*
X62931040Y-87927180D02*
X55432960Y-87927180D01*
D13*
X62941200Y-88646000D02*
X64033400Y-88646000D01*
X62941200Y-89916000D02*
X64033400Y-89916000D01*
X62941200Y-91186000D02*
X64033400Y-91186000D01*
X64033400Y-92456000D02*
X62941200Y-92456000D01*
X64033400Y-93726000D02*
X62941200Y-93726000D01*
X64033400Y-94996000D02*
X62941200Y-94996000D01*
X55422800Y-98806000D02*
X54330600Y-98806000D01*
X55422800Y-97536000D02*
X54330600Y-97536000D01*
X55422800Y-96266000D02*
X54330600Y-96266000D01*
X55422800Y-89916000D02*
X54330600Y-89916000D01*
X54330600Y-91186000D02*
X55422800Y-91186000D01*
X54330600Y-94996000D02*
X55422800Y-94996000D01*
X54330600Y-93726000D02*
X55422800Y-93726000D01*
X54330600Y-92456000D02*
X55422800Y-92456000D01*
D19*
X57007787Y-89110820D02*
G75*
G03X57007787Y-89110820I-472467J0D01*
G01*
D13*
X89357200Y-96139000D02*
X85394800Y-96139000D01*
X85394800Y-96139000D02*
X85394800Y-100965000D01*
X85394800Y-100965000D02*
X89357200Y-100965000D01*
X89357200Y-100965000D02*
X89357200Y-96139000D01*
X89357200Y-96647000D02*
X90449400Y-96647000D01*
X89357200Y-97917000D02*
X90449400Y-97917000D01*
X89357200Y-99187000D02*
X90449400Y-99187000D01*
X90449400Y-100457000D02*
X89357200Y-100457000D01*
X85394800Y-100457000D02*
X84302600Y-100457000D01*
X84302600Y-99187000D02*
X85394800Y-99187000D01*
X84302600Y-97917000D02*
X85394800Y-97917000D01*
X84302600Y-96647000D02*
X85394800Y-96647000D01*
X86603867Y-96875600D02*
G75*
G03X86603867Y-96875600I-472467J0D01*
G01*
D19*
X85184000Y-70342000D02*
X91184000Y-70342000D01*
X85184000Y-70342000D02*
X85184000Y-68342000D01*
X85184000Y-68342000D02*
X91184000Y-68342000D01*
X91184000Y-70342000D02*
X91184000Y-68342000D01*
D20*
X64472820Y-107401360D02*
X64472820Y-102402640D01*
X64472820Y-102402640D02*
X52875180Y-102402640D01*
X52875180Y-102402640D02*
X52875180Y-107401360D01*
X52875180Y-107401360D02*
X64472820Y-107401360D01*
D19*
X53086000Y-104902000D02*
G75*
G03X55372000Y-107188000I2286000J0D01*
G01*
X61976000Y-103124000D02*
X55372000Y-103124000D01*
X55372000Y-106680000D02*
X61976000Y-106680000D01*
X55372000Y-103124000D02*
G75*
G03X53594000Y-104902000I0J-1778000D01*
G01*
X53594000Y-104902000D02*
G75*
G03X55372000Y-106680000I1778000J0D01*
G01*
X63754000Y-104902000D02*
G75*
G03X61976000Y-103124000I-1778000J0D01*
G01*
X61976000Y-106680000D02*
G75*
G03X63754000Y-104902000I0J1778000D01*
G01*
X55372000Y-102616000D02*
G75*
G03X53086000Y-104902000I0J-2286000D01*
G01*
X55372000Y-102616000D02*
X61976000Y-102616000D01*
X61976000Y-107188000D02*
X55372000Y-107188000D01*
X64262000Y-104902000D02*
G75*
G03X61976000Y-102616000I-2286000J0D01*
G01*
X61976000Y-107188000D02*
G75*
G03X64262000Y-104902000I0J2286000D01*
G01*
D11*
X74228000Y-85814000D02*
X74228000Y-87414000D01*
X74028000Y-85314000D02*
X74028000Y-87914000D01*
X73828000Y-84914000D02*
X73828000Y-88314000D01*
X74428000Y-86614000D02*
G75*
G03X74428000Y-86614000I-2800000J0D01*
G01*
D14*
X72728000Y-87614000D02*
X72728000Y-88614000D01*
D16*
X23078000Y-70612000D02*
X22578000Y-70612000D01*
X29078000Y-73112000D02*
G75*
G03X29078000Y-73112000I-2000000J0D01*
G01*
X29078000Y-68112000D02*
G75*
G03X29078000Y-68112000I-2000000J0D01*
G01*
X24578000Y-65612000D02*
X24578000Y-75612000D01*
X29478000Y-65612000D02*
X29478000Y-75612000D01*
X23078000Y-65612000D02*
X23078000Y-75612000D01*
X22578000Y-65612000D02*
X22578000Y-75612000D01*
X22578000Y-75612000D02*
X32378000Y-75612000D01*
X32378000Y-75612000D02*
X32378000Y-65612000D01*
X32378000Y-65612000D02*
X22578000Y-65612000D01*
D19*
X25000000Y-22841000D02*
X25000000Y-27159000D01*
X22841000Y-25000000D02*
X27159000Y-25000000D01*
X26778000Y-25000000D02*
G75*
G03X26778000Y-25000000I-1778000J0D01*
G01*
X25000000Y-112841000D02*
X25000000Y-117159000D01*
X22841000Y-115000000D02*
X27159000Y-115000000D01*
X26778000Y-115000000D02*
G75*
G03X26778000Y-115000000I-1778000J0D01*
G01*
X115000000Y-22841000D02*
X115000000Y-27159000D01*
X112841000Y-25000000D02*
X117159000Y-25000000D01*
X116778000Y-25000000D02*
G75*
G03X116778000Y-25000000I-1778000J0D01*
G01*
X115000000Y-112841000D02*
X115000000Y-117159000D01*
X112841000Y-115000000D02*
X117159000Y-115000000D01*
X116778000Y-115000000D02*
G75*
G03X116778000Y-115000000I-1778000J0D01*
G01*
D13*
X86052660Y-80772000D02*
X85752940Y-80472280D01*
X85752940Y-80472280D02*
X85752940Y-81071720D01*
X85752940Y-81071720D02*
X86052660Y-80772000D01*
X85951060Y-80871060D02*
X85951060Y-80672940D01*
X85852000Y-80571340D02*
X85852000Y-80972660D01*
X86151720Y-81572100D02*
X86151720Y-79971900D01*
X85552280Y-79971900D02*
X85552280Y-81572100D01*
X84851240Y-79971900D02*
X86852760Y-79971900D01*
X86852760Y-79971900D02*
X86852760Y-81572100D01*
X86852760Y-81572100D02*
X84851240Y-81572100D01*
X84851240Y-81572100D02*
X84851240Y-79971900D01*
X80645000Y-80137000D02*
X80645000Y-81407000D01*
X79375000Y-80137000D02*
X79375000Y-81381600D01*
X78994000Y-80137000D02*
X81026000Y-80137000D01*
X81026000Y-80137000D02*
X81026000Y-81407000D01*
X81026000Y-81407000D02*
X78994000Y-81407000D01*
X78994000Y-81407000D02*
X78994000Y-80137000D01*
X28321000Y-93599000D02*
X28321000Y-92329000D01*
X29591000Y-93599000D02*
X29591000Y-92354400D01*
X29972000Y-93599000D02*
X27940000Y-93599000D01*
X27940000Y-93599000D02*
X27940000Y-92329000D01*
X27940000Y-92329000D02*
X29972000Y-92329000D01*
X29972000Y-92329000D02*
X29972000Y-93599000D01*
D11*
X24524000Y-82606000D02*
X29324000Y-82606000D01*
X31224000Y-86106000D02*
G75*
G03X31224000Y-86106000I-4300000J0D01*
G01*
X25124000Y-82406000D02*
X28724000Y-82406000D01*
X25524000Y-82206000D02*
X28324000Y-82206000D01*
X26124000Y-82006000D02*
X27824000Y-82006000D01*
D14*
X28224000Y-83906000D02*
X29424000Y-83906000D01*
D13*
X29235400Y-103974900D02*
X26136600Y-103974900D01*
X26136600Y-103974900D02*
X26136600Y-102184200D01*
X29235400Y-103974900D02*
X29235400Y-102184200D01*
X25793700Y-96685100D02*
X24980900Y-96685100D01*
X24980900Y-96685100D02*
X24980900Y-98475800D01*
X25793700Y-96685100D02*
X25793700Y-98475800D01*
X28092400Y-96685100D02*
X28092400Y-98475800D01*
X27279600Y-96685100D02*
X27279600Y-98475800D01*
X28092400Y-96685100D02*
X27279600Y-96685100D01*
X30391100Y-96685100D02*
X29578300Y-96685100D01*
X29578300Y-96685100D02*
X29578300Y-98475800D01*
X30391100Y-96685100D02*
X30391100Y-98475800D01*
X24333200Y-98475800D02*
X31038800Y-98475800D01*
X31038800Y-98475800D02*
X31038800Y-102184200D01*
X31038800Y-102184200D02*
X24333200Y-102184200D01*
X24333200Y-102184200D02*
X24333200Y-98475800D01*
X117271800Y-76060300D02*
X117271800Y-78422500D01*
X117271800Y-78422500D02*
X107264200Y-78422500D01*
X107264200Y-78422500D02*
X107264200Y-76060300D01*
X109270800Y-62077600D02*
X109270800Y-66408300D01*
X110274100Y-62077600D02*
X109270800Y-62077600D01*
X110274100Y-66408300D02*
X110274100Y-62077600D01*
X115265200Y-66408300D02*
X115265200Y-62077600D01*
X115265200Y-62077600D02*
X114261900Y-62077600D01*
X114261900Y-62077600D02*
X114261900Y-66408300D01*
X117614700Y-76060300D02*
X106921300Y-76060300D01*
X106921300Y-76060300D02*
X106921300Y-66408300D01*
X106921300Y-66408300D02*
X117614700Y-66408300D01*
X117614700Y-66408300D02*
X117614700Y-76060300D01*
D18*
X116022381Y-98028000D02*
X115546190Y-98361334D01*
X116022381Y-98599429D02*
X115022381Y-98599429D01*
X115022381Y-98218476D01*
X115070000Y-98123238D01*
X115117619Y-98075619D01*
X115212857Y-98028000D01*
X115355714Y-98028000D01*
X115450952Y-98075619D01*
X115498571Y-98123238D01*
X115546190Y-98218476D01*
X115546190Y-98599429D01*
X116022381Y-97123238D02*
X116022381Y-97599429D01*
X115022381Y-97599429D01*
X115546190Y-96599429D02*
X116022381Y-96599429D01*
X115022381Y-96932762D02*
X115546190Y-96599429D01*
X115022381Y-96266095D01*
X116022381Y-95408952D02*
X116022381Y-95980381D01*
X116022381Y-95694667D02*
X115022381Y-95694667D01*
X115165238Y-95789905D01*
X115260476Y-95885143D01*
X115308095Y-95980381D01*
X45553334Y-61317143D02*
X45505715Y-61364762D01*
X45362858Y-61412381D01*
X45267620Y-61412381D01*
X45124762Y-61364762D01*
X45029524Y-61269524D01*
X44981905Y-61174286D01*
X44934286Y-60983810D01*
X44934286Y-60840952D01*
X44981905Y-60650476D01*
X45029524Y-60555238D01*
X45124762Y-60460000D01*
X45267620Y-60412381D01*
X45362858Y-60412381D01*
X45505715Y-60460000D01*
X45553334Y-60507619D01*
X46410477Y-60412381D02*
X46220000Y-60412381D01*
X46124762Y-60460000D01*
X46077143Y-60507619D01*
X45981905Y-60650476D01*
X45934286Y-60840952D01*
X45934286Y-61221905D01*
X45981905Y-61317143D01*
X46029524Y-61364762D01*
X46124762Y-61412381D01*
X46315239Y-61412381D01*
X46410477Y-61364762D01*
X46458096Y-61317143D01*
X46505715Y-61221905D01*
X46505715Y-60983810D01*
X46458096Y-60888571D01*
X46410477Y-60840952D01*
X46315239Y-60793333D01*
X46124762Y-60793333D01*
X46029524Y-60840952D01*
X45981905Y-60888571D01*
X45934286Y-60983810D01*
X105243334Y-60301143D02*
X105195715Y-60348762D01*
X105052858Y-60396381D01*
X104957620Y-60396381D01*
X104814762Y-60348762D01*
X104719524Y-60253524D01*
X104671905Y-60158286D01*
X104624286Y-59967810D01*
X104624286Y-59824952D01*
X104671905Y-59634476D01*
X104719524Y-59539238D01*
X104814762Y-59444000D01*
X104957620Y-59396381D01*
X105052858Y-59396381D01*
X105195715Y-59444000D01*
X105243334Y-59491619D01*
X105719524Y-60396381D02*
X105910000Y-60396381D01*
X106005239Y-60348762D01*
X106052858Y-60301143D01*
X106148096Y-60158286D01*
X106195715Y-59967810D01*
X106195715Y-59586857D01*
X106148096Y-59491619D01*
X106100477Y-59444000D01*
X106005239Y-59396381D01*
X105814762Y-59396381D01*
X105719524Y-59444000D01*
X105671905Y-59491619D01*
X105624286Y-59586857D01*
X105624286Y-59824952D01*
X105671905Y-59920190D01*
X105719524Y-59967810D01*
X105814762Y-60015429D01*
X106005239Y-60015429D01*
X106100477Y-59967810D01*
X106148096Y-59920190D01*
X106195715Y-59824952D01*
X100195143Y-75541143D02*
X100147524Y-75588762D01*
X100004667Y-75636381D01*
X99909429Y-75636381D01*
X99766571Y-75588762D01*
X99671333Y-75493524D01*
X99623714Y-75398286D01*
X99576095Y-75207810D01*
X99576095Y-75064952D01*
X99623714Y-74874476D01*
X99671333Y-74779238D01*
X99766571Y-74684000D01*
X99909429Y-74636381D01*
X100004667Y-74636381D01*
X100147524Y-74684000D01*
X100195143Y-74731619D01*
X101147524Y-75636381D02*
X100576095Y-75636381D01*
X100861809Y-75636381D02*
X100861809Y-74636381D01*
X100766571Y-74779238D01*
X100671333Y-74874476D01*
X100576095Y-74922095D01*
X101766571Y-74636381D02*
X101861810Y-74636381D01*
X101957048Y-74684000D01*
X102004667Y-74731619D01*
X102052286Y-74826857D01*
X102099905Y-75017333D01*
X102099905Y-75255429D01*
X102052286Y-75445905D01*
X102004667Y-75541143D01*
X101957048Y-75588762D01*
X101861810Y-75636381D01*
X101766571Y-75636381D01*
X101671333Y-75588762D01*
X101623714Y-75541143D01*
X101576095Y-75445905D01*
X101528476Y-75255429D01*
X101528476Y-75017333D01*
X101576095Y-74826857D01*
X101623714Y-74731619D01*
X101671333Y-74684000D01*
X101766571Y-74636381D01*
X44823143Y-97131143D02*
X44775524Y-97178762D01*
X44632667Y-97226381D01*
X44537429Y-97226381D01*
X44394571Y-97178762D01*
X44299333Y-97083524D01*
X44251714Y-96988286D01*
X44204095Y-96797810D01*
X44204095Y-96654952D01*
X44251714Y-96464476D01*
X44299333Y-96369238D01*
X44394571Y-96274000D01*
X44537429Y-96226381D01*
X44632667Y-96226381D01*
X44775524Y-96274000D01*
X44823143Y-96321619D01*
X45775524Y-97226381D02*
X45204095Y-97226381D01*
X45489809Y-97226381D02*
X45489809Y-96226381D01*
X45394571Y-96369238D01*
X45299333Y-96464476D01*
X45204095Y-96512095D01*
X46727905Y-97226381D02*
X46156476Y-97226381D01*
X46442190Y-97226381D02*
X46442190Y-96226381D01*
X46346952Y-96369238D01*
X46251714Y-96464476D01*
X46156476Y-96512095D01*
X61587143Y-111355143D02*
X61539524Y-111402762D01*
X61396667Y-111450381D01*
X61301429Y-111450381D01*
X61158571Y-111402762D01*
X61063333Y-111307524D01*
X61015714Y-111212286D01*
X60968095Y-111021810D01*
X60968095Y-110878952D01*
X61015714Y-110688476D01*
X61063333Y-110593238D01*
X61158571Y-110498000D01*
X61301429Y-110450381D01*
X61396667Y-110450381D01*
X61539524Y-110498000D01*
X61587143Y-110545619D01*
X62539524Y-111450381D02*
X61968095Y-111450381D01*
X62253809Y-111450381D02*
X62253809Y-110450381D01*
X62158571Y-110593238D01*
X62063333Y-110688476D01*
X61968095Y-110736095D01*
X62920476Y-110545619D02*
X62968095Y-110498000D01*
X63063333Y-110450381D01*
X63301429Y-110450381D01*
X63396667Y-110498000D01*
X63444286Y-110545619D01*
X63491905Y-110640857D01*
X63491905Y-110736095D01*
X63444286Y-110878952D01*
X62872857Y-111450381D01*
X63491905Y-111450381D01*
X39743143Y-97131143D02*
X39695524Y-97178762D01*
X39552667Y-97226381D01*
X39457429Y-97226381D01*
X39314571Y-97178762D01*
X39219333Y-97083524D01*
X39171714Y-96988286D01*
X39124095Y-96797810D01*
X39124095Y-96654952D01*
X39171714Y-96464476D01*
X39219333Y-96369238D01*
X39314571Y-96274000D01*
X39457429Y-96226381D01*
X39552667Y-96226381D01*
X39695524Y-96274000D01*
X39743143Y-96321619D01*
X40695524Y-97226381D02*
X40124095Y-97226381D01*
X40409809Y-97226381D02*
X40409809Y-96226381D01*
X40314571Y-96369238D01*
X40219333Y-96464476D01*
X40124095Y-96512095D01*
X41028857Y-96226381D02*
X41647905Y-96226381D01*
X41314571Y-96607333D01*
X41457429Y-96607333D01*
X41552667Y-96654952D01*
X41600286Y-96702571D01*
X41647905Y-96797810D01*
X41647905Y-97035905D01*
X41600286Y-97131143D01*
X41552667Y-97178762D01*
X41457429Y-97226381D01*
X41171714Y-97226381D01*
X41076476Y-97178762D01*
X41028857Y-97131143D01*
X55491143Y-111355143D02*
X55443524Y-111402762D01*
X55300667Y-111450381D01*
X55205429Y-111450381D01*
X55062571Y-111402762D01*
X54967333Y-111307524D01*
X54919714Y-111212286D01*
X54872095Y-111021810D01*
X54872095Y-110878952D01*
X54919714Y-110688476D01*
X54967333Y-110593238D01*
X55062571Y-110498000D01*
X55205429Y-110450381D01*
X55300667Y-110450381D01*
X55443524Y-110498000D01*
X55491143Y-110545619D01*
X56443524Y-111450381D02*
X55872095Y-111450381D01*
X56157809Y-111450381D02*
X56157809Y-110450381D01*
X56062571Y-110593238D01*
X55967333Y-110688476D01*
X55872095Y-110736095D01*
X57300667Y-110783714D02*
X57300667Y-111450381D01*
X57062571Y-110402762D02*
X56824476Y-111117048D01*
X57443524Y-111117048D01*
X28471905Y-61221881D02*
X28471905Y-60221881D01*
X28710000Y-60221881D01*
X28852858Y-60269500D01*
X28948096Y-60364738D01*
X28995715Y-60459976D01*
X29043334Y-60650452D01*
X29043334Y-60793310D01*
X28995715Y-60983786D01*
X28948096Y-61079024D01*
X28852858Y-61174262D01*
X28710000Y-61221881D01*
X28471905Y-61221881D01*
X29995715Y-61221881D02*
X29424286Y-61221881D01*
X29710000Y-61221881D02*
X29710000Y-60221881D01*
X29614762Y-60364738D01*
X29519524Y-60459976D01*
X29424286Y-60507595D01*
X102306381Y-96242095D02*
X101306381Y-96242095D01*
X101306381Y-96004000D01*
X101354000Y-95861142D01*
X101449238Y-95765904D01*
X101544476Y-95718285D01*
X101734952Y-95670666D01*
X101877810Y-95670666D01*
X102068286Y-95718285D01*
X102163524Y-95765904D01*
X102258762Y-95861142D01*
X102306381Y-96004000D01*
X102306381Y-96242095D01*
X101401619Y-95289714D02*
X101354000Y-95242095D01*
X101306381Y-95146857D01*
X101306381Y-94908761D01*
X101354000Y-94813523D01*
X101401619Y-94765904D01*
X101496857Y-94718285D01*
X101592095Y-94718285D01*
X101734952Y-94765904D01*
X102306381Y-95337333D01*
X102306381Y-94718285D01*
X25677905Y-30678381D02*
X25677905Y-29678381D01*
X25916000Y-29678381D01*
X26058858Y-29726000D01*
X26154096Y-29821238D01*
X26201715Y-29916476D01*
X26249334Y-30106952D01*
X26249334Y-30249810D01*
X26201715Y-30440286D01*
X26154096Y-30535524D01*
X26058858Y-30630762D01*
X25916000Y-30678381D01*
X25677905Y-30678381D01*
X26582667Y-29678381D02*
X27201715Y-29678381D01*
X26868381Y-30059333D01*
X27011239Y-30059333D01*
X27106477Y-30106952D01*
X27154096Y-30154571D01*
X27201715Y-30249810D01*
X27201715Y-30487905D01*
X27154096Y-30583143D01*
X27106477Y-30630762D01*
X27011239Y-30678381D01*
X26725524Y-30678381D01*
X26630286Y-30630762D01*
X26582667Y-30583143D01*
X22034667Y-28646381D02*
X22034667Y-27646381D01*
X22415620Y-27646381D01*
X22510858Y-27694000D01*
X22558477Y-27741619D01*
X22606096Y-27836857D01*
X22606096Y-27979714D01*
X22558477Y-28074952D01*
X22510858Y-28122571D01*
X22415620Y-28170190D01*
X22034667Y-28170190D01*
X22939429Y-27646381D02*
X23177524Y-28646381D01*
X23368001Y-27932095D01*
X23558477Y-28646381D01*
X23796572Y-27646381D01*
X24748953Y-28646381D02*
X24415619Y-28170190D01*
X24177524Y-28646381D02*
X24177524Y-27646381D01*
X24558477Y-27646381D01*
X24653715Y-27694000D01*
X24701334Y-27741619D01*
X24748953Y-27836857D01*
X24748953Y-27979714D01*
X24701334Y-28074952D01*
X24653715Y-28122571D01*
X24558477Y-28170190D01*
X24177524Y-28170190D01*
X110259905Y-84907381D02*
X110259905Y-83907381D01*
X110498000Y-83907381D01*
X110640858Y-83955000D01*
X110736096Y-84050238D01*
X110783715Y-84145476D01*
X110831334Y-84335952D01*
X110831334Y-84478810D01*
X110783715Y-84669286D01*
X110736096Y-84764524D01*
X110640858Y-84859762D01*
X110498000Y-84907381D01*
X110259905Y-84907381D01*
X111688477Y-84240714D02*
X111688477Y-84907381D01*
X111450381Y-83859762D02*
X111212286Y-84574048D01*
X111831334Y-84574048D01*
X107783714Y-80931711D02*
X108117048Y-80931711D01*
X108259905Y-81455521D02*
X107783714Y-81455521D01*
X107783714Y-80455521D01*
X108259905Y-80455521D01*
X108688476Y-81455521D02*
X108688476Y-80455521D01*
X109259905Y-81455521D01*
X109259905Y-80455521D01*
X110307524Y-81360283D02*
X110259905Y-81407902D01*
X110117048Y-81455521D01*
X110021810Y-81455521D01*
X109878952Y-81407902D01*
X109783714Y-81312664D01*
X109736095Y-81217426D01*
X109688476Y-81026950D01*
X109688476Y-80884092D01*
X109736095Y-80693616D01*
X109783714Y-80598378D01*
X109878952Y-80503140D01*
X110021810Y-80455521D01*
X110117048Y-80455521D01*
X110259905Y-80503140D01*
X110307524Y-80550759D01*
X110926571Y-80455521D02*
X111117048Y-80455521D01*
X111212286Y-80503140D01*
X111307524Y-80598378D01*
X111355143Y-80788854D01*
X111355143Y-81122188D01*
X111307524Y-81312664D01*
X111212286Y-81407902D01*
X111117048Y-81455521D01*
X110926571Y-81455521D01*
X110831333Y-81407902D01*
X110736095Y-81312664D01*
X110688476Y-81122188D01*
X110688476Y-80788854D01*
X110736095Y-80598378D01*
X110831333Y-80503140D01*
X110926571Y-80455521D01*
X111783714Y-81455521D02*
X111783714Y-80455521D01*
X112021809Y-80455521D01*
X112164667Y-80503140D01*
X112259905Y-80598378D01*
X112307524Y-80693616D01*
X112355143Y-80884092D01*
X112355143Y-81026950D01*
X112307524Y-81217426D01*
X112259905Y-81312664D01*
X112164667Y-81407902D01*
X112021809Y-81455521D01*
X111783714Y-81455521D01*
X112783714Y-80931711D02*
X113117048Y-80931711D01*
X113259905Y-81455521D02*
X112783714Y-81455521D01*
X112783714Y-80455521D01*
X113259905Y-80455521D01*
X114259905Y-81455521D02*
X113926571Y-80979330D01*
X113688476Y-81455521D02*
X113688476Y-80455521D01*
X114069429Y-80455521D01*
X114164667Y-80503140D01*
X114212286Y-80550759D01*
X114259905Y-80645997D01*
X114259905Y-80788854D01*
X114212286Y-80884092D01*
X114164667Y-80931711D01*
X114069429Y-80979330D01*
X113688476Y-80979330D01*
X48537905Y-85288381D02*
X48537905Y-84288381D01*
X48776000Y-84288381D01*
X48918858Y-84336000D01*
X49014096Y-84431238D01*
X49061715Y-84526476D01*
X49109334Y-84716952D01*
X49109334Y-84859810D01*
X49061715Y-85050286D01*
X49014096Y-85145524D01*
X48918858Y-85240762D01*
X48776000Y-85288381D01*
X48537905Y-85288381D01*
X50014096Y-84288381D02*
X49537905Y-84288381D01*
X49490286Y-84764571D01*
X49537905Y-84716952D01*
X49633143Y-84669333D01*
X49871239Y-84669333D01*
X49966477Y-84716952D01*
X50014096Y-84764571D01*
X50061715Y-84859810D01*
X50061715Y-85097905D01*
X50014096Y-85193143D01*
X49966477Y-85240762D01*
X49871239Y-85288381D01*
X49633143Y-85288381D01*
X49537905Y-85240762D01*
X49490286Y-85193143D01*
X48633143Y-81614283D02*
X48585524Y-81661902D01*
X48442667Y-81709521D01*
X48347429Y-81709521D01*
X48204571Y-81661902D01*
X48109333Y-81566664D01*
X48061714Y-81471426D01*
X48014095Y-81280950D01*
X48014095Y-81138092D01*
X48061714Y-80947616D01*
X48109333Y-80852378D01*
X48204571Y-80757140D01*
X48347429Y-80709521D01*
X48442667Y-80709521D01*
X48585524Y-80757140D01*
X48633143Y-80804759D01*
X49014095Y-81423807D02*
X49490286Y-81423807D01*
X48918857Y-81709521D02*
X49252190Y-80709521D01*
X49585524Y-81709521D01*
X49918857Y-81709521D02*
X49918857Y-80709521D01*
X50490286Y-81709521D01*
X50490286Y-80709521D01*
X48283905Y-79573381D02*
X48283905Y-78573381D01*
X48522000Y-78573381D01*
X48664858Y-78621000D01*
X48760096Y-78716238D01*
X48807715Y-78811476D01*
X48855334Y-79001952D01*
X48855334Y-79144810D01*
X48807715Y-79335286D01*
X48760096Y-79430524D01*
X48664858Y-79525762D01*
X48522000Y-79573381D01*
X48283905Y-79573381D01*
X49712477Y-78573381D02*
X49522000Y-78573381D01*
X49426762Y-78621000D01*
X49379143Y-78668619D01*
X49283905Y-78811476D01*
X49236286Y-79001952D01*
X49236286Y-79382905D01*
X49283905Y-79478143D01*
X49331524Y-79525762D01*
X49426762Y-79573381D01*
X49617239Y-79573381D01*
X49712477Y-79525762D01*
X49760096Y-79478143D01*
X49807715Y-79382905D01*
X49807715Y-79144810D01*
X49760096Y-79049571D01*
X49712477Y-79001952D01*
X49617239Y-78954333D01*
X49426762Y-78954333D01*
X49331524Y-79001952D01*
X49283905Y-79049571D01*
X49236286Y-79144810D01*
X48260095Y-75121521D02*
X48831524Y-75121521D01*
X48545809Y-76121521D02*
X48545809Y-75121521D01*
X49069619Y-75121521D02*
X49736286Y-76121521D01*
X49736286Y-75121521D02*
X49069619Y-76121521D01*
X48283905Y-73985381D02*
X48283905Y-72985381D01*
X48522000Y-72985381D01*
X48664858Y-73033000D01*
X48760096Y-73128238D01*
X48807715Y-73223476D01*
X48855334Y-73413952D01*
X48855334Y-73556810D01*
X48807715Y-73747286D01*
X48760096Y-73842524D01*
X48664858Y-73937762D01*
X48522000Y-73985381D01*
X48283905Y-73985381D01*
X49188667Y-72985381D02*
X49855334Y-72985381D01*
X49426762Y-73985381D01*
X48855334Y-70533521D02*
X48522000Y-70057330D01*
X48283905Y-70533521D02*
X48283905Y-69533521D01*
X48664858Y-69533521D01*
X48760096Y-69581140D01*
X48807715Y-69628759D01*
X48855334Y-69723997D01*
X48855334Y-69866854D01*
X48807715Y-69962092D01*
X48760096Y-70009711D01*
X48664858Y-70057330D01*
X48283905Y-70057330D01*
X49188667Y-69533521D02*
X49855334Y-70533521D01*
X49855334Y-69533521D02*
X49188667Y-70533521D01*
X68785714Y-35451121D02*
X68785714Y-34451121D01*
X69023809Y-34451121D01*
X69166667Y-34498740D01*
X69261905Y-34593978D01*
X69309524Y-34689216D01*
X69357143Y-34879692D01*
X69357143Y-35022550D01*
X69309524Y-35213026D01*
X69261905Y-35308264D01*
X69166667Y-35403502D01*
X69023809Y-35451121D01*
X68785714Y-35451121D01*
X69738095Y-35403502D02*
X69880952Y-35451121D01*
X70119048Y-35451121D01*
X70214286Y-35403502D01*
X70261905Y-35355883D01*
X70309524Y-35260645D01*
X70309524Y-35165407D01*
X70261905Y-35070169D01*
X70214286Y-35022550D01*
X70119048Y-34974930D01*
X69928571Y-34927311D01*
X69833333Y-34879692D01*
X69785714Y-34832073D01*
X69738095Y-34736835D01*
X69738095Y-34641597D01*
X69785714Y-34546359D01*
X69833333Y-34498740D01*
X69928571Y-34451121D01*
X70166667Y-34451121D01*
X70309524Y-34498740D01*
X71261905Y-35451121D02*
X70690476Y-35451121D01*
X70976190Y-35451121D02*
X70976190Y-34451121D01*
X70880952Y-34593978D01*
X70785714Y-34689216D01*
X70690476Y-34736835D01*
X64904762Y-45453641D02*
X64428571Y-45453641D01*
X64428571Y-44453641D01*
X65809524Y-45358403D02*
X65761905Y-45406022D01*
X65619048Y-45453641D01*
X65523810Y-45453641D01*
X65380952Y-45406022D01*
X65285714Y-45310784D01*
X65238095Y-45215546D01*
X65190476Y-45025070D01*
X65190476Y-44882212D01*
X65238095Y-44691736D01*
X65285714Y-44596498D01*
X65380952Y-44501260D01*
X65523810Y-44453641D01*
X65619048Y-44453641D01*
X65761905Y-44501260D01*
X65809524Y-44548879D01*
X66238095Y-45453641D02*
X66238095Y-44453641D01*
X66476190Y-44453641D01*
X66619048Y-44501260D01*
X66714286Y-44596498D01*
X66761905Y-44691736D01*
X66809524Y-44882212D01*
X66809524Y-45025070D01*
X66761905Y-45215546D01*
X66714286Y-45310784D01*
X66619048Y-45406022D01*
X66476190Y-45453641D01*
X66238095Y-45453641D01*
X67238095Y-45072689D02*
X68000000Y-45072689D01*
X68666666Y-44453641D02*
X68761905Y-44453641D01*
X68857143Y-44501260D01*
X68904762Y-44548879D01*
X68952381Y-44644117D01*
X69000000Y-44834593D01*
X69000000Y-45072689D01*
X68952381Y-45263165D01*
X68904762Y-45358403D01*
X68857143Y-45406022D01*
X68761905Y-45453641D01*
X68666666Y-45453641D01*
X68571428Y-45406022D01*
X68523809Y-45358403D01*
X68476190Y-45263165D01*
X68428571Y-45072689D01*
X68428571Y-44834593D01*
X68476190Y-44644117D01*
X68523809Y-44548879D01*
X68571428Y-44501260D01*
X68666666Y-44453641D01*
X69952381Y-45453641D02*
X69380952Y-45453641D01*
X69666666Y-45453641D02*
X69666666Y-44453641D01*
X69571428Y-44596498D01*
X69476190Y-44691736D01*
X69380952Y-44739355D01*
X70809524Y-44453641D02*
X70619047Y-44453641D01*
X70523809Y-44501260D01*
X70476190Y-44548879D01*
X70380952Y-44691736D01*
X70333333Y-44882212D01*
X70333333Y-45263165D01*
X70380952Y-45358403D01*
X70428571Y-45406022D01*
X70523809Y-45453641D01*
X70714286Y-45453641D01*
X70809524Y-45406022D01*
X70857143Y-45358403D01*
X70904762Y-45263165D01*
X70904762Y-45025070D01*
X70857143Y-44929831D01*
X70809524Y-44882212D01*
X70714286Y-44834593D01*
X70523809Y-44834593D01*
X70428571Y-44882212D01*
X70380952Y-44929831D01*
X70333333Y-45025070D01*
X71333333Y-45453641D02*
X71333333Y-44453641D01*
X71904762Y-45453641D01*
X71904762Y-44453641D01*
X72571428Y-44453641D02*
X72666667Y-44453641D01*
X72761905Y-44501260D01*
X72809524Y-44548879D01*
X72857143Y-44644117D01*
X72904762Y-44834593D01*
X72904762Y-45072689D01*
X72857143Y-45263165D01*
X72809524Y-45358403D01*
X72761905Y-45406022D01*
X72666667Y-45453641D01*
X72571428Y-45453641D01*
X72476190Y-45406022D01*
X72428571Y-45358403D01*
X72380952Y-45263165D01*
X72333333Y-45072689D01*
X72333333Y-44834593D01*
X72380952Y-44644117D01*
X72428571Y-44548879D01*
X72476190Y-44501260D01*
X72571428Y-44453641D01*
X73523809Y-44453641D02*
X73619048Y-44453641D01*
X73714286Y-44501260D01*
X73761905Y-44548879D01*
X73809524Y-44644117D01*
X73857143Y-44834593D01*
X73857143Y-45072689D01*
X73809524Y-45263165D01*
X73761905Y-45358403D01*
X73714286Y-45406022D01*
X73619048Y-45453641D01*
X73523809Y-45453641D01*
X73428571Y-45406022D01*
X73380952Y-45358403D01*
X73333333Y-45263165D01*
X73285714Y-45072689D01*
X73285714Y-44834593D01*
X73333333Y-44644117D01*
X73380952Y-44548879D01*
X73428571Y-44501260D01*
X73523809Y-44453641D01*
X74238095Y-44548879D02*
X74285714Y-44501260D01*
X74380952Y-44453641D01*
X74619048Y-44453641D01*
X74714286Y-44501260D01*
X74761905Y-44548879D01*
X74809524Y-44644117D01*
X74809524Y-44739355D01*
X74761905Y-44882212D01*
X74190476Y-45453641D01*
X74809524Y-45453641D01*
X75714286Y-45453641D02*
X75238095Y-45453641D01*
X75238095Y-44453641D01*
X103552667Y-105878381D02*
X103552667Y-106592667D01*
X103505047Y-106735524D01*
X103409809Y-106830762D01*
X103266952Y-106878381D01*
X103171714Y-106878381D01*
X103981238Y-105973619D02*
X104028857Y-105926000D01*
X104124095Y-105878381D01*
X104362191Y-105878381D01*
X104457429Y-105926000D01*
X104505048Y-105973619D01*
X104552667Y-106068857D01*
X104552667Y-106164095D01*
X104505048Y-106306952D01*
X103933619Y-106878381D01*
X104552667Y-106878381D01*
X91781714Y-118604571D02*
X92115048Y-118604571D01*
X92257905Y-119128381D02*
X91781714Y-119128381D01*
X91781714Y-118128381D01*
X92257905Y-118128381D01*
X92686476Y-119128381D02*
X92686476Y-118128381D01*
X93257905Y-119128381D01*
X93257905Y-118128381D01*
X94305524Y-119033143D02*
X94257905Y-119080762D01*
X94115048Y-119128381D01*
X94019810Y-119128381D01*
X93876952Y-119080762D01*
X93781714Y-118985524D01*
X93734095Y-118890286D01*
X93686476Y-118699810D01*
X93686476Y-118556952D01*
X93734095Y-118366476D01*
X93781714Y-118271238D01*
X93876952Y-118176000D01*
X94019810Y-118128381D01*
X94115048Y-118128381D01*
X94257905Y-118176000D01*
X94305524Y-118223619D01*
X94924571Y-118128381D02*
X95115048Y-118128381D01*
X95210286Y-118176000D01*
X95305524Y-118271238D01*
X95353143Y-118461714D01*
X95353143Y-118795048D01*
X95305524Y-118985524D01*
X95210286Y-119080762D01*
X95115048Y-119128381D01*
X94924571Y-119128381D01*
X94829333Y-119080762D01*
X94734095Y-118985524D01*
X94686476Y-118795048D01*
X94686476Y-118461714D01*
X94734095Y-118271238D01*
X94829333Y-118176000D01*
X94924571Y-118128381D01*
X95781714Y-119128381D02*
X95781714Y-118128381D01*
X96019809Y-118128381D01*
X96162667Y-118176000D01*
X96257905Y-118271238D01*
X96305524Y-118366476D01*
X96353143Y-118556952D01*
X96353143Y-118699810D01*
X96305524Y-118890286D01*
X96257905Y-118985524D01*
X96162667Y-119080762D01*
X96019809Y-119128381D01*
X95781714Y-119128381D01*
X96781714Y-118604571D02*
X97115048Y-118604571D01*
X97257905Y-119128381D02*
X96781714Y-119128381D01*
X96781714Y-118128381D01*
X97257905Y-118128381D01*
X98257905Y-119128381D02*
X97924571Y-118652190D01*
X97686476Y-119128381D02*
X97686476Y-118128381D01*
X98067429Y-118128381D01*
X98162667Y-118176000D01*
X98210286Y-118223619D01*
X98257905Y-118318857D01*
X98257905Y-118461714D01*
X98210286Y-118556952D01*
X98162667Y-118604571D01*
X98067429Y-118652190D01*
X97686476Y-118652190D01*
X65452667Y-59904381D02*
X65452667Y-60618667D01*
X65405047Y-60761524D01*
X65309809Y-60856762D01*
X65166952Y-60904381D01*
X65071714Y-60904381D01*
X65833619Y-59904381D02*
X66452667Y-59904381D01*
X66119333Y-60285333D01*
X66262191Y-60285333D01*
X66357429Y-60332952D01*
X66405048Y-60380571D01*
X66452667Y-60475810D01*
X66452667Y-60713905D01*
X66405048Y-60809143D01*
X66357429Y-60856762D01*
X66262191Y-60904381D01*
X65976476Y-60904381D01*
X65881238Y-60856762D01*
X65833619Y-60809143D01*
X47418667Y-105624381D02*
X47418667Y-106338667D01*
X47371047Y-106481524D01*
X47275809Y-106576762D01*
X47132952Y-106624381D01*
X47037714Y-106624381D01*
X48323429Y-105957714D02*
X48323429Y-106624381D01*
X48085333Y-105576762D02*
X47847238Y-106291048D01*
X48466286Y-106291048D01*
X42537143Y-118525143D02*
X42489524Y-118572762D01*
X42346667Y-118620381D01*
X42251429Y-118620381D01*
X42108571Y-118572762D01*
X42013333Y-118477524D01*
X41965714Y-118382286D01*
X41918095Y-118191810D01*
X41918095Y-118048952D01*
X41965714Y-117858476D01*
X42013333Y-117763238D01*
X42108571Y-117668000D01*
X42251429Y-117620381D01*
X42346667Y-117620381D01*
X42489524Y-117668000D01*
X42537143Y-117715619D01*
X42918095Y-118334667D02*
X43394286Y-118334667D01*
X42822857Y-118620381D02*
X43156190Y-117620381D01*
X43489524Y-118620381D01*
X43822857Y-118620381D02*
X43822857Y-117620381D01*
X44394286Y-118620381D01*
X44394286Y-117620381D01*
X106076762Y-91987619D02*
X105981524Y-91940000D01*
X105886286Y-91844762D01*
X105743429Y-91701905D01*
X105648190Y-91654286D01*
X105552952Y-91654286D01*
X105600571Y-91892381D02*
X105505333Y-91844762D01*
X105410095Y-91749524D01*
X105362476Y-91559048D01*
X105362476Y-91225714D01*
X105410095Y-91035238D01*
X105505333Y-90940000D01*
X105600571Y-90892381D01*
X105791048Y-90892381D01*
X105886286Y-90940000D01*
X105981524Y-91035238D01*
X106029143Y-91225714D01*
X106029143Y-91559048D01*
X105981524Y-91749524D01*
X105886286Y-91844762D01*
X105791048Y-91892381D01*
X105600571Y-91892381D01*
X106981524Y-91892381D02*
X106410095Y-91892381D01*
X106695809Y-91892381D02*
X106695809Y-90892381D01*
X106600571Y-91035238D01*
X106505333Y-91130476D01*
X106410095Y-91178095D01*
X87534762Y-89447619D02*
X87439524Y-89400000D01*
X87344286Y-89304762D01*
X87201429Y-89161905D01*
X87106190Y-89114286D01*
X87010952Y-89114286D01*
X87058571Y-89352381D02*
X86963333Y-89304762D01*
X86868095Y-89209524D01*
X86820476Y-89019048D01*
X86820476Y-88685714D01*
X86868095Y-88495238D01*
X86963333Y-88400000D01*
X87058571Y-88352381D01*
X87249048Y-88352381D01*
X87344286Y-88400000D01*
X87439524Y-88495238D01*
X87487143Y-88685714D01*
X87487143Y-89019048D01*
X87439524Y-89209524D01*
X87344286Y-89304762D01*
X87249048Y-89352381D01*
X87058571Y-89352381D01*
X87868095Y-88447619D02*
X87915714Y-88400000D01*
X88010952Y-88352381D01*
X88249048Y-88352381D01*
X88344286Y-88400000D01*
X88391905Y-88447619D01*
X88439524Y-88542857D01*
X88439524Y-88638095D01*
X88391905Y-88780952D01*
X87820476Y-89352381D01*
X88439524Y-89352381D01*
X76287334Y-60396381D02*
X75954000Y-59920190D01*
X75715905Y-60396381D02*
X75715905Y-59396381D01*
X76096858Y-59396381D01*
X76192096Y-59444000D01*
X76239715Y-59491619D01*
X76287334Y-59586857D01*
X76287334Y-59729714D01*
X76239715Y-59824952D01*
X76192096Y-59872571D01*
X76096858Y-59920190D01*
X75715905Y-59920190D01*
X77239715Y-60396381D02*
X76668286Y-60396381D01*
X76954000Y-60396381D02*
X76954000Y-59396381D01*
X76858762Y-59539238D01*
X76763524Y-59634476D01*
X76668286Y-59682095D01*
X74001334Y-60396381D02*
X73668000Y-59920190D01*
X73429905Y-60396381D02*
X73429905Y-59396381D01*
X73810858Y-59396381D01*
X73906096Y-59444000D01*
X73953715Y-59491619D01*
X74001334Y-59586857D01*
X74001334Y-59729714D01*
X73953715Y-59824952D01*
X73906096Y-59872571D01*
X73810858Y-59920190D01*
X73429905Y-59920190D01*
X74382286Y-59491619D02*
X74429905Y-59444000D01*
X74525143Y-59396381D01*
X74763239Y-59396381D01*
X74858477Y-59444000D01*
X74906096Y-59491619D01*
X74953715Y-59586857D01*
X74953715Y-59682095D01*
X74906096Y-59824952D01*
X74334667Y-60396381D01*
X74953715Y-60396381D01*
X101179334Y-86050381D02*
X100846000Y-85574190D01*
X100607905Y-86050381D02*
X100607905Y-85050381D01*
X100988858Y-85050381D01*
X101084096Y-85098000D01*
X101131715Y-85145619D01*
X101179334Y-85240857D01*
X101179334Y-85383714D01*
X101131715Y-85478952D01*
X101084096Y-85526571D01*
X100988858Y-85574190D01*
X100607905Y-85574190D01*
X101512667Y-85050381D02*
X102131715Y-85050381D01*
X101798381Y-85431333D01*
X101941239Y-85431333D01*
X102036477Y-85478952D01*
X102084096Y-85526571D01*
X102131715Y-85621810D01*
X102131715Y-85859905D01*
X102084096Y-85955143D01*
X102036477Y-86002762D01*
X101941239Y-86050381D01*
X101655524Y-86050381D01*
X101560286Y-86002762D01*
X101512667Y-85955143D01*
X98639334Y-90368381D02*
X98306000Y-89892190D01*
X98067905Y-90368381D02*
X98067905Y-89368381D01*
X98448858Y-89368381D01*
X98544096Y-89416000D01*
X98591715Y-89463619D01*
X98639334Y-89558857D01*
X98639334Y-89701714D01*
X98591715Y-89796952D01*
X98544096Y-89844571D01*
X98448858Y-89892190D01*
X98067905Y-89892190D01*
X99496477Y-89701714D02*
X99496477Y-90368381D01*
X99258381Y-89320762D02*
X99020286Y-90035048D01*
X99639334Y-90035048D01*
X24217334Y-34742381D02*
X23884000Y-34266190D01*
X23645905Y-34742381D02*
X23645905Y-33742381D01*
X24026858Y-33742381D01*
X24122096Y-33790000D01*
X24169715Y-33837619D01*
X24217334Y-33932857D01*
X24217334Y-34075714D01*
X24169715Y-34170952D01*
X24122096Y-34218571D01*
X24026858Y-34266190D01*
X23645905Y-34266190D01*
X25122096Y-33742381D02*
X24645905Y-33742381D01*
X24598286Y-34218571D01*
X24645905Y-34170952D01*
X24741143Y-34123333D01*
X24979239Y-34123333D01*
X25074477Y-34170952D01*
X25122096Y-34218571D01*
X25169715Y-34313810D01*
X25169715Y-34551905D01*
X25122096Y-34647143D01*
X25074477Y-34694762D01*
X24979239Y-34742381D01*
X24741143Y-34742381D01*
X24645905Y-34694762D01*
X24598286Y-34647143D01*
X117038381Y-85510666D02*
X116562190Y-85844000D01*
X117038381Y-86082095D02*
X116038381Y-86082095D01*
X116038381Y-85701142D01*
X116086000Y-85605904D01*
X116133619Y-85558285D01*
X116228857Y-85510666D01*
X116371714Y-85510666D01*
X116466952Y-85558285D01*
X116514571Y-85605904D01*
X116562190Y-85701142D01*
X116562190Y-86082095D01*
X116038381Y-85177333D02*
X116038381Y-84510666D01*
X117038381Y-84939238D01*
X48966381Y-102528666D02*
X48490190Y-102862000D01*
X48966381Y-103100095D02*
X47966381Y-103100095D01*
X47966381Y-102719142D01*
X48014000Y-102623904D01*
X48061619Y-102576285D01*
X48156857Y-102528666D01*
X48299714Y-102528666D01*
X48394952Y-102576285D01*
X48442571Y-102623904D01*
X48490190Y-102719142D01*
X48490190Y-103100095D01*
X48394952Y-101957238D02*
X48347333Y-102052476D01*
X48299714Y-102100095D01*
X48204476Y-102147714D01*
X48156857Y-102147714D01*
X48061619Y-102100095D01*
X48014000Y-102052476D01*
X47966381Y-101957238D01*
X47966381Y-101766761D01*
X48014000Y-101671523D01*
X48061619Y-101623904D01*
X48156857Y-101576285D01*
X48204476Y-101576285D01*
X48299714Y-101623904D01*
X48347333Y-101671523D01*
X48394952Y-101766761D01*
X48394952Y-101957238D01*
X48442571Y-102052476D01*
X48490190Y-102100095D01*
X48585429Y-102147714D01*
X48775905Y-102147714D01*
X48871143Y-102100095D01*
X48918762Y-102052476D01*
X48966381Y-101957238D01*
X48966381Y-101766761D01*
X48918762Y-101671523D01*
X48871143Y-101623904D01*
X48775905Y-101576285D01*
X48585429Y-101576285D01*
X48490190Y-101623904D01*
X48442571Y-101671523D01*
X48394952Y-101766761D01*
X37790381Y-102528666D02*
X37314190Y-102862000D01*
X37790381Y-103100095D02*
X36790381Y-103100095D01*
X36790381Y-102719142D01*
X36838000Y-102623904D01*
X36885619Y-102576285D01*
X36980857Y-102528666D01*
X37123714Y-102528666D01*
X37218952Y-102576285D01*
X37266571Y-102623904D01*
X37314190Y-102719142D01*
X37314190Y-103100095D01*
X37790381Y-102052476D02*
X37790381Y-101862000D01*
X37742762Y-101766761D01*
X37695143Y-101719142D01*
X37552286Y-101623904D01*
X37361810Y-101576285D01*
X36980857Y-101576285D01*
X36885619Y-101623904D01*
X36838000Y-101671523D01*
X36790381Y-101766761D01*
X36790381Y-101957238D01*
X36838000Y-102052476D01*
X36885619Y-102100095D01*
X36980857Y-102147714D01*
X37218952Y-102147714D01*
X37314190Y-102100095D01*
X37361810Y-102052476D01*
X37409429Y-101957238D01*
X37409429Y-101766761D01*
X37361810Y-101671523D01*
X37314190Y-101623904D01*
X37218952Y-101576285D01*
X91384381Y-88018857D02*
X90908190Y-88352191D01*
X91384381Y-88590286D02*
X90384381Y-88590286D01*
X90384381Y-88209333D01*
X90432000Y-88114095D01*
X90479619Y-88066476D01*
X90574857Y-88018857D01*
X90717714Y-88018857D01*
X90812952Y-88066476D01*
X90860571Y-88114095D01*
X90908190Y-88209333D01*
X90908190Y-88590286D01*
X91384381Y-87066476D02*
X91384381Y-87637905D01*
X91384381Y-87352191D02*
X90384381Y-87352191D01*
X90527238Y-87447429D01*
X90622476Y-87542667D01*
X90670095Y-87637905D01*
X90384381Y-86447429D02*
X90384381Y-86352190D01*
X90432000Y-86256952D01*
X90479619Y-86209333D01*
X90574857Y-86161714D01*
X90765333Y-86114095D01*
X91003429Y-86114095D01*
X91193905Y-86161714D01*
X91289143Y-86209333D01*
X91336762Y-86256952D01*
X91384381Y-86352190D01*
X91384381Y-86447429D01*
X91336762Y-86542667D01*
X91289143Y-86590286D01*
X91193905Y-86637905D01*
X91003429Y-86685524D01*
X90765333Y-86685524D01*
X90574857Y-86637905D01*
X90479619Y-86590286D01*
X90432000Y-86542667D01*
X90384381Y-86447429D01*
X84780381Y-88780857D02*
X84304190Y-89114191D01*
X84780381Y-89352286D02*
X83780381Y-89352286D01*
X83780381Y-88971333D01*
X83828000Y-88876095D01*
X83875619Y-88828476D01*
X83970857Y-88780857D01*
X84113714Y-88780857D01*
X84208952Y-88828476D01*
X84256571Y-88876095D01*
X84304190Y-88971333D01*
X84304190Y-89352286D01*
X84780381Y-87828476D02*
X84780381Y-88399905D01*
X84780381Y-88114191D02*
X83780381Y-88114191D01*
X83923238Y-88209429D01*
X84018476Y-88304667D01*
X84066095Y-88399905D01*
X84780381Y-86876095D02*
X84780381Y-87447524D01*
X84780381Y-87161810D02*
X83780381Y-87161810D01*
X83923238Y-87257048D01*
X84018476Y-87352286D01*
X84066095Y-87447524D01*
X52951143Y-85288381D02*
X52617809Y-84812190D01*
X52379714Y-85288381D02*
X52379714Y-84288381D01*
X52760667Y-84288381D01*
X52855905Y-84336000D01*
X52903524Y-84383619D01*
X52951143Y-84478857D01*
X52951143Y-84621714D01*
X52903524Y-84716952D01*
X52855905Y-84764571D01*
X52760667Y-84812190D01*
X52379714Y-84812190D01*
X53903524Y-85288381D02*
X53332095Y-85288381D01*
X53617809Y-85288381D02*
X53617809Y-84288381D01*
X53522571Y-84431238D01*
X53427333Y-84526476D01*
X53332095Y-84574095D01*
X54284476Y-84383619D02*
X54332095Y-84336000D01*
X54427333Y-84288381D01*
X54665429Y-84288381D01*
X54760667Y-84336000D01*
X54808286Y-84383619D01*
X54855905Y-84478857D01*
X54855905Y-84574095D01*
X54808286Y-84716952D01*
X54236857Y-85288381D01*
X54855905Y-85288381D01*
X95448381Y-88018857D02*
X94972190Y-88352191D01*
X95448381Y-88590286D02*
X94448381Y-88590286D01*
X94448381Y-88209333D01*
X94496000Y-88114095D01*
X94543619Y-88066476D01*
X94638857Y-88018857D01*
X94781714Y-88018857D01*
X94876952Y-88066476D01*
X94924571Y-88114095D01*
X94972190Y-88209333D01*
X94972190Y-88590286D01*
X95448381Y-87066476D02*
X95448381Y-87637905D01*
X95448381Y-87352191D02*
X94448381Y-87352191D01*
X94591238Y-87447429D01*
X94686476Y-87542667D01*
X94734095Y-87637905D01*
X94448381Y-86733143D02*
X94448381Y-86114095D01*
X94829333Y-86447429D01*
X94829333Y-86304571D01*
X94876952Y-86209333D01*
X94924571Y-86161714D01*
X95019810Y-86114095D01*
X95257905Y-86114095D01*
X95353143Y-86161714D01*
X95400762Y-86209333D01*
X95448381Y-86304571D01*
X95448381Y-86590286D01*
X95400762Y-86685524D01*
X95353143Y-86733143D01*
X93416381Y-88018857D02*
X92940190Y-88352191D01*
X93416381Y-88590286D02*
X92416381Y-88590286D01*
X92416381Y-88209333D01*
X92464000Y-88114095D01*
X92511619Y-88066476D01*
X92606857Y-88018857D01*
X92749714Y-88018857D01*
X92844952Y-88066476D01*
X92892571Y-88114095D01*
X92940190Y-88209333D01*
X92940190Y-88590286D01*
X93416381Y-87066476D02*
X93416381Y-87637905D01*
X93416381Y-87352191D02*
X92416381Y-87352191D01*
X92559238Y-87447429D01*
X92654476Y-87542667D01*
X92702095Y-87637905D01*
X92749714Y-86209333D02*
X93416381Y-86209333D01*
X92368762Y-86447429D02*
X93083048Y-86685524D01*
X93083048Y-86066476D01*
X52951143Y-79700381D02*
X52617809Y-79224190D01*
X52379714Y-79700381D02*
X52379714Y-78700381D01*
X52760667Y-78700381D01*
X52855905Y-78748000D01*
X52903524Y-78795619D01*
X52951143Y-78890857D01*
X52951143Y-79033714D01*
X52903524Y-79128952D01*
X52855905Y-79176571D01*
X52760667Y-79224190D01*
X52379714Y-79224190D01*
X53903524Y-79700381D02*
X53332095Y-79700381D01*
X53617809Y-79700381D02*
X53617809Y-78700381D01*
X53522571Y-78843238D01*
X53427333Y-78938476D01*
X53332095Y-78986095D01*
X54808286Y-78700381D02*
X54332095Y-78700381D01*
X54284476Y-79176571D01*
X54332095Y-79128952D01*
X54427333Y-79081333D01*
X54665429Y-79081333D01*
X54760667Y-79128952D01*
X54808286Y-79176571D01*
X54855905Y-79271810D01*
X54855905Y-79509905D01*
X54808286Y-79605143D01*
X54760667Y-79652762D01*
X54665429Y-79700381D01*
X54427333Y-79700381D01*
X54332095Y-79652762D01*
X54284476Y-79605143D01*
X52951143Y-73858381D02*
X52617809Y-73382190D01*
X52379714Y-73858381D02*
X52379714Y-72858381D01*
X52760667Y-72858381D01*
X52855905Y-72906000D01*
X52903524Y-72953619D01*
X52951143Y-73048857D01*
X52951143Y-73191714D01*
X52903524Y-73286952D01*
X52855905Y-73334571D01*
X52760667Y-73382190D01*
X52379714Y-73382190D01*
X53903524Y-73858381D02*
X53332095Y-73858381D01*
X53617809Y-73858381D02*
X53617809Y-72858381D01*
X53522571Y-73001238D01*
X53427333Y-73096476D01*
X53332095Y-73144095D01*
X54760667Y-72858381D02*
X54570190Y-72858381D01*
X54474952Y-72906000D01*
X54427333Y-72953619D01*
X54332095Y-73096476D01*
X54284476Y-73286952D01*
X54284476Y-73667905D01*
X54332095Y-73763143D01*
X54379714Y-73810762D01*
X54474952Y-73858381D01*
X54665429Y-73858381D01*
X54760667Y-73810762D01*
X54808286Y-73763143D01*
X54855905Y-73667905D01*
X54855905Y-73429810D01*
X54808286Y-73334571D01*
X54760667Y-73286952D01*
X54665429Y-73239333D01*
X54474952Y-73239333D01*
X54379714Y-73286952D01*
X54332095Y-73334571D01*
X54284476Y-73429810D01*
X44315143Y-92908381D02*
X43981809Y-92432190D01*
X43743714Y-92908381D02*
X43743714Y-91908381D01*
X44124667Y-91908381D01*
X44219905Y-91956000D01*
X44267524Y-92003619D01*
X44315143Y-92098857D01*
X44315143Y-92241714D01*
X44267524Y-92336952D01*
X44219905Y-92384571D01*
X44124667Y-92432190D01*
X43743714Y-92432190D01*
X45267524Y-92908381D02*
X44696095Y-92908381D01*
X44981809Y-92908381D02*
X44981809Y-91908381D01*
X44886571Y-92051238D01*
X44791333Y-92146476D01*
X44696095Y-92194095D01*
X45600857Y-91908381D02*
X46267524Y-91908381D01*
X45838952Y-92908381D01*
X84780381Y-105290857D02*
X84304190Y-105624191D01*
X84780381Y-105862286D02*
X83780381Y-105862286D01*
X83780381Y-105481333D01*
X83828000Y-105386095D01*
X83875619Y-105338476D01*
X83970857Y-105290857D01*
X84113714Y-105290857D01*
X84208952Y-105338476D01*
X84256571Y-105386095D01*
X84304190Y-105481333D01*
X84304190Y-105862286D01*
X84780381Y-104338476D02*
X84780381Y-104909905D01*
X84780381Y-104624191D02*
X83780381Y-104624191D01*
X83923238Y-104719429D01*
X84018476Y-104814667D01*
X84066095Y-104909905D01*
X84208952Y-103767048D02*
X84161333Y-103862286D01*
X84113714Y-103909905D01*
X84018476Y-103957524D01*
X83970857Y-103957524D01*
X83875619Y-103909905D01*
X83828000Y-103862286D01*
X83780381Y-103767048D01*
X83780381Y-103576571D01*
X83828000Y-103481333D01*
X83875619Y-103433714D01*
X83970857Y-103386095D01*
X84018476Y-103386095D01*
X84113714Y-103433714D01*
X84161333Y-103481333D01*
X84208952Y-103576571D01*
X84208952Y-103767048D01*
X84256571Y-103862286D01*
X84304190Y-103909905D01*
X84399429Y-103957524D01*
X84589905Y-103957524D01*
X84685143Y-103909905D01*
X84732762Y-103862286D01*
X84780381Y-103767048D01*
X84780381Y-103576571D01*
X84732762Y-103481333D01*
X84685143Y-103433714D01*
X84589905Y-103386095D01*
X84399429Y-103386095D01*
X84304190Y-103433714D01*
X84256571Y-103481333D01*
X84208952Y-103576571D01*
X88511143Y-104592381D02*
X88177809Y-104116190D01*
X87939714Y-104592381D02*
X87939714Y-103592381D01*
X88320667Y-103592381D01*
X88415905Y-103640000D01*
X88463524Y-103687619D01*
X88511143Y-103782857D01*
X88511143Y-103925714D01*
X88463524Y-104020952D01*
X88415905Y-104068571D01*
X88320667Y-104116190D01*
X87939714Y-104116190D01*
X89463524Y-104592381D02*
X88892095Y-104592381D01*
X89177809Y-104592381D02*
X89177809Y-103592381D01*
X89082571Y-103735238D01*
X88987333Y-103830476D01*
X88892095Y-103878095D01*
X89939714Y-104592381D02*
X90130190Y-104592381D01*
X90225429Y-104544762D01*
X90273048Y-104497143D01*
X90368286Y-104354286D01*
X90415905Y-104163810D01*
X90415905Y-103782857D01*
X90368286Y-103687619D01*
X90320667Y-103640000D01*
X90225429Y-103592381D01*
X90034952Y-103592381D01*
X89939714Y-103640000D01*
X89892095Y-103687619D01*
X89844476Y-103782857D01*
X89844476Y-104020952D01*
X89892095Y-104116190D01*
X89939714Y-104163810D01*
X90034952Y-104211429D01*
X90225429Y-104211429D01*
X90320667Y-104163810D01*
X90368286Y-104116190D01*
X90415905Y-104020952D01*
X94686381Y-105290857D02*
X94210190Y-105624191D01*
X94686381Y-105862286D02*
X93686381Y-105862286D01*
X93686381Y-105481333D01*
X93734000Y-105386095D01*
X93781619Y-105338476D01*
X93876857Y-105290857D01*
X94019714Y-105290857D01*
X94114952Y-105338476D01*
X94162571Y-105386095D01*
X94210190Y-105481333D01*
X94210190Y-105862286D01*
X93781619Y-104909905D02*
X93734000Y-104862286D01*
X93686381Y-104767048D01*
X93686381Y-104528952D01*
X93734000Y-104433714D01*
X93781619Y-104386095D01*
X93876857Y-104338476D01*
X93972095Y-104338476D01*
X94114952Y-104386095D01*
X94686381Y-104957524D01*
X94686381Y-104338476D01*
X93686381Y-103719429D02*
X93686381Y-103624190D01*
X93734000Y-103528952D01*
X93781619Y-103481333D01*
X93876857Y-103433714D01*
X94067333Y-103386095D01*
X94305429Y-103386095D01*
X94495905Y-103433714D01*
X94591143Y-103481333D01*
X94638762Y-103528952D01*
X94686381Y-103624190D01*
X94686381Y-103719429D01*
X94638762Y-103814667D01*
X94591143Y-103862286D01*
X94495905Y-103909905D01*
X94305429Y-103957524D01*
X94067333Y-103957524D01*
X93876857Y-103909905D01*
X93781619Y-103862286D01*
X93734000Y-103814667D01*
X93686381Y-103719429D01*
X98210762Y-59888381D02*
X97877428Y-59412190D01*
X97639333Y-59888381D02*
X97639333Y-58888381D01*
X98020286Y-58888381D01*
X98115524Y-58936000D01*
X98163143Y-58983619D01*
X98210762Y-59078857D01*
X98210762Y-59221714D01*
X98163143Y-59316952D01*
X98115524Y-59364571D01*
X98020286Y-59412190D01*
X97639333Y-59412190D01*
X98496476Y-58888381D02*
X98829809Y-59888381D01*
X99163143Y-58888381D01*
X100020286Y-59888381D02*
X99448857Y-59888381D01*
X99734571Y-59888381D02*
X99734571Y-58888381D01*
X99639333Y-59031238D01*
X99544095Y-59126476D01*
X99448857Y-59174095D01*
X63797804Y-76813300D02*
X64370224Y-77385720D01*
X64471239Y-77419392D01*
X64538582Y-77419392D01*
X64639597Y-77385720D01*
X64774285Y-77251032D01*
X64807957Y-77150017D01*
X64807957Y-77082674D01*
X64774285Y-76981659D01*
X64201865Y-76409239D01*
X65616079Y-76409239D02*
X65212017Y-76813300D01*
X65414048Y-76611270D02*
X64706941Y-75904163D01*
X64740613Y-76072522D01*
X64740613Y-76207208D01*
X64706941Y-76308224D01*
X78740095Y-63968381D02*
X78740095Y-64777905D01*
X78787714Y-64873143D01*
X78835333Y-64920762D01*
X78930571Y-64968381D01*
X79121048Y-64968381D01*
X79216286Y-64920762D01*
X79263905Y-64873143D01*
X79311524Y-64777905D01*
X79311524Y-63968381D01*
X79740095Y-64063619D02*
X79787714Y-64016000D01*
X79882952Y-63968381D01*
X80121048Y-63968381D01*
X80216286Y-64016000D01*
X80263905Y-64063619D01*
X80311524Y-64158857D01*
X80311524Y-64254095D01*
X80263905Y-64396952D01*
X79692476Y-64968381D01*
X80311524Y-64968381D01*
X54356095Y-58888381D02*
X54356095Y-59697905D01*
X54403714Y-59793143D01*
X54451333Y-59840762D01*
X54546571Y-59888381D01*
X54737048Y-59888381D01*
X54832286Y-59840762D01*
X54879905Y-59793143D01*
X54927524Y-59697905D01*
X54927524Y-58888381D01*
X55832286Y-59221714D02*
X55832286Y-59888381D01*
X55594190Y-58840762D02*
X55356095Y-59555048D01*
X55975143Y-59555048D01*
X42164095Y-104354381D02*
X42164095Y-105163905D01*
X42211714Y-105259143D01*
X42259333Y-105306762D01*
X42354571Y-105354381D01*
X42545048Y-105354381D01*
X42640286Y-105306762D01*
X42687905Y-105259143D01*
X42735524Y-105163905D01*
X42735524Y-104354381D01*
X43687905Y-104354381D02*
X43211714Y-104354381D01*
X43164095Y-104830571D01*
X43211714Y-104782952D01*
X43306952Y-104735333D01*
X43545048Y-104735333D01*
X43640286Y-104782952D01*
X43687905Y-104830571D01*
X43735524Y-104925810D01*
X43735524Y-105163905D01*
X43687905Y-105259143D01*
X43640286Y-105306762D01*
X43545048Y-105354381D01*
X43306952Y-105354381D01*
X43211714Y-105306762D01*
X43164095Y-105259143D01*
X38862095Y-86066381D02*
X38862095Y-86875905D01*
X38909714Y-86971143D01*
X38957333Y-87018762D01*
X39052571Y-87066381D01*
X39243048Y-87066381D01*
X39338286Y-87018762D01*
X39385905Y-86971143D01*
X39433524Y-86875905D01*
X39433524Y-86066381D01*
X40338286Y-86066381D02*
X40147809Y-86066381D01*
X40052571Y-86114000D01*
X40004952Y-86161619D01*
X39909714Y-86304476D01*
X39862095Y-86494952D01*
X39862095Y-86875905D01*
X39909714Y-86971143D01*
X39957333Y-87018762D01*
X40052571Y-87066381D01*
X40243048Y-87066381D01*
X40338286Y-87018762D01*
X40385905Y-86971143D01*
X40433524Y-86875905D01*
X40433524Y-86637810D01*
X40385905Y-86542571D01*
X40338286Y-86494952D01*
X40243048Y-86447333D01*
X40052571Y-86447333D01*
X39957333Y-86494952D01*
X39909714Y-86542571D01*
X39862095Y-86637810D01*
X58420095Y-100290381D02*
X58420095Y-101099905D01*
X58467714Y-101195143D01*
X58515333Y-101242762D01*
X58610571Y-101290381D01*
X58801048Y-101290381D01*
X58896286Y-101242762D01*
X58943905Y-101195143D01*
X58991524Y-101099905D01*
X58991524Y-100290381D01*
X59372476Y-100290381D02*
X60039143Y-100290381D01*
X59610571Y-101290381D01*
X86614095Y-94702381D02*
X86614095Y-95511905D01*
X86661714Y-95607143D01*
X86709333Y-95654762D01*
X86804571Y-95702381D01*
X86995048Y-95702381D01*
X87090286Y-95654762D01*
X87137905Y-95607143D01*
X87185524Y-95511905D01*
X87185524Y-94702381D01*
X87804571Y-95130952D02*
X87709333Y-95083333D01*
X87661714Y-95035714D01*
X87614095Y-94940476D01*
X87614095Y-94892857D01*
X87661714Y-94797619D01*
X87709333Y-94750000D01*
X87804571Y-94702381D01*
X87995048Y-94702381D01*
X88090286Y-94750000D01*
X88137905Y-94797619D01*
X88185524Y-94892857D01*
X88185524Y-94940476D01*
X88137905Y-95035714D01*
X88090286Y-95083333D01*
X87995048Y-95130952D01*
X87804571Y-95130952D01*
X87709333Y-95178571D01*
X87661714Y-95226190D01*
X87614095Y-95321429D01*
X87614095Y-95511905D01*
X87661714Y-95607143D01*
X87709333Y-95654762D01*
X87804571Y-95702381D01*
X87995048Y-95702381D01*
X88090286Y-95654762D01*
X88137905Y-95607143D01*
X88185524Y-95511905D01*
X88185524Y-95321429D01*
X88137905Y-95226190D01*
X88090286Y-95178571D01*
X87995048Y-95130952D01*
X87407809Y-67032190D02*
X87407809Y-67508381D01*
X87074476Y-66508381D02*
X87407809Y-67032190D01*
X87741143Y-66508381D01*
X88026857Y-66603619D02*
X88074476Y-66556000D01*
X88169714Y-66508381D01*
X88407810Y-66508381D01*
X88503048Y-66556000D01*
X88550667Y-66603619D01*
X88598286Y-66698857D01*
X88598286Y-66794095D01*
X88550667Y-66936952D01*
X87979238Y-67508381D01*
X88598286Y-67508381D01*
X65563809Y-107926190D02*
X65563809Y-108402381D01*
X65230476Y-107402381D02*
X65563809Y-107926190D01*
X65897143Y-107402381D01*
X66135238Y-107402381D02*
X66754286Y-107402381D01*
X66420952Y-107783333D01*
X66563810Y-107783333D01*
X66659048Y-107830952D01*
X66706667Y-107878571D01*
X66754286Y-107973810D01*
X66754286Y-108211905D01*
X66706667Y-108307143D01*
X66659048Y-108354762D01*
X66563810Y-108402381D01*
X66278095Y-108402381D01*
X66182857Y-108354762D01*
X66135238Y-108307143D01*
X71461334Y-91035143D02*
X71413715Y-91082762D01*
X71270858Y-91130381D01*
X71175620Y-91130381D01*
X71032762Y-91082762D01*
X70937524Y-90987524D01*
X70889905Y-90892286D01*
X70842286Y-90701810D01*
X70842286Y-90558952D01*
X70889905Y-90368476D01*
X70937524Y-90273238D01*
X71032762Y-90178000D01*
X71175620Y-90130381D01*
X71270858Y-90130381D01*
X71413715Y-90178000D01*
X71461334Y-90225619D01*
X71794667Y-90130381D02*
X72413715Y-90130381D01*
X72080381Y-90511333D01*
X72223239Y-90511333D01*
X72318477Y-90558952D01*
X72366096Y-90606571D01*
X72413715Y-90701810D01*
X72413715Y-90939905D01*
X72366096Y-91035143D01*
X72318477Y-91082762D01*
X72223239Y-91130381D01*
X71937524Y-91130381D01*
X71842286Y-91082762D01*
X71794667Y-91035143D01*
X33230381Y-70945333D02*
X33944667Y-70945333D01*
X34087524Y-70992953D01*
X34182762Y-71088191D01*
X34230381Y-71231048D01*
X34230381Y-71326286D01*
X34230381Y-69945333D02*
X34230381Y-70516762D01*
X34230381Y-70231048D02*
X33230381Y-70231048D01*
X33373238Y-70326286D01*
X33468476Y-70421524D01*
X33516095Y-70516762D01*
X20582000Y-73373904D02*
X20534381Y-73469142D01*
X20534381Y-73611999D01*
X20582000Y-73754857D01*
X20677238Y-73850095D01*
X20772476Y-73897714D01*
X20962952Y-73945333D01*
X21105810Y-73945333D01*
X21296286Y-73897714D01*
X21391524Y-73850095D01*
X21486762Y-73754857D01*
X21534381Y-73611999D01*
X21534381Y-73516761D01*
X21486762Y-73373904D01*
X21439143Y-73326285D01*
X21105810Y-73326285D01*
X21105810Y-73516761D01*
X21534381Y-72897714D02*
X20534381Y-72897714D01*
X21534381Y-72326285D01*
X20534381Y-72326285D01*
X21534381Y-71850095D02*
X20534381Y-71850095D01*
X20534381Y-71612000D01*
X20582000Y-71469142D01*
X20677238Y-71373904D01*
X20772476Y-71326285D01*
X20962952Y-71278666D01*
X21105810Y-71278666D01*
X21296286Y-71326285D01*
X21391524Y-71373904D01*
X21486762Y-71469142D01*
X21534381Y-71612000D01*
X21534381Y-71850095D01*
X21153429Y-70850095D02*
X21153429Y-70088190D01*
X20629619Y-69659619D02*
X20582000Y-69612000D01*
X20534381Y-69516762D01*
X20534381Y-69278666D01*
X20582000Y-69183428D01*
X20629619Y-69135809D01*
X20724857Y-69088190D01*
X20820095Y-69088190D01*
X20962952Y-69135809D01*
X21534381Y-69707238D01*
X21534381Y-69088190D01*
X20867714Y-68231047D02*
X21534381Y-68231047D01*
X20486762Y-68469143D02*
X21201048Y-68707238D01*
X21201048Y-68088190D01*
X20534381Y-67850095D02*
X21534381Y-67516762D01*
X20534381Y-67183428D01*
X85113905Y-79573381D02*
X85113905Y-78573381D01*
X85352000Y-78573381D01*
X85494858Y-78621000D01*
X85590096Y-78716238D01*
X85637715Y-78811476D01*
X85685334Y-79001952D01*
X85685334Y-79144810D01*
X85637715Y-79335286D01*
X85590096Y-79430524D01*
X85494858Y-79525762D01*
X85352000Y-79573381D01*
X85113905Y-79573381D01*
X86256762Y-79001952D02*
X86161524Y-78954333D01*
X86113905Y-78906714D01*
X86066286Y-78811476D01*
X86066286Y-78763857D01*
X86113905Y-78668619D01*
X86161524Y-78621000D01*
X86256762Y-78573381D01*
X86447239Y-78573381D01*
X86542477Y-78621000D01*
X86590096Y-78668619D01*
X86637715Y-78763857D01*
X86637715Y-78811476D01*
X86590096Y-78906714D01*
X86542477Y-78954333D01*
X86447239Y-79001952D01*
X86256762Y-79001952D01*
X86161524Y-79049571D01*
X86113905Y-79097190D01*
X86066286Y-79192429D01*
X86066286Y-79382905D01*
X86113905Y-79478143D01*
X86161524Y-79525762D01*
X86256762Y-79573381D01*
X86447239Y-79573381D01*
X86542477Y-79525762D01*
X86590096Y-79478143D01*
X86637715Y-79382905D01*
X86637715Y-79192429D01*
X86590096Y-79097190D01*
X86542477Y-79049571D01*
X86447239Y-79001952D01*
X85113905Y-83025241D02*
X84780571Y-82549050D01*
X84542476Y-83025241D02*
X84542476Y-82025241D01*
X84923429Y-82025241D01*
X85018667Y-82072860D01*
X85066286Y-82120479D01*
X85113905Y-82215717D01*
X85113905Y-82358574D01*
X85066286Y-82453812D01*
X85018667Y-82501431D01*
X84923429Y-82549050D01*
X84542476Y-82549050D01*
X85542476Y-82025241D02*
X85542476Y-82834765D01*
X85590095Y-82930003D01*
X85637714Y-82977622D01*
X85732952Y-83025241D01*
X85923429Y-83025241D01*
X86018667Y-82977622D01*
X86066286Y-82930003D01*
X86113905Y-82834765D01*
X86113905Y-82025241D01*
X86590095Y-83025241D02*
X86590095Y-82025241D01*
X87161524Y-83025241D01*
X87161524Y-82025241D01*
X79367143Y-79446381D02*
X79033809Y-78970190D01*
X78795714Y-79446381D02*
X78795714Y-78446381D01*
X79176667Y-78446381D01*
X79271905Y-78494000D01*
X79319524Y-78541619D01*
X79367143Y-78636857D01*
X79367143Y-78779714D01*
X79319524Y-78874952D01*
X79271905Y-78922571D01*
X79176667Y-78970190D01*
X78795714Y-78970190D01*
X79748095Y-78541619D02*
X79795714Y-78494000D01*
X79890952Y-78446381D01*
X80129048Y-78446381D01*
X80224286Y-78494000D01*
X80271905Y-78541619D01*
X80319524Y-78636857D01*
X80319524Y-78732095D01*
X80271905Y-78874952D01*
X79700476Y-79446381D01*
X80319524Y-79446381D01*
X81271905Y-79446381D02*
X80700476Y-79446381D01*
X80986190Y-79446381D02*
X80986190Y-78446381D01*
X80890952Y-78589238D01*
X80795714Y-78684476D01*
X80700476Y-78732095D01*
X28313143Y-94311743D02*
X28265524Y-94359362D01*
X28122667Y-94406981D01*
X28027429Y-94406981D01*
X27884571Y-94359362D01*
X27789333Y-94264124D01*
X27741714Y-94168886D01*
X27694095Y-93978410D01*
X27694095Y-93835552D01*
X27741714Y-93645076D01*
X27789333Y-93549838D01*
X27884571Y-93454600D01*
X28027429Y-93406981D01*
X28122667Y-93406981D01*
X28265524Y-93454600D01*
X28313143Y-93502219D01*
X29265524Y-94406981D02*
X28694095Y-94406981D01*
X28979809Y-94406981D02*
X28979809Y-93406981D01*
X28884571Y-93549838D01*
X28789333Y-93645076D01*
X28694095Y-93692695D01*
X29836952Y-93835552D02*
X29741714Y-93787933D01*
X29694095Y-93740314D01*
X29646476Y-93645076D01*
X29646476Y-93597457D01*
X29694095Y-93502219D01*
X29741714Y-93454600D01*
X29836952Y-93406981D01*
X30027429Y-93406981D01*
X30122667Y-93454600D01*
X30170286Y-93502219D01*
X30217905Y-93597457D01*
X30217905Y-93645076D01*
X30170286Y-93740314D01*
X30122667Y-93787933D01*
X30027429Y-93835552D01*
X29836952Y-93835552D01*
X29741714Y-93883171D01*
X29694095Y-93930790D01*
X29646476Y-94026029D01*
X29646476Y-94216505D01*
X29694095Y-94311743D01*
X29741714Y-94359362D01*
X29836952Y-94406981D01*
X30027429Y-94406981D01*
X30122667Y-94359362D01*
X30170286Y-94311743D01*
X30217905Y-94216505D01*
X30217905Y-94026029D01*
X30170286Y-93930790D01*
X30122667Y-93883171D01*
X30027429Y-93835552D01*
X26281143Y-80863143D02*
X26233524Y-80910762D01*
X26090667Y-80958381D01*
X25995429Y-80958381D01*
X25852571Y-80910762D01*
X25757333Y-80815524D01*
X25709714Y-80720286D01*
X25662095Y-80529810D01*
X25662095Y-80386952D01*
X25709714Y-80196476D01*
X25757333Y-80101238D01*
X25852571Y-80006000D01*
X25995429Y-79958381D01*
X26090667Y-79958381D01*
X26233524Y-80006000D01*
X26281143Y-80053619D01*
X27233524Y-80958381D02*
X26662095Y-80958381D01*
X26947809Y-80958381D02*
X26947809Y-79958381D01*
X26852571Y-80101238D01*
X26757333Y-80196476D01*
X26662095Y-80244095D01*
X27709714Y-80958381D02*
X27900190Y-80958381D01*
X27995429Y-80910762D01*
X28043048Y-80863143D01*
X28138286Y-80720286D01*
X28185905Y-80529810D01*
X28185905Y-80148857D01*
X28138286Y-80053619D01*
X28090667Y-80006000D01*
X27995429Y-79958381D01*
X27804952Y-79958381D01*
X27709714Y-80006000D01*
X27662095Y-80053619D01*
X27614476Y-80148857D01*
X27614476Y-80386952D01*
X27662095Y-80482190D01*
X27709714Y-80529810D01*
X27804952Y-80577429D01*
X27995429Y-80577429D01*
X28090667Y-80529810D01*
X28138286Y-80482190D01*
X28185905Y-80386952D01*
X26873295Y-100620581D02*
X26873295Y-101430105D01*
X26920914Y-101525343D01*
X26968533Y-101572962D01*
X27063771Y-101620581D01*
X27254248Y-101620581D01*
X27349486Y-101572962D01*
X27397105Y-101525343D01*
X27444724Y-101430105D01*
X27444724Y-100620581D01*
X27968533Y-101620581D02*
X28159009Y-101620581D01*
X28254248Y-101572962D01*
X28301867Y-101525343D01*
X28397105Y-101382486D01*
X28444724Y-101192010D01*
X28444724Y-100811057D01*
X28397105Y-100715819D01*
X28349486Y-100668200D01*
X28254248Y-100620581D01*
X28063771Y-100620581D01*
X27968533Y-100668200D01*
X27920914Y-100715819D01*
X27873295Y-100811057D01*
X27873295Y-101049152D01*
X27920914Y-101144390D01*
X27968533Y-101192010D01*
X28063771Y-101239629D01*
X28254248Y-101239629D01*
X28349486Y-101192010D01*
X28397105Y-101144390D01*
X28444724Y-101049152D01*
X117094095Y-64222381D02*
X117094095Y-65031905D01*
X117141714Y-65127143D01*
X117189333Y-65174762D01*
X117284571Y-65222381D01*
X117475048Y-65222381D01*
X117570286Y-65174762D01*
X117617905Y-65127143D01*
X117665524Y-65031905D01*
X117665524Y-64222381D01*
X118046476Y-64222381D02*
X118665524Y-64222381D01*
X118332190Y-64603333D01*
X118475048Y-64603333D01*
X118570286Y-64650952D01*
X118617905Y-64698571D01*
X118665524Y-64793810D01*
X118665524Y-65031905D01*
X118617905Y-65127143D01*
X118570286Y-65174762D01*
X118475048Y-65222381D01*
X118189333Y-65222381D01*
X118094095Y-65174762D01*
X118046476Y-65127143D01*
M02*
