G04 #@! TF.FileFunction,Soldermask,Top*
%FSLAX46Y46*%
G04 Gerber Fmt 4.6, Leading zero omitted, Abs format (unit mm)*
G04 Created by KiCad (PCBNEW 4.0.6) date 07/04/17 13:53:13*
%MOMM*%
%LPD*%
G01*
G04 APERTURE LIST*
%ADD10C,0.100000*%
%ADD11C,3.399740*%
%ADD12R,3.397200X3.397200*%
%ADD13R,2.200000X2.200000*%
%ADD14C,2.200000*%
%ADD15R,1.700480X1.898600*%
%ADD16R,2.500580X2.099260*%
%ADD17R,2.099260X2.500580*%
%ADD18R,1.598880X1.598880*%
%ADD19C,3.900000*%
%ADD20O,1.900000X2.600000*%
%ADD21C,2.900000*%
%ADD22R,1.924000X2.398980*%
%ADD23O,1.924000X2.398980*%
%ADD24R,0.999440X1.400760*%
%ADD25R,1.898600X1.700480*%
%ADD26R,1.200100X0.999440*%
%ADD27R,1.101040X1.499820*%
%ADD28R,2.398980X0.999440*%
%ADD29C,1.924000*%
%ADD30R,0.999440X2.398980*%
%ADD31R,1.830020X0.951180*%
%ADD32O,0.900000X0.900000*%
%ADD33R,2.400000X2.400000*%
%ADD34R,5.899100X2.398980*%
%ADD35R,1.900000X1.900000*%
%ADD36C,1.900000*%
%ADD37R,1.700480X2.200860*%
%ADD38R,4.199840X2.200860*%
%ADD39R,2.200860X4.601160*%
%ADD40R,10.399980X9.899600*%
G04 APERTURE END LIST*
D10*
D11*
X87122000Y-85039200D03*
D12*
X87122000Y-64541400D03*
D13*
X40894000Y-64556000D03*
D14*
X40894000Y-69556000D03*
D15*
X106362500Y-61976000D03*
X104457500Y-61976000D03*
D13*
X100838000Y-67592000D03*
D14*
X100838000Y-71092000D03*
D15*
X46418500Y-98806000D03*
X44513500Y-98806000D03*
X63182500Y-109220000D03*
X61277500Y-109220000D03*
X39433500Y-98806000D03*
X41338500Y-98806000D03*
X55181500Y-109220000D03*
X57086500Y-109220000D03*
D16*
X30939740Y-62738000D03*
X27480260Y-62738000D03*
D17*
X104394000Y-93774260D03*
X104394000Y-97233740D03*
D18*
X22318980Y-30226000D03*
X24417020Y-30226000D03*
X112047020Y-82804000D03*
X109948980Y-82804000D03*
X50325020Y-83058000D03*
X48226980Y-83058000D03*
X50071020Y-77470000D03*
X47972980Y-77470000D03*
X50071020Y-71882000D03*
X47972980Y-71882000D03*
D19*
X107700000Y-55700000D03*
X32300000Y-55700000D03*
X32300000Y-24300000D03*
X107700000Y-24300000D03*
D20*
X102000000Y-55500000D03*
X99460000Y-55500000D03*
X96920000Y-55500000D03*
X94380000Y-55500000D03*
X91840000Y-55500000D03*
X89300000Y-55500000D03*
X86760000Y-55500000D03*
X84220000Y-55500000D03*
X81680000Y-55500000D03*
X79140000Y-55500000D03*
X76600000Y-55500000D03*
X74060000Y-55500000D03*
X71520000Y-55500000D03*
X68980000Y-55500000D03*
X66440000Y-55500000D03*
X63900000Y-55500000D03*
D21*
X102496000Y-112776000D03*
X97496000Y-112776000D03*
X87496000Y-112776000D03*
X92496000Y-112776000D03*
D22*
X63246000Y-65780920D03*
D23*
X63246000Y-62743080D03*
X65786000Y-65780920D03*
X65786000Y-62743080D03*
X68326000Y-65780920D03*
X68326000Y-62743080D03*
D21*
X40680000Y-112268000D03*
X45680000Y-112268000D03*
D24*
X105346500Y-88859360D03*
X104394000Y-90972640D03*
X103441500Y-88859360D03*
X88582500Y-90891360D03*
X87630000Y-93004640D03*
X86677500Y-90891360D03*
D25*
X76454000Y-63690500D03*
X76454000Y-61785500D03*
X74168000Y-63690500D03*
X74168000Y-61785500D03*
D15*
X103441500Y-85598000D03*
X105346500Y-85598000D03*
D25*
X101092000Y-90868500D03*
X101092000Y-88963500D03*
X22352000Y-33337500D03*
X22352000Y-35242500D03*
X116586000Y-87439500D03*
X116586000Y-89344500D03*
X46482000Y-101409500D03*
X46482000Y-103314500D03*
X39370000Y-101409500D03*
X39370000Y-103314500D03*
X90932000Y-92392500D03*
X90932000Y-90487500D03*
X84328000Y-92900500D03*
X84328000Y-90995500D03*
D15*
X52641500Y-83058000D03*
X54546500Y-83058000D03*
D25*
X94996000Y-92392500D03*
X94996000Y-90487500D03*
X92964000Y-90487500D03*
X92964000Y-92392500D03*
D15*
X52641500Y-77470000D03*
X54546500Y-77470000D03*
X52641500Y-71882000D03*
X54546500Y-71882000D03*
X45910500Y-94234000D03*
X44005500Y-94234000D03*
D25*
X86106000Y-105600500D03*
X86106000Y-103695500D03*
D15*
X90106500Y-105918000D03*
X88201500Y-105918000D03*
D25*
X92456000Y-103949500D03*
X92456000Y-105854500D03*
D14*
X110998000Y-99568000D03*
X110998000Y-94488000D03*
X110998000Y-89408000D03*
X110998000Y-104648000D03*
D26*
X100106480Y-62118240D03*
D27*
X97607120Y-61468000D03*
D26*
X100106480Y-60817760D03*
D10*
G36*
X62650235Y-73351690D02*
X63852656Y-74554111D01*
X63180071Y-75226696D01*
X61977650Y-74024275D01*
X62650235Y-73351690D01*
X62650235Y-73351690D01*
G37*
G36*
X62086275Y-73915650D02*
X63288696Y-75118071D01*
X62616111Y-75790656D01*
X61413690Y-74588235D01*
X62086275Y-73915650D01*
X62086275Y-73915650D01*
G37*
G36*
X61520519Y-74481407D02*
X62722940Y-75683828D01*
X62050355Y-76356413D01*
X60847934Y-75153992D01*
X61520519Y-74481407D01*
X61520519Y-74481407D01*
G37*
G36*
X60954763Y-75047163D02*
X62157184Y-76249584D01*
X61484599Y-76922169D01*
X60282178Y-75719748D01*
X60954763Y-75047163D01*
X60954763Y-75047163D01*
G37*
G36*
X60389007Y-75612919D02*
X61591428Y-76815340D01*
X60918843Y-77487925D01*
X59716422Y-76285504D01*
X60389007Y-75612919D01*
X60389007Y-75612919D01*
G37*
G36*
X64347504Y-71654422D02*
X65549925Y-72856843D01*
X64877340Y-73529428D01*
X63674919Y-72327007D01*
X64347504Y-71654422D01*
X64347504Y-71654422D01*
G37*
G36*
X63781748Y-72220178D02*
X64984169Y-73422599D01*
X64311584Y-74095184D01*
X63109163Y-72892763D01*
X63781748Y-72220178D01*
X63781748Y-72220178D01*
G37*
G36*
X63215992Y-72785934D02*
X64418413Y-73988355D01*
X63745828Y-74660940D01*
X62543407Y-73458519D01*
X63215992Y-72785934D01*
X63215992Y-72785934D01*
G37*
G36*
X60918843Y-77452075D02*
X61591428Y-78124660D01*
X60389007Y-79327081D01*
X59716422Y-78654496D01*
X60918843Y-77452075D01*
X60918843Y-77452075D01*
G37*
G36*
X61484599Y-78017831D02*
X62157184Y-78690416D01*
X60954763Y-79892837D01*
X60282178Y-79220252D01*
X61484599Y-78017831D01*
X61484599Y-78017831D01*
G37*
G36*
X62050355Y-78583587D02*
X62722940Y-79256172D01*
X61520519Y-80458593D01*
X60847934Y-79786008D01*
X62050355Y-78583587D01*
X62050355Y-78583587D01*
G37*
G36*
X62616111Y-79149344D02*
X63288696Y-79821929D01*
X62086275Y-81024350D01*
X61413690Y-80351765D01*
X62616111Y-79149344D01*
X62616111Y-79149344D01*
G37*
G36*
X63180071Y-79713304D02*
X63852656Y-80385889D01*
X62650235Y-81588310D01*
X61977650Y-80915725D01*
X63180071Y-79713304D01*
X63180071Y-79713304D01*
G37*
G36*
X63745828Y-80279060D02*
X64418413Y-80951645D01*
X63215992Y-82154066D01*
X62543407Y-81481481D01*
X63745828Y-80279060D01*
X63745828Y-80279060D01*
G37*
G36*
X64311584Y-80844816D02*
X64984169Y-81517401D01*
X63781748Y-82719822D01*
X63109163Y-82047237D01*
X64311584Y-80844816D01*
X64311584Y-80844816D01*
G37*
G36*
X64877340Y-81410572D02*
X65549925Y-82083157D01*
X64347504Y-83285578D01*
X63674919Y-82612993D01*
X64877340Y-81410572D01*
X64877340Y-81410572D01*
G37*
G36*
X66186660Y-81410572D02*
X67389081Y-82612993D01*
X66716496Y-83285578D01*
X65514075Y-82083157D01*
X66186660Y-81410572D01*
X66186660Y-81410572D01*
G37*
G36*
X66752416Y-80844816D02*
X67954837Y-82047237D01*
X67282252Y-82719822D01*
X66079831Y-81517401D01*
X66752416Y-80844816D01*
X66752416Y-80844816D01*
G37*
G36*
X67318172Y-80279060D02*
X68520593Y-81481481D01*
X67848008Y-82154066D01*
X66645587Y-80951645D01*
X67318172Y-80279060D01*
X67318172Y-80279060D01*
G37*
G36*
X67883929Y-79713304D02*
X69086350Y-80915725D01*
X68413765Y-81588310D01*
X67211344Y-80385889D01*
X67883929Y-79713304D01*
X67883929Y-79713304D01*
G37*
G36*
X68447889Y-79149344D02*
X69650310Y-80351765D01*
X68977725Y-81024350D01*
X67775304Y-79821929D01*
X68447889Y-79149344D01*
X68447889Y-79149344D01*
G37*
G36*
X69013645Y-78583587D02*
X70216066Y-79786008D01*
X69543481Y-80458593D01*
X68341060Y-79256172D01*
X69013645Y-78583587D01*
X69013645Y-78583587D01*
G37*
G36*
X69579401Y-78017831D02*
X70781822Y-79220252D01*
X70109237Y-79892837D01*
X68906816Y-78690416D01*
X69579401Y-78017831D01*
X69579401Y-78017831D01*
G37*
G36*
X70145157Y-77452075D02*
X71347578Y-78654496D01*
X70674993Y-79327081D01*
X69472572Y-78124660D01*
X70145157Y-77452075D01*
X70145157Y-77452075D01*
G37*
G36*
X70674993Y-75612919D02*
X71347578Y-76285504D01*
X70145157Y-77487925D01*
X69472572Y-76815340D01*
X70674993Y-75612919D01*
X70674993Y-75612919D01*
G37*
G36*
X70109237Y-75047163D02*
X70781822Y-75719748D01*
X69579401Y-76922169D01*
X68906816Y-76249584D01*
X70109237Y-75047163D01*
X70109237Y-75047163D01*
G37*
G36*
X69543481Y-74481407D02*
X70216066Y-75153992D01*
X69013645Y-76356413D01*
X68341060Y-75683828D01*
X69543481Y-74481407D01*
X69543481Y-74481407D01*
G37*
G36*
X68977725Y-73915650D02*
X69650310Y-74588235D01*
X68447889Y-75790656D01*
X67775304Y-75118071D01*
X68977725Y-73915650D01*
X68977725Y-73915650D01*
G37*
G36*
X68413765Y-73351690D02*
X69086350Y-74024275D01*
X67883929Y-75226696D01*
X67211344Y-74554111D01*
X68413765Y-73351690D01*
X68413765Y-73351690D01*
G37*
G36*
X67848008Y-72785934D02*
X68520593Y-73458519D01*
X67318172Y-74660940D01*
X66645587Y-73988355D01*
X67848008Y-72785934D01*
X67848008Y-72785934D01*
G37*
G36*
X67282252Y-72220178D02*
X67954837Y-72892763D01*
X66752416Y-74095184D01*
X66079831Y-73422599D01*
X67282252Y-72220178D01*
X67282252Y-72220178D01*
G37*
G36*
X66716496Y-71654422D02*
X67389081Y-72327007D01*
X66186660Y-73529428D01*
X65514075Y-72856843D01*
X66716496Y-71654422D01*
X66716496Y-71654422D01*
G37*
D28*
X82296000Y-69977000D03*
X82296000Y-68707000D03*
X82296000Y-67437000D03*
X82296000Y-66167000D03*
X76708000Y-66167000D03*
X76708000Y-67437000D03*
X76708000Y-68707000D03*
X76708000Y-69977000D03*
D29*
X57618000Y-66962000D03*
X55118000Y-66962000D03*
X52618000Y-66962000D03*
X57618000Y-61562000D03*
X55118000Y-61562000D03*
X52618000Y-61562000D03*
D24*
X43878500Y-101305360D03*
X42926000Y-103418640D03*
X41973500Y-101305360D03*
D30*
X41529000Y-88900000D03*
X40259000Y-88900000D03*
X38989000Y-88900000D03*
X37719000Y-88900000D03*
X37719000Y-94488000D03*
X38989000Y-94488000D03*
X40259000Y-94488000D03*
X41529000Y-94488000D03*
D31*
X54371240Y-88646000D03*
X54371240Y-89916000D03*
X54371240Y-91186000D03*
X54371240Y-92456000D03*
X54371240Y-93726000D03*
X54371240Y-94996000D03*
X54371240Y-96266000D03*
X54371240Y-97536000D03*
X54371240Y-98806000D03*
X63992760Y-98806000D03*
X63992760Y-97536000D03*
X63992760Y-96266000D03*
X63992760Y-94996000D03*
X63992760Y-93726000D03*
X63992760Y-92456000D03*
X63992760Y-91186000D03*
X63992760Y-89916000D03*
X63992760Y-88646000D03*
D28*
X84582000Y-96647000D03*
X84582000Y-97917000D03*
X84582000Y-99187000D03*
X84582000Y-100457000D03*
X90170000Y-100457000D03*
X90170000Y-99187000D03*
X90170000Y-97917000D03*
X90170000Y-96647000D03*
D32*
X84714000Y-69692000D03*
X84714000Y-68992000D03*
D33*
X91184000Y-69342000D03*
D34*
X63423800Y-104902000D03*
X53924200Y-104902000D03*
D35*
X70628000Y-86614000D03*
D36*
X72628000Y-86614000D03*
D21*
X27178000Y-68112000D03*
X27178000Y-73112000D03*
D18*
X84802980Y-80772000D03*
X86901020Y-80772000D03*
D15*
X80962500Y-80772000D03*
X79057500Y-80772000D03*
X28003500Y-92964000D03*
X29908500Y-92964000D03*
D13*
X26924000Y-87856000D03*
D14*
X26924000Y-84356000D03*
D37*
X29987240Y-97330260D03*
X27686000Y-97330260D03*
X25384760Y-97330260D03*
D38*
X27686000Y-103329740D03*
D39*
X114767360Y-64086740D03*
X109768640Y-64086740D03*
D40*
X112268000Y-74089260D03*
M02*
